<?xml version="1.0" encoding="UTF-8"?>
<svg version="1.1" xmlns="http://www.w3.org/2000/svg" width="1200" height="630">
<path d="M0 0 C396 0 792 0 1200 0 C1200 207.9 1200 415.8 1200 630 C804 630 408 630 0 630 C0 422.1 0 214.2 0 0 Z " fill="#FEFEFE" transform="translate(0,0)"/>
<path d="M0 0 C7.03495186 5.36311624 10.01333682 11.90229377 12.48828125 20.24609375 C13.01880023 22.61110374 13.01880023 22.61110374 14.25 23.6875 C14.59294666 30.0824465 14.39544072 36.38757602 13.25 42.6875 C12.59 42.6875 11.93 42.6875 11.25 42.6875 C11.05327635 44.41564161 10.86803201 46.14509197 10.6875 47.875 C10.58308594 48.83792969 10.47867187 49.80085938 10.37109375 50.79296875 C10.25241249 53.62983377 10.57234361 55.94173671 11.25 58.6875 C11.91 58.6875 12.57 58.6875 13.25 58.6875 C13.65992188 59.83734375 14.06984375 60.9871875 14.4921875 62.171875 C16.15122457 66.59727353 18.20007363 70.74698252 20.375 74.9375 C21.08973955 76.31574328 21.80081059 77.69589655 22.5078125 79.078125 C22.8186377 79.67657227 23.12946289 80.27501953 23.44970703 80.89160156 C24.29957488 82.79874857 24.80130425 84.65184411 25.25 86.6875 C25.95125 86.48253906 26.6525 86.27757812 27.375 86.06640625 C28.32375 85.79699219 29.2725 85.52757812 30.25 85.25 C31.178125 84.98316406 32.10625 84.71632813 33.0625 84.44140625 C53.36618421 79.63918682 73.48133256 82.14190619 91.71875 91.84765625 C94.53652664 93.31576775 97.27689748 94.58402156 100.25 95.6875 C100.33378906 95.15640625 100.41757813 94.6253125 100.50390625 94.078125 C101.5287853 90.79421935 103.28011125 88.29340938 105.1875 85.4375 C106.25291016 83.82101562 106.25291016 83.82101562 107.33984375 82.171875 C107.97019531 81.35203125 108.60054687 80.5321875 109.25 79.6875 C109.91 79.6875 110.57 79.6875 111.25 79.6875 C111.394375 79.06875 111.53875 78.45 111.6875 77.8125 C112.25 75.6875 112.25 75.6875 113.25 73.6875 C114.9 73.6875 116.55 73.6875 118.25 73.6875 C117.83277442 78.13790618 115.91402871 81.08948656 113.50390625 84.72265625 C112.19974318 86.67598168 112.19974318 86.67598168 111.21484375 88.87109375 C110.25 90.6875 110.25 90.6875 108.25 91.6875 C107.92 92.6775 107.59 93.6675 107.25 94.6875 C106.59 94.6875 105.93 94.6875 105.25 94.6875 C104.92 96.3375 104.59 97.9875 104.25 99.6875 C105.260625 100.491875 106.27125 101.29625 107.3125 102.125 C113.70105116 107.60829087 118.29282488 114.31896701 122.25 121.6875 C122.889375 122.698125 123.52875 123.70875 124.1875 124.75 C130.46959364 135.94851475 132.11755464 147.12765145 133.25 159.6875 C146.615 161.1725 146.615 161.1725 160.25 162.6875 C160.58 164.0075 160.91 165.3275 161.25 166.6875 C151.68 166.3575 142.11 166.0275 132.25 165.6875 C132.25 168.6575 132.25 171.6275 132.25 174.6875 C131.8125 177.75390625 131.8125 177.75390625 131.25 180.25 C131.064375 181.09691406 130.87875 181.94382812 130.6875 182.81640625 C130.543125 183.43386719 130.39875 184.05132812 130.25 184.6875 C129.59 184.6875 128.93 184.6875 128.25 184.6875 C128.146875 185.739375 128.04375 186.79125 127.9375 187.875 C127.25784879 191.64397488 126.31718947 193.545372 124.25 196.6875 C123.98445313 197.43 123.71890625 198.1725 123.4453125 198.9375 C121.95430921 202.36778209 119.85801192 205.14365811 117.5625 208.0625 C116.89093872 208.92294922 116.89093872 208.92294922 116.20581055 209.80078125 C110.92932176 216.47418237 105.41907799 222.04868483 98.25 226.6875 C97.59 226.6875 96.93 226.6875 96.25 226.6875 C95.68264857 231.22631146 97.24939799 234.05793455 99.375 237.91796875 C100.25 239.6875 100.25 239.6875 100.25 241.6875 C100.91 241.6875 101.57 241.6875 102.25 241.6875 C103.99786485 246.97318564 104.54602843 251.55733466 104.515625 257.10546875 C104.51753845 257.88513504 104.5194519 258.66480133 104.52142334 259.46809387 C104.52277609 261.10430222 104.51914366 262.74052164 104.51074219 264.37670898 C104.49998565 266.87833655 104.51069046 269.37925321 104.5234375 271.88085938 C104.52211659 273.47656408 104.51955563 275.07226834 104.515625 276.66796875 C104.51967346 277.41282028 104.52372192 278.15767181 104.52789307 278.9250946 C104.49409974 282.66581599 104.33361154 285.51190634 102.25 288.6875 C100.83506449 288.79634119 99.41767057 288.87347617 98 288.9375 C97.21109375 288.98390625 96.4221875 289.0303125 95.609375 289.078125 C92.38337567 288.54401915 91.41739053 287.09246987 89.25 284.6875 C87.51595445 283.23079403 85.76474514 281.79435931 84 280.375 C66.46843758 266.09262048 66.46843758 266.09262048 64.4375 258.75 C64.375625 258.069375 64.31375 257.38875 64.25 256.6875 C63.59 256.6875 62.93 256.6875 62.25 256.6875 C62.04246094 256.12804687 61.83492187 255.56859375 61.62109375 254.9921875 C59.07825526 248.37442373 56.01909157 242.1603025 52.73828125 235.88671875 C51.42655781 233.06702978 50.6804483 230.74655259 50.25 227.6875 C49.59 227.6875 48.93 227.6875 48.25 227.6875 C47.26 224.3875 46.27 221.0875 45.25 217.6875 C44.59 217.6875 43.93 217.6875 43.25 217.6875 C42.2764143 215.5080518 41.3057957 213.3273764 40.33984375 211.14453125 C39.67202799 209.63895377 38.99881672 208.13573756 38.31640625 206.63671875 C37.04440405 203.79449374 36.25 201.84081064 36.25 198.6875 C35.74855469 198.88085938 35.24710938 199.07421875 34.73046875 199.2734375 C25.81986385 202.33977854 16.57685608 202.87355465 7.25 203.6875 C7.25 204.3475 7.25 205.0075 7.25 205.6875 C-4.26902372 207.50202976 -15.73420542 207.90853584 -27.375 207.9375 C-28.0640744 207.94249512 -28.7531488 207.94749023 -29.46310425 207.95263672 C-43.30190011 208.03479411 -56.77219812 206.83407155 -70.1875 203.25 C-71.39696289 202.94352539 -71.39696289 202.94352539 -72.63085938 202.63085938 C-78.08915524 201.22127533 -83.42471395 199.53426811 -88.75 197.6875 C-89.08 199.3375 -89.41 200.9875 -89.75 202.6875 C-90.41 202.6875 -91.07 202.6875 -91.75 202.6875 C-91.85183594 203.38488281 -91.95367188 204.08226562 -92.05859375 204.80078125 C-92.86506301 208.16790432 -94.20388537 210.80800582 -95.8125 213.875 C-98.67274064 219.41559662 -101.26595186 225.03148898 -103.75 230.75 C-106.62711479 237.35327147 -109.79258115 243.64172609 -113.3046875 249.93359375 C-114.52374927 252.25640064 -115.40545334 254.3853198 -116.1875 256.875 C-119.41538009 266.11140387 -127.81736246 273.40890476 -135.75 278.6875 C-136.41 278.6875 -137.07 278.6875 -137.75 278.6875 C-137.75 279.3475 -137.75 280.0075 -137.75 280.6875 C-139.4296875 282.1953125 -139.4296875 282.1953125 -141.625 283.8125 C-142.34429688 284.35132813 -143.06359375 284.89015625 -143.8046875 285.4453125 C-145.75 286.6875 -145.75 286.6875 -147.75 286.6875 C-147.75 287.3475 -147.75 288.0075 -147.75 288.6875 C-151 289 -151 289 -154.75 288.6875 C-157.59718451 285.99332208 -158.65392088 284.3138143 -159.25170898 280.41699219 C-159.24985596 279.20172852 -159.24800293 277.98646484 -159.24609375 276.734375 C-159.24754898 276.07471741 -159.24900421 275.41505981 -159.25050354 274.7354126 C-159.24884968 273.3435829 -159.23734566 271.95173395 -159.21655273 270.56005859 C-159.18776955 268.45719298 -159.19591782 266.35688157 -159.20898438 264.25390625 C-159.19773544 256.89530055 -158.73284884 250.46711115 -155.75 243.6875 C-155.3271875 242.60082031 -154.904375 241.51414062 -154.46875 240.39453125 C-152.37027264 235.41064751 -150.27497997 230.47167257 -147.75 225.6875 C-147.09 225.6875 -146.43 225.6875 -145.75 225.6875 C-145.481875 224.45 -145.21375 223.2125 -144.9375 221.9375 C-144.08261598 218.49990297 -142.98335092 216.45685514 -140.75 213.6875 C-139.68590523 211.36583869 -138.70274407 209.05453972 -137.75 206.6875 C-134.9722324 199.88804866 -132.13585255 193.2084012 -128.75 186.6875 C-128.09 186.6875 -127.43 186.6875 -126.75 186.6875 C-126.42 184.3775 -126.09 182.0675 -125.75 179.6875 C-126.40226563 179.31238281 -127.05453125 178.93726563 -127.7265625 178.55078125 C-132.76775653 175.59893165 -137.49927594 172.71450174 -141.75 168.6875 C-141.75 168.0275 -141.75 167.3675 -141.75 166.6875 C-142.430625 166.48125 -143.11125 166.275 -143.8125 166.0625 C-149.86070326 163.23142613 -154.04943486 158.47235628 -158.23046875 153.38671875 C-159.73603516 151.70311621 -161.28784017 150.39117012 -163.0625 149 C-168.24066683 144.71343805 -171.86154525 139.11356867 -175.75 133.6875 C-176.45253906 132.76710938 -177.15507813 131.84671875 -177.87890625 130.8984375 C-178.83603516 129.61839844 -178.83603516 129.61839844 -179.8125 128.3125 C-180.38097656 127.56226563 -180.94945312 126.81203125 -181.53515625 126.0390625 C-183.10182775 123.00647007 -183.20441252 121.05735128 -182.75 117.6875 C-181.3515625 115.81640625 -181.3515625 115.81640625 -179.375 114.25 C-178.28638672 113.37601563 -178.28638672 113.37601563 -177.17578125 112.484375 C-173.83167884 110.0072621 -170.44602925 107.60252912 -167.0078125 105.2578125 C-164.60584879 103.63210849 -164.60584879 103.63210849 -161.9375 101.375 C-159.62957947 99.59460416 -157.47784299 98.67255441 -154.75 97.6875 C-154.42 97.3575 -154.09 97.0275 -153.75 96.6875 C-151.5 96.3125 -151.5 96.3125 -148.75 96.6875 C-145.3276715 99.48758695 -143.66618421 101.41197368 -142.75 105.6875 C-141.76 106.0175 -140.77 106.3475 -139.75 106.6875 C-138.35546875 108.2890625 -138.35546875 108.2890625 -136.9375 110.3125 C-132.50330578 116.42862996 -128.01705264 121.7275991 -122.0703125 126.42578125 C-121.63460937 126.84214844 -121.19890625 127.25851562 -120.75 127.6875 C-120.75 128.3475 -120.75 129.0075 -120.75 129.6875 C-120.13125 129.996875 -119.5125 130.30625 -118.875 130.625 C-117.5 131.3125 -116.125 132 -114.75 132.6875 C-114.75 133.3475 -114.75 134.0075 -114.75 134.6875 C-113.96625 134.97625 -113.1825 135.265 -112.375 135.5625 C-109.75 136.6875 -109.75 136.6875 -107.75 138.6875 C-105.68125966 139.3300235 -105.68125966 139.3300235 -103.75 139.6875 C-103.62625 138.615 -103.5025 137.5425 -103.375 136.4375 C-102.85356064 133.30886385 -102.34911746 131.35269576 -100.75 128.6875 C-100.09 128.6875 -99.43 128.6875 -98.75 128.6875 C-98.37101563 126.94726562 -98.37101563 126.94726562 -97.984375 125.171875 C-96.87662851 120.75254953 -95.11255675 116.9555001 -93 112.9375 C-92.28514754 111.54297322 -91.57030388 110.14844192 -90.85546875 108.75390625 C-90.50145996 108.07086426 -90.14745117 107.38782227 -89.78271484 106.68408203 C-88.26973986 103.75899707 -86.78956158 100.8183939 -85.3125 97.875 C-84.60287109 96.47314453 -84.60287109 96.47314453 -83.87890625 95.04296875 C-82.65987829 92.62521746 -82.65987829 92.62521746 -81.75 89.6875 C-81.09 89.6875 -80.43 89.6875 -79.75 89.6875 C-79.54375 88.78 -79.3375 87.8725 -79.125 86.9375 C-77.799232 82.24996313 -75.50173683 78.09314291 -73.28125 73.77734375 C-71.16840748 69.51392938 -69.42400335 65.13837949 -67.75 60.6875 C-67.09 60.6875 -66.43 60.6875 -65.75 60.6875 C-65.605625 59.78 -65.46125 58.8725 -65.3125 57.9375 C-64.75 54.6875 -64.75 54.6875 -64.125 52.77734375 C-63.64225619 50.08705271 -64.28004785 48.56909786 -65.1875 46 C-68.24640709 35.47002951 -68.50218183 21.73898986 -63.75 11.6875 C-57.58537653 2.29929218 -57.58537653 2.29929218 -52.75 0.6875 C-52.75 0.0275 -52.75 -0.6325 -52.75 -1.3125 C-51.48308493 -1.98658308 -50.21129251 -2.65150497 -48.9375 -3.3125 C-48.22980469 -3.68375 -47.52210938 -4.055 -46.79296875 -4.4375 C-44.75 -5.3125 -44.75 -5.3125 -41.75 -5.3125 C-41.75 -5.9725 -41.75 -6.6325 -41.75 -7.3125 C-27.11211338 -12.88883776 -12.52872521 -8.20465191 0 0 Z " fill="#4386F3" transform="translate(1018.75,186.3125)"/>
<path d="M0 0 C6.93 0 13.86 0 21 0 C22 1 22 1 22.12304783 3.43441868 C22.12212604 4.52489978 22.12120424 5.61538088 22.12025452 6.73890686 C22.12231651 8.60891106 22.12231651 8.60891106 22.12442017 10.51669312 C22.12088056 11.91094994 22.11724574 13.30520653 22.11352539 14.69946289 C22.11324353 16.15771991 22.11340124 17.61597707 22.1139679 19.07423401 C22.1142559 23.04513485 22.10835877 27.01600575 22.10139394 30.98689961 C22.09516081 35.13225101 22.09455663 39.27760302 22.09336853 43.42295837 C22.09025509 51.27819327 22.08204154 59.13341432 22.07201904 66.98864311 C22.06085829 75.92924399 22.05534755 84.86984552 22.05032361 93.81045163 C22.03985893 112.20697583 22.02205883 130.6034863 22 149 C14.74 149 7.48 149 0 149 C-0.33 145.37 -0.66 141.74 -1 138 C-2.175625 138.9075 -3.35125 139.815 -4.5625 140.75 C-13.41556412 147.35862533 -21.33860725 150.35657821 -32.4375 150.3125 C-33.64889648 150.33666992 -33.64889648 150.33666992 -34.88476562 150.36132812 C-42.99636056 150.36786446 -48.98871082 147.75635016 -56 143.8125 C-56.94875 143.28269531 -57.8975 142.75289062 -58.875 142.20703125 C-59.926875 141.60955078 -59.926875 141.60955078 -61 141 C-61 140.34 -61 139.68 -61 139 C-61.66 139 -62.32 139 -63 139 C-64.56656536 137.13617367 -66.01060769 135.2787991 -67.4375 133.3125 C-68.21996094 132.25675781 -69.00242187 131.20101562 -69.80859375 130.11328125 C-75 122.73796791 -75 122.73796791 -75 119 C-75.66 119 -76.32 119 -77 119 C-80.7660757 109.20820317 -81.34409236 97.1949414 -79 87 C-78.34 87 -77.68 87 -77 87 C-76.9175 85.88625 -76.835 84.7725 -76.75 83.625 C-75.91727724 76.93942582 -73.47843326 70.11151022 -69 65 C-68.34 65 -67.68 65 -67 65 C-66.690625 64.13375 -66.690625 64.13375 -66.375 63.25 C-64.49926262 60.18061157 -62.01405737 58.90685262 -59 57 C-58.505 56.484375 -58.01 55.96875 -57.5 55.4375 C-55.26882595 53.29929154 -52.80891669 52.27196227 -50 51 C-48.88625 50.443125 -47.7725 49.88625 -46.625 49.3125 C-36.55871969 45.6678123 -23.77261064 47.56918988 -14 51 C-9.38 53.97 -4.76 56.94 0 60 C0 40.2 0 20.4 0 0 Z " fill="#060606" transform="translate(539,324)"/>
<path d="M0 0 C6.93 0 13.86 0 21 0 C21 49.17 21 98.34 21 149 C15.39 149 9.78 149 4 149 C0 145 0 145 -0.390625 142.859375 C-0.26041667 140.90625 -0.13020833 138.953125 0 137 C-0.66386719 137.55429687 -1.32773437 138.10859375 -2.01171875 138.6796875 C-3.33623047 139.76636719 -3.33623047 139.76636719 -4.6875 140.875 C-5.99267578 141.95394531 -5.99267578 141.95394531 -7.32421875 143.0546875 C-10 145 -10 145 -12.70703125 146.0703125 C-15.32814549 146.88267283 -15.32814549 146.88267283 -17 150 C-26.87703413 153.11520557 -39.32903048 151.73651931 -49.0625 148.75 C-49.74675049 148.54552246 -50.43100098 148.34104492 -51.13598633 148.13037109 C-53.03515625 147.484375 -53.03515625 147.484375 -56 146 C-56.79296875 143.88671875 -56.79296875 143.88671875 -57 142 C-58.65697379 141.30959426 -60.3255761 140.6469365 -62 140 C-65.37048958 136.95833867 -68.32327639 133.66810272 -71 130 C-71 129.34 -71 128.68 -71 128 C-71.66 128 -72.32 128 -73 128 C-73.50615298 126.73160474 -74.00469099 125.46016898 -74.5 124.1875 C-74.7784375 123.47980469 -75.056875 122.77210938 -75.34375 122.04296875 C-76 120 -76 120 -76 117 C-76.66 117 -77.32 117 -78 117 C-81.17203437 105.47305368 -81.34284298 92.49102275 -78 81 C-77.34 81 -76.68 81 -76 81 C-75.896875 80.13375 -75.79375 79.2675 -75.6875 78.375 C-73.81017467 69.1590393 -66.84550064 61.62565335 -59.4375 56.125 C-50.37388724 50.2012069 -41.89986453 47.66072511 -31.0625 47.875 C-30.18787109 47.88402344 -29.31324219 47.89304688 -28.41210938 47.90234375 C-26.27461936 47.9257043 -24.13727214 47.96156753 -22 48 C-22 48.66 -22 49.32 -22 50 C-20.906875 50.144375 -19.81375 50.28875 -18.6875 50.4375 C-15 51 -15 51 -12 52 C-12 52.66 -12 53.32 -12 54 C-11.319375 54.20625 -10.63875 54.4125 -9.9375 54.625 C-7 56 -7 56 0 62 C0 41.54 0 21.08 0 0 Z " fill="#030303" transform="translate(711,137)"/>
<path d="M0 0 C6.93 0 13.86 0 21 0 C21 49.17 21 98.34 21 149 C15.06 149 9.12 149 3 149 C-0.01440592 143.97599013 -0.32565922 142.53620678 0 137 C-0.94359375 137.79664063 -0.94359375 137.79664063 -1.90625 138.609375 C-11.96464265 146.91057858 -19.2639243 150.17733875 -32.25 150.1875 C-33.05824219 150.19974609 -33.86648438 150.21199219 -34.69921875 150.22460938 C-45.37544272 150.25023231 -53.68672012 147.93153968 -62 141 C-73.43557613 129.38715735 -79.17677062 116.5460515 -79.1875 100.3125 C-79.19974609 99.35666016 -79.21199219 98.40082031 -79.22460938 97.41601562 C-79.25494364 82.58255958 -74.49446685 70.86878972 -64.1640625 60.0546875 C-61.61037778 57.63006987 -59.06654814 55.73326634 -56 54 C-54.96875 53.29875 -53.9375 52.5975 -52.875 51.875 C-41.77065532 45.64872285 -27.63420395 47.64492514 -15.80859375 50.05078125 C-14.88175781 50.36402344 -13.95492187 50.67726562 -13 51 C-12.67 51.99 -12.34 52.98 -12 54 C-10.34561387 54.69658363 -8.67745682 55.36096883 -7 56 C-5.1875 57.5 -5.1875 57.5 -4 59 C-4 59.66 -4 60.32 -4 61 C-2.02 61.495 -2.02 61.495 0 62 C0 41.54 0 21.08 0 0 Z " fill="#030303" transform="translate(360,137)"/>
<path d="M0 0 C0 0.66 0 1.32 0 2 C0.680625 2.20625 1.36125 2.4125 2.0625 2.625 C6.03507087 4.48450126 8.74484845 7.06398096 12 10 C12 6.04 12 2.08 12 -2 C18.93 -2 25.86 -2 33 -2 C33 30.67 33 63.34 33 97 C27.06 97 21.12 97 15 97 C11.32047526 92.09396701 11.70875484 90.82490317 12 85 C11.26136719 85.60328125 10.52273437 86.2065625 9.76171875 86.828125 C3.14085443 92.04405369 -2.76230273 95.72379417 -11 98 C-11.90685547 98.30164063 -11.90685547 98.30164063 -12.83203125 98.609375 C-24.88809613 100.78163894 -37.46444536 97.18121131 -47.58203125 90.78125 C-55.64373204 84.84242034 -60.03875355 77.03265113 -64 68 C-64.38414063 67.13890625 -64.76828125 66.2778125 -65.1640625 65.390625 C-66 63 -66 63 -66 59 C-66.66 59 -67.32 59 -68 59 C-68 51.08 -68 43.16 -68 35 C-67.34 35 -66.68 35 -66 35 C-65.9071875 33.0509375 -65.9071875 33.0509375 -65.8125 31.0625 C-65.23940644 25.59206147 -62.9285997 21.57120912 -60 17 C-59.34 17 -58.68 17 -58 17 C-57.88205078 16.14921875 -57.88205078 16.14921875 -57.76171875 15.28125 C-56.7453859 12.23746341 -55.09875128 10.73646691 -52.8125 8.5 C-52.05582031 7.7471875 -51.29914062 6.994375 -50.51953125 6.21875 C-45.21672072 1.54898817 -40.54648008 -0.77507733 -33.75 -2.25 C-32.99348145 -2.41693359 -32.23696289 -2.58386719 -31.45751953 -2.75585938 C-19.94526112 -5.17429737 -11.09578973 -3.31394253 0 0 Z " fill="#030303" transform="translate(115,189)"/>
<path d="M0 0 C1.65 0 3.3 0 5 0 C4.58277442 4.45040618 2.66402871 7.40198656 0.25390625 11.03515625 C-1.05025682 12.98848168 -1.05025682 12.98848168 -2.03515625 15.18359375 C-3 17 -3 17 -5 18 C-5.495 19.485 -5.495 19.485 -6 21 C-6.66 21 -7.32 21 -8 21 C-8.495 23.475 -8.495 23.475 -9 26 C-7.989375 26.804375 -6.97875 27.60875 -5.9375 28.4375 C0.45105116 33.92079087 5.04282488 40.63146701 9 48 C9.639375 49.010625 10.27875 50.02125 10.9375 51.0625 C17.21959364 62.26101475 18.86755464 73.44015145 20 86 C28.91 86.99 37.82 87.98 47 89 C47.33 90.32 47.66 91.64 48 93 C38.43 92.67 28.86 92.34 19 92 C19 94.97 19 97.94 19 101 C18.5625 104.06640625 18.5625 104.06640625 18 106.5625 C17.7215625 107.83287109 17.7215625 107.83287109 17.4375 109.12890625 C17.293125 109.74636719 17.14875 110.36382812 17 111 C16.34 111 15.68 111 15 111 C14.896875 112.051875 14.79375 113.10375 14.6875 114.1875 C14.00784879 117.95647488 13.06718947 119.857872 11 123 C10.73445313 123.7425 10.46890625 124.485 10.1953125 125.25 C8.70430921 128.68028209 6.60801192 131.45615811 4.3125 134.375 C3.64093872 135.23544922 3.64093872 135.23544922 2.95581055 136.11328125 C-2.32067824 142.78668237 -7.83092201 148.36118483 -15 153 C-15.66 153 -16.32 153 -17 153 C-17 153.66 -17 154.32 -17 155 C-17.66 155 -18.32 155 -19 155 C-19.59748047 153.78763672 -19.59748047 153.78763672 -20.20703125 152.55078125 C-20.73683594 151.48214844 -21.26664063 150.41351563 -21.8125 149.3125 C-22.33457031 148.25675781 -22.85664062 147.20101562 -23.39453125 146.11328125 C-24.8290618 143.33147871 -26.38606032 140.67932121 -28 138 C-28.7388991 136.32944551 -29.47562565 134.65752501 -30.171875 132.96875 C-31.44273104 129.94746961 -32.84419716 126.98546526 -34.23046875 124.015625 C-35 122 -35 122 -35 119 C-35.66 119 -36.32 119 -37 119 C-37.495 117.453125 -37.495 117.453125 -38 115.875 C-39.53979656 111.71239208 -41.6813737 107.99206964 -43.9375 104.1875 C-46.90212226 99.16407517 -49.15863934 94.30455282 -50.9921875 88.74609375 C-52.56664298 84.45600769 -54.70543102 80.47406819 -56.828125 76.43359375 C-58 74 -58 74 -58 72 C-58.66 72 -59.32 72 -60 72 C-68 54.38297872 -68 54.38297872 -68 51 C-68.66 51 -69.32 51 -70 51 C-70.9735857 48.8205518 -71.9442043 46.6398764 -72.91015625 44.45703125 C-73.57797201 42.95145377 -74.25118328 41.44823756 -74.93359375 39.94921875 C-76.20559595 37.10699374 -77 35.15331064 -77 32 C-77.99 31.67 -78.98 31.34 -80 31 C-82.06761395 26.78206754 -83.57967348 22.47949133 -85 18 C-85.66 18 -86.32 18 -87 18 C-87.33 16.35 -87.66 14.7 -88 13 C-86.33546212 12.51348985 -84.66822271 12.03622085 -83 11.5625 C-82.071875 11.29566406 -81.14375 11.02882813 -80.1875 10.75390625 C-59.88381579 5.95168682 -39.76866744 8.45440619 -21.53125 18.16015625 C-18.71347336 19.62826775 -15.97310252 20.89652156 -13 22 C-12.87431641 21.20335937 -12.87431641 21.20335937 -12.74609375 20.390625 C-11.7212147 17.10671935 -9.96988875 14.60590938 -8.0625 11.75 C-7.35222656 10.67234375 -6.64195313 9.5946875 -5.91015625 8.484375 C-5.27980469 7.66453125 -4.64945313 6.8446875 -4 6 C-3.34 6 -2.68 6 -2 6 C-1.855625 5.38125 -1.71125 4.7625 -1.5625 4.125 C-1 2 -1 2 0 0 Z " fill="#3EDB85" transform="translate(1132,260)"/>
<path d="M0 0 C0.58523438 0.47308594 1.17046875 0.94617188 1.7734375 1.43359375 C2.6396875 2.07296875 3.5059375 2.71234375 4.3984375 3.37109375 C9.87101382 8.12359424 13.3088209 12.25697243 14.7734375 19.43359375 C15.4334375 19.43359375 16.0934375 19.43359375 16.7734375 19.43359375 C22.18955273 36.45567019 20.91855456 54.40922398 12.7734375 70.43359375 C11.2884375 70.92859375 11.2884375 70.92859375 9.7734375 71.43359375 C9.07543446 72.75079304 8.41284002 74.0869733 7.7734375 75.43359375 C6.1171875 77.35546875 6.1171875 77.35546875 4.2734375 79.18359375 C3.665 79.7971875 3.0565625 80.41078125 2.4296875 81.04296875 C0.7734375 82.43359375 0.7734375 82.43359375 -1.2265625 82.43359375 C-1.2265625 83.09359375 -1.2265625 83.75359375 -1.2265625 84.43359375 C-6.8515625 87.43359375 -6.8515625 87.43359375 -10.2265625 87.43359375 C-10.2265625 88.09359375 -10.2265625 88.75359375 -10.2265625 89.43359375 C-16.92445675 92.45844922 -22.61166952 92.90497983 -29.9140625 92.80859375 C-30.97173828 92.80279297 -32.02941406 92.79699219 -33.11914062 92.79101562 C-40.83571413 92.66311662 -47.85762022 91.85152793 -55.2265625 89.43359375 C-55.2265625 88.77359375 -55.2265625 88.11359375 -55.2265625 87.43359375 C-56.1959375 87.26859375 -57.1653125 87.10359375 -58.1640625 86.93359375 C-66.89830742 84.4052597 -73.00773142 76.05431464 -77.2265625 68.43359375 C-82.2265625 58.5790964 -82.2265625 58.5790964 -82.2265625 54.43359375 C-82.8865625 54.43359375 -83.5465625 54.43359375 -84.2265625 54.43359375 C-86.31828984 42.66762747 -86.18601737 30.05696982 -80.2265625 19.43359375 C-79.948125 18.28890625 -79.948125 18.28890625 -79.6640625 17.12109375 C-79.5196875 16.56421875 -79.3753125 16.00734375 -79.2265625 15.43359375 C-78.5665625 15.10359375 -77.9065625 14.77359375 -77.2265625 14.43359375 C-76.6696875 13.16515625 -76.6696875 13.16515625 -76.1015625 11.87109375 C-73.59986839 7.28465455 -70.22881873 3.78155331 -66.2265625 0.43359375 C-65.5665625 0.43359375 -64.9065625 0.43359375 -64.2265625 0.43359375 C-64.2265625 -0.22640625 -64.2265625 -0.88640625 -64.2265625 -1.56640625 C-47.52188678 -16.30099736 -16.33279002 -12.9435747 0 0 Z " fill="#050505" transform="translate(712.2265625,381.56640625)"/>
<path d="M0 0 C9.31076803 6.85972824 14.99201328 13.80215128 18.75 24.80859375 C19.40994372 27.32886264 19.40994372 27.32886264 20.66015625 28.43359375 C23.73148154 45.57638098 21.92641401 59.42930678 12.31640625 73.77734375 C9.28842485 78.08072133 6.00925663 81.4574273 1.66015625 84.43359375 C1.03753906 84.88734375 0.41492188 85.34109375 -0.2265625 85.80859375 C-2.21013481 87.16048076 -4.21857064 88.31102221 -6.33984375 89.43359375 C-7.39945313 90.02527344 -7.39945313 90.02527344 -8.48046875 90.62890625 C-20.49096105 96.16923012 -36.830485 94.65765528 -49.33984375 91.43359375 C-49.33984375 90.77359375 -49.33984375 90.11359375 -49.33984375 89.43359375 C-49.97792969 89.32402344 -50.61601562 89.21445312 -51.2734375 89.1015625 C-52.51287109 88.86373047 -52.51287109 88.86373047 -53.77734375 88.62109375 C-55.01291016 88.39486328 -55.01291016 88.39486328 -56.2734375 88.1640625 C-57.29630859 87.80248047 -57.29630859 87.80248047 -58.33984375 87.43359375 C-58.66984375 86.44359375 -58.99984375 85.45359375 -59.33984375 84.43359375 C-60.46326172 83.99080078 -60.46326172 83.99080078 -61.609375 83.5390625 C-67.11055011 81.31183424 -71.89194671 75.56701978 -74.36328125 70.21875 C-74.90234375 68.30859375 -74.90234375 68.30859375 -75.33984375 65.43359375 C-75.99984375 65.43359375 -76.65984375 65.43359375 -77.33984375 65.43359375 C-82.89479848 52.89392801 -81.33865754 38.72861511 -80.33984375 25.43359375 C-79.67984375 25.43359375 -79.01984375 25.43359375 -78.33984375 25.43359375 C-78.19546875 24.67046875 -78.05109375 23.90734375 -77.90234375 23.12109375 C-77.33984375 20.43359375 -77.33984375 20.43359375 -76.33984375 17.43359375 C-75.67984375 17.10359375 -75.01984375 16.77359375 -74.33984375 16.43359375 C-73.90027344 15.52738281 -73.46070313 14.62117188 -73.0078125 13.6875 C-67.69071411 3.31479987 -57.56301175 -3.3805246 -46.77734375 -6.87890625 C-30.72106095 -11.12051251 -13.83165432 -9.25958828 0 0 Z " fill="#040404" transform="translate(551.33984375,193.56640625)"/>
<path d="M0 0 C7.26 0 14.52 0 22 0 C22.01458252 1.92714844 22.02916504 3.85429687 22.04418945 5.83984375 C22.09598067 12.23016876 22.16130381 18.62024531 22.23571491 25.01034546 C22.28031025 28.88203827 22.31958961 32.75362849 22.34643555 36.62548828 C22.37257753 40.36692419 22.41305519 44.10796297 22.46318626 47.84915161 C22.47978179 49.27152541 22.49134139 50.69396778 22.49761391 52.11642456 C22.54807259 62.51388764 23.22638718 70.63259593 30 79 C32.60437233 80.41190564 32.60437233 80.41190564 35 81 C35 81.66 35 82.32 35 83 C43.94066767 82.9723627 50.21815996 82.07570485 57 76 C59.38388916 73.56391207 59.38388916 73.56391207 61 71 C61.556875 70.195625 62.11375 69.39125 62.6875 68.5625 C65.07160376 63.90782123 65.1292169 58.96445569 65.20532227 53.81103516 C65.22526749 52.61024323 65.24521271 51.40945129 65.26576233 50.17227173 C65.28247482 48.89081268 65.29918732 47.60935364 65.31640625 46.2890625 C65.33700309 44.95241696 65.35800024 43.61577754 65.37937927 42.27914429 C65.43431826 38.77757753 65.48385056 35.27595475 65.53222656 31.77429199 C65.58264861 28.19452995 65.63822611 24.61484828 65.69335938 21.03515625 C65.80059582 14.02350588 65.90163898 7.01178044 66 0 C73.59 0 81.18 0 89 0 C89 33.66 89 67.32 89 102 C81.41 102 73.82 102 66 102 C66 98.37 66 94.74 66 91 C65.2575 91.45375 64.515 91.9075 63.75 92.375 C61.53069422 93.68640796 59.32032178 94.88280803 57 96 C57 96.66 57 97.32 57 98 C46.00668683 103.19515221 34.88286 102.41237902 23 102 C23 101.34 23 100.68 23 100 C21.90171875 99.86271484 21.90171875 99.86271484 20.78125 99.72265625 C13.63656095 97.86624126 8.44225051 90.84521718 4.77734375 84.76171875 C4 83 4 83 4 80 C3.34 80 2.68 80 2 80 C-0.39620068 71.57184086 -0.25602476 63.27382708 -0.1953125 54.58984375 C-0.19157592 53.01087118 -0.188732 51.43189627 -0.18673706 49.85292053 C-0.1791513 45.72491905 -0.15954711 41.59706141 -0.1373291 37.46911621 C-0.11676088 33.24570663 -0.10771201 29.0222735 -0.09765625 24.79882812 C-0.07629572 16.53247917 -0.04115567 8.26627413 0 0 Z " fill="#030303" transform="translate(352,372)"/>
<path d="M0 0 C7.03495186 5.36311624 10.01333682 11.90229377 12.48828125 20.24609375 C13.01880023 22.61110374 13.01880023 22.61110374 14.25 23.6875 C14.59294666 30.0824465 14.39544072 36.38757602 13.25 42.6875 C12.59 42.6875 11.93 42.6875 11.25 42.6875 C11.07984375 43.77611328 11.07984375 43.77611328 10.90625 44.88671875 C8.82992443 53.74817967 2.3659707 60.40874355 -4.75 65.6875 C-7.46877089 67.27599535 -8.5309215 67.6875 -11.75 67.6875 C-11.75 68.3475 -11.75 69.0075 -11.75 69.6875 C-16.33928709 71.99132212 -20.47974747 72.03573318 -25.5 72 C-26.70825439 71.99262817 -26.70825439 71.99262817 -27.94091797 71.98510742 C-38.47573914 71.77705697 -46.30678082 68.33415052 -54.3125 61.5 C-64.50468807 49.739783 -67.75065926 40.13898626 -66.90527344 24.68798828 C-66.16810148 15.19052442 -62.56350347 8.36363444 -55.75 1.6875 C-54.76 1.3575 -53.77 1.0275 -52.75 0.6875 C-52.75 0.0275 -52.75 -0.6325 -52.75 -1.3125 C-51.48308493 -1.98658308 -50.21129251 -2.65150497 -48.9375 -3.3125 C-48.22980469 -3.68375 -47.52210938 -4.055 -46.79296875 -4.4375 C-44.75 -5.3125 -44.75 -5.3125 -41.75 -5.3125 C-41.75 -5.9725 -41.75 -6.6325 -41.75 -7.3125 C-27.11211338 -12.88883776 -12.52872521 -8.20465191 0 0 Z " fill="#0B3447" transform="translate(1018.75,186.3125)"/>
<path d="M0 0 C0.89009766 -0.01611328 1.78019531 -0.03222656 2.69726562 -0.04882812 C8.83608383 -0.05331229 13.87393403 1.01464277 19.5625 3.3125 C19.5625 3.9725 19.5625 4.6325 19.5625 5.3125 C20.42875 5.456875 21.295 5.60125 22.1875 5.75 C27.00975214 7.98252414 29.12743065 11.68414124 31.5625 16.3125 C31.5625 16.9725 31.5625 17.6325 31.5625 18.3125 C32.2225 18.3125 32.8825 18.3125 33.5625 18.3125 C34.0575 22.2725 34.0575 22.2725 34.5625 26.3125 C35.2225 26.3125 35.8825 26.3125 36.5625 26.3125 C37.72285505 29.79356514 37.68252704 32.4972233 37.67602539 36.1706543 C37.67617142 36.86359589 37.67631744 37.55653748 37.6764679 38.27047729 C37.67577163 40.55925637 37.6679926 42.8479539 37.66015625 45.13671875 C37.65829106 46.72426814 37.65686763 48.31181811 37.65586853 49.89936829 C37.65205134 54.0767272 37.64222786 58.25405131 37.63116455 62.43139648 C37.62093328 66.69449391 37.61636723 70.95759696 37.61132812 75.22070312 C37.60060489 83.58465138 37.58353803 91.94857136 37.5625 100.3125 C34.64484109 100.42056144 31.73118875 100.49982877 28.8125 100.5625 C27.9875 100.59601563 27.1625 100.62953125 26.3125 100.6640625 C25.11367187 100.68339844 25.11367187 100.68339844 23.890625 100.703125 C23.1574707 100.72407227 22.42431641 100.74501953 21.66894531 100.76660156 C18.58378213 100.10151075 17.44179486 98.80943684 15.5625 96.3125 C15.06370544 93.61421204 15.06370544 93.61421204 15.06420898 90.4934082 C15.05417343 89.32151443 15.04413788 88.14962067 15.03379822 86.94221497 C15.04198074 85.67866684 15.05016327 84.41511871 15.05859375 83.11328125 C15.04419593 81.11930964 15.029782 79.125338 15.0144434 77.13137341 C14.99749389 74.33712988 14.99802011 71.5430046 14.99914551 68.74871826 C15.00110431 63.88040341 14.99400386 59.01228902 14.95924377 54.14408875 C14.94251047 51.55528476 14.93953591 48.96634452 14.95225525 46.3775177 C14.98238817 35.36379352 14.98238817 35.36379352 10.21678162 25.73408508 C4.70457813 20.83534475 -0.53898964 19.90944064 -7.65625 20.0625 C-13.41952212 20.58054693 -18.72063073 22.63980353 -23.1171875 26.5078125 C-26.05296557 30.52062158 -27.15155064 35.5696162 -28.4375 40.3125 C-29.0975 40.3125 -29.7575 40.3125 -30.4375 40.3125 C-30.4375 60.1125 -30.4375 79.9125 -30.4375 100.3125 C-36.3775 100.3125 -42.3175 100.3125 -48.4375 100.3125 C-52.9375 94.6875 -52.9375 94.6875 -52.91851807 91.1426239 C-52.92401672 90.3448201 -52.92951538 89.5470163 -52.93518066 88.72503662 C-52.92079956 87.86404358 -52.90641846 87.00305054 -52.89160156 86.1159668 C-52.89218567 85.19840103 -52.89276978 84.28083527 -52.89337158 83.33546448 C-52.89059067 80.31049425 -52.85949799 77.28651628 -52.828125 74.26171875 C-52.82066265 72.16136717 -52.81496969 70.06100862 -52.81097412 67.96064758 C-52.79571744 62.43835149 -52.75643496 56.91647765 -52.7121582 51.39434814 C-52.67120646 45.75709749 -52.65296329 40.11977847 -52.6328125 34.48242188 C-52.58994093 23.42556608 -52.51959043 12.36913425 -52.4375 1.3125 C-45.1775 1.3125 -37.9175 1.3125 -30.4375 1.3125 C-30.4375 4.9425 -30.4375 8.5725 -30.4375 12.3125 C-29.756875 11.590625 -29.07625 10.86875 -28.375 10.125 C-26.38429424 8.15666172 -24.34306467 6.33433424 -22.125 4.625 C-21.61324219 4.22925781 -21.10148437 3.83351562 -20.57421875 3.42578125 C-14.07949099 0.04187374 -7.15095861 -0.02577851 0 0 Z " fill="#060606" transform="translate(225.4375,185.6875)"/>
<path d="M0 0 C0 0.66 0 1.32 0 2 C0.886875 2.226875 1.77375 2.45375 2.6875 2.6875 C7.57312917 4.62331533 10.12719727 7.6907959 13 12 C13 12.99 13 13.98 13 15 C13.66 15 14.32 15 15 15 C17.2018931 19.67902284 18 21.62516458 18 27 C10.08 27 2.16 27 -6 27 C-6.66 24.69 -7.32 22.38 -8 20 C-8.99 19.34 -9.98 18.68 -11 18 C-11 17.34 -11 16.68 -11 16 C-17.45822347 14.64037401 -26.15369682 13.27962525 -32 17 C-35.22800966 20.89587373 -35.36694508 24.04624138 -35 29 C-34.67 29.99 -34.34 30.98 -34 32 C-31.70465742 33.13545562 -31.70465742 33.13545562 -29 34 C-28.23816406 34.32613281 -27.47632813 34.65226562 -26.69140625 34.98828125 C-23.85329872 36.05514606 -21.17425723 36.62120962 -18.1875 37.125 C-16.72376953 37.37636719 -16.72376953 37.37636719 -15.23046875 37.6328125 C-14.12638672 37.81457031 -14.12638672 37.81457031 -13 38 C-13 38.66 -13 39.32 -13 40 C-11.86111328 40.09087891 -11.86111328 40.09087891 -10.69921875 40.18359375 C-9.70535156 40.26738281 -8.71148437 40.35117187 -7.6875 40.4375 C-6.70136719 40.51871094 -5.71523437 40.59992188 -4.69921875 40.68359375 C-2 41 -2 41 1 42 C1 42.66 1 43.32 1 44 C1.86625 44.2475 2.7325 44.495 3.625 44.75 C9.43494652 46.90183205 13.49198282 49.87289797 17 55 C17 55.66 17 56.32 17 57 C17.66 57 18.32 57 19 57 C21.80229119 65.93230316 22.34584934 75.15739818 19 84 C18.34 84 17.68 84 17 84 C16.79375 84.721875 16.5875 85.44375 16.375 86.1875 C14.57530116 89.86870218 12.30270796 91.62205027 9 94 C6.625 94.8125 6.625 94.8125 5 95 C5 95.66 5 96.32 5 97 C-2.58177628 100.55879295 -9.6380131 101.16702272 -17.9375 101.125 C-18.69740234 101.12886719 -19.45730469 101.13273437 -20.24023438 101.13671875 C-32.49580043 101.11578695 -42.39049922 98.04784366 -51.57421875 89.64453125 C-53.52369549 87.49326024 -55.3155144 85.36337148 -57 83 C-57.54269531 82.29230469 -58.08539063 81.58460938 -58.64453125 80.85546875 C-60.61533699 76.70371371 -60.74398773 72.54642479 -61 68 C-57.37506666 67.94212216 -53.75025143 67.9064458 -50.125 67.875 C-49.09246094 67.85824219 -48.05992187 67.84148437 -46.99609375 67.82421875 C-46.00996094 67.81777344 -45.02382812 67.81132812 -44.0078125 67.8046875 C-42.64100342 67.78897705 -42.64100342 67.78897705 -41.24658203 67.77294922 C-39 68 -39 68 -37 70 C-36.566875 71.11375 -36.13375 72.2275 -35.6875 73.375 C-33.90205173 77.2104074 -32.50074037 78.72451876 -29 81 C-25.36445419 82.2118486 -21.97592248 82.2609802 -18.1875 82.3125 C-17.13852539 82.35600586 -17.13852539 82.35600586 -16.06835938 82.40039062 C-10.93596216 82.46280518 -8.0767859 81.36506524 -4 78 C-3.67 77.34 -3.34 76.68 -3 76 C-2.34 76 -1.68 76 -1 76 C-1.1971087 70.645406 -1.1971087 70.645406 -3.5625 66.125 C-4.2740625 65.568125 -4.2740625 65.568125 -5 65 C-5 64.34 -5 63.68 -5 63 C-5.67804688 62.81824219 -6.35609375 62.63648438 -7.0546875 62.44921875 C-12.43534153 60.99599502 -17.80094838 59.51174866 -23.12890625 57.875 C-25.38220275 57.18828107 -27.63884397 56.52652308 -29.90234375 55.875 C-47.45254969 50.73626046 -47.45254969 50.73626046 -51.875 44.25 C-52.24625 43.5075 -52.6175 42.765 -53 42 C-53.66 41.67 -54.32 41.34 -55 41 C-55.40729228 38.67843403 -55.74438677 36.3431213 -56 34 C-56.66 34 -57.32 34 -58 34 C-58 28.39 -58 22.78 -58 17 C-57.34 17 -56.68 17 -56 17 C-55.938125 15.7315625 -55.938125 15.7315625 -55.875 14.4375 C-54.42129396 8.72651197 -50.84192414 5.39571153 -46.2265625 1.8984375 C-32.8589419 -5.96677268 -14.18789563 -4.019505 0 0 Z " fill="#060606" transform="translate(239,374)"/>
<path d="M0 0 C6.93 0 13.86 0 21 0 C21 9.24 21 18.48 21 28 C30.57 28 40.14 28 50 28 C50 34.27 50 40.54 50 47 C40.43 47 30.86 47 21 47 C21.33 64.82 21.66 82.64 22 101 C22.66 101 23.32 101 24 101 C24.33 102.65 24.66 104.3 25 106 C33.87312227 108.32737633 41.96054521 108.65436581 51 107 C51.08685287 110.29150125 51.14033895 113.5827096 51.1875 116.875 C51.21263672 117.81214844 51.23777344 118.74929688 51.26367188 119.71484375 C51.27333984 120.61074219 51.28300781 121.50664062 51.29296875 122.4296875 C51.3086792 123.25710449 51.32438965 124.08452148 51.34057617 124.93701172 C51.22818604 125.61779785 51.1157959 126.29858398 51 127 C46.64436254 129.90375831 42.69188403 129.38262104 37.5625 129.375 C36.57290283 129.37483887 35.58330566 129.37467773 34.5637207 129.37451172 C27.22686536 129.26022111 20.55753465 128.60073045 14 125 C13.67 124.34 13.34 123.68 13 123 C12.01 122.67 11.02 122.34 10 122 C8.28125 120.03125 8.28125 120.03125 6.5 117.5 C5.9121875 116.6853125 5.324375 115.870625 4.71875 115.03125 C0.0517033 106.80027673 -0.41571623 99.21343474 -0.29296875 89.87109375 C-0.28872391 88.64084976 -0.28447906 87.41060577 -0.28010559 86.14308167 C-0.26340766 82.24099184 -0.22577075 78.33943188 -0.1875 74.4375 C-0.17073803 71.78060652 -0.15875539 69.12371802 -0.14648438 66.46679688 C-0.11353306 59.97766261 -0.06181132 53.48892093 0 47 C-6.93 47 -13.86 47 -21 47 C-21 40.73 -21 34.46 -21 28 C-14.07 28 -7.14 28 0 28 C0 18.76 0 9.52 0 0 Z " fill="#030303" transform="translate(286,345)"/>
<path d="M0 0 C0.66 0 1.32 0 2 0 C7.33333333 10.66666667 12.66666667 21.33333333 18 32 C18.40476562 32.72703125 18.80953125 33.4540625 19.2265625 34.203125 C20 36 20 36 20 40 C20.66 40 21.32 40 22 40 C22.99 43.3 23.98 46.6 25 50 C25.66 50 26.32 50 27 50 C27.74443359 51.70542969 27.74443359 51.70542969 28.50390625 53.4453125 C29.18922305 55.00559564 29.87548977 56.56546175 30.5625 58.125 C30.92021484 58.93727051 31.27792969 59.74954102 31.64648438 60.58642578 C34.45738468 66.91095147 37.51167776 73.06446291 40.75 79.1796875 C42 82 42 82 42 86 C39.87849937 86.65723723 37.75255686 87.30014022 35.625 87.9375 C34.44164062 88.29714844 33.25828125 88.65679687 32.0390625 89.02734375 C22.71434424 91.47281101 13.0044175 91.1863475 3.43334961 91.18530273 C1.20211591 91.1874857 -1.02861908 91.20569511 -3.25976562 91.22460938 C-14.38671817 91.26870002 -25.00672061 90.23918249 -35.8125 87.375 C-36.80894531 87.11460937 -37.80539062 86.85421875 -38.83203125 86.5859375 C-39.54746094 86.39257812 -40.26289062 86.19921875 -41 86 C-40.38425626 81.09329205 -38.25176237 77.19743896 -36 72.875 C-35.2690902 71.45662608 -34.53985487 70.0373877 -33.8125 68.6171875 C-33.48894531 67.99440918 -33.16539062 67.37163086 -32.83203125 66.72998047 C-31.87273984 64.82855696 -31.87273984 64.82855696 -31 62 C-30.01 61.505 -30.01 61.505 -29 61 C-28.09274566 58.88672575 -28.09274566 58.88672575 -27.375 56.4375 C-27.11460937 55.61121094 -26.85421875 54.78492188 -26.5859375 53.93359375 C-26.39257812 53.29550781 -26.19921875 52.65742188 -26 52 C-25.34 52 -24.68 52 -24 52 C-23.9175 51.13375 -23.835 50.2675 -23.75 49.375 C-22.87883458 45.45475561 -21.23775372 43.32466267 -19 40 C-18.38153802 38.57726011 -17.80196698 37.13733326 -17.25 35.6875 C-14.29274471 27.92470487 -10.57977863 20.48973101 -7 13 C-6.34 13 -5.68 13 -5 13 C-4.9175 12.34 -4.835 11.68 -4.75 11 C-3.75240209 7.00960837 -1.92833317 3.61450357 0 0 Z " fill="#F9FBFE" transform="translate(991,259)"/>
<path d="M0 0 C2.5215021 -0.08172936 5.04029917 -0.14083373 7.5625 -0.1875 C8.26697266 -0.21263672 8.97144531 -0.23777344 9.69726562 -0.26367188 C14.88003315 -0.33532304 18.36264182 0.67827402 23 3 C23 3.66 23 4.32 23 5 C23.70125 5.185625 24.4025 5.37125 25.125 5.5625 C31.56426668 8.78213334 35.54388875 15.38945669 38 22 C38.5549156 25.12653366 38.61966684 28.14263108 38.5625 31.3125 C38.55589355 32.14120605 38.54928711 32.96991211 38.54248047 33.82373047 C38.33300211 40.57051456 36.94212217 46.38546236 33 52 C32.01 52.495 32.01 52.495 31 53 C30.71125 53.66 30.4225 54.32 30.125 55 C29 57 29 57 26.875 57.75 C26.25625 57.8325 25.6375 57.915 25 58 C25 58.66 25 59.32 25 60 C22.09399739 61.25664978 20.20395416 62 17 62 C17 62.66 17 63.32 17 64 C14.16560863 64.10901505 11.33549797 64.18777904 8.5 64.25 C7.70851563 64.28351563 6.91703125 64.31703125 6.1015625 64.3515625 C-0.79427525 64.46460902 -5.89320294 62.74742874 -11.09375 58.1484375 C-11.5578125 57.56320312 -12.021875 56.97796875 -12.5 56.375 C-12.9846875 55.78460938 -13.469375 55.19421875 -13.96875 54.5859375 C-15 53 -15 53 -15 51 C-15.66 51 -16.32 51 -17 51 C-22.00722719 41.85636773 -22.858669 29.23243739 -20.24609375 19.06640625 C-17.36528352 12.36711031 -12.9590297 7.2063739 -7 3 C-3.125 2.1875 -3.125 2.1875 0 2 C0 1.34 0 0.68 0 0 Z " fill="#F7F7F7" transform="translate(503,391)"/>
<path d="M0 0 C9.93492237 7.43903649 9.93492237 7.43903649 11.03515625 12.50390625 C11.29680929 14.46630407 11.44811733 16.44273849 11.58203125 18.41796875 C12.24203125 18.41796875 12.90203125 18.41796875 13.58203125 18.41796875 C13.66359562 21.27272181 13.72279497 24.1251044 13.76953125 26.98046875 C13.79466797 27.78033203 13.81980469 28.58019531 13.84570312 29.40429688 C13.9125801 34.8659168 13.07298315 38.54720978 10.58203125 43.41796875 C9.92203125 43.41796875 9.26203125 43.41796875 8.58203125 43.41796875 C8.30359375 44.46984375 8.30359375 44.46984375 8.01953125 45.54296875 C5.30359319 50.97484488 -0.0842374 54.67902563 -5.41796875 57.41796875 C-13.0548224 59.86176192 -23.99750107 59.58610011 -31.41796875 56.41796875 C-38.43951261 51.81764691 -42.85841704 45.65103768 -45.73046875 37.85546875 C-47.76477255 27.84195395 -47.54048244 17.41234897 -42.41796875 8.41796875 C-40.90625 6.1484375 -40.90625 6.1484375 -39.41796875 4.41796875 C-38.75796875 4.41796875 -38.09796875 4.41796875 -37.41796875 4.41796875 C-37.41796875 3.75796875 -37.41796875 3.09796875 -37.41796875 2.41796875 C-28.05426434 -7.25785914 -10.76131454 -7.0409247 0 0 Z " fill="#FAFAFA" transform="translate(696.41796875,395.58203125)"/>
<path d="M0 0 C11.22481361 -0.62456459 18.14535055 0.55464315 26.8125 7.8125 C33.45854698 14.04099429 36.04876671 20.06339139 36.39355469 29.14379883 C36.61080262 40.79190885 33.86430485 49.09671178 26 58 C25.34 58 24.68 58 24 58 C23.67 58.99 23.34 59.98 23 61 C14.76248712 65.27717015 3.82077345 65.39279942 -4.9375 62.8125 C-13.90110195 59.22052836 -17.90463816 52.48405539 -22 44 C-23.23008631 39.77762509 -23.11678175 35.55091786 -23.0625 31.1875 C-23.05798828 30.49462891 -23.05347656 29.80175781 -23.04882812 29.08789062 C-23.03713156 27.39188932 -23.01919924 25.69593297 -23 24 C-22.34 24 -21.68 24 -21 24 C-20.85304688 23.12988281 -20.85304688 23.12988281 -20.703125 22.2421875 C-19.13022047 14.02511726 -15.91530426 9.08477773 -9.10546875 4.19140625 C-6.01477729 2.44249921 -3.52433867 2.14684744 0 2 C0 1.34 0 0.68 0 0 Z " fill="#F9F9F9" transform="translate(92,204)"/>
<path d="M0 0 C5.85680848 4.5067989 11.01478716 10.37606775 12.5859375 17.75 C13.76571702 27.01015624 14.27928564 37.44142873 10 46 C9.34 46 8.68 46 8 46 C7.731875 46.5775 7.46375 47.155 7.1875 47.75 C5.97070811 50.05550043 4.69666121 52.02056192 3 54 C2.34 54 1.68 54 1 54 C0.67 54.99 0.34 55.98 0 57 C-7.95535664 61.05272885 -17.87789486 61.08963447 -26.4375 59.1875 C-29.68559765 58.10480078 -32.26395564 57.05203327 -35 55 C-35 54.34 -35 53.68 -35 53 C-35.99 52.67 -36.98 52.34 -38 52 C-38 51.34 -38 50.68 -38 50 C-38.66 50 -39.32 50 -40 50 C-40.67595315 48.58774074 -41.34040059 47.16997095 -42 45.75 C-42.37125 44.96109375 -42.7425 44.1721875 -43.125 43.359375 C-44 41 -44 41 -44 37 C-44.66 37 -45.32 37 -46 37 C-46.69895391 25.35076812 -46.60918089 17.03179242 -40 7 C-39.34 7 -38.68 7 -38 7 C-37.67 6.01 -37.34 5.02 -37 4 C-27.61708926 -4.93231898 -11.32182608 -5.80606465 0 0 Z " fill="#F9F9F9" transform="translate(699,208)"/>
<path d="M0 0 C5.42907487 4.26119249 9.12319414 8.34233791 10.875 15.1875 C11.180344 18.67060258 11.19974523 22.13021149 11.1875 25.625 C11.20361328 26.54087891 11.21972656 27.45675781 11.23632812 28.40039062 C11.24352259 38.42228196 7.79090522 44.08593289 0.875 51.1875 C0.111875 51.97125 -0.65125 52.755 -1.4375 53.5625 C-7.9145397 57.47884959 -14.98520506 57.39057739 -22.375 57.0625 C-23.04829346 57.04098877 -23.72158691 57.01947754 -24.4152832 56.99731445 C-30.6629991 56.58574202 -34.26976398 54.17924168 -38.4609375 49.6796875 C-39.47027344 48.38417969 -39.47027344 48.38417969 -40.5 47.0625 C-41.18835938 46.19367188 -41.87671875 45.32484375 -42.5859375 44.4296875 C-44.125 42.1875 -44.125 42.1875 -44.125 40.1875 C-44.785 40.1875 -45.445 40.1875 -46.125 40.1875 C-49.32428642 30.28373288 -49.77798922 19.66581138 -45.125 10.1875 C-44.2896875 8.455 -44.2896875 8.455 -43.4375 6.6875 C-43.004375 5.8625 -42.57125 5.0375 -42.125 4.1875 C-41.465 4.1875 -40.805 4.1875 -40.125 4.1875 C-39.815625 3.32125 -39.815625 3.32125 -39.5 2.4375 C-36.85057781 -1.89791812 -32.24430651 -4.28963611 -27.375 -5.49609375 C-16.6155071 -7.00914744 -8.83180954 -6.23133229 0 0 Z " fill="#F9F9F9" transform="translate(350.125,210.8125)"/>
<path d="M0 0 C3.13954169 2.47456932 4.09149045 3.81250455 5 7.625 C5.99 7.955 6.98 8.285 8 8.625 C12.85283154 17.42177156 13.08459406 26.98375248 11 36.625 C10.34 36.625 9.68 36.625 9 36.625 C8.855625 37.57375 8.71125 38.5225 8.5625 39.5 C8 42.625 8 42.625 7 44.625 C6.34 44.625 5.68 44.625 5 44.625 C4.7628125 45.20894531 4.525625 45.79289062 4.28125 46.39453125 C2.72773553 49.0989726 0.98987769 50.44913374 -1.5 52.3125 C-2.2940625 52.91449219 -3.088125 53.51648438 -3.90625 54.13671875 C-8.44897644 57.36578363 -12.63155487 56.91844314 -18.0625 57 C-19.43825195 57.05607422 -19.43825195 57.05607422 -20.84179688 57.11328125 C-27.78621536 57.20187057 -32.27949051 55.52683002 -38 51.625 C-38 50.635 -38 49.645 -38 48.625 C-38.61875 48.398125 -39.2375 48.17125 -39.875 47.9375 C-42.61410209 46.24570165 -43.05024472 44.63255839 -44 41.625 C-44.66 41.625 -45.32 41.625 -46 41.625 C-47.79985581 36.20383429 -48.3653833 31.38539525 -48.375 25.6875 C-48.39949219 24.92759766 -48.42398437 24.16769531 -48.44921875 23.38476562 C-48.49229435 14.97784373 -44.47179774 7.87412834 -39 1.625 C-28.85719201 -7.98397599 -10.99104863 -8.12155017 0 0 Z " fill="#F9F9F9" transform="translate(540,210.375)"/>
<path d="M0 0 C0 7.59 0 15.18 0 23 C-7.5625 22.875 -7.5625 22.875 -9.90063477 22.81982422 C-15.76238953 22.77350986 -20.67386201 23.5654934 -25.76171875 26.703125 C-28.50983518 29.52318165 -29.51613013 32.04608607 -30.8125 35.75 C-31.23144531 36.92046875 -31.65039062 38.0909375 -32.08203125 39.296875 C-32.38496094 40.18890625 -32.68789063 41.0809375 -33 42 C-33.66 42 -34.32 42 -35 42 C-35 61.14 -35 80.28 -35 100 C-40.94 100 -46.88 100 -53 100 C-56 97 -56 97 -56.36914349 95.13158894 C-56.36637811 94.4264173 -56.36361273 93.72124567 -56.36076355 92.9947052 C-56.36488754 92.18282242 -56.36901154 91.37093964 -56.3732605 90.53445435 C-56.36247467 89.64756927 -56.35168884 88.7606842 -56.34057617 87.84692383 C-56.34101425 86.91014297 -56.34145233 85.97336212 -56.34190369 85.00819397 C-56.33981139 81.90759538 -56.31645931 78.80753554 -56.29296875 75.70703125 C-56.28737437 73.55897823 -56.28310353 71.41092138 -56.28010559 69.26286316 C-56.26864441 63.60581924 -56.23916613 57.94900594 -56.20599365 52.29205322 C-56.17532029 46.52090576 -56.1616061 40.74972108 -56.14648438 34.97851562 C-56.11429772 23.65222606 -56.06151926 12.32616827 -56 1 C-49.07 1 -42.14 1 -35 1 C-35 5.95 -35 10.9 -35 16 C-34.34 16 -33.68 16 -33 16 C-32.979375 15.319375 -32.95875 14.63875 -32.9375 13.9375 C-31.26383348 8.6933449 -27.44586087 5.51263005 -22.83984375 2.6640625 C-15.37526849 -0.85014489 -8.06777936 -0.29337379 0 0 Z " fill="#030303" transform="translate(463,186)"/>
<path d="M0 0 C7.26 0 14.52 0 22 0 C22 33 22 66 22 100 C14.74 100 7.48 100 0 100 C0 67 0 34 0 0 Z " fill="#0A0A0A" transform="translate(586,373)"/>
<path d="M0 0 C7.26 0 14.52 0 22 0 C22 33 22 66 22 100 C4 100 4 100 0 97 C-0.49219131 95.11597157 -0.49219131 95.11597157 -0.48101807 92.95674133 C-0.48651672 92.1364444 -0.49201538 91.31614746 -0.49768066 90.47099304 C-0.48329956 89.57475723 -0.46891846 88.67852142 -0.45410156 87.75512695 C-0.45468567 86.80859253 -0.45526978 85.86205811 -0.45587158 84.88684082 C-0.45308158 81.75361647 -0.42194587 78.62133971 -0.390625 75.48828125 C-0.38316588 73.31781026 -0.3774714 71.14733254 -0.37347412 68.97685242 C-0.35819196 63.2605433 -0.31888758 57.54463989 -0.2746582 51.82849121 C-0.23376135 45.99704477 -0.21547503 40.16553285 -0.1953125 34.33398438 C-0.15239598 22.88911587 -0.08202471 11.44465512 0 0 Z " fill="#090909" transform="translate(591,186)"/>
<path d="M0 0 C3.86935913 1.68786859 6.70262013 3.82762013 9.6875 6.8125 C10.5625 9.125 10.5625 9.125 10.6875 10.8125 C11.3475 10.8125 12.0075 10.8125 12.6875 10.8125 C14.64227895 16.67683685 14.75572531 23.5695021 12.81640625 29.45703125 C9.59126558 35.66410527 5.12171501 40.17004934 -1.1875 43.1875 C-7.47475255 44.44495051 -13.37141644 44.4859876 -19.3125 41.8125 C-19.6425 41.1525 -19.9725 40.4925 -20.3125 39.8125 C-21.23289062 39.38517578 -21.23289062 39.38517578 -22.171875 38.94921875 C-26.5664783 36.61558816 -28.55589358 32.31098888 -30.3125 27.8125 C-31.41961298 20.88576022 -31.87521312 14.0311403 -27.625 8.125 C-19.77662599 -0.38817745 -11.40505426 -3.86760992 0 0 Z " fill="#F9F9FA" transform="translate(1000.3125,196.1875)"/>
<path d="M0 0 C2.75 1.9375 2.75 1.9375 5 4 C5.99 4.33 6.98 4.66 8 5 C10.31243839 9.11505166 10.33993053 13.31851473 10.4140625 17.92578125 C10.43342865 18.67337204 10.4527948 19.42096283 10.4727478 20.19120789 C10.53223918 22.56485806 10.57880592 24.93855754 10.625 27.3125 C10.66320789 28.92775482 10.70226125 30.54298987 10.7421875 32.15820312 C10.8379153 36.1053071 10.92205767 40.05250639 11 44 C10.43369873 43.85780029 9.86739746 43.71560059 9.28393555 43.5690918 C4.3790744 42.39814147 -0.11534397 41.74945625 -5.1875 41.8125 C-6.33605469 41.81894531 -7.48460937 41.82539063 -8.66796875 41.83203125 C-11.85556237 41.99271885 -14.86039247 42.44950476 -18 43 C-18.12426004 38.28614767 -18.21464511 33.5732631 -18.2746582 28.8581543 C-18.29969279 27.25674823 -18.33373162 25.65545518 -18.37719727 24.05444336 C-18.43834544 21.74304232 -18.46631814 19.43316034 -18.48828125 17.12109375 C-18.51408768 16.41351425 -18.5398941 15.70593475 -18.56648254 14.97691345 C-18.56956396 9.42711933 -16.80197967 5.88258822 -13 2 C-8.71197214 -0.14401393 -4.75132746 -0.51832663 0 0 Z " fill="#4989F3" transform="translate(996,136)"/>
<path d="M0 0 C5.62557078 5.88127854 5.62557078 5.88127854 6 10 C6.12375 11.093125 6.2475 12.18625 6.375 13.3125 C5.79459727 19.0197935 3.01749915 22.21307219 -1.1875 25.9375 C-5.51402727 27.57196586 -9.44973737 27.88595456 -14 27 C-18.23774285 24.60171696 -21.16808849 21.52490585 -23 17 C-23.86305738 12.50904653 -23.95552133 8.60475226 -21.57421875 4.60546875 C-15.94012664 -2.09029382 -8.22688473 -4.76293327 0 0 Z " fill="#090909" transform="translate(605,324)"/>
<path d="M0 0 C3.29684718 1.97810831 5.62595497 4.48465207 6.76953125 8.20703125 C7.67515901 12.76902529 8.40560195 17.20958784 5.98828125 21.3828125 C3.4011301 24.49782069 1.02559609 26.8551778 -2.8125 28.3125 C-5.03125 28.32421875 -5.03125 28.32421875 -7.3125 28 C-8.44171875 27.85111328 -8.44171875 27.85111328 -9.59375 27.69921875 C-15.49035091 26.67146613 -15.49035091 26.67146613 -18 23.875 C-20.87632508 18.22153347 -21.36594575 12.94136729 -20.0625 6.75 C-18.8125 4.3125 -18.8125 4.3125 -15.8125 3.3125 C-15.8125 2.6525 -15.8125 1.9925 -15.8125 1.3125 C-10.7453038 -1.58304069 -5.57726411 -1.36333123 0 0 Z " fill="#040404" transform="translate(608.8125,136.6875)"/>
<path d="M0 0 C7.59 0 15.18 0 23 0 C23 33.66 23 67.32 23 102 C15.41 102 7.82 102 0 102 C0 98.37 0 94.74 0 91 C-0.66 91 -1.32 91 -2 91 C-1.67 90.01 -1.34 89.02 -1 88 C-0.34 88 0.32 88 1 88 C1 91.96 1 95.92 1 100 C7.93 100 14.86 100 22 100 C22 67.33 22 34.66 22 1 C15.07 1 8.14 1 1 1 C1 20.47 1 39.94 1 60 C0.67 60 0.34 60 0 60 C0 40.2 0 20.4 0 0 Z " fill="#7D7D7D" transform="translate(418,372)"/>
<path d="M0 0 C1.42041821 2.84083641 1.31452272 4.85477278 1 8 C-0.98322993 10.7912125 -2.12986121 11.82597224 -5.5 12.5 C-8.87013879 11.82597224 -10.01677007 10.7912125 -12 8 C-12.5625 4.9375 -12.5625 4.9375 -12 2 C-8.15010909 -1.61656419 -4.93693374 -1.23423343 0 0 Z " fill="#EDFBF3" transform="translate(1126,359)"/>
<path d="M0 0 C3.375 0.875 3.375 0.875 5.375 2.875 C5.84379799 6.46911792 5.81861448 8.22664037 3.75 11.25 C0.69714079 13.33879841 -0.99468224 13.41568562 -4.625 12.875 C-6.5 11.75 -6.5 11.75 -7.625 9.875 C-8.16352618 6.25918138 -8.04736225 4.53388511 -6.0625 1.4375 C-3.625 -0.125 -3.625 -0.125 0 0 Z " fill="#ECFBF3" transform="translate(1090.625,293.125)"/>
<path d="M0 0 C0.66 0.33 1.32 0.66 2 1 C0.38405168 3.04119788 -1.2856382 5.04072937 -3 7 C-3.66 7 -4.32 7 -5 7 C-6.62849969 11.35590568 -7.34118446 15.23934612 -7.625 19.875 C-7.69976563 21.02742188 -7.77453125 22.17984375 -7.8515625 23.3671875 C-7.92503906 24.67042969 -7.92503906 24.67042969 -8 26 C-8.33 26 -8.66 26 -9 26 C-10.03345518 11.30197076 -10.03345518 11.30197076 -6.1875 6.25 C-4.60546875 4.515625 -4.60546875 4.515625 -3 3 C-2.43925781 2.43796875 -1.87851562 1.8759375 -1.30078125 1.296875 C-0.87152344 0.86890625 -0.44226563 0.4409375 0 0 Z " fill="#B3BFC5" transform="translate(979,198)"/>
<path d="M0 0 C0.66 0 1.32 0 2 0 C2 3.96 2 7.92 2 12 C8.93 12 15.86 12 23 12 C23 12.33 23 12.66 23 13 C15.74 13 8.48 13 1 13 C1 9.7 1 6.4 1 3 C0.34 3 -0.32 3 -1 3 C-0.67 2.01 -0.34 1.02 0 0 Z " fill="#4B4B4B" transform="translate(417,460)"/>
<path d="M0 0 C0.66 0.33 1.32 0.66 2 1 C0.92492371 2.29854721 -0.16043736 3.58858361 -1.25 4.875 C-1.85328125 5.59429687 -2.4565625 6.31359375 -3.078125 7.0546875 C-4.97087634 8.97052118 -6.53657727 9.96449045 -9 11 C-8.67 9.68 -8.34 8.36 -8 7 C-7.34 7 -6.68 7 -6 7 C-5.7525 6.401875 -5.505 5.80375 -5.25 5.1875 C-3.83629988 2.71352479 -2.34944617 1.56629745 0 0 Z " fill="#C4C4C4" transform="translate(316,208)"/>
<path d="M0 0 C0.66 0.33 1.32 0.66 2 1 C0.625 2.5 0.625 2.5 -1 4 C-1.66 4 -2.32 4 -3 4 C-3.268125 4.639375 -3.53625 5.27875 -3.8125 5.9375 C-5 8 -5 8 -8 9 C-6.4169423 4.7257442 -3.49431596 2.73468206 0 0 Z " fill="#B8B8B8" transform="translate(83,208)"/>
<path d="M0 0 C0.66 0 1.32 0 2 0 C2 4.29 2 8.58 2 13 C1.67 13 1.34 13 1 13 C1 9.7 1 6.4 1 3 C0.34 3 -0.32 3 -1 3 C-0.67 2.01 -0.34 1.02 0 0 Z " fill="#7C7C7C" transform="translate(417,460)"/>
<path d="M0 0 C0.66 0.33 1.32 0.66 2 1 C1.0479279 2.00596297 0.08812654 3.00461563 -0.875 4 C-1.40867187 4.556875 -1.94234375 5.11375 -2.4921875 5.6875 C-4 7 -4 7 -6 7 C-5.34 5.68 -4.68 4.36 -4 3 C-3.34 3 -2.68 3 -2 3 C-2 2.34 -2 1.68 -2 1 C-1.34 0.67 -0.68 0.34 0 0 Z " fill="#3A3A3A" transform="translate(595,137)"/>
</svg>
