<?xml version="1.0" encoding="UTF-8"?>
<svg version="1.1" xmlns="http://www.w3.org/2000/svg" width="821" height="475">
<path d="M0 0 C270.93 0 541.86 0 821 0 C821 156.75 821 313.5 821 475 C550.07 475 279.14 475 0 475 C0 318.25 0 161.5 0 0 Z " fill="#2F80EC" transform="translate(0,0)"/>
<path d="M0 0 C0.84896851 -0.0049649 1.69793701 -0.00992981 2.57263184 -0.01504517 C5.38990075 -0.02968635 8.20711331 -0.03647281 11.02441406 -0.04199219 C12.98016359 -0.04774299 14.93591311 -0.05350073 16.8916626 -0.05926514 C20.9974392 -0.06978135 25.10319619 -0.07561964 29.20898438 -0.07910156 C34.46595308 -0.08458095 39.72266207 -0.10859453 44.97954941 -0.13707352 C49.02191927 -0.15571502 53.06422684 -0.16090635 57.10663605 -0.16243744 C59.04428779 -0.16546218 60.98193848 -0.17348467 62.91954803 -0.18662262 C65.63406486 -0.2037111 68.34795094 -0.20179579 71.0625 -0.1953125 C71.86065125 -0.20452728 72.65880249 -0.21374207 73.48114014 -0.22323608 C78.98694938 -0.18212243 83.25794424 0.79744335 87.43457031 4.69628906 C91.16682143 9.57692514 91.96229327 12.32590646 92.10644531 18.35253906 C92.12722641 19.08947495 92.14800751 19.82641083 92.16941833 20.5856781 C92.21279475 22.16358455 92.25382235 23.74155699 92.29272461 25.31958008 C92.35032911 27.63481094 92.41614211 29.94968061 92.48339844 32.26464844 C92.72269423 41.00386326 92.81840629 49.7380777 92.80859375 58.48046875 C92.80791303 59.55770612 92.8072323 60.63494349 92.80653095 61.74482441 C92.7871087 81.83517749 92.68192835 101.9252517 92.55432415 122.0151701 C92.50907674 129.1869385 92.46963118 136.35865141 92.44360352 143.53051758 C92.42062057 149.86120689 92.38727275 156.19174078 92.3413375 162.52230674 C92.31751475 165.85219729 92.30026526 169.18179591 92.29242516 172.51178551 C92.28282602 176.2033248 92.25483299 179.89429388 92.22241211 183.58569336 C92.22456474 185.21963295 92.22456474 185.21963295 92.22676086 186.88658142 C92.15846782 192.37185684 91.96558221 196.46834732 88.79003906 201.16113281 C86.10253906 203.53613281 86.10253906 203.53613281 83.79003906 205.16113281 C87.09003906 205.82113281 90.39003906 206.48113281 93.79003906 207.16113281 C89.60929534 211.34187654 81.62504491 210.27639162 75.9683075 210.30776978 C74.75483391 210.30709 74.75483391 210.30709 73.5168457 210.30639648 C72.19762115 210.3114344 72.19762115 210.3114344 70.85174561 210.3165741 C67.96788078 210.32600697 65.08407457 210.32802379 62.20019531 210.32910156 C60.17109657 210.33232108 58.14199805 210.33568565 56.11289978 210.33918762 C51.86391666 210.34516096 47.61495382 210.34702953 43.3659668 210.34643555 C37.9703155 210.3463344 32.57479721 210.35994527 27.17917728 210.37720776 C22.98621547 210.38843264 18.79328466 210.39035151 14.60030937 210.38982582 C12.6139728 210.3909918 10.62763505 210.39533402 8.64131355 210.40315819 C-3.78991298 210.44751636 -15.88644432 209.82958477 -28.20996094 208.16113281 C-24.57276489 205.73633545 -22.35292612 205.77450704 -18.02246094 205.53613281 C-16.11400391 205.42398438 -16.11400391 205.42398438 -14.16699219 205.30957031 C-13.19117188 205.26058594 -12.21535156 205.21160156 -11.20996094 205.16113281 C-12.15871094 204.43925781 -13.10746094 203.71738281 -14.08496094 202.97363281 C-17.04646912 200.72031137 -18.03088766 198.67848645 -19.20996094 195.16113281 C-19.47167397 192.47170258 -19.47167397 192.47170258 -19.48843384 189.51599121 C-19.49959732 188.38987427 -19.5107608 187.26375732 -19.52226257 186.10351562 C-19.52442276 184.87665039 -19.52658295 183.64978516 -19.52880859 182.38574219 C-19.53885422 181.08560181 -19.54889984 179.78546143 -19.55924988 178.44592285 C-19.58656381 174.87828234 -19.60171677 171.31068146 -19.61467791 167.74296379 C-19.63039289 163.97951734 -19.65718297 160.21614917 -19.68270874 156.45275879 C-19.72955476 149.29452052 -19.76623003 142.13626675 -19.79938161 134.97795343 C-19.83710939 126.94808925 -19.88686568 118.91831443 -19.93736577 110.88852215 C-20.0823167 87.6690399 -20.21810122 64.44948013 -20.23486328 41.22949219 C-20.23640223 40.05590904 -20.23794117 38.8823259 -20.23952675 37.67317963 C-20.24004627 11.58330818 -20.24004627 11.58330818 -15.20996094 5.16113281 C-9.98322364 0.55662615 -6.81504095 0.00944902 0 0 Z " fill="#706F6F" transform="translate(350.2099609375,32.8388671875)"/>
<path d="M0 0 C15.0597688 11.54199074 25.61733872 28.1148372 28.18359375 47.0859375 C29.51833007 69.03208282 23.41340355 87.01326129 9.37109375 103.7734375 C-2.03227758 116.20551987 -19.20374803 124.22978028 -35.98828125 125.46875 C-55.08738062 126.27844298 -72.91845482 120.0014968 -87.359375 107.37890625 C-88.57560547 106.24388672 -88.57560547 106.24388672 -89.81640625 105.0859375 C-90.89341797 104.09013672 -90.89341797 104.09013672 -91.9921875 103.07421875 C-103.34677258 91.49915629 -109.98391828 73.69171354 -110.06640625 57.5859375 C-110.00459868 56.08489644 -109.93065761 54.58389981 -109.81640625 53.0859375 C-110.47640625 52.7559375 -111.13640625 52.4259375 -111.81640625 52.0859375 C-111.15640625 52.0859375 -110.49640625 52.0859375 -109.81640625 52.0859375 C-109.77773438 51.10367188 -109.77773438 51.10367188 -109.73828125 50.1015625 C-108.60432883 31.85523724 -99.93045869 16.43898555 -86.81640625 4.0859375 C-61.20363153 -17.41879107 -27.61614128 -18.76825136 0 0 Z " fill="#FCFDFE" transform="translate(638.81640625,36.9140625)"/>
<path d="M0 0 C14.69532197 11.26267425 24.07646962 25.94866607 27.79296875 44.0546875 C30.22502769 62.9274649 26.31497519 81.32702097 15.1875 96.875 C4.19255051 111.10375816 -11.43222218 121.81429628 -29.48828125 124.48046875 C-32.26567019 124.77468368 -35.02723628 124.94746807 -37.81640625 125.0859375 C-38.63238281 125.16199219 -39.44835937 125.23804688 -40.2890625 125.31640625 C-57.65759925 126.30966106 -74.38277555 118.45690759 -87.25390625 107.4140625 C-100.87829108 95.03581043 -108.83773293 78.26900812 -110.19140625 59.86328125 C-111.00937637 41.23102961 -105.05613019 23.54142688 -92.50390625 9.6484375 C-67.4129295 -16.78856561 -29.99084107 -20.382125 0 0 Z " fill="#FDFDFE" transform="translate(427.81640625,273.9140625)"/>
<path d="M0 0 C13.37374941 10.24980489 23.37826219 24.5294072 27.18359375 41.0859375 C27.5489363 44.06772312 27.79851165 47.00238409 27.91015625 50.00390625 C28.04550781 51.03451172 28.04550781 51.03451172 28.18359375 52.0859375 C28.84359375 52.4159375 29.50359375 52.7459375 30.18359375 53.0859375 C29.52359375 53.0859375 28.86359375 53.0859375 28.18359375 53.0859375 C28.24546875 54.2615625 28.30734375 55.4371875 28.37109375 56.6484375 C28.31054183 75.90394931 20.08530674 92.09268323 7.3359375 105.9921875 C-4.83480035 117.83159855 -21.04802961 124.28067647 -37.81640625 125.0859375 C-38.6671875 125.15039062 -39.51796875 125.21484375 -40.39453125 125.28125 C-57.63058709 126.05532436 -74.57885586 118.55016529 -87.359375 107.37890625 C-88.57560547 106.24388672 -88.57560547 106.24388672 -89.81640625 105.0859375 C-90.89341797 104.09013672 -90.89341797 104.09013672 -91.9921875 103.07421875 C-104.03664339 90.79588993 -110.06890069 72.54973625 -110.31640625 55.5859375 C-110.04350894 36.89886812 -102.87280387 19.96413581 -89.67578125 6.7421875 C-64.08049575 -17.03485368 -28.90567496 -19.64463347 0 0 Z " fill="#FCFDFE" transform="translate(215.81640625,36.9140625)"/>
<path d="M0 0 C2.83534065 1.67995593 5.44994693 3.55489015 6.66015625 6.734375 C7.12585776 9.83905171 7.13164939 12.86148636 7.125 16 C7.12886719 17.8253125 7.12886719 17.8253125 7.1328125 19.6875 C7.02616155 22.34750011 6.79307874 24.48228971 6 27 C6.556875 27.14695312 7.11375 27.29390625 7.6875 27.4453125 C15.04505919 29.60783834 21.93362958 33.22687381 26 40 C26.43689627 42.97461289 26.31737292 44.44512284 24.8203125 47.0625 C20.2703887 52.26241292 15.52794029 55.62620353 9 58 C8.01 58 7.02 58 6 58 C6.33 58.99 6.66 59.98 7 61 C7.14854388 63.80519407 7.23104204 66.56922127 7.25 69.375 C7.270625 70.13039063 7.29125 70.88578125 7.3125 71.6640625 C7.34458201 76.25179055 7.05324954 79.32784853 4 83 C0.45945077 85.40097974 -2.3688823 85.29181124 -6.48828125 84.75390625 C-10.49586567 83.55100766 -13.47825772 81.15557204 -16.73828125 78.59375 C-18.94555148 77.03836787 -20.31597302 76.20689375 -23 76 C-24.43382003 77.16706282 -25.86124514 78.34413388 -27.234375 79.58203125 C-31.62025077 83.10431643 -36.20019616 85 -41.8125 85 C-45.31586975 83.90090361 -46.78595427 82.89529057 -49 80 C-50.23482184 76.29553447 -50.14558202 72.8556992 -50.125 69 C-50.13080078 67.91332031 -50.13080078 67.91332031 -50.13671875 66.8046875 C-50.13081927 63.60717121 -50.01805798 61.05417393 -49 58 C-49.78375 57.95875 -50.5675 57.9175 -51.375 57.875 C-57.85557081 56.31072429 -63.19861622 52.96895437 -67.6875 48.0625 C-69.38369009 44.10472312 -69.2681563 42.10285862 -68 38 C-63.86940446 32.7428784 -58.01962749 28.70098495 -51.5 27.1875 C-50.2625 27.0946875 -50.2625 27.0946875 -49 27 C-49.15984375 26.50371094 -49.3196875 26.00742188 -49.484375 25.49609375 C-50.20139904 22.02504555 -50.22426477 18.59144333 -50.25 15.0625 C-50.270625 14.35931641 -50.29125 13.65613281 -50.3125 12.93164062 C-50.34629557 8.4241564 -49.79256994 5.57204941 -47 2 C-43.50989055 0.25494527 -39.81626695 0.55966151 -36 1 C-30.3954612 2.89565283 -25.69000833 6.48249375 -21 10 C-20.38125 9.41992188 -20.38125 9.41992188 -19.75 8.828125 C-14.28450275 3.89941766 -7.79155613 -1.5244349 0 0 Z " fill="#6CDCFB" transform="translate(617,47)"/>
<path d="M0 0 C0.84896851 -0.0049649 1.69793701 -0.00992981 2.57263184 -0.01504517 C5.38990075 -0.02968635 8.20711331 -0.03647281 11.02441406 -0.04199219 C12.98016359 -0.04774299 14.93591311 -0.05350073 16.8916626 -0.05926514 C20.9974392 -0.06978135 25.10319619 -0.07561964 29.20898438 -0.07910156 C34.46595308 -0.08458095 39.72266207 -0.10859453 44.97954941 -0.13707352 C49.02191927 -0.15571502 53.06422684 -0.16090635 57.10663605 -0.16243744 C59.04428779 -0.16546218 60.98193848 -0.17348467 62.91954803 -0.18662262 C65.63406486 -0.2037111 68.34795094 -0.20179579 71.0625 -0.1953125 C71.86065125 -0.20452728 72.65880249 -0.21374207 73.48114014 -0.22323608 C78.98694938 -0.18212243 83.25794424 0.79744335 87.43457031 4.69628906 C91.16682143 9.57692514 91.96229327 12.32590646 92.10644531 18.35253906 C92.12722641 19.08947495 92.14800751 19.82641083 92.16941833 20.5856781 C92.21279475 22.16358455 92.25382235 23.74155699 92.29272461 25.31958008 C92.35032911 27.63481094 92.41614211 29.94968061 92.48339844 32.26464844 C92.72269423 41.00386326 92.81840629 49.7380777 92.80859375 58.48046875 C92.80791303 59.55770612 92.8072323 60.63494349 92.80653095 61.74482441 C92.7871087 81.83517749 92.68192835 101.9252517 92.55432415 122.0151701 C92.50907674 129.1869385 92.46963118 136.35865141 92.44360352 143.53051758 C92.42062057 149.86120689 92.38727275 156.19174078 92.3413375 162.52230674 C92.31751475 165.85219729 92.30026526 169.18179591 92.29242516 172.51178551 C92.28282602 176.2033248 92.25483299 179.89429388 92.22241211 183.58569336 C92.22456474 185.21963295 92.22456474 185.21963295 92.22676086 186.88658142 C92.15846782 192.37185684 91.96558221 196.46834732 88.79003906 201.16113281 C86.10253906 203.53613281 86.10253906 203.53613281 83.79003906 205.16113281 C87.09003906 205.82113281 90.39003906 206.48113281 93.79003906 207.16113281 C89.60929534 211.34187654 81.62504491 210.27639162 75.9683075 210.30776978 C74.75483391 210.30709 74.75483391 210.30709 73.5168457 210.30639648 C72.19762115 210.3114344 72.19762115 210.3114344 70.85174561 210.3165741 C67.96788078 210.32600697 65.08407457 210.32802379 62.20019531 210.32910156 C60.17109657 210.33232108 58.14199805 210.33568565 56.11289978 210.33918762 C51.86391666 210.34516096 47.61495382 210.34702953 43.3659668 210.34643555 C37.9703155 210.3463344 32.57479721 210.35994527 27.17917728 210.37720776 C22.98621547 210.38843264 18.79328466 210.39035151 14.60030937 210.38982582 C12.6139728 210.3909918 10.62763505 210.39533402 8.64131355 210.40315819 C-3.78991298 210.44751636 -15.88644432 209.82958477 -28.20996094 208.16113281 C-24.57276489 205.73633545 -22.35292612 205.77450704 -18.02246094 205.53613281 C-16.11400391 205.42398438 -16.11400391 205.42398438 -14.16699219 205.30957031 C-13.19117188 205.26058594 -12.21535156 205.21160156 -11.20996094 205.16113281 C-12.15871094 204.43925781 -13.10746094 203.71738281 -14.08496094 202.97363281 C-17.04646912 200.72031137 -18.03088766 198.67848645 -19.20996094 195.16113281 C-19.47167397 192.47170258 -19.47167397 192.47170258 -19.48843384 189.51599121 C-19.49959732 188.38987427 -19.5107608 187.26375732 -19.52226257 186.10351562 C-19.52442276 184.87665039 -19.52658295 183.64978516 -19.52880859 182.38574219 C-19.53885422 181.08560181 -19.54889984 179.78546143 -19.55924988 178.44592285 C-19.58656381 174.87828234 -19.60171677 171.31068146 -19.61467791 167.74296379 C-19.63039289 163.97951734 -19.65718297 160.21614917 -19.68270874 156.45275879 C-19.72955476 149.29452052 -19.76623003 142.13626675 -19.79938161 134.97795343 C-19.83710939 126.94808925 -19.88686568 118.91831443 -19.93736577 110.88852215 C-20.0823167 87.6690399 -20.21810122 64.44948013 -20.23486328 41.22949219 C-20.23640223 40.05590904 -20.23794117 38.8823259 -20.23952675 37.67317963 C-20.24004627 11.58330818 -20.24004627 11.58330818 -15.20996094 5.16113281 C-9.98322364 0.55662615 -6.81504095 0.00944902 0 0 Z M-10.58496094 11.78613281 C-13.35029205 15.8277706 -13.34098891 18.19677256 -13.35713196 23.11883545 C-13.36080865 23.84318322 -13.36448533 24.567531 -13.36827344 25.31382871 C-13.37933171 27.75349704 -13.38315774 30.19312282 -13.38696289 32.6328125 C-13.39322594 34.37704606 -13.3998726 36.12127828 -13.40687561 37.86550903 C-13.42430044 42.61357127 -13.43484149 47.36162343 -13.44308114 52.10970974 C-13.44822833 55.07502608 -13.4543042 58.04033926 -13.46059227 61.00565338 C-13.47964879 70.2801242 -13.49387874 79.55458703 -13.50220424 88.82907367 C-13.51197827 99.54094288 -13.53830022 110.25260554 -13.57870513 120.96440196 C-13.60884987 129.23962861 -13.62367157 137.514796 -13.62698525 145.79007649 C-13.62933769 150.73448036 -13.63832316 155.67866368 -13.66344643 160.62300873 C-13.68670332 165.27531903 -13.69097 169.92726321 -13.68068504 174.57961655 C-13.68018899 176.28642112 -13.68653004 177.99324356 -13.70024109 179.69999313 C-13.71792758 182.03226651 -13.71087094 184.36322135 -13.69770813 186.69549561 C-13.70009648 188.00000042 -13.70248484 189.30450523 -13.70494556 190.6485405 C-13.12395531 194.77146029 -11.8053975 196.94440476 -9.20996094 200.16113281 C-6.04637278 201.74292689 -2.64214005 201.31734379 0.83227539 201.32226562 C1.66334305 201.32723053 2.49441071 201.33219543 3.35066223 201.33731079 C6.1078066 201.35194943 8.86489342 201.35873759 11.62207031 201.36425781 C13.53537498 201.3700083 15.44867963 201.37576605 17.36198425 201.38153076 C21.37780018 201.39204589 25.39359606 201.39788506 29.40942383 201.40136719 C34.55439309 201.40684996 39.69909744 201.4308712 44.84398365 201.45933914 C48.79795606 201.47796728 52.75186472 201.48317124 56.7058773 201.48470306 C58.60248957 201.48773023 60.49910069 201.49576089 62.39566994 201.50888824 C65.05052421 201.5259508 67.70473222 201.52406792 70.35961914 201.51757812 C71.53418671 201.5314003 71.53418671 201.5314003 72.73248291 201.54550171 C77.26658868 201.51079704 80.20746365 201.00455664 83.79003906 198.16113281 C86.28384232 194.42042792 86.04607877 192.48055309 86.0574646 188.00724792 C86.06426127 186.90719397 86.06426127 186.90719397 86.07119524 185.7849167 C86.08388364 183.32065891 86.08221603 180.85662088 86.08056641 178.39233398 C86.08654895 176.62824722 86.09335386 174.86416308 86.10092163 173.1000824 C86.11861818 168.30247558 86.12327859 163.50494006 86.1245532 158.70730376 C86.12645063 154.70384729 86.13380648 150.70040748 86.14089739 146.69695741 C86.15719335 137.25133218 86.1620653 127.80574509 86.16064453 118.36010742 C86.15944322 108.6142569 86.18054015 98.86862789 86.21213186 89.12283343 C86.23828026 80.75840658 86.24901241 72.39405212 86.24773371 64.02958471 C86.24722359 59.03267183 86.25293407 54.03595568 86.27408981 49.03908348 C86.29344764 44.33831809 86.2936135 39.63793752 86.27905655 34.93715858 C86.2769642 33.2126217 86.28169472 31.48806089 86.29377747 29.76356506 C86.30921654 27.40724703 86.29993186 25.05225807 86.28451538 22.69596863 C86.28560492 21.37801394 86.28669445 20.06005926 86.287817 18.70216656 C85.62297671 13.97270443 83.70863907 10.72784985 80.00097656 7.70019531 C74.5367467 4.9797064 69.8371425 4.71503502 63.79003906 5.16113281 C62.80003906 7.14113281 61.81003906 9.12113281 60.79003906 11.16113281 C44.62003906 11.16113281 28.45003906 11.16113281 11.79003906 11.16113281 C10.80003906 9.18113281 9.81003906 7.20113281 8.79003906 5.16113281 C0.38817124 4.55254681 -4.70238113 5.28433408 -10.58496094 11.78613281 Z " fill="#060506" transform="translate(350.2099609375,32.8388671875)"/>
<path d="M0 0 C0.84896851 -0.0049649 1.69793701 -0.00992981 2.57263184 -0.01504517 C5.38990075 -0.02968635 8.20711331 -0.03647281 11.02441406 -0.04199219 C12.98016359 -0.04774299 14.93591311 -0.05350073 16.8916626 -0.05926514 C20.9974392 -0.06978135 25.10319619 -0.07561964 29.20898438 -0.07910156 C34.46595308 -0.08458095 39.72266207 -0.10859453 44.97954941 -0.13707352 C49.02191927 -0.15571502 53.06422684 -0.16090635 57.10663605 -0.16243744 C59.04428779 -0.16546218 60.98193848 -0.17348467 62.91954803 -0.18662262 C65.63406486 -0.2037111 68.34795094 -0.20179579 71.0625 -0.1953125 C71.86065125 -0.20452728 72.65880249 -0.21374207 73.48114014 -0.22323608 C78.98694938 -0.18212243 83.25794424 0.79744335 87.43457031 4.69628906 C91.16682143 9.57692514 91.96229327 12.32590646 92.10644531 18.35253906 C92.12722641 19.08947495 92.14800751 19.82641083 92.16941833 20.5856781 C92.21279475 22.16358455 92.25382235 23.74155699 92.29272461 25.31958008 C92.35032911 27.63481094 92.41614211 29.94968061 92.48339844 32.26464844 C92.72269423 41.00386326 92.81840629 49.7380777 92.80859375 58.48046875 C92.80791303 59.55770612 92.8072323 60.63494349 92.80653095 61.74482441 C92.7871087 81.83517749 92.68192835 101.9252517 92.55432415 122.0151701 C92.50907674 129.1869385 92.46963118 136.35865141 92.44360352 143.53051758 C92.42062057 149.86120689 92.38727275 156.19174078 92.3413375 162.52230674 C92.31751475 165.85219729 92.30026526 169.18179591 92.29242516 172.51178551 C92.28282602 176.2033248 92.25483299 179.89429388 92.22241211 183.58569336 C92.22456474 185.21963295 92.22456474 185.21963295 92.22676086 186.88658142 C92.15846782 192.37185684 91.96558221 196.46834732 88.79003906 201.16113281 C86.10253906 203.53613281 86.10253906 203.53613281 83.79003906 205.16113281 C87.09003906 205.82113281 90.39003906 206.48113281 93.79003906 207.16113281 C89.60929534 211.34187654 81.62504491 210.27639162 75.9683075 210.30776978 C74.75483391 210.30709 74.75483391 210.30709 73.5168457 210.30639648 C72.19762115 210.3114344 72.19762115 210.3114344 70.85174561 210.3165741 C67.96788078 210.32600697 65.08407457 210.32802379 62.20019531 210.32910156 C60.17109657 210.33232108 58.14199805 210.33568565 56.11289978 210.33918762 C51.86391666 210.34516096 47.61495382 210.34702953 43.3659668 210.34643555 C37.9703155 210.3463344 32.57479721 210.35994527 27.17917728 210.37720776 C22.98621547 210.38843264 18.79328466 210.39035151 14.60030937 210.38982582 C12.6139728 210.3909918 10.62763505 210.39533402 8.64131355 210.40315819 C-3.78991298 210.44751636 -15.88644432 209.82958477 -28.20996094 208.16113281 C-24.57276489 205.73633545 -22.35292612 205.77450704 -18.02246094 205.53613281 C-16.11400391 205.42398438 -16.11400391 205.42398438 -14.16699219 205.30957031 C-13.19117188 205.26058594 -12.21535156 205.21160156 -11.20996094 205.16113281 C-12.15871094 204.43925781 -13.10746094 203.71738281 -14.08496094 202.97363281 C-17.04646912 200.72031137 -18.03088766 198.67848645 -19.20996094 195.16113281 C-19.47167397 192.47170258 -19.47167397 192.47170258 -19.48843384 189.51599121 C-19.49959732 188.38987427 -19.5107608 187.26375732 -19.52226257 186.10351562 C-19.52442276 184.87665039 -19.52658295 183.64978516 -19.52880859 182.38574219 C-19.53885422 181.08560181 -19.54889984 179.78546143 -19.55924988 178.44592285 C-19.58656381 174.87828234 -19.60171677 171.31068146 -19.61467791 167.74296379 C-19.63039289 163.97951734 -19.65718297 160.21614917 -19.68270874 156.45275879 C-19.72955476 149.29452052 -19.76623003 142.13626675 -19.79938161 134.97795343 C-19.83710939 126.94808925 -19.88686568 118.91831443 -19.93736577 110.88852215 C-20.0823167 87.6690399 -20.21810122 64.44948013 -20.23486328 41.22949219 C-20.23640223 40.05590904 -20.23794117 38.8823259 -20.23952675 37.67317963 C-20.24004627 11.58330818 -20.24004627 11.58330818 -15.20996094 5.16113281 C-9.98322364 0.55662615 -6.81504095 0.00944902 0 0 Z M-12.88690758 4.38639641 C-19.07698856 11.40470593 -18.03741919 20.07356089 -17.95458984 28.86474609 C-17.9594501 30.66898436 -17.96689304 32.47321723 -17.97671509 34.2774353 C-17.99547811 39.16179566 -17.97673135 44.04535063 -17.95005083 48.92964792 C-17.92737018 54.04643231 -17.93564065 59.16317855 -17.93954468 64.27999878 C-17.94130869 72.86957922 -17.9191867 81.4588434 -17.88232422 90.04833984 C-17.83996455 99.97553626 -17.83297592 109.90226996 -17.84544814 119.82953846 C-17.8568404 129.38705047 -17.8455401 138.94439974 -17.82310104 148.50188828 C-17.81381832 152.56636442 -17.81205728 156.6307409 -17.81627274 160.69522476 C-17.82004237 165.48066514 -17.80380217 170.26563506 -17.77215195 175.05096817 C-17.76367389 176.80612237 -17.76196008 178.56132434 -17.76753235 180.31649017 C-17.77398932 182.71420379 -17.7557846 185.11051749 -17.73135376 187.50808716 C-17.74269173 188.54758788 -17.74269173 188.54758788 -17.75425875 189.60808861 C-17.66523636 194.55328877 -16.27377499 197.33597492 -13.20996094 201.16113281 C-8.39480264 205.31708976 -4.71365128 205.74158062 1.36230469 205.67871094 C2.20210373 205.68572021 3.04190277 205.69272949 3.90715027 205.69995117 C6.67053744 205.71749078 9.4328923 205.70592299 12.19628906 205.69238281 C14.12390336 205.69507889 16.05151633 205.69896228 17.97912598 205.70397949 C22.01404806 205.70986907 26.04861533 205.70132897 30.08349609 205.68261719 C35.24860122 205.65982801 40.41287489 205.67295399 45.57794952 205.69690704 C49.55688715 205.7113796 53.53562852 205.70675233 57.51457214 205.69639587 C59.41871744 205.69373262 61.3228807 205.6969842 63.227005 205.70631409 C65.89107275 205.71650372 68.55380485 205.70094542 71.21777344 205.67871094 C72.39154793 205.69085632 72.39154793 205.69085632 73.58903503 205.70324707 C79.6459903 205.60986625 82.93303148 203.52555288 87.60253906 199.66113281 C90.48813437 196.01617032 89.93606406 191.28777029 89.93048096 186.85575867 C89.93345208 186.11815695 89.9364232 185.38055524 89.93948436 184.62060195 C89.94815875 182.14801676 89.94967853 179.67548006 89.95117188 177.20288086 C89.95580092 175.43041887 89.96082569 173.65795788 89.96621704 171.88549805 C89.97933419 167.06930318 89.98578459 162.25312224 89.9902277 157.4369123 C89.99315935 154.42768971 89.99726432 151.41847093 90.00173187 148.40925026 C90.0154046 138.99328876 90.02507253 129.57733595 90.02893376 120.16136521 C90.033415 109.29335312 90.05096691 98.42546677 90.07993436 87.55749291 C90.101551 79.15567126 90.11163803 70.75388499 90.11297488 62.35203582 C90.11402286 57.33445611 90.1199293 52.31699463 90.13779449 47.2994442 C90.15427498 42.57902471 90.15643077 37.85881234 90.14765549 33.13837433 C90.14688512 31.40780648 90.15122781 29.67722749 90.16111374 27.9466877 C90.17383859 25.58003187 90.16795393 23.21410906 90.15753174 20.84745789 C90.16558814 20.16631461 90.17364455 19.48517134 90.18194509 18.78338736 C90.13108526 13.82875811 89.00264954 10.50403294 86.79003906 6.16113281 C82.10508347 1.62730482 76.69817092 2.01573742 70.50488281 2.03173828 C69.67191681 2.02998596 68.83895081 2.02823364 67.98074341 2.02642822 C65.22965405 2.02203002 62.47862907 2.02494057 59.72753906 2.02832031 C57.81469714 2.02764669 55.9018553 2.02667618 53.98901367 2.02542114 C49.98094874 2.02394692 45.97290609 2.02608989 41.96484375 2.03076172 C36.82665736 2.03645883 31.68852321 2.03317836 26.55033875 2.02718925 C22.600704 2.02357622 18.65108165 2.02472566 14.70144653 2.02731705 C12.8068135 2.02798426 10.91217933 2.02716507 9.01754761 2.02483749 C6.37006652 2.02229884 3.7226701 2.02616876 1.07519531 2.03173828 C0.29169708 2.02971405 -0.49180115 2.02768982 -1.29904175 2.02560425 C-7.45769698 1.92118724 -7.45769698 1.92118724 -12.88690758 4.38639641 Z " fill="#23252E" transform="translate(350.2099609375,32.8388671875)"/>
<path d="M0 0 C2.82214287 0.544399 5.50023219 1.2000608 8.23217773 2.08374023 C2.49128887 9.10679052 -3.96475683 15.40717633 -10.38500977 21.79858398 C-11.60976715 23.0214734 -12.8343018 24.24458593 -14.05862427 25.46791077 C-17.26210861 28.6675998 -20.46858592 31.86427272 -23.67572021 35.06030273 C-26.95564843 38.32995223 -30.23270352 41.60247863 -33.51000977 44.87475586 C-39.92648991 51.28055143 -46.34613926 57.68316073 -52.76782227 64.08374023 C-53.88456738 63.13331936 -55.00034716 62.18176416 -56.11572266 61.22973633 C-56.73717667 60.69996185 -57.35863068 60.17018738 -57.99891663 59.62435913 C-60.16226595 57.74020162 -62.1948124 55.7545222 -64.20532227 53.70874023 C-64.8846582 53.02038086 -65.56399414 52.33202148 -66.26391602 51.62280273 C-67.00834961 50.8609668 -67.00834961 50.8609668 -67.76782227 50.08374023 C-22.63175698 -2.92421924 -22.63175698 -2.92421924 0 0 Z " fill="#46D1FC" transform="translate(193.767822265625,39.916259765625)"/>
<path d="M0 0 C0.66 0.33 1.32 0.66 2 1 C5.51948297 0.75126017 9.02198063 0.45257425 12.52734375 0.05273438 C16.75456982 -0.30506748 18.61014331 -0.20850762 22.4765625 1.859375 C25 4 25 4 26.125 5.9375 C26 8 26 8 24.0625 10.25 C21.64700917 13.47065444 21.36208853 15.16613023 21.5234375 19.08984375 C21.91419199 21.35400954 21.91419199 21.35400954 24.5625 23.5625 C27 26 27 26 27.1875 29.3125 C25.30945756 35.144316 22.10639055 39.59573963 17 43 C14.65912158 42.72460254 12.32597511 42.3813074 10 42 C5.92884952 41.77604673 2.41768228 41.89741137 -1.5625 42.875 C-5.13029281 43.00473792 -5.81397554 42.92053629 -8.5625 40.9375 C-14.78665119 34.88233029 -18.3040204 25.58857215 -18.5625 17 C-18.23145238 11.98278943 -17.23039568 8.1828139 -13.53515625 4.56640625 C-8.76977207 0.45349521 -6.25515795 -0.2233985 0 0 Z " fill="#C5C5C5" transform="translate(414,315)"/>
<path d="M0 0 C-3.27649058 3.96848539 -6.63403281 7.68869195 -10.33984375 11.26171875 C-11.4680957 12.35129883 -11.4680957 12.35129883 -12.61914062 13.46289062 C-14.18482208 14.96525893 -15.75795768 16.45989181 -17.33789062 17.94726562 C-18.08103516 18.66978516 -18.82417969 19.39230469 -19.58984375 20.13671875 C-20.26909912 20.78342529 -20.94835449 21.43013184 -21.64819336 22.09643555 C-23.18108099 23.87160965 -23.18108099 23.87160965 -23.02001953 25.91845703 C-21.55001637 28.9182768 -19.47774838 30.83758376 -17.08984375 33.16796875 C-16.60294571 33.64825027 -16.11604767 34.1285318 -15.61439514 34.62336731 C-14.06237954 36.15202141 -12.50054036 37.67012744 -10.9375 39.1875 C-9.37269002 40.71729661 -7.81002487 42.2492004 -6.24989319 43.7837677 C-4.83864956 45.17023907 -3.42128935 46.55047628 -2.00366211 47.93041992 C0 50 0 50 0 51 C-22.19600112 54.88711088 -22.19600112 54.88711088 -30.93640137 49.89373779 C-39.92482076 43.48856773 -47.15079273 34.56720537 -54 26 C-53.17628906 25.04996094 -52.35257813 24.09992188 -51.50390625 23.12109375 C-49.67047962 21.00017556 -47.8973759 18.86618703 -46.19091797 16.64111328 C-32.7589301 -0.77351554 -21.16889453 -2.70385611 0 0 Z " fill="#42D0FC" transform="translate(202,86)"/>
<path d="M0 0 C10.56 0 21.12 0 32 0 C32 7.92 32 15.84 32 24 C29.69 24 27.38 24 25 24 C25.01160156 24.71027344 25.02320313 25.42054688 25.03515625 26.15234375 C25.04417969 27.07144531 25.05320312 27.99054688 25.0625 28.9375 C25.07410156 29.85402344 25.08570313 30.77054687 25.09765625 31.71484375 C25 34 25 34 24 35 C22.33382885 35.04063832 20.66611905 35.042721 19 35 C17.79727181 32.59454362 17.89928528 31.05003047 17.9375 28.375 C17.94652344 27.55773437 17.95554687 26.74046875 17.96484375 25.8984375 C17.97644531 25.27195312 17.98804688 24.64546875 18 24 C16.35 24 14.7 24 13 24 C13 27.3 13 30.6 13 34 C10.625 34.625 10.625 34.625 8 35 C6 33 6 33 5.8046875 30.8359375 C5.82789063 30.02382813 5.85109375 29.21171875 5.875 28.375 C5.89304687 27.55773437 5.91109375 26.74046875 5.9296875 25.8984375 C5.95289063 25.27195312 5.97609375 24.64546875 6 24 C4.02 24 2.04 24 0 24 C0 16.08 0 8.16 0 0 Z " fill="#A7A7A7" transform="translate(346,323)"/>
<path d="M0 0 C4.25366683 0.45297574 5.9838723 1.17343702 9.21142578 4.15039062 C12.34664306 8.53878056 14.38240675 12.5275048 14.12939453 18.02148438 C12.70452847 23.8807467 10.94916649 28.45549055 6.29345703 32.45898438 C0.8811563 34.48771233 -5.31354691 34.57897099 -10.70654297 32.45898438 C-14.81527317 28.66927205 -17.08697555 24.87553764 -18.70654297 19.45898438 C-18.42778077 13.40586243 -16.67782847 8.72076561 -13.32763672 3.71289062 C-9.21268211 0.17439761 -5.30343427 -0.09586582 0 0 Z " fill="#F7FDFE" transform="translate(597.70654296875,72.541015625)"/>
<path d="M0 0 C4.35396712 2.34298448 7.415589 5.89758425 9.60546875 10.27734375 C9.84375 12.44921875 9.84375 12.44921875 9.91796875 15.02734375 C9.97404297 16.28804687 9.97404297 16.28804687 10.03125 17.57421875 C9.06853468 23.68613618 4.61071224 27.31434912 0.16796875 31.21484375 C-6.25349451 37.17618558 -8.35735284 43.9372929 -10.39453125 52.27734375 C-12.727479 52.31976098 -15.06155692 52.31827312 -17.39453125 52.27734375 C-19.07773048 50.59414452 -18.68615426 48.58624501 -18.76953125 46.27734375 C-18.6394978 38.52534978 -16.12373718 33.97160963 -10.6484375 28.56640625 C-8.70882645 26.77543414 -6.73157518 25.05992539 -4.72265625 23.34375 C-1.72555842 20.68357424 -1.46547307 19.9158201 -1.01953125 15.90234375 C-1.0699859 12.23662318 -1.0699859 12.23662318 -3.33203125 9.83984375 C-7.45445587 7.73656588 -10.84946521 7.43268546 -15.39453125 8.27734375 C-17.4240466 9.56530541 -19.42954803 10.89292375 -21.39453125 12.27734375 C-24.26953125 12.02734375 -24.26953125 12.02734375 -26.39453125 11.27734375 C-26.72453125 9.29734375 -27.05453125 7.31734375 -27.39453125 5.27734375 C-19.69819101 -1.31951931 -9.79419351 -2.95583328 0 0 Z " fill="#A81D1D" transform="translate(395.39453125,101.72265625)"/>
<path d="M0 0 C3.21288268 1.63564936 5.30264177 2.79899415 7.125 5.9375 C7 8 7 8 5.0625 10.25 C2.64700917 13.47065444 2.36208853 15.16613023 2.5234375 19.08984375 C2.91419199 21.35400954 2.91419199 21.35400954 5.5625 23.5625 C8 26 8 26 8.1875 29.3125 C6.30945756 35.144316 3.10639055 39.59573963 -2 43 C-6.3630859 42.68268466 -9.04816895 41.97591553 -13 40 C-13 27.46 -13 14.92 -13 2 C-8.35728167 0.14291267 -4.89361197 -0.78374254 0 0 Z " fill="#A7A7A7" transform="translate(433,315)"/>
<path d="M0 0 C0.33 0 0.66 0 1 0 C1.11690735 13.847338 1.20469148 27.69459924 1.25906086 41.54232979 C1.2851554 47.97240438 1.32055215 54.40214746 1.37719727 60.83203125 C1.43152016 67.03714125 1.46142161 73.24193237 1.47438622 79.44726181 C1.48362544 81.81477758 1.50166749 84.18227588 1.52865028 86.54965591 C1.56494269 89.86568174 1.56994504 93.18038959 1.56762695 96.49658203 C1.58560333 97.4755394 1.60357971 98.45449677 1.62210083 99.46311951 C1.58822886 103.9405467 1.46560997 107.02805898 -1.41047668 110.59396362 C-4 113 -4 113 -6 114 C-2.7 114.66 0.6 115.32 4 116 C-0.18074373 120.18074373 -8.16499415 119.1152588 -13.82173157 119.14663696 C-15.03520515 119.14595718 -15.03520515 119.14595718 -16.27319336 119.14526367 C-17.15267639 119.14862228 -18.03215942 119.1519809 -18.93829346 119.15544128 C-21.82215828 119.16487416 -24.70596449 119.16689098 -27.58984375 119.16796875 C-29.61894249 119.17118826 -31.64804101 119.17455284 -33.67713928 119.17805481 C-37.9261224 119.18402815 -42.17508525 119.18589672 -46.42407227 119.18530273 C-51.81972356 119.18520159 -57.21524185 119.19881246 -62.61086178 119.21607494 C-66.80382359 119.22729983 -70.99675441 119.2292187 -75.18972969 119.22869301 C-77.17606626 119.22985899 -79.16240401 119.23420121 -81.14872551 119.24202538 C-93.57995204 119.28638355 -105.67648338 118.66845196 -118 117 C-114.36280395 114.57520264 -112.14296518 114.61337423 -107.8125 114.375 C-105.90404297 114.26285156 -105.90404297 114.26285156 -103.95703125 114.1484375 C-102.98121094 114.09945312 -102.00539063 114.05046875 -101 114 C-101.969375 113.2575 -102.93875 112.515 -103.9375 111.75 C-106.02387361 110.02690085 -106.90112479 109.26131306 -107.875 106.6875 C-107.91625 106.130625 -107.9575 105.57375 -108 105 C-105 106 -105 106 -103.0625 108.4375 C-100.91397619 111.10687807 -100.14872092 111.87088136 -97 113 C-94.1854464 113.20106413 -91.46948111 113.29375786 -88.65478516 113.29052734 C-87.81527817 113.29724457 -86.97577118 113.30396179 -86.11082458 113.31088257 C-83.3368436 113.32987322 -80.56310443 113.3337873 -77.7890625 113.3359375 C-75.8585907 113.34236468 -73.92811989 113.34909298 -71.99765015 113.35610962 C-67.95088442 113.36808505 -63.90420407 113.37179017 -59.85742188 113.37060547 C-54.6766264 113.37040226 -49.49637939 113.39770482 -44.31571388 113.43214989 C-40.32823175 113.45440757 -36.34088185 113.45844336 -32.35334396 113.45738602 C-30.44359827 113.45974366 -28.53384903 113.4685764 -26.62416458 113.48405075 C-23.95038907 113.50368787 -21.27779927 113.49788188 -18.60400391 113.48583984 C-17.81834549 113.49707886 -17.03268707 113.50831787 -16.22322083 113.51989746 C-10.03480476 113.44921731 -6.42505648 111.42505648 -2 107 C-1.06192654 104.17783424 -0.86705465 101.56925874 -0.84178162 98.60870361 C-0.8319928 97.73654709 -0.82220398 96.86439056 -0.81211853 95.96580505 C-0.80636307 95.01706009 -0.8006076 94.06831512 -0.79467773 93.09082031 C-0.78477814 92.08561844 -0.77487854 91.08041656 -0.76467896 90.04475403 C-0.73309428 86.7225683 -0.70831841 83.40036828 -0.68359375 80.078125 C-0.66302161 77.7745527 -0.64202507 75.47098415 -0.62062073 73.16741943 C-0.56542692 67.10446207 -0.51600571 61.0414708 -0.46777344 54.97845459 C-0.41753882 48.79159527 -0.36186297 42.6047852 -0.30664062 36.41796875 C-0.19909194 24.27868791 -0.0976396 12.1393643 0 0 Z " fill="#1A1D25" transform="translate(440,124)"/>
<path d="M0 0 C3.8496735 1.58420237 6.28658565 4.04281247 9.203125 6.97265625 C9.6857782 7.45576767 10.1684314 7.93887909 10.66571045 8.43663025 C11.67991024 9.45384054 12.69168919 10.47346961 13.70117188 11.49536133 C15.25335786 13.06589755 16.81349204 14.62819038 18.375 16.18945312 C26 23.85248363 26 23.85248363 26 25 C22.05406583 25.25013236 18.11128259 25.42993195 14.15917969 25.54931641 C12.16696872 25.62343851 10.17695739 25.75061783 8.1875 25.87890625 C2.49009073 26.02278022 -1.43465586 26.11879039 -6.17675781 22.72949219 C-8.64599255 20.26025745 -10.88028646 17.77231777 -13 15 C-11.16307611 10.99625569 -8.50882084 8.28042066 -5.375 5.25 C-4.859375 4.74339844 -4.34375 4.23679687 -3.8125 3.71484375 C-2.54616661 2.47196098 -1.2736856 1.23534724 0 0 Z " fill="#08599D" transform="translate(176,112)"/>
<path d="M0 0 C5.28 0 10.56 0 16 0 C16 7.92 16 15.84 16 24 C15.01 24 14.02 24 13 24 C13 27.3 13 30.6 13 34 C10.625 34.625 10.625 34.625 8 35 C6 33 6 33 5.8046875 30.8359375 C5.82789063 30.02382813 5.85109375 29.21171875 5.875 28.375 C5.89304687 27.55773437 5.91109375 26.74046875 5.9296875 25.8984375 C5.95289063 25.27195312 5.97609375 24.64546875 6 24 C4.02 24 2.04 24 0 24 C0 16.08 0 8.16 0 0 Z " fill="#C6C6C6" transform="translate(346,323)"/>
<path d="M0 0 C1.515625 1.50390625 1.515625 1.50390625 3.25 3.5625 C3.81203125 4.22378906 4.3740625 4.88507813 4.953125 5.56640625 C5.62859375 6.36949219 6.3040625 7.17257813 7 8 C8.98 10.31 10.96 12.62 13 15 C8.38 19.62 3.76 24.24 -1 29 C-8.875 22.25 -8.875 22.25 -12.4375 18.625 C-13.11683594 17.93664062 -13.79617187 17.24828125 -14.49609375 16.5390625 C-14.99238281 16.03117187 -15.48867187 15.52328125 -16 15 C-3.5 0 -3.5 0 0 0 Z " fill="#1FBBFC" transform="translate(164,97)"/>
<path d="M0 0 C0.99 0 1.98 0 3 0 C3.33 0.66 3.66 1.32 4 2 C4.67546875 1.98839844 5.3509375 1.97679687 6.046875 1.96484375 C7.38492187 1.95130859 7.38492187 1.95130859 8.75 1.9375 C10.07257813 1.92009766 10.07257813 1.92009766 11.421875 1.90234375 C13.7818838 1.99173802 15.74498524 2.33087179 18 3 C18.33 2.01 18.66 1.02 19 0 C19.99 0 20.98 0 22 0 C21.34 1.98 20.68 3.96 20 6 C20.99 6.33 21.98 6.66 23 7 C27 13.05714286 27 13.05714286 27 18 C16.44 18 5.88 18 -5 18 C-4.07023188 12.42139127 -3.35702403 10.27257604 0 6 C0.66 6 1.32 6 2 6 C1.34 4.02 0.68 2.04 0 0 Z " fill="#CDCDCD" transform="translate(351,303)"/>
<path d="M0 0 C2.75933059 6.0705273 3.62396138 10.46806646 2 17 C0.4375 20.5625 0.4375 20.5625 -1 23 C-7.05487762 22.68949346 -11.39325665 19.70382165 -16 16 C-18 13 -18 13 -18.125 10.6875 C-16.01456172 5.64589744 -10.99850091 2.99925046 -6.25 0.625 C-4 0 -4 0 0 0 Z " fill="#F9FDFE" transform="translate(570,78)"/>
<path d="M0 0 C2.625 0.125 2.625 0.125 3.625 1.125 C3.75212692 3.57588882 3.81020683 5.98610545 3.8125 8.4375 C3.82474609 9.11490234 3.83699219 9.79230469 3.84960938 10.49023438 C3.86051608 14.20941947 3.67797477 16.96844986 1.625 20.125 C-5.98183875 20.98383663 -9.46757691 19.28685881 -15.50390625 14.65625 C-16.12136719 14.1509375 -16.73882813 13.645625 -17.375 13.125 C-16.42928769 8.23148865 -13.90924477 4.58792593 -10.375 1.125 C-6.7595528 0.09201508 -3.73363365 0.13828273 0 0 Z " fill="#FBFEFE" transform="translate(616.375,106.875)"/>
<path d="M0 0 C11.24626066 -0.42279175 11.24626066 -0.42279175 15.421875 2.96484375 C20 8.80100723 20 8.80100723 20 13 C18.1015625 14.5703125 18.1015625 14.5703125 15.625 16.125 C14.40683594 16.90230469 14.40683594 16.90230469 13.1640625 17.6953125 C10.21208968 19.47502174 8.43009882 20.17433606 5 20.25 C4.29875 20.27578125 3.5975 20.3015625 2.875 20.328125 C2.25625 20.21984375 1.6375 20.1115625 1 20 C-1.43044139 16.35433792 -1.26310692 13.64363257 -1.1875 9.4375 C-1.1865332 8.40979492 -1.1865332 8.40979492 -1.18554688 7.36132812 C-1.14067963 2.28135927 -1.14067963 2.28135927 0 0 Z " fill="#FBFEFE" transform="translate(572,107)"/>
<path d="M0 0 C2.46058827 3.6908824 2.23778976 5.61107542 2.1875 10 C2.18105469 11.2375 2.17460938 12.475 2.16796875 13.75 C2 17 2 17 1 20 C-8.53638814 20.32884097 -8.53638814 20.32884097 -13 18 C-15.23924377 15.4834187 -17.15413498 12.81461687 -19 10 C-15.79559747 2.24197282 -7.97950978 -1.2599226 0 0 Z " fill="#FBFEFE" transform="translate(618,52)"/>
<path d="M0 0 C6.1515433 0.32376544 11.32841862 3.11859317 16 7 C17.4375 10.5625 17.4375 10.5625 17 14 C13.68910287 18.74561923 8.5021893 21.41322631 3 23 C0 22 0 22 -1.203125 20.109375 C-4.66051661 12.31734317 -4.66051661 12.31734317 -3 8 C-2.7525 7.31421875 -2.505 6.6284375 -2.25 5.921875 C-1.52836265 3.93737228 -0.76696394 1.96742924 0 0 Z " fill="#FAFDFE" transform="translate(621,78)"/>
<path d="M0 0 C5.93635607 -0.83108985 10.10525532 0.85717044 15 4 C17.5 6.25 17.5 6.25 19 8 C18.39963272 9.36447109 17.70674629 10.68747118 17 12 C16.73960937 12.59039062 16.47921875 13.18078125 16.2109375 13.7890625 C14.98921492 16.05531125 14.04553056 17.40716883 12 19 C7.65830355 19.90627644 3.42633994 20.04536512 -1 20 C-2.16348868 16.50953395 -2.16834776 13.67722983 -2.1875 10 C-2.20167969 8.7625 -2.21585938 7.525 -2.23046875 6.25 C-2 3 -2 3 0 0 Z " fill="#FBFEFE" transform="translate(573,52)"/>
<path d="M0 0 C12 0 12 0 15.3125 1.5625 C17 4 17 4 17 7.5625 C16.06919104 10.7621558 15.61655007 12.06602821 13 14 C14.81309003 17.77727089 16.9073259 21.37269822 19 25 C16.69140625 25.27734375 16.69140625 25.27734375 14 25 C12.33984375 23.06640625 12.33984375 23.06640625 10.9375 20.5625 C9.60069782 18.07777724 9.60069782 18.07777724 8 16 C6.68 15.67 5.36 15.34 4 15 C4 18.3 4 21.6 4 25 C2.68 25 1.36 25 0 25 C0 16.75 0 8.5 0 0 Z " fill="#F8FAFE" transform="translate(572,180)"/>
<path d="M0 0 C4.72422189 1.18105547 6.25313099 3.23616301 9.125 6.875 C9.56714844 7.41769531 10.00929688 7.96039063 10.46484375 8.51953125 C12.43217805 10.95046698 14.26431921 13.39647882 16 16 C16.33 10.72 16.66 5.44 17 0 C18.32 0 19.64 0 21 0 C21 8.25 21 16.5 21 25 C17 25 17 25 15.44433594 23.53125 C14.96254883 22.8609375 14.48076172 22.190625 13.984375 21.5 C13.45585937 20.778125 12.92734375 20.05625 12.3828125 19.3125 C11.84398437 18.549375 11.30515625 17.78625 10.75 17 C10.19570313 16.236875 9.64140625 15.47375 9.0703125 14.6875 C7.70190853 12.80004624 6.34942135 10.90107158 5 9 C4.67 14.28 4.34 19.56 4 25 C2.68 25 1.36 25 0 25 C0 16.75 0 8.5 0 0 Z " fill="#EFF5FD" transform="translate(338,425)"/>
<path d="M0 0 C5.62442366 1.12488473 5.62442366 1.12488473 7.859375 4.125 C8.33503906 4.74890625 8.81070313 5.3728125 9.30078125 6.015625 C9.77902344 6.67046875 10.25726562 7.3253125 10.75 8 C11.72387989 9.29172581 12.69783435 10.58339541 13.671875 11.875 C14.44015625 12.90625 15.2084375 13.9375 16 15 C16.33 15.33 16.66 15.66 17 16 C17.33 10.72 17.66 5.44 18 0 C18.99 0 19.98 0 21 0 C21 8.25 21 16.5 21 25 C16.74582711 23.93645678 16.37596612 23.70377932 13.984375 20.40234375 C13.19160156 19.32436523 13.19160156 19.32436523 12.3828125 18.22460938 C11.84398437 17.46986328 11.30515625 16.71511719 10.75 15.9375 C10.19570313 15.17888672 9.64140625 14.42027344 9.0703125 13.63867188 C7.70407514 11.76598445 6.35077833 9.88386852 5 8 C4.67 13.61 4.34 19.22 4 25 C2.68 25 1.36 25 0 25 C0 16.75 0 8.5 0 0 Z " fill="#F0F5FD" transform="translate(667,180)"/>
<path d="M0 0 C0.66 0 1.32 0 2 0 C2 11.55 2 23.1 2 35 C2.66 35 3.32 35 4 35 C4.03438189 53.11712956 3.93611164 71.23124803 3.78125 89.34765625 C3.75862461 92.069614 3.73631141 94.79157429 3.71398926 97.51353455 C3.66168837 103.86987514 3.60835472 110.22620661 3.5546174 116.58253521 C3.49333047 123.83810917 3.43324454 131.09369293 3.37324238 138.34927762 C3.25013223 153.23286275 3.12556948 168.11643539 3 183 C2.67 183 2.34 183 2 183 C1.34 122.61 0.68 62.22 0 0 Z " fill="#292B32" transform="translate(439,45)"/>
<path d="M0 0 C0.99 0 1.98 0 3 0 C3 1.98 3 3.96 3 6 C5.64 6 8.28 6 11 6 C11 4.35 11 2.7 11 1 C11.99 1 12.98 1 14 1 C14 2.65 14 4.3 14 6 C15.65 6 17.3 6 19 6 C19 6.99 19 7.98 19 9 C17.35 9 15.7 9 14 9 C14 12.96 14 16.92 14 21 C15.65 21 17.3 21 19 21 C19 21.99 19 22.98 19 24 C15.625 24.125 15.625 24.125 12 24 C10 22 10 22 9.8046875 18.9609375 C9.82789063 17.77757812 9.85109375 16.59421875 9.875 15.375 C9.89304688 14.18648437 9.91109375 12.99796875 9.9296875 11.7734375 C9.95289063 10.85820312 9.97609375 9.94296875 10 9 C7.69 9 5.38 9 3 9 C3 12.96 3 16.92 3 21 C4.65 21 6.3 21 8 21 C7.67 21.99 7.34 22.98 7 24 C4.125 24.125 4.125 24.125 1 24 C-1 22 -1 22 -1.1953125 18.9609375 C-1.16050781 17.18589844 -1.16050781 17.18589844 -1.125 15.375 C-1.10695312 14.18648437 -1.08890625 12.99796875 -1.0703125 11.7734375 C-1.04710937 10.85820312 -1.02390625 9.94296875 -1 9 C-1.99 9 -2.98 9 -4 9 C-4 8.34 -4 7.68 -4 7 C-3.01 7 -2.02 7 -1 7 C-0.67 4.69 -0.34 2.38 0 0 Z " fill="#EAF2FD" transform="translate(158,183)"/>
<path d="M0 0 C4.4297642 0.79102932 5.89210172 1.98974785 8.5 5.625 C9.2446324 9.59637281 8.87266878 11.06599683 6.625 14.4375 C4.14122682 16.99432533 3.18979545 17.51769849 -0.3125 18.0625 C-3.5 17.625 -3.5 17.625 -6.375 15 C-8.69483097 11.31556258 -9.40140975 9.86162583 -8.5 5.625 C-5.89210172 1.98974785 -4.4297642 0.79102932 0 0 Z " fill="#68DBFB" transform="translate(595.5,80.375)"/>
<path d="M0 0 C8.96655549 1.78927318 17.68311632 1.89469853 26.7956543 1.80224609 C28.45430105 1.79663159 30.11295288 1.7923703 31.77160645 1.78938293 C36.07878026 1.77807978 40.38563706 1.74874314 44.69268799 1.715271 C49.11108109 1.68425144 53.5295268 1.67081039 57.94799805 1.65576172 C66.57444353 1.62385506 75.20063418 1.57284146 83.8269043 1.50927734 C84.1569043 0.51927734 84.4869043 -0.47072266 84.8269043 -1.49072266 C88.7869043 -0.83072266 92.7469043 -0.17072266 96.8269043 0.50927734 C92.64616057 4.69002107 84.66191015 3.62453615 79.00517273 3.65591431 C77.79169914 3.65523453 77.79169914 3.65523453 76.55371094 3.65454102 C75.67422791 3.65789963 74.79474487 3.66125824 73.88861084 3.66471863 C71.00474602 3.6741515 68.12093981 3.67616833 65.23706055 3.67724609 C63.20796181 3.68046561 61.17886329 3.68383019 59.14976501 3.68733215 C54.90078189 3.69330549 50.65181905 3.69517407 46.40283203 3.69458008 C41.00718074 3.69447893 35.61166245 3.7080898 30.21604252 3.72535229 C26.02308071 3.73657717 21.83014989 3.73849605 17.63717461 3.73797035 C15.65083804 3.73913633 13.66450029 3.74347855 11.67817879 3.75130272 C-0.75304774 3.79566089 -12.84957908 3.1777293 -25.1730957 1.50927734 C-21.65716357 -0.83467741 -19.67085508 -0.96964725 -15.4855957 -1.30322266 C-13.71635742 -1.46757812 -13.71635742 -1.46757812 -11.91137695 -1.63525391 C-7.78000699 -1.71551579 -4.02978265 -0.87123774 0 0 Z " fill="#174077" transform="translate(347.173095703125,239.49072265625)"/>
<path d="M0 0 C0.99 0 1.98 0 3 0 C3 1.98 3 3.96 3 6 C6.96 6 10.92 6 15 6 C15 11.94 15 17.88 15 24 C13.68 24 12.36 24 11 24 C11 19.05 11 14.1 11 9 C8.36 9 5.72 9 3 9 C3 12.96 3 16.92 3 21 C4.65 21.33 6.3 21.66 8 22 C7.67 22.66 7.34 23.32 7 24 C4.66705225 24.04241723 2.33297433 24.04092937 0 24 C-1 23 -1 23 -1.09765625 19.83984375 C-1.08025391 17.90818359 -1.08025391 17.90818359 -1.0625 15.9375 C-1.05347656 14.64714844 -1.04445313 13.35679687 -1.03515625 12.02734375 C-1.02355469 11.02832031 -1.01195312 10.02929688 -1 9 C-1.99 9 -2.98 9 -4 9 C-4 8.34 -4 7.68 -4 7 C-3.01 7 -2.02 7 -1 7 C-1.020625 6.030625 -1.04125 5.06125 -1.0625 4.0625 C-1 1 -1 1 0 0 Z " fill="#E8F1FD" transform="translate(713,181)"/>
<path d="M0 0 C0.99 0 1.98 0 3 0 C2.34 1.98 1.68 3.96 1 6 C1.99 6.33 2.98 6.66 4 7 C6.82604442 10.76805922 7 12.0494784 7 17 C2.05 17 -2.9 17 -8 17 C-8 12.38 -8 7.76 -8 3 C-5.69 3 -3.38 3 -1 3 C-0.67 2.01 -0.34 1.02 0 0 Z " fill="#AAAAAA" transform="translate(370,303)"/>
<path d="M0 0 C2.4375 1.6875 2.4375 1.6875 4 4 C4 5.65 4 7.3 4 9 C0.04 9 -3.92 9 -8 9 C-7.34 10.65 -6.68 12.3 -6 14 C-3.03 14 -0.06 14 3 14 C3 14.99 3 15.98 3 17 C-0.23176757 18.61588379 -3.50615283 18.57451407 -7 18 C-9.9838283 16.01078114 -11.60276841 14.61497432 -12.4765625 11.0625 C-12.76173735 7.10007055 -12.23047397 5.33523486 -9.9375 2 C-6.25623347 -0.50639423 -4.37098953 -0.71525283 0 0 Z " fill="#EFF5FD" transform="translate(191,189)"/>
<path d="M0 0 C2.4375 1.6875 2.4375 1.6875 4 4 C4 5.65 4 7.3 4 9 C0.04 9 -3.92 9 -8 9 C-7.34 10.65 -6.68 12.3 -6 14 C-2.7 14 0.6 14 4 14 C3 17 3 17 1 18 C-6.24087591 18.58394161 -6.24087591 18.58394161 -9.4375 16.125 C-12.05279378 12.56820046 -12.26473162 10.41219373 -12 6 C-9.85698933 0.06550891 -5.91166108 -0.62228011 0 0 Z " fill="#EEF4FD" transform="translate(603,187)"/>
<path d="M0 0 C5.95703125 -0.390625 5.95703125 -0.390625 8 0 C10.69016353 2.40193172 10.98610499 3.8362241 11.29296875 7.453125 C11.25816406 8.70609375 11.22335937 9.9590625 11.1875 11.25 C11.16042969 12.51328125 11.13335937 13.7765625 11.10546875 15.078125 C11.07066406 16.04234375 11.03585937 17.0065625 11 18 C10.01 18 9.02 18 8 18 C8 17.34 8 16.68 8 16 C7.01 16.66 6.02 17.32 5 18 C1.4375 18.3125 1.4375 18.3125 -2 18 C-4 15 -4 15 -3.875 13 C-2.69645226 10.30617659 -1.58584329 9.39775313 1 8 C4.25 7.8125 4.25 7.8125 7 8 C6.67 6.68 6.34 5.36 6 4 C3.36 4 0.72 4 -2 4 C-1.34 2.68 -0.68 1.36 0 0 Z " fill="#F0F5FD" transform="translate(366,432)"/>
<path d="M0 0 C2.4375 1.6875 2.4375 1.6875 4 4 C4 5.65 4 7.3 4 9 C0.04 9 -3.92 9 -8 9 C-7.34 10.65 -6.68 12.3 -6 14 C-3.03 14 -0.06 14 3 14 C3 14.99 3 15.98 3 17 C-0.56471391 18.18823797 -3.2558336 18.26274852 -7 18 C-10.1850357 16.23984869 -10.83296972 15.50109084 -12 12 C-12.48371102 7.64660085 -12.48792815 5.69492797 -9.9375 2.0625 C-6.25937488 -0.52001338 -4.40768137 -0.72125695 0 0 Z " fill="#F0F6FD" transform="translate(432,432)"/>
<path d="M0 0 C1.7109375 1.03515625 1.7109375 1.03515625 3 3 C3.2172101 5.64996326 3.28351554 8.05076558 3.1875 10.6875 C3.17396484 11.38939453 3.16042969 12.09128906 3.14648438 12.81445312 C3.11120182 14.54329829 3.05739583 16.27174765 3 18 C2.38125 17.814375 1.7625 17.62875 1.125 17.4375 C-1.04160178 16.76313824 -1.04160178 16.76313824 -3 18 C-6 18.1875 -6 18.1875 -9 18 C-11 16 -11 16 -11.375 13.5625 C-11 11 -11 11 -9.375 9.1875 C-6.42797793 7.71398897 -4.25295114 7.77820788 -1 8 C-1.33 6.68 -1.66 5.36 -2 4 C-4.64 4 -7.28 4 -10 4 C-9.67 3.01 -9.34 2.02 -9 1 C-5.95016004 -0.52491998 -3.3576631 -0.23562548 0 0 Z " fill="#F3F8FE" transform="translate(621,187)"/>
<path d="M0 0 C2.4375 1.125 2.4375 1.125 4 3 C4 4.98 4 6.96 4 9 C0.04 9 -3.92 9 -8 9 C-7.01 10.65 -6.02 12.3 -5 14 C-2.72668201 14.60169446 -2.72668201 14.60169446 -0.3125 14.3125 C0.49574219 14.26738281 1.30398438 14.22226563 2.13671875 14.17578125 C3.05904297 14.08876953 3.05904297 14.08876953 4 14 C3 17 3 17 1 18 C-5.9769821 18.56265985 -5.9769821 18.56265985 -9.5 16.625 C-11.84195873 12.52657222 -11.74135651 8.6009961 -11 4 C-8.24432358 -0.62953638 -5.11343733 -0.63917967 0 0 Z " fill="#F2F7FD" transform="translate(761,187)"/>
<path d="M0 0 C1.7109375 1.03515625 1.7109375 1.03515625 3 3 C3.2172101 5.64996326 3.28351554 8.05076558 3.1875 10.6875 C3.17396484 11.38939453 3.16042969 12.09128906 3.14648438 12.81445312 C3.11120182 14.54329829 3.05739583 16.27174765 3 18 C2.38125 17.814375 1.7625 17.62875 1.125 17.4375 C-1.04160178 16.76313824 -1.04160178 16.76313824 -3 18 C-6 18.1875 -6 18.1875 -9 18 C-11 16 -11 16 -11.4375 13.5625 C-11 11 -11 11 -8.875 9.1875 C-5.6892698 7.87165492 -3.41335136 7.76185921 0 8 C-0.33 6.68 -0.66 5.36 -1 4 C-3.97 4 -6.94 4 -10 4 C-9.67 3.01 -9.34 2.02 -9 1 C-5.95016004 -0.52491998 -3.3576631 -0.23562548 0 0 Z " fill="#EAF2FD" transform="translate(703,187)"/>
<path d="M0 0 C0.99 0 1.98 0 3 0 C3 1.98 3 3.96 3 6 C6.96 6 10.92 6 15 6 C15 11.61 15 17.22 15 23 C14.01 23 13.02 23 12 23 C12 18.05 12 13.1 12 8 C9.03 8 6.06 8 3 8 C3 11.96 3 15.92 3 20 C4.65 20.33 6.3 20.66 8 21 C7.67 21.66 7.34 22.32 7 23 C4.125 23.125 4.125 23.125 1 23 C-1 21 -1 21 -1.1953125 17.9609375 C-1.16050781 16.18589844 -1.16050781 16.18589844 -1.125 14.375 C-1.10695313 13.18648438 -1.08890625 11.99796875 -1.0703125 10.7734375 C-1.04710937 9.85820312 -1.02390625 8.94296875 -1 8 C-1.99 8 -2.98 8 -4 8 C-4 7.34 -4 6.68 -4 6 C-3.01 5.67 -2.02 5.34 -1 5 C-0.67 3.35 -0.34 1.7 0 0 Z " fill="#F7FAFE" transform="translate(383,427)"/>
<path d="M0 0 C5.28 0 10.56 0 16 0 C16 0.99 16 1.98 16 3 C12.04 3 8.08 3 4 3 C4 5.64 4 8.28 4 11 C7.3 11 10.6 11 14 11 C14 11.99 14 12.98 14 14 C10.7 14 7.4 14 4 14 C4 17.63 4 21.26 4 25 C2.68 25 1.36 25 0 25 C0 16.75 0 8.5 0 0 Z " fill="#FCFDFE" transform="translate(109,182)"/>
<path d="M0 0 C1.32 0 2.64 0 4 0 C4.33 4.62 4.66 9.24 5 14 C6.65 14 8.3 14 10 14 C10.33 9.38 10.66 4.76 11 0 C12.32 0 13.64 0 15 0 C15 5.94 15 11.88 15 18 C13.68 17.67 12.36 17.34 11 17 C10.34 17.33 9.68 17.66 9 18 C3.72804233 18.44867725 3.72804233 18.44867725 1.3203125 16.96484375 C-0.71370894 13.93788284 -0.3153123 10.82242226 -0.1875 7.3125 C-0.17396484 6.61060547 -0.16042969 5.90871094 -0.14648438 5.18554688 C-0.11120182 3.45670171 -0.05739583 1.72825235 0 0 Z " fill="#EDF4FD" transform="translate(136,189)"/>
<path d="M0 0 C1.9375 1.0625 1.9375 1.0625 3 3 C3.36248449 6.38318857 3.58433618 8.86784865 2 11.9375 C-1.35441952 13.71953537 -4.23779845 13.29858742 -8 13 C-10 11 -10 11 -10.3125 7.0625 C-10.23081662 4.56208106 -10.12109418 3.22794199 -8.9375 1 C-5.86784865 -0.58433618 -3.38318857 -0.36248449 0 0 Z " fill="#A81C1C" transform="translate(386,159)"/>
<path d="M0 0 C3.53571429 0.53571429 3.53571429 0.53571429 5 2 C5.12667764 4.99018161 5.18520838 7.94694108 5.1875 10.9375 C5.19974609 11.77474609 5.21199219 12.61199219 5.22460938 13.47460938 C5.22654297 14.27576172 5.22847656 15.07691406 5.23046875 15.90234375 C5.23457764 16.63960693 5.23868652 17.37687012 5.24291992 18.13647461 C5 20 5 20 3 22 C-0.53571429 21.46428571 -0.53571429 21.46428571 -2 20 C-2.12667764 17.00981839 -2.18520838 14.05305892 -2.1875 11.0625 C-2.19974609 10.22525391 -2.21199219 9.38800781 -2.22460938 8.52539062 C-2.22654297 7.72423828 -2.22847656 6.92308594 -2.23046875 6.09765625 C-2.23457764 5.36039307 -2.23868652 4.62312988 -2.24291992 3.86352539 C-2 2 -2 2 0 0 Z " fill="#C6C6C6" transform="translate(340,320)"/>
<path d="M0 0 C2.5 0.125 2.5 0.125 3.5 1.125 C3.62667764 4.11518161 3.68520838 7.07194108 3.6875 10.0625 C3.69974609 10.89974609 3.71199219 11.73699219 3.72460938 12.59960938 C3.72654297 13.40076172 3.72847656 14.20191406 3.73046875 15.02734375 C3.73457764 15.76460693 3.73868652 16.50187012 3.74291992 17.26147461 C3.5 19.125 3.5 19.125 1.5 21.125 C-1.125 20.75 -1.125 20.75 -3.5 20.125 C-3.52888514 16.97918577 -3.54675923 13.83340531 -3.5625 10.6875 C-3.57087891 9.78966797 -3.57925781 8.89183594 -3.58789062 7.96679688 C-3.59111328 7.11279297 -3.59433594 6.25878906 -3.59765625 5.37890625 C-3.60551147 4.19276733 -3.60551147 4.19276733 -3.61352539 2.98266602 C-3.43542099 0.06826522 -2.92353114 0.14617656 0 0 Z " fill="#A9A9A9" transform="translate(382.5,320.875)"/>
<path d="M0 0 C2.3125 0 2.3125 0 5 1 C7.02127487 4.52143981 8 7.95264611 8 12 C8.66 12 9.32 12 10 12 C10.103125 11.13375 10.20625 10.2675 10.3125 9.375 C11.03398414 5.83316877 12.27123261 3.15687958 14 0 C15.32 0 16.64 0 18 0 C16.64474464 4.21775732 15.09799886 8.29421322 13.375 12.375 C12.92898438 13.43460937 12.48296875 14.49421875 12.0234375 15.5859375 C11.68570312 16.38257813 11.34796875 17.17921875 11 18 C9.68 18 8.36 18 7 18 C6.0197729 15.56292162 5.04077829 13.12536055 4.0625 10.6875 C3.64581055 9.65206055 3.64581055 9.65206055 3.22070312 8.59570312 C2.07859872 5.74732227 0.97069769 2.91209306 0 0 Z " fill="#ECF3FD" transform="translate(401,432)"/>
<path d="M0 0 C1.32 0 2.64 0 4 0 C5.32 3.3 6.64 6.6 8 10 C10.00993705 7.99006295 10.89940919 6.40788768 12.125 3.875 C12.47820313 3.15054688 12.83140625 2.42609375 13.1953125 1.6796875 C13.46085938 1.12539062 13.72640625 0.57109375 14 0 C14.99 0 15.98 0 17 0 C15.26375242 6.4188547 13.14819255 12.13784836 10 18 C8.16796875 17.89453125 8.16796875 17.89453125 6 17 C4.55078125 14.19921875 4.55078125 14.19921875 3.3125 10.6875 C2.89613281 9.53636719 2.47976563 8.38523438 2.05078125 7.19921875 C1.26338876 4.80191596 0.55243755 2.45865063 0 0 Z " fill="#EDF4FD" transform="translate(731,187)"/>
<path d="M0 0 C1.9375 1.5 1.9375 1.5 3 3 C0.06193103 3.97935632 -1.95277638 4 -5 4 C-6.19695276 4.97910585 -6.19695276 4.97910585 -6.1328125 6.8125 C-6.13023437 7.534375 -6.12765625 8.25625 -6.125 9 C-6.12757813 9.721875 -6.13015625 10.44375 -6.1328125 11.1875 C-6.19695276 13.02089415 -6.19695276 13.02089415 -5 14 C-2.32941149 14.14115161 0.32432238 14.04247107 3 14 C2.34 15.32 1.68 16.64 1 18 C-6.13513514 18.47567568 -6.13513514 18.47567568 -9.5 16.625 C-11.84195873 12.52657222 -11.74135651 8.6009961 -11 4 C-8.25032656 -0.61945138 -5.10723498 -0.65001172 0 0 Z " fill="#EBF2FD" transform="translate(639,187)"/>
<path d="M0 0 C3 1 3 1 4.9375 3.4375 C7.62268651 6.77364082 9.48935501 7.82478665 13.74902344 8.31884766 C14.77543945 8.35026855 15.80185547 8.38168945 16.859375 8.4140625 C18.53193359 8.47207031 18.53193359 8.47207031 20.23828125 8.53125 C21.39714844 8.5621875 22.55601562 8.593125 23.75 8.625 C25.51150391 8.68300781 25.51150391 8.68300781 27.30859375 8.7421875 C30.20557268 8.8363982 33.10254626 8.92201602 36 9 C35.67 9.66 35.34 10.32 35 11 C37.475 11.495 37.475 11.495 40 12 C40 12.33 40 12.66 40 13 C11.95708768 13.64797487 11.95708768 13.64797487 3 6 C0 2.71875 0 2.71875 0 0 Z " fill="#1C212D" transform="translate(332,229)"/>
<path d="M0 0 C0.99 0 1.98 0 3 0 C3 1.65 3 3.3 3 5 C4.65 5 6.3 5 8 5 C8 5.99 8 6.98 8 8 C6.35 8 4.7 8 3 8 C3 11.96 3 15.92 3 20 C4.65 20 6.3 20 8 20 C8 20.99 8 21.98 8 23 C5.66705225 23.04241723 3.33297433 23.04092937 1 23 C0 22 0 22 -0.09765625 18.83984375 C-0.08025391 16.90818359 -0.08025391 16.90818359 -0.0625 14.9375 C-0.05347656 13.64714844 -0.04445313 12.35679687 -0.03515625 11.02734375 C-0.02355469 10.02832031 -0.01195312 9.02929688 0 8 C-0.99 8 -1.98 8 -3 8 C-3 7.34 -3 6.68 -3 6 C-2.34 5.67 -1.68 5.34 -1 5 C-0.34444881 2.47266765 -0.34444881 2.47266765 0 0 Z " fill="#F6F9FE" transform="translate(647,182)"/>
<path d="M0 0 C1.32 0 2.64 0 4 0 C4 8.58 4 17.16 4 26 C2.68 26 1.36 26 0 26 C0 17.42 0 8.84 0 0 Z " fill="#EAF2FD" transform="translate(128,181)"/>
<path d="M0 0 C4.41765559 0.27777818 8.83382886 0.57461069 13.25 0.875 C14.50425781 0.95363281 15.75851562 1.03226563 17.05078125 1.11328125 C18.25605469 1.19707031 19.46132813 1.28085938 20.703125 1.3671875 C21.81333008 1.44050293 22.92353516 1.51381836 24.06738281 1.58935547 C26.8368429 1.97715366 28.62084705 2.57757026 31 4 C23.70472932 5.77625723 16.86601622 6.25501764 9.375 6.125 C7.86873047 6.11146484 7.86873047 6.11146484 6.33203125 6.09765625 C3.88775874 6.07437746 1.44401592 6.04168487 -1 6 C-1 5.67 -1 5.34 -1 5 C3.455 4.505 3.455 4.505 8 4 C6.50256881 2.50256881 5.01175761 2.66797307 2.9375 2.4375 C1.638125 2.293125 0.33875 2.14875 -1 2 C-0.67 1.34 -0.34 0.68 0 0 Z " fill="#2668C1" transform="translate(434,237)"/>
<path d="M0 0 C-4.95 0.33 -9.9 0.66 -15 1 C-12.16730334 2.41634833 -9.52533562 2.3463005 -6.375 2.5625 C-5.18648438 2.64628906 -3.99796875 2.73007813 -2.7734375 2.81640625 C-1.40058594 2.90728516 -1.40058594 2.90728516 0 3 C0 3.33 0 3.66 0 4 C-3.87493616 4.05834395 -7.74975836 4.09371201 -11.625 4.125 C-12.71941406 4.14175781 -13.81382812 4.15851563 -14.94140625 4.17578125 C-24.98079979 4.23662606 -24.98079979 4.23662606 -30 2 C-29.360625 1.690625 -28.72125 1.38125 -28.0625 1.0625 C-26.06389179 0.1654837 -26.06389179 0.1654837 -25 -1 C-21.20148068 -1.41059359 -17.37840928 -1.51663839 -13.5625 -1.6875 C-11.94891602 -1.77741211 -11.94891602 -1.77741211 -10.30273438 -1.86914062 C-9.27599609 -1.91619141 -8.24925781 -1.96324219 -7.19140625 -2.01171875 C-6.24467041 -2.05772217 -5.29793457 -2.10372559 -4.32250977 -2.15112305 C-2 -2 -2 -2 0 0 Z " fill="#2669C4" transform="translate(340,239)"/>
<path d="M0 0 C1.7109375 1.03515625 1.7109375 1.03515625 3 3 C3.2172101 5.64996326 3.28351554 8.05076558 3.1875 10.6875 C3.17396484 11.38939453 3.16042969 12.09128906 3.14648438 12.81445312 C3.11120182 14.54329829 3.05739583 16.27174765 3 18 C1.68 17.34 0.36 16.68 -1 16 C-0.67 14.02 -0.34 12.04 0 10 C-0.99 9.67 -1.98 9.34 -3 9 C-2.01 8.67 -1.02 8.34 0 8 C-0.33 6.68 -0.66 5.36 -1 4 C-3.97 4 -6.94 4 -10 4 C-9.67 3.01 -9.34 2.02 -9 1 C-5.95016004 -0.52491998 -3.3576631 -0.23562548 0 0 Z " fill="#F7FAFE" transform="translate(703,187)"/>
<path d="M0 0 C1.32 0.33 2.64 0.66 4 1 C6.00946222 0.72949547 8.01354224 0.40632091 10 0 C10 1.32 10 2.64 10 4 C8.02 4.66 6.04 5.32 4 6 C3.67 9.96 3.34 13.92 3 18 C2.01 18 1.02 18 0 18 C0 12.06 0 6.12 0 0 Z " fill="#FBFCFE" transform="translate(199,189)"/>
<path d="M0 0 C0.66 0 1.32 0 2 0 C-0.29339787 7.23302406 -2.29070395 12.82180126 -8 18 C-9.10938722 19.09892131 -10.21352933 20.20316168 -11.3125 21.3125 C-12.199375 22.199375 -13.08625 23.08625 -14 24 C-14.66 23.67 -15.32 23.34 -16 23 C-15.26394531 22.09378906 -14.52789063 21.18757813 -13.76953125 20.25390625 C-8.57473051 13.79214591 -3.6025587 7.52357563 0 0 Z " fill="#3675CB" transform="translate(660,122)"/>
<path d="M0 0 C0.38229016 3.3450389 0.11305534 4.80867557 -1.625 7.75 C-4.44018699 10.41701925 -6.19090609 10.74028905 -10 11 C-9.72517902 7.06089933 -9.19816281 5.24636457 -6.6875 2.125 C-4 0 -4 0 0 0 Z " fill="#ABABAB" transform="translate(429,303)"/>
<path d="M0 0 C5.625 -0.25 5.625 -0.25 9 2 C8.25 6.75 8.25 6.75 6 9 C2.875 9.125 2.875 9.125 0 9 C0 6.03 0 3.06 0 0 Z " fill="#3986ED" transform="translate(576,183)"/>
<path d="M0 0 C0 0.33 0 0.66 0 1 C3.96 1.33 7.92 1.66 12 2 C12 2.33 12 2.66 12 3 C1.16129087 3.31366039 -9.2643063 2.36326269 -20 1 C-16.44243976 -1.37170683 -13.56816138 -1.50770955 -9.4375 -1.75 C-8.40979492 -1.83314453 -8.40979492 -1.83314453 -7.36132812 -1.91796875 C-2.24908554 -2.24908554 -2.24908554 -2.24908554 0 0 Z " fill="#1A4785" transform="translate(342,240)"/>
<path d="M0 0 C1.32 0 2.64 0 4 0 C4 0.66 4 1.32 4 2 C3.01 2.495 3.01 2.495 2 3 C2 3.99 2 4.98 2 6 C4.31 6 6.62 6 9 6 C7.9375 7.5 7.9375 7.5 6 9 C2.4375 9.375 2.4375 9.375 -1 9 C-3 6 -3 6 -2.75 3.9375 C-2 2 -2 2 0 0 Z " fill="#F0F6FD" transform="translate(365,441)"/>
<path d="M0 0 C2.66673742 -0.02727345 5.33318869 -0.04696948 8 -0.0625 C8.74378906 -0.07087891 9.48757813 -0.07925781 10.25390625 -0.08789062 C15.26148844 -0.10966272 20.04279032 0.28458451 25 1 C24.67 1.99 24.34 2.98 24 4 C21.03 4 18.06 4 15 4 C14.67 3.34 14.34 2.68 14 2 C10.72444392 1.52998967 10.72444392 1.52998967 6.9375 1.375 C5.00197266 1.26285156 5.00197266 1.26285156 3.02734375 1.1484375 C1.52880859 1.07496094 1.52880859 1.07496094 0 1 C0 0.67 0 0.34 0 0 Z " fill="#2B76DB" transform="translate(447,238)"/>
<path d="M0 0 C3.08669204 3.08669204 3.44855089 3.91927658 4 8 C-0.455 8.495 -0.455 8.495 -5 9 C-3.35 6.03 -1.7 3.06 0 0 Z " fill="#EAFAFE" transform="translate(614,95)"/>
<path d="M0 0 C4.42857143 5.14285714 4.42857143 5.14285714 5 9 C2.36 8.67 -0.28 8.34 -3 8 C-1.125 1.125 -1.125 1.125 0 0 Z " fill="#ECFAFE" transform="translate(576,95)"/>
<path d="M0 0 C2.06309376 0.11478413 4.12548354 0.24226198 6.1875 0.375 C7.33605469 0.44460937 8.48460937 0.51421875 9.66796875 0.5859375 C12.79959117 0.97509574 15.15285809 1.6809851 18 3 C16 5 16 5 14.0546875 5.1953125 C12.03645833 5.13020833 10.01822917 5.06510417 8 5 C7.67 4.34 7.34 3.68 7 3 C5.10466658 2.53476937 5.10466658 2.53476937 2.9375 2.375 C1.638125 2.25125 0.33875 2.1275 -1 2 C-0.67 1.34 -0.34 0.68 0 0 Z " fill="#2159A5" transform="translate(434,237)"/>
<path d="M0 0 C0 1.32 0 2.64 0 4 C-3 6 -3 6 -5.6875 5.625 C-6.450625 5.41875 -7.21375 5.2125 -8 5 C-7.625 3.0625 -7.625 3.0625 -7 1 C-4.53721199 -0.231394 -2.7204945 -0.07159196 0 0 Z " fill="#5798F0" transform="translate(621,197)"/>
<path d="M0 0 C0.33 0.66 0.66 1.32 1 2 C-2.67915561 7.63370702 -6.7957801 11.75139368 -12 16 C-12.66 15.67 -13.32 15.34 -14 15 C-11.04191217 10.93262923 -7.64138562 7.84809895 -3.8046875 4.6484375 C-1.78227744 2.93367669 -1.78227744 2.93367669 0 0 Z " fill="#296EC9" transform="translate(658,130)"/>
<path d="M0 0 C-1.2491742 3.45925163 -2.67527795 6.14693203 -5 9 C-6.76462683 5.91190305 -7 4.76687864 -7 1 C-4.50935112 0.31292445 -2.62113708 0 0 0 Z " fill="#F1FBFE" transform="translate(581,75)"/>
<path d="M0 0 C2.97 0 5.94 0 9 0 C8 2 7 4 6 6 C2.21503862 4.48601545 1.9927802 3.9855604 0 0 Z " fill="#F7FDFE" transform="translate(591,109)"/>
<path d="M0 0 C-0.33 1.65 -0.66 3.3 -1 5 C-2.65 5.33 -4.3 5.66 -6 6 C-6.33 4.68 -6.66 3.36 -7 2 C-4 0 -4 0 0 0 Z " fill="#488FEF" transform="translate(373,442)"/>
<path d="M0 0 C2.31 0 4.62 0 7 0 C6.74438677 2.3431213 6.40729228 4.67843403 6 7 C5.01 7.495 5.01 7.495 4 8 C2.68 5.36 1.36 2.72 0 0 Z " fill="#F5FCFE" transform="translate(610,76)"/>
<path d="M0 0 C1.7074998 1.28062485 3.37373596 2.61767557 5 4 C5 4.66 5 5.32 5 6 C2.03 6 -0.94 6 -4 6 C-2 2 -2 2 0 0 Z " fill="#F6FCFE" transform="translate(595,64)"/>
<path d="M0 0 C0.99 0.33 1.98 0.66 3 1 C0.8227865 6.20112114 -1.60708214 8.68090651 -6 12 C-4.43358249 7.69235185 -2.31663844 3.93828536 0 0 Z " fill="#3173CD" transform="translate(449,359)"/>
<path d="M0 0 C-0.33 1.65 -0.66 3.3 -1 5 C-2.65 5.33 -4.3 5.66 -6 6 C-6.33 4.68 -6.66 3.36 -7 2 C-4.35261084 0.5393715 -3.10551666 0 0 0 Z " fill="#468EEF" transform="translate(703,197)"/>
<path d="M0 0 C0.66 0.33 1.32 0.66 2 1 C1.22914063 1.75925781 0.45828125 2.51851563 -0.3359375 3.30078125 C-1.34909096 4.30455366 -2.36210448 5.30846732 -3.375 6.3125 C-3.88289062 6.81201172 -4.39078125 7.31152344 -4.9140625 7.82617188 C-7.22854133 10.12542387 -9.18347483 12.27521225 -11 15 C-11.66 15 -12.32 15 -13 15 C-11.38989473 10.92623969 -8.46177729 8.23492931 -5.375 5.25 C-4.859375 4.74339844 -4.34375 4.23679687 -3.8125 3.71484375 C-2.54616661 2.47196098 -1.2736856 1.23534724 0 0 Z " fill="#0F5FA4" transform="translate(176,112)"/>
<path d="M0 0 C1.65 0 3.3 0 5 0 C5.66 1.32 6.32 2.64 7 4 C4.03 4 1.06 4 -2 4 C-1.34 2.68 -0.68 1.36 0 0 Z " fill="#3885ED" transform="translate(185,192)"/>
<path d="M0 0 C1.98 0 3.96 0 6 0 C6.33 1.32 6.66 2.64 7 4 C4.36 4 1.72 4 -1 4 C-0.67 2.68 -0.34 1.36 0 0 Z " fill="#3885ED" transform="translate(755,190)"/>
<path d="M0 0 C2.31 0.33 4.62 0.66 7 1 C7 1.99 7 2.98 7 4 C4.03 4 1.06 4 -2 4 C-1.34 2.68 -0.68 1.36 0 0 Z " fill="#3785ED" transform="translate(597,190)"/>
<path d="M0 0 C1.65 0 3.3 0 5 0 C5.33 1.32 5.66 2.64 6 4 C3.36 4 0.72 4 -2 4 C-1.34 2.68 -0.68 1.36 0 0 Z " fill="#3282ED" transform="translate(426,435)"/>
<path d="M0 0 C-1.98 1.98 -3.96 3.96 -6 6 C-7.32 5.34 -8.64 4.68 -10 4 C-7.39928297 0.98864344 -3.94054294 -1.97027147 0 0 Z " fill="#3271C4" transform="translate(208,155)"/>
<path d="M0 0 C0.226875 0.639375 0.45375 1.27875 0.6875 1.9375 C1.85250896 4.27193661 1.85250896 4.27193661 4.625 4.75 C5.40875 4.8325 6.1925 4.915 7 5 C6.67 5.66 6.34 6.32 6 7 C3.125 7.125 3.125 7.125 0 7 C-0.66 6.34 -1.32 5.68 -2 5 C-1.46428571 1.46428571 -1.46428571 1.46428571 0 0 Z " fill="#FCFDFE" transform="translate(612,198)"/>
<path d="M0 0 C1.26328125 0.19464844 2.5265625 0.38929688 3.828125 0.58984375 C4.79234375 0.74582031 5.7565625 0.90179688 6.75 1.0625 C6.75 1.3925 6.75 1.7225 6.75 2.0625 C4.50026553 2.116638 2.25015617 2.15535491 0 2.1875 C-1.25296875 2.21070313 -2.5059375 2.23390625 -3.796875 2.2578125 C-6.97820492 2.07787302 -8.61521896 1.75248582 -11.25 0.0625 C-7.35939581 -1.3424404 -4.01907638 -0.63263239 0 0 Z " fill="#13335F" transform="translate(349.25,239.9375)"/>
<path d="M0 0 C3.3 0 6.6 0 10 0 C9.01 1.485 9.01 1.485 8 3 C6.0546875 3.29296875 6.0546875 3.29296875 3.875 3.1875 C2.59625 3.125625 1.3175 3.06375 0 3 C0 2.01 0 1.02 0 0 Z " fill="#2B75D9" transform="translate(304,239)"/>
<path d="M0 0 C1.9375 1.5 1.9375 1.5 3 3 C-1.51617599 3.07654536 -5.59085217 3.10228696 -10 2 C-6.30513897 -0.46324069 -4.36706908 -0.38991688 0 0 Z " fill="#1E5298" transform="translate(332,239)"/>
<path d="M0 0 C0 1.32 0 2.64 0 4 C-2.31 3.67 -4.62 3.34 -7 3 C-4.49955934 -0.00052879 -4.2621484 0 0 0 Z " fill="#DFEBFC" transform="translate(209,189)"/>
<path d="M0 0 C1.98 0.495 1.98 0.495 4 1 C3.67 2.32 3.34 3.64 3 5 C1.68 5 0.36 5 -1 5 C-0.67 3.35 -0.34 1.7 0 0 Z " fill="#E0ECFC" transform="translate(725,179)"/>
<path d="M0 0 C1.98 0.495 1.98 0.495 4 1 C3.67 2.32 3.34 3.64 3 5 C1.68 4.67 0.36 4.34 -1 4 C-0.67 2.68 -0.34 1.36 0 0 Z " fill="#E7F0FC" transform="translate(395,424)"/>
<path d="M0 0 C-2.52956528 3.0916909 -5.22454612 3.90931332 -9 5 C-6.81610567 0.16423399 -5.20641855 -0.13701101 0 0 Z " fill="#E8F1FD" transform="translate(619,195)"/>
<path d="M0 0 C1.98 0 3.96 0 6 0 C6 0.99 6 1.98 6 3 C4.02 3 2.04 3 0 3 C0 2.01 0 1.02 0 0 Z " fill="#A2C6F6" transform="translate(477,88)"/>
<path d="M0 0 C1.98 0 3.96 0 6 0 C6 0.99 6 1.98 6 3 C4.02 3 2.04 3 0 3 C0 2.01 0 1.02 0 0 Z " fill="#9FC4F6" transform="translate(467,88)"/>
<path d="M0 0 C1.98 0 3.96 0 6 0 C6 0.99 6 1.98 6 3 C4.02 3 2.04 3 0 3 C0 2.01 0 1.02 0 0 Z " fill="#9FC4F6" transform="translate(300,88)"/>
<path d="M0 0 C1.98 0 3.96 0 6 0 C6 0.99 6 1.98 6 3 C4.02 3 2.04 3 0 3 C0 2.01 0 1.02 0 0 Z " fill="#A2C6F6" transform="translate(290,88)"/>
</svg>
