<?xml version="1.0" encoding="UTF-8"?>
<svg version="1.1" xmlns="http://www.w3.org/2000/svg" width="601" height="446">
<path d="M0 0 C198.33 0 396.66 0 601 0 C601 147.18 601 294.36 601 446 C402.67 446 204.34 446 0 446 C0 298.82 0 151.64 0 0 Z " fill="#FEFEFE" transform="translate(0,0)"/>
<path d="M0 0 C2.2109375 1.171875 2.2109375 1.171875 4 3 C4.35546875 5.6640625 4.35546875 5.6640625 4.1875 8.625 C4.10055258 10.41564677 4.03211263 12.20753118 4 14 C5.94090826 15.94090826 9.47293902 15.39919435 12.0625 15.5625 C13.35285156 15.64628906 14.64320312 15.73007813 15.97265625 15.81640625 C16.97167969 15.87699219 17.97070312 15.93757812 19 16 C19.495 19.465 19.495 19.465 20 23 C21.20398438 23.30292969 22.40796875 23.60585937 23.6484375 23.91796875 C25.22424926 24.34006119 26.79975478 24.76329811 28.375 25.1875 C29.56609375 25.48237305 29.56609375 25.48237305 30.78125 25.78320312 C32.97287013 26.38682731 34.96776411 26.97906364 37 28 C38.40625 30.64453125 38.40625 30.64453125 39 33 C40.65449105 33.38929201 42.32546201 33.708776 44 34 C45.27460768 34.75140627 46.52266707 35.54862842 47.75 36.375 C51.21170331 38.63347186 54.43800567 39.91729443 58.3671875 41.12890625 C61.72074245 42.23846523 64.98709881 43.52702086 68.25 44.875 C69.41015625 45.34679687 70.5703125 45.81859375 71.765625 46.3046875 C75.27492486 48.14410313 77.54557311 49.88915661 80 53 C79.8125 55.3125 79.8125 55.3125 79 57 C70.76813451 56.3184948 70.76813451 56.3184948 67.4375 54.9375 C63.8552808 53.55972339 60.82600906 53.80869955 57 54 C55.35583744 55.64416256 55.83544675 57.60906119 55.80981445 59.81005859 C55.86027582 99.78463963 60.82881527 136.27408885 88 167 C88.64066406 167.763125 89.28132813 168.52625 89.94140625 169.3125 C105.7990176 188.1503121 131.3560084 201.19653034 155.8046875 204.36328125 C158.82228991 203.86392712 159.60878607 202.653202 161.4375 200.25 C164.40085694 196.62454813 166.83826156 194.1713418 171 192 C173.875 191.75 173.875 191.75 176 192 C176.96747771 195.112514 177.25702664 196.48016155 175.78515625 199.45703125 C175.21667969 200.23433594 174.64820313 201.01164063 174.0625 201.8125 C173.49660156 202.60269531 172.93070313 203.39289063 172.34765625 204.20703125 C171.90292969 204.79871094 171.45820313 205.39039063 171 206 C171.98742187 205.98839844 172.97484375 205.97679687 173.9921875 205.96484375 C175.91417969 205.95130859 175.91417969 205.95130859 177.875 205.9375 C179.15117187 205.92589844 180.42734375 205.91429687 181.7421875 205.90234375 C185 206 185 206 187 207 C191.55547083 207.25785684 194.8780636 206.99851462 199 205 C199.33 205.33 199.66 205.66 200 206 C203.82533783 206.23743476 207.64419229 206.39667966 211.47460938 206.51757812 C212.27576172 206.55173828 213.07691406 206.58589844 213.90234375 206.62109375 C214.63960693 206.6461499 215.37687012 206.67120605 216.13647461 206.69702148 C218 207 218 207 220 209 C220.35121358 211.73946596 220.49189983 213.32031408 218.84375 215.59765625 C216.34509352 217.49811743 214.287739 217.62563152 211.1875 218 C207.5912162 218.50639796 205.2592066 218.85660912 202.0625 220.625 C197.82736363 222.5264898 194.09478817 222.08308712 189.51171875 221.8125 C186.43220794 221.97692327 184.6318402 222.37462712 181.8046875 223.39453125 C176.42851501 225.31552052 171.09444477 226.04828978 165.4375 226.6875 C164.32632813 226.81342529 163.21515625 226.93935059 162.0703125 227.0690918 C142.66266226 229.0443605 122.31104335 229.31772331 103.01123047 226.30761719 C100.89779984 225.98436851 98.78120758 225.71368081 96.66015625 225.4453125 C64.50733548 221.08566772 32.70129612 204.50915277 12.75 178.5 C11.14398628 176.34861209 9.57088599 174.177573 8 172 C7.39671875 171.19046875 6.7934375 170.3809375 6.171875 169.546875 C-11.5296215 145.22799664 -22.49272679 117.8569696 -28.87182617 88.61279297 C-30.11968847 83.02850706 -31.72777255 78.14593167 -34.1730957 72.97900391 C-36.05274194 68.480506 -35.66241301 63.7382808 -35 59 C-32.67374478 53.98960415 -29.61681589 51.72811848 -25 49 C-25.2475 48.0925 -25.495 47.185 -25.75 46.25 C-26 43 -26 43 -24.5625 40.8125 C-21.70892007 38.7941142 -19.00614822 37.70890637 -15.70703125 36.61328125 C-13.99194384 36.13407172 -13.99194384 36.13407172 -13 35 C-13.1389595 33.2910938 -13.28625872 31.58286305 -13.4375 29.875 C-13.50817153 26.26132922 -13.46575707 24.59883052 -11.22265625 21.71484375 C-9.21687869 19.99812377 -7.20859066 18.44445773 -5 17 C-5.57171772 14.09928483 -5.79572049 13.18570865 -8.0625 11.125 C-10 9 -10 9 -10.4375 5.9375 C-10 3 -10 3 -8.9375 1.125 C-5.88405803 -0.64796631 -3.45262038 -0.36343372 0 0 Z " fill="#0D0D0D" transform="translate(92,181)"/>
<path d="M0 0 C1.64635086 3.29270172 1.05900169 6.94864658 1 10.5625 C0.95420986 13.38088329 0.95295617 16.18031038 1 19 C1.33 19.33 1.66 19.66 2 20 C2.38470203 24.13363601 2.47027771 28.28957746 2.625 32.4375 C2.6765625 33.60861328 2.728125 34.77972656 2.78125 35.98632812 C2.82507813 37.10330078 2.86890625 38.22027344 2.9140625 39.37109375 C2.9548291 40.40161865 2.9955957 41.43214355 3.03759766 42.49389648 C3 45 3 45 2 47 C2.99 47 3.98 47 5 47 C4.67 48.32 4.34 49.64 4 51 C3.01 51 2.02 51 1 51 C1.33 51.99 1.66 52.98 2 54 C2.99 53.67 3.98 53.34 5 53 C5.20681396 53.77190674 5.41362793 54.54381348 5.62670898 55.33911133 C6.56270304 58.83049268 7.50008485 62.32149995 8.4375 65.8125 C8.92573242 67.63491211 8.92573242 67.63491211 9.42382812 69.49414062 C9.73642578 70.65751953 10.04902344 71.82089844 10.37109375 73.01953125 C10.65911865 74.09307861 10.94714355 75.16662598 11.24389648 76.27270508 C11.77736612 78.1969509 12.36854835 80.10564505 13 82 C12.01 82.495 12.01 82.495 11 83 C10.505 84.485 10.505 84.485 10 86 C10.8971875 86.4021875 10.8971875 86.4021875 11.8125 86.8125 C13.98726664 87.99308761 15.26816512 89.26816512 17 91 C18.485 91.495 18.485 91.495 20 92 C21.61328125 93.75 21.61328125 93.75 23.3125 96 C23.92480469 96.80953125 24.53710938 97.6190625 25.16796875 98.453125 C27.41063839 101.57086616 29.49493084 104.77702457 31.58203125 108 C33.08701438 110.24914539 33.08701438 110.24914539 35.8125 112.75 C38 115 38 115 38.375 117.375 C39.43817589 121.84033873 42.40190242 124.30142681 46 127 C50.8786931 129.6293459 55.92485623 131.84611056 61.11328125 133.79296875 C64.79062768 135.18782429 67.04577246 136.91865739 69.8125 139.625 C74.17070316 143.69208546 78.1880379 144.08336831 84 144 C84 144.99 84 145.98 84 147 C88.29 147.99 92.58 148.98 97 150 C97 150.99 97 151.98 97 153 C89.1595398 153.45040942 82.09748624 152.54874312 75 149 C74.62875 149.9590625 74.62875 149.9590625 74.25 150.9375 C73 153 73 153 71 153.75 C68.75907359 154.0301158 67.23958438 154.06955675 65.0625 153.4375 C62.81779123 152.77951372 62.81779123 152.77951372 60 154 C61.49097658 150.2047869 63.75700849 148.38957269 67 146 C65.41705218 145.94562393 63.83355744 145.90703729 62.25 145.875 C61.36828125 145.85179687 60.4865625 145.82859375 59.578125 145.8046875 C56.86592453 146.01015723 55.35139629 146.70162031 53 148 C50.57202689 148 48.37092995 147.49914315 46 147 C45.67 146.01 45.34 145.02 45 144 C41.7 143.34 38.4 142.68 35 142 C35 139.69 35 137.38 35 135 C34.27554688 134.97421875 33.55109375 134.9484375 32.8046875 134.921875 C26.72668309 134.56529874 22.56463112 134.1945259 18 130 C18 129.01 18 128.02 18 127 C19.65 127 21.3 127 23 127 C23.33 128.32 23.66 129.64 24 131 C26.97 131 29.94 131 33 131 C23.3198654 119.33419676 9.47843624 113.71483949 -4.33984375 108.2890625 C-7 107 -7 107 -9 104 C-6.69 104 -4.38 104 -2 104 C-2 104.66 -2 105.32 -2 106 C-0.88625 106.185625 -0.88625 106.185625 0.25 106.375 C2.80141485 106.95486701 4.7267573 107.73708739 7 109 C5.572754 103.79161215 5.572754 103.79161215 2 100 C0.88625 99.54625 -0.2275 99.0925 -1.375 98.625 C-5.17065996 96.92349726 -7.25503178 95.07769164 -10 92 C-7.03 91.01 -7.03 91.01 -4 90 C-4.41421969 85.16743695 -6.46413986 83.17320782 -10 80 C-9.34 81.98 -8.68 83.96 -8 86 C-8.66 86 -9.32 86 -10 86 C-10.391875 85.071875 -10.78375 84.14375 -11.1875 83.1875 C-13.12822616 79.77449882 -14.53018941 78.68801596 -18 77 C-18 78.32 -18 79.64 -18 81 C-18.66 81 -19.32 81 -20 81 C-20 80.34 -20 79.68 -20 79 C-21.175625 79.0928125 -21.175625 79.0928125 -22.375 79.1875 C-23.24125 79.125625 -24.1075 79.06375 -25 79 C-27 76 -27 76 -27.75 72.125 C-28.81670455 67.38603389 -31.08986014 65.72009729 -35 63 C-32.13822943 61.56911472 -30.06624227 62.40008303 -27 63 C-27.495 62.071875 -27.99 61.14375 -28.5 60.1875 C-30 57 -30 57 -30 54 C-26.60085025 55.13304992 -25.94745549 56.12518475 -24 59 C-22.68 58.34 -21.36 57.68 -20 57 C-20.50522222 52.62140745 -23.17827222 50.18348776 -26 47 C-25.814375 47.598125 -25.62875 48.19625 -25.4375 48.8125 C-25 51 -25 51 -26 54 C-27.485 51.525 -27.485 51.525 -29 49 C-29.33 50.32 -29.66 51.64 -30 53 C-30 52.34 -30 51.68 -30 51 C-30.66 51 -31.32 51 -32 51 C-32.4021875 51.8971875 -32.4021875 51.8971875 -32.8125 52.8125 C-33.98493467 54.97224808 -35.19369282 56.35790256 -37 58 C-38.485 57.505 -38.485 57.505 -40 57 C-40 54.36 -40 51.72 -40 49 C-41.96822886 50.96822886 -41.66248381 54.34808709 -42 57 C-42.99 57 -43.98 57 -45 57 C-42.69 59.64 -40.38 62.28 -38 65 C-38.99 66.32 -39.98 67.64 -41 69 C-44 68 -44 68 -45.02734375 66.0390625 C-45.32769531 65.24242187 -45.62804687 64.44578125 -45.9375 63.625 C-47.45427112 59.91798796 -48.65857702 58.26739416 -52 56 C-52 54.68 -52 53.36 -52 52 C-53.92022703 50.22590192 -53.92022703 50.22590192 -56 49 C-54.84826645 46.53199953 -53.95216435 44.95216435 -52 43 C-49.375 43.375 -49.375 43.375 -47 44 C-46.67 44.99 -46.34 45.98 -46 47 C-46.66 47 -47.32 47 -48 47 C-47.67 49.64 -47.34 52.28 -47 55 C-46.01 55 -45.02 55 -44 55 C-44.14099493 48.41903997 -44.14099493 48.41903997 -46.625 42.5 C-49.62876061 40.60288804 -52.55353992 39.79533694 -56 39 C-56.33 37.35 -56.66 35.7 -57 34 C-56.01 34 -55.02 34 -54 34 C-53.87818359 33.06414062 -53.87818359 33.06414062 -53.75390625 32.109375 C-53 30 -53 30 -51.15234375 28.953125 C-50.42144531 28.72109375 -49.69054687 28.4890625 -48.9375 28.25 C-47.83728516 27.88648438 -47.83728516 27.88648438 -46.71484375 27.515625 C-46.14894531 27.34546875 -45.58304688 27.1753125 -45 27 C-45.144375 26.13375 -45.28875 25.2675 -45.4375 24.375 C-45.95833333 21.25 -46.47916667 18.125 -47 15 C-46.22914062 14.90203125 -45.45828125 14.8040625 -44.6640625 14.703125 C-43.66117188 14.55359375 -42.65828125 14.4040625 -41.625 14.25 C-40.62726563 14.11078125 -39.62953125 13.9715625 -38.6015625 13.828125 C-35.85438953 13.25613111 -35.85438953 13.25613111 -34.6484375 10.921875 C-34.43445313 10.28765625 -34.22046875 9.6534375 -34 9 C-31.69 9 -29.38 9 -27 9 C-26.67 8.01 -26.34 7.02 -26 6 C-21.545 6.99 -21.545 6.99 -17 8 C-17 7.34 -17 6.68 -17 6 C-17.99 5.67 -18.98 5.34 -20 5 C-19.67 4.34 -19.34 3.68 -19 3 C-16.015625 2.1484375 -16.015625 2.1484375 -12.25 1.375 C-11.01765625 1.11460937 -9.7853125 0.85421875 -8.515625 0.5859375 C-5.57548094 0.09591349 -2.96588137 -0.12452174 0 0 Z " fill="#F6F6F6" transform="translate(144,240)"/>
<path d="M0 0 C3.72680679 3.18142043 5.3896779 5.66938281 5.95068359 10.59741211 C5.95575928 12.51179077 5.95575928 12.51179077 5.9609375 14.46484375 C5.96380768 15.15381241 5.96667786 15.84278107 5.96963501 16.55262756 C5.97166863 18.00408758 5.96618795 19.45557545 5.95361328 20.90698242 C5.93757227 23.11505188 5.95347111 25.32128447 5.97265625 27.52929688 C5.97067321 28.9453165 5.96682828 30.36133499 5.9609375 31.77734375 C5.95755371 33.05472412 5.95416992 34.33210449 5.95068359 35.64819336 C5.5277001 39.50479195 4.5952242 41.90145204 2.5625 45.1875 C-3.25319846 49.76581581 -7.63537147 50.31933842 -14.8359375 50.36328125 C-16.29949356 50.38647865 -17.76303528 50.41059595 -19.2265625 50.43554688 C-21.51962933 50.47062481 -23.81216642 50.49999805 -26.10546875 50.51342773 C-28.32876665 50.5289736 -30.55054519 50.56921317 -32.7734375 50.61328125 C-33.45175629 50.61137283 -34.13007507 50.60946442 -34.82894897 50.60749817 C-39.79031563 50.73389234 -42.59824927 52.11096541 -46.4375 55.1875 C-51.95042058 61.74340556 -51.2409165 69.9997973 -51.4375 78.1875 C-62.9740372 78.80369487 -62.9740372 78.80369487 -68 76.6875 C-74.94435092 69.5650888 -76.52748099 60.43886574 -76.75 50.8125 C-76.62732479 43.10696332 -75.8863035 36.04720785 -71.125 29.75 C-65.40153876 24.29274626 -60.42605847 23.75963772 -52.8828125 23.89453125 C-51.98126434 23.89877609 -51.07971619 23.90302094 -50.15084839 23.90739441 C-47.28775435 23.92410942 -44.42537921 23.96174808 -41.5625 24 C-39.61459354 24.01505613 -37.66667598 24.02874291 -35.71875 24.04101562 C-30.95805878 24.07398942 -26.19790104 24.12572187 -21.4375 24.1875 C-21.4375 23.1975 -21.4375 22.2075 -21.4375 21.1875 C-30.0175 21.1875 -38.5975 21.1875 -47.4375 21.1875 C-47.5921875 17.1346875 -47.5921875 17.1346875 -47.75 13 C-47.81828003 11.73700073 -47.81828003 11.73700073 -47.88793945 10.44848633 C-47.96592014 6.21589602 -47.8086278 4.65355323 -45.0703125 1.21484375 C-34.32290802 -7.06097661 -11.63375778 -6.13416319 0 0 Z " fill="#3975A7" transform="translate(155.4375,36.8125)"/>
<path d="M0 0 C13.76597467 -1.03101613 13.76597467 -1.03101613 18.125 2.3125 C24.78014189 9.40459566 26.32793797 20.57222551 26.1484375 29.90625 C25.61581124 37.41908358 23.33781107 44.79031696 19 51 C14.3292591 54.84850921 9.63681241 54.38802516 3.88671875 54.29296875 C2.91716751 54.28872391 1.94761627 54.28447906 0.94868469 54.28010559 C-2.138663 54.263354 -5.22535062 54.22570789 -8.3125 54.1875 C-10.40949576 54.17244863 -12.50650178 54.15876102 -14.60351562 54.14648438 C-19.73593023 54.11346192 -24.86785331 54.06170347 -30 54 C-30 54.99 -30 55.98 -30 57 C-21.09 57 -12.18 57 -3 57 C-2.19642857 71.0625 -2.19642857 71.0625 -5.3125 75.125 C-9.3989765 78.98715917 -14.68735541 80.50732342 -20 82 C-20.64710938 82.19207031 -21.29421875 82.38414062 -21.9609375 82.58203125 C-31.77742602 84.59422334 -42.5535051 83.12132785 -51.046875 77.69140625 C-53.16671511 75.99048693 -54.77719858 74.44560283 -56 72 C-56.30748594 67.09640838 -56.35646093 62.19230306 -56.4050293 57.2800293 C-56.42656147 55.64374626 -56.46060822 54.00757693 -56.50756836 52.37182617 C-56.94384944 37.02746331 -56.94384944 37.02746331 -53.09765625 32.44921875 C-48.63856638 28.92355753 -45.86341328 28.84363171 -40.359375 28.7890625 C-38.79816681 28.76098203 -37.23696904 28.73231749 -35.67578125 28.703125 C-33.21598738 28.6619569 -30.75638546 28.62506862 -28.29638672 28.59863281 C-25.92114061 28.5708969 -23.54677711 28.52501519 -21.171875 28.4765625 C-20.07936432 28.4716832 -20.07936432 28.4716832 -18.96478271 28.46670532 C-13.57023605 28.33789832 -9.39244334 27.1821811 -5.35546875 23.5 C-1.30152088 18.29359204 -0.7795878 14.23365632 -0.4375 7.8125 C-0.37272461 6.68811523 -0.37272461 6.68811523 -0.30664062 5.54101562 C-0.20077315 3.69421625 -0.0999024 1.84713166 0 0 Z " fill="#FFD648" transform="translate(164,61)"/>
<path d="M0 0 C5.51341472 4.29632538 8.51775944 10.36418293 10.3125 17 C10.63469702 19.9214664 10.69365927 22.81233756 10.6875 25.75 C10.68508301 26.94435669 10.68508301 26.94435669 10.68261719 28.1628418 C10.52291895 35.84479676 8.53422132 41.35002926 4.5625 47.875 C-1.1707715 53.28975642 -6.59059361 54.44460271 -14.3671875 54.53125 C-17.6875 54 -17.6875 54 -27.6875 50 C-27.6875 60.23 -27.6875 70.46 -27.6875 81 C-33.6875 80 -33.6875 80 -36.6875 78 C-37.10209656 75.10443115 -37.10209656 75.10443115 -37.1550293 71.35058594 C-37.16831772 70.66742813 -37.18160614 69.98427032 -37.19529724 69.28041077 C-37.23408413 67.01494847 -37.24960208 64.75012806 -37.26171875 62.484375 C-37.2764356 60.90976819 -37.29131514 59.33516288 -37.30635071 57.76055908 C-37.33337369 54.45507708 -37.34689713 51.14982056 -37.35327148 47.84423828 C-37.3641242 43.61543067 -37.42575841 39.38901945 -37.4999876 35.16091537 C-37.54845615 31.90596555 -37.56080151 28.65158873 -37.56333351 25.3963089 C-37.57055271 23.83814035 -37.59098296 22.27997346 -37.62503624 20.72216034 C-37.87058764 8.55553609 -37.87058764 8.55553609 -34.96963501 4.74133301 C-32.92629403 3.17220818 -31.02962619 2.05870452 -28.6875 1 C-27.5325 0.38125 -26.3775 -0.2375 -25.1875 -0.875 C-17.8676446 -3.28590475 -6.84726352 -3.86055239 0 0 Z " fill="#686868" transform="translate(257.6875,62)"/>
<path d="M0 0 C6.73681996 4.09124474 10.95156442 10.17402193 13.5625 17.5 C14.73187248 27.83472432 14.00795249 37.08490395 7.984375 45.77734375 C4.5644581 50.03683484 1.08807317 53.48470034 -4.4375 54.5 C-11.83063002 55.27636688 -18.63668081 55.72527827 -24.76171875 51.04296875 C-32.28065143 44.11994216 -35.37580368 38.01252896 -35.89135742 27.66577148 C-36.09068667 18.57994369 -34.58363742 11.86397301 -28.20703125 5.15234375 C-20.48166175 -1.99330798 -10.1314552 -4.52724474 0 0 Z " fill="#696969" transform="translate(457.4375,61.5)"/>
<path d="M0 0 C0 18.81 0 37.62 0 57 C4.70188006 54.3132114 8.01851861 52.40032672 11.875 48.9375 C12.63554687 48.26589844 13.39609375 47.59429687 14.1796875 46.90234375 C16.22560844 45.03550889 16.22560844 45.03550889 17 42 C14.03 41.505 14.03 41.505 11 41 C11 40.01 11 39.02 11 38 C19.58 38 28.16 38 37 38 C37 39.32 37 40.64 37 42 C36.443125 42.08636719 35.88625 42.17273438 35.3125 42.26171875 C27.06321706 43.7805901 21.35641561 47.63677433 15 53 C17.96877453 61.3487365 24.64089258 70.87928775 32 76 C34.97537792 77.05854791 37.86551825 77.65172425 41 78 C40.67 79.65 40.34 81.3 40 83 C26.18585983 84.0447669 26.18585983 84.0447669 21.6953125 81.8984375 C19.80565238 80.06302599 18.45360922 78.20179044 17 76 C16.20149655 74.90103578 15.39910109 73.80489351 14.59375 72.7109375 C8 63.59683084 8 63.59683084 8 61 C4.25332798 62.6327851 4.25332798 62.6327851 1 65 C0.90145345 66.64340867 0.87027589 68.2911461 0.875 69.9375 C0.87242187 70.83339844 0.86984375 71.72929687 0.8671875 72.65234375 C0.84578587 75.02155555 0.84578587 75.02155555 2 77 C4.11327425 77.90725434 4.11327425 77.90725434 6.5625 78.625 C7.80193359 79.01558594 7.80193359 79.01558594 9.06640625 79.4140625 C9.70449219 79.60742188 10.34257812 79.80078125 11 80 C10.67 80.99 10.34 81.98 10 83 C1.75 83 -6.5 83 -15 83 C-15 81.68 -15 80.36 -15 79 C-14.360625 78.71125 -13.72125 78.4225 -13.0625 78.125 C-10.84793921 77.17176549 -10.84793921 77.17176549 -10 75 C-9.89344678 73.07584847 -9.85116242 71.1480076 -9.83886719 69.22094727 C-9.82925964 68.00951553 -9.8196521 66.7980838 -9.80975342 65.54994202 C-9.80550354 64.23537521 -9.80125366 62.92080841 -9.796875 61.56640625 C-9.79112377 60.2088165 -9.78536603 58.85122678 -9.77960205 57.49363708 C-9.76909386 54.64638897 -9.76324981 51.79916908 -9.75976562 48.9519043 C-9.7542769 45.30210877 -9.7302406 41.65268558 -9.70179367 38.00300694 C-9.68317886 35.19861253 -9.67796236 32.39430808 -9.67642975 29.5898571 C-9.67192705 27.58952905 -9.65327631 25.58924914 -9.63446045 23.58900452 C-9.63746155 22.37442062 -9.64046265 21.15983673 -9.64355469 19.90844727 C-9.63990906 18.83748306 -9.63626343 17.76651886 -9.63250732 16.6631012 C-9.77788977 13.98030101 -9.77788977 13.98030101 -11.38555908 12.2049408 C-13.17020068 10.87297042 -14.97023273 9.90989567 -17 9 C-17 8.01 -17 7.02 -17 6 C-14.73495035 4.80015203 -12.46410112 3.61505231 -10.1875 2.4375 C-9.54490234 2.09525391 -8.90230469 1.75300781 -8.24023438 1.40039062 C-3.33984375 -1.11328125 -3.33984375 -1.11328125 0 0 Z " fill="#070707" transform="translate(436,248)"/>
<path d="M0 0 C17.16 0 34.32 0 52 0 C51.67 5.28 51.34 10.56 51 16 C49.68 16 48.36 16 47 16 C45.5859375 14.28515625 45.5859375 14.28515625 44.375 12.0625 C42.77807245 8.93256594 42.77807245 8.93256594 40 7 C38.33434251 6.84777027 36.66343504 6.75082785 34.9921875 6.68359375 C33.65969971 6.62643188 33.65969971 6.62643188 32.30029297 6.56811523 C31.16994629 6.52501221 30.03959961 6.48190918 28.875 6.4375 C25.28625 6.293125 21.6975 6.14875 18 6 C18 15.9 18 25.8 18 36 C24.27 35.67 30.54 35.34 37 35 C37.33 32.69 37.66 30.38 38 28 C39.32 27.67 40.64 27.34 42 27 C42 34.59 42 42.18 42 50 C40.02 50.495 40.02 50.495 38 51 C37.73445313 50.43410156 37.46890625 49.86820312 37.1953125 49.28515625 C36.84210938 48.55167969 36.48890625 47.81820312 36.125 47.0625 C35.60292969 45.96615234 35.60292969 45.96615234 35.0703125 44.84765625 C34.1315023 42.83667541 34.1315023 42.83667541 32 42 C29.62876754 41.76970044 27.25258057 41.58880058 24.875 41.4375 C23.59367187 41.35371094 22.31234375 41.26992188 20.9921875 41.18359375 C19.51105469 41.09271484 19.51105469 41.09271484 18 41 C18.1179762 45.25435079 18.2422037 49.50845821 18.37231445 53.76245117 C18.4157163 55.2106424 18.45738744 56.65888654 18.49731445 58.10717773 C18.55489062 60.18489559 18.61862028 62.26234573 18.68359375 64.33984375 C18.72025146 65.59144287 18.75690918 66.84304199 18.79467773 68.13256836 C18.67803906 70.89630504 18.67803906 70.89630504 20 72 C21.51165654 72.39148761 23.03469632 72.73972457 24.5625 73.0625 C25.80193359 73.32740234 25.80193359 73.32740234 27.06640625 73.59765625 C27.70449219 73.73042969 28.34257812 73.86320312 29 74 C28.67 75.32 28.34 76.64 28 78 C18.76 78 9.52 78 0 78 C0 76.68 0 75.36 0 74 C1.2065625 73.5978125 1.2065625 73.5978125 2.4375 73.1875 C3.7059375 72.5996875 3.7059375 72.5996875 5 72 C6.04775931 68.85672207 6.16468747 66.54896705 6.22460938 63.24682617 C6.25838684 61.47434761 6.25838684 61.47434761 6.29284668 59.6660614 C6.36380654 54.26692232 6.42151455 48.86795436 6.45996094 43.46850586 C6.4822429 40.61926092 6.52402207 37.77132462 6.58300781 34.92260742 C6.66784377 30.81669186 6.69524535 26.71220017 6.71875 22.60546875 C6.75174194 21.33342087 6.78473389 20.06137299 6.81872559 18.7507782 C6.96878838 12.39933144 6.96878838 12.39933144 4.39282227 6.8253479 C2.66124283 5.32794184 0.99929243 4.10743412 -1 3 C-0.67 2.01 -0.34 1.02 0 0 Z " fill="#0C0C0C" transform="translate(223,253)"/>
<path d="M0 0 C0.33 11.88 0.66 23.76 1 36 C3.31 34.68 5.62 33.36 8 32 C14.22532597 30.24005822 21.21284465 30.1225622 27.375 32.0625 C31.39081673 35.02655521 34.50164972 38.34532437 35.43667603 43.32614136 C35.5763521 46.00081929 35.56286754 48.63133164 35.48828125 51.30859375 C35.48120651 52.27531509 35.47413177 53.24203644 35.46684265 54.23805237 C35.439004 57.30534455 35.37628499 60.3707659 35.3125 63.4375 C35.28740353 65.52536414 35.26459273 67.61325708 35.24414062 69.70117188 C35.18921173 74.80149469 35.10301199 79.9004309 35 85 C32.03 85 29.06 85 26 85 C25.9906543 83.78417236 25.98130859 82.56834473 25.97167969 81.31567383 C25.93174582 76.79593545 25.86597746 72.27687532 25.79248047 67.75756836 C25.76429056 65.80323004 25.74306617 63.84877814 25.72900391 61.89428711 C25.70754693 59.08127777 25.66088305 56.26963129 25.609375 53.45703125 C25.60814636 52.58601273 25.60691772 51.7149942 25.60565186 50.81758118 C25.5066725 46.6991453 25.33355673 44.52804636 23.08691406 40.97143555 C19.933181 37.99221298 17.64519333 37.616928 13.30078125 37.6328125 C9.69034593 38.20901101 6.94723007 39.98431563 3.8828125 41.90625 C2 43 2 43 0 43 C0 56.86 0 70.72 0 85 C-2.97 85 -5.94 85 -9 85 C-9 57.61 -9 30.22 -9 2 C-5 0 -5 0 0 0 Z " fill="#686868" transform="translate(378,30)"/>
<path d="M0 0 C0.01458252 1.21582764 0.02916504 2.43165527 0.04418945 3.68432617 C0.10225098 8.20399078 0.1794836 12.72316127 0.26245117 17.24243164 C0.29566354 19.19677702 0.32370695 21.15121747 0.34643555 23.10571289 C0.38004933 25.91854282 0.43236854 28.73050447 0.48828125 31.54296875 C0.49467117 32.41398727 0.5010611 33.2850058 0.50764465 34.18241882 C0.64793865 39.99764254 1.52199265 43.62090471 5.859375 47.78515625 C8.48752316 49.27667829 10.23732172 49.43319617 13.25 49.4375 C14.58804687 49.46650391 14.58804687 49.46650391 15.953125 49.49609375 C20.01115413 48.99052746 20.01115413 48.99052746 27 45 C27.33 30.48 27.66 15.96 28 1 C30.64 1 33.28 1 36 1 C36.06979429 8.92832572 36.12295948 16.8565211 36.15543652 24.785079 C36.17103114 28.46742616 36.19215433 32.1495617 36.22631836 35.83178711 C36.25913541 39.39148575 36.27689956 42.95098203 36.28463173 46.51082039 C36.2927971 48.51643174 36.31618017 50.52196273 36.33988953 52.52745056 C36.34140431 60.82096115 35.56074334 67.49309173 31.4375 74.75 C25.82645155 79.92942933 18.41281978 83.19021366 10.75 83.0625 C8.89375 83.0315625 8.89375 83.0315625 7 83 C6.505 80.03 6.505 80.03 6 77 C6.88042969 76.81824219 7.76085937 76.63648438 8.66796875 76.44921875 C9.82941406 76.19785156 10.99085938 75.94648438 12.1875 75.6875 C13.33605469 75.44386719 14.48460937 75.20023437 15.66796875 74.94921875 C18.94828324 74.01473291 21.26481522 73.02208303 24 71 C27.08982941 64.92688703 27.37261932 59.73474921 27 53 C26.29875 53.309375 25.5975 53.61875 24.875 53.9375 C17.60810572 56.62309137 7.92284311 57.72880947 0.51953125 55.12890625 C-4.16491568 52.44831279 -6.95173421 49.0290253 -9 44 C-9.51559028 40.69590486 -9.46869378 37.46630831 -9.390625 34.12890625 C-9.38496521 33.206577 -9.37930542 32.28424774 -9.37347412 31.33396912 C-9.35121637 28.40960142 -9.30104047 25.48649269 -9.25 22.5625 C-9.22992127 20.57098133 -9.21167291 18.57944331 -9.1953125 16.58789062 C-9.1513864 11.72478083 -9.08243313 6.86260332 -9 2 C-2.25 0 -2.25 0 0 0 Z " fill="#666666" transform="translate(287,60)"/>
<path d="M0 0 C2.37068912 3.55603368 2.34465108 6.17993345 2.4140625 10.29296875 C2.43342865 10.99899734 2.4527948 11.70502594 2.4727478 12.43244934 C2.53245224 14.68401061 2.5788914 16.93562328 2.625 19.1875 C2.66318829 20.71551689 2.70224052 22.24351245 2.7421875 23.77148438 C2.83814596 27.51414935 2.92221011 31.2569151 3 35 C5.64 35.33 8.28 35.66 11 36 C11 37.32 11 38.64 11 40 C6.84967248 42.51175665 4.01268385 44.03214869 -0.9375 43.875 C-1.948125 43.58625 -2.95875 43.2975 -4 43 C-4.33 42.34 -4.66 41.68 -5 41 C-7.96652093 41.41393315 -10.60343566 41.83051128 -13.3671875 43.01171875 C-18.32798603 44.87385826 -24.04185551 45.11212684 -29.046875 43.23046875 C-31.60040398 41.50987661 -32.84489065 39.60532934 -33.6015625 36.65234375 C-33.89425046 33.05878597 -33.79434783 30.25972332 -31.83984375 27.16015625 C-26.92976423 22.41897381 -20.41775577 20.80390973 -14 19 C-13.23171875 18.773125 -12.4634375 18.54625 -11.671875 18.3125 C-10.1194234 17.85812392 -8.56058222 17.42561333 -7 17 C-6.62125199 11.08882172 -6.62125199 11.08882172 -8.0625 5.4375 C-10.06702264 3.73821165 -10.06702264 3.73821165 -13.375 3.3125 C-16.93165597 3.5962471 -16.93165597 3.5962471 -18.3203125 5.5390625 C-19.11108554 6.81163103 -19.89619573 8.08773485 -20.67578125 9.3671875 C-22 11 -22 11 -25.6875 12.0625 C-29 12 -29 12 -31 10 C-30.9140625 7.57421875 -30.9140625 7.57421875 -30 5 C-21.62475922 -2.1077235 -9.84421284 -6.18124992 0 0 Z " fill="#090909" transform="translate(354,287)"/>
<path d="M0 0 C6.53358366 7.64907355 6.38148394 16.38581242 5.77392578 26.00439453 C5.13395947 32.044908 3.19220572 36.40819441 -1.125 40.625 C-6.17377466 42.72071778 -10.58216745 43.07195144 -15.7578125 41.12890625 C-20.75197368 38.68552632 -20.75197368 38.68552632 -22.4375 37 C-22.72875257 32.04870627 -22.75149287 27.09478371 -22.78759766 22.13574219 C-22.80416511 20.46535314 -22.83146599 18.79503522 -22.86962891 17.125 C-22.92430897 14.72097892 -22.94625543 12.31862106 -22.9609375 9.9140625 C-22.98360687 9.16710114 -23.00627625 8.42013977 -23.02963257 7.65054321 C-23.02099609 5.53759766 -23.02099609 5.53759766 -22.4375 2 C-16.2545361 -3.01660357 -6.85395875 -3.98775782 0 0 Z " fill="#FBFBFB" transform="translate(252.4375,68)"/>
<path d="M0 0 C5.14435863 3.31525334 7.22031416 7.00409671 8.8125 12.8125 C9.02429411 15.46680281 9.14706256 17.97591673 9.125 20.625 C9.11936035 21.32987549 9.1137207 22.03475098 9.10791016 22.76098633 C8.93728677 30.10201522 7.96733426 35.17282803 3.3125 40.875 C-0.35299158 43.52076836 -4.24163515 43.45072524 -8.62890625 43.23046875 C-12.19960609 42.64716359 -13.86229087 41.57368585 -16.1875 38.8125 C-19.94541106 32.37036676 -20.43896058 26.85132554 -20.5625 19.5625 C-20.59988281 18.74136719 -20.63726562 17.92023438 -20.67578125 17.07421875 C-20.76565329 10.77319043 -19.18538412 6.69384512 -15.1875 1.8125 C-10.44183123 -2.18385265 -5.69226936 -2.12064937 0 0 Z " fill="#FDFDFD" transform="translate(452.1875,67.1875)"/>
<path d="M0 0 C2.98878245 2.15438552 4.62628179 4.47619807 6.1875 7.8125 C6.60090312 11.25928909 6.53647663 14.67741562 6.48046875 18.14453125 C6.47622391 19.13627853 6.47197906 20.12802582 6.46760559 21.14982605 C6.45085123 24.30849685 6.41320448 27.46652297 6.375 30.625 C6.35994899 32.77017306 6.34626132 34.91535615 6.33398438 37.06054688 C6.30095823 42.31144523 6.24919775 47.56186342 6.1875 52.8125 C3.2175 52.8125 0.2475 52.8125 -2.8125 52.8125 C-2.8218457 51.60190918 -2.83119141 50.39131836 -2.84082031 49.14404297 C-2.88079948 44.6373259 -2.9465804 40.13128578 -3.02001953 35.625 C-3.04818321 33.67749755 -3.0694206 31.72988178 -3.08349609 29.78222656 C-3.10498946 26.97662532 -3.15167198 24.17238 -3.203125 21.3671875 C-3.20435364 20.50133026 -3.20558228 19.63547302 -3.20684814 18.74337769 C-3.33682954 13.33547441 -4.12036216 10.04730327 -7.8125 5.8125 C-10.65342599 4.86552467 -12.60346293 4.61763734 -15.5625 4.5625 C-16.38234375 4.53671875 -17.2021875 4.5109375 -18.046875 4.484375 C-21.64631532 4.77919988 -21.64631532 4.77919988 -27.8125 7.8125 C-28.1425 22.6625 -28.4725 37.5125 -28.8125 52.8125 C-31.7825 52.8125 -34.7525 52.8125 -37.8125 52.8125 C-38.03537901 46.37148721 -38.19847363 39.9327275 -38.30688477 33.48876953 C-38.35208148 31.29826761 -38.41345438 29.10803628 -38.49145508 26.91845703 C-38.6009506 23.76527232 -38.65172919 20.61567944 -38.69140625 17.4609375 C-38.73785782 16.48571136 -38.78430939 15.51048523 -38.83216858 14.50570679 C-38.83425997 11.67370996 -38.72888051 9.49552631 -37.8125 6.8125 C-35.12365126 4.13868033 -32.19884493 2.47362857 -28.8125 0.8125 C-28.16845718 0.46593353 -27.52441437 0.11936707 -26.8608551 -0.23770142 C-19.6316004 -3.9392628 -7.00031209 -4.11706667 0 0 Z " fill="#676767" transform="translate(516.8125,62.1875)"/>
<path d="M0 0 C0.71953857 -0.00475342 1.43907715 -0.00950684 2.18041992 -0.0144043 C7.37740233 0.00240233 7.37740233 0.00240233 8.5 1.125 C8.26453932 7.36470812 8.26453932 7.36470812 5.390625 10.22265625 C2.07395381 12.40538445 -0.77639715 13.29387528 -4.625 14.25 C-5.28661133 14.41540283 -5.94822266 14.58080566 -6.62988281 14.7512207 C-13.9728723 16.55144321 -21.12793309 18.04291663 -28.6875 18.3125 C-34.69614582 18.74665071 -39.65578935 21.11229429 -45.01831055 23.6862793 C-48.51405794 25.35237986 -50.54812465 26.125 -54.5 26.125 C-54.5 25.465 -54.5 24.805 -54.5 24.125 C-58.46 24.62 -58.46 24.62 -62.5 25.125 C-62.83 26.445 -63.16 27.765 -63.5 29.125 C-68.87583893 28.52768456 -68.87583893 28.52768456 -71.4375 26.875 C-72.5 25.125 -72.5 25.125 -72.1875 22.4375 C-71.8471875 21.2928125 -71.8471875 21.2928125 -71.5 20.125 C-72.82 20.125 -74.14 20.125 -75.5 20.125 C-76.71693876 22.55887753 -76.81959896 24.54338846 -77.0625 27.25 C-77.18818359 28.61511719 -77.18818359 28.61511719 -77.31640625 30.0078125 C-77.37699219 30.70648438 -77.43757813 31.40515625 -77.5 32.125 C-80.21931053 29.52392036 -81.37582296 28.07702395 -81.875 24.25 C-81.5 21.125 -81.5 21.125 -79.375 18.875 C-74.99587675 16.20944672 -71.63565587 15.125 -66.5 15.125 C-66.335 15.90875 -66.17 16.6925 -66 17.5 C-64.79603101 20.2343471 -64.79603101 20.2343471 -62.5859375 20.90234375 C-60.57483301 21.38913052 -58.537362 21.76353255 -56.5 22.125 C-57.7491742 18.66574837 -59.17527795 15.97806797 -61.5 13.125 C-56.58898413 11.69182416 -51.65774967 10.40012297 -46.6875 9.1875 C-41.36475372 7.87376193 -36.10150017 6.45723495 -30.859375 4.84765625 C-20.36613626 1.63366756 -10.94578177 0.06145931 0 0 Z " fill="#F0F0F0" transform="translate(142.5,222.875)"/>
<path d="M0 0 C0.01030746 0.91819519 0.02061493 1.83639038 0.03123474 2.78240967 C0.12920071 11.43431977 0.23171398 20.08616145 0.33933926 28.737957 C0.39451028 33.1859568 0.44792096 37.63396324 0.49731445 42.08203125 C0.54504388 46.37441942 0.59738975 50.6667287 0.65294075 54.95902252 C0.67332544 56.59685553 0.69204489 58.23471014 0.70907402 59.87258148 C0.73320416 62.16611027 0.76324675 64.45949094 0.79467773 66.75292969 C0.81799416 68.71150909 0.81799416 68.71150909 0.84178162 70.70965576 C0.89984761 74.15375933 0.89984761 74.15375933 2 78 C6.455 78.99 6.455 78.99 11 80 C11 80.99 11 81.98 11 83 C2.42 83 -6.16 83 -15 83 C-14.67 82.01 -14.34 81.02 -14 80 C-11.9375 79.3125 -11.9375 79.3125 -10 79 C-9.93052158 70.70728091 -9.87719999 62.41468321 -9.84456348 54.12174511 C-9.8289004 50.27108169 -9.80765077 46.42061725 -9.77368164 42.57006836 C-9.74111054 38.85478571 -9.72315183 35.13969456 -9.71536827 31.42428017 C-9.70982066 30.00606585 -9.69898756 28.58786213 -9.68280983 27.16972923 C-9.6610681 25.18511533 -9.65977487 23.20030914 -9.65942383 21.21557617 C-9.65276199 20.08528488 -9.64610016 18.95499359 -9.63923645 17.79045105 C-10.04549829 14.64807769 -10.54966752 13.89337246 -13 12 C-14.33333333 10.66666667 -15.66666667 9.33333333 -17 8 C-14.12071475 5.72195761 -11.2169671 3.95965316 -7.9375 2.3125 C-7.08027344 1.87550781 -6.22304688 1.43851563 -5.33984375 0.98828125 C-3 0 -3 0 0 0 Z " fill="#060606" transform="translate(302,247)"/>
<path d="M0 0 C0.66 3.63 1.32 7.26 2 11 C0.68 11.33 -0.64 11.66 -2 12 C-3.23697917 10.47005208 -4.47395833 8.94010417 -5.7109375 7.41015625 C-6.9666391 5.86733563 -6.9666391 5.86733563 -9 5 C-10.87379605 4.92966231 -12.75001102 4.9156978 -14.625 4.9375 C-16.12933594 4.95103516 -16.12933594 4.95103516 -17.6640625 4.96484375 C-18.43492187 4.97644531 -19.20578125 4.98804688 -20 5 C-20.33 6.98 -20.66 8.96 -21 11 C-16.35531611 15.08914327 -11.29202738 17.40137688 -5.70703125 19.91210938 C-1.43783253 21.93499139 1.10528738 23.43838999 3 28 C3.52082865 32.68745782 3.4730713 34.97501218 1.5 39.25 C-2.41408317 43.55549149 -6.02834703 45.67655478 -11.87109375 46.3125 C-17.97448849 46.4369004 -24.21209741 46.10233233 -30 44 C-32 42 -32 42 -32.1953125 39.8359375 C-32.17210937 39.02382813 -32.14890625 38.21171875 -32.125 37.375 C-32.09792969 36.14910156 -32.09792969 36.14910156 -32.0703125 34.8984375 C-32.04710937 34.27195312 -32.02390625 33.64546875 -32 33 C-30.02 32.505 -30.02 32.505 -28 32 C-27.278125 32.94875 -26.55625 33.8975 -25.8125 34.875 C-22.92296961 38.29723711 -20.56673024 39.76803617 -16.01171875 40.1796875 C-12.14111657 40.30705649 -10.27691374 40.18460916 -7 38 C-6.08171206 35.13128132 -6.08171206 35.13128132 -7 32 C-9.37045877 29.82049486 -12.14968261 28.46524128 -15 27 C-16.9405196 25.98491842 -18.87796268 24.96393669 -20.8125 23.9375 C-22.18341797 23.23947266 -22.18341797 23.23947266 -23.58203125 22.52734375 C-26.83271551 20.47400361 -28.53106562 18.54439468 -29.65234375 14.8515625 C-30.18911664 10.66032214 -30.25555687 8.53077196 -28.375 4.625 C-20.84137974 -3.70163292 -10.01786825 -3.48447591 0 0 Z " fill="#0C0C0C" transform="translate(406,286)"/>
<path d="M0 0 C0 5.94 0 11.88 0 18 C3.3 18 6.6 18 10 18 C10 19.98 10 21.96 10 24 C6.7 24 3.4 24 0 24 C0.33 37.86 0.66 51.72 1 66 C5.455 66.99 5.455 66.99 10 68 C10 69.65 10 71.3 10 73 C4.15698676 73.30752701 0.25212249 72.92906831 -5 70 C-10.26582533 64.59560032 -10.14507373 59.76138661 -10.09765625 52.515625 C-10.0962413 51.70003113 -10.09482635 50.88443726 -10.09336853 50.04412842 C-10.08778303 47.44604788 -10.07523321 44.84805437 -10.0625 42.25 C-10.05748312 40.48567833 -10.05292054 38.72135531 -10.04882812 36.95703125 C-10.03781835 32.63798744 -10.02056369 28.31900846 -10 24 C-11.98 24 -13.96 24 -16 24 C-16 22.02 -16 20.04 -16 18 C-13.69 18 -11.38 18 -9 18 C-9 12.72 -9 7.44 -9 2 C-3 0 -3 0 0 0 Z " fill="#6F6F6F" transform="translate(349,43)"/>
<path d="M0 0 C0.99 1.32 1.98 2.64 3 4 C2.67 2.68 2.34 1.36 2 0 C6.22435427 1.56457565 8.49058647 4.343426 11 8 C10.8125 10.875 10.8125 10.875 10 13 C8.35 13.33 6.7 13.66 5 14 C4.319375 12.7934375 4.319375 12.7934375 3.625 11.5625 C2.25274335 8.91143428 2.25274335 8.91143428 0 8 C0.495 8.928125 0.99 9.85625 1.5 10.8125 C3 14 3 14 3 17 C0.69 17 -1.62 17 -4 17 C-3.34 17.99 -2.68 18.98 -2 20 C-2.33 20.33 -2.66 20.66 -3 21 C-2.34 21.33 -1.68 21.66 -1 22 C-0.2890625 23.890625 -0.2890625 23.890625 0.375 26.25 C1.61106892 30.23711461 3.22297342 32.83993527 6 36 C6 36.66 6 37.32 6 38 C-1.24465236 36.39007725 -9.78900714 33.31648929 -14 27 C-14 26.01 -14 25.02 -14 24 C-12.35 23.34 -10.7 22.68 -9 22 C-9.47380944 17.73571504 -12.03897727 15.88509907 -15 13 C-15 12.34 -15 11.68 -15 11 C-14.01 11 -13.02 11 -12 11 C-12.061875 9.88625 -12.12375 8.7725 -12.1875 7.625 C-12.125625 6.42875 -12.06375 5.2325 -12 4 C-11.01 3.34 -10.02 2.68 -9 2 C-9 4.97 -9 7.94 -9 11 C-5.13676189 9.06838095 -4.37959517 8.24490251 -2 5 C-1.34 5 -0.68 5 0 5 C0 3.35 0 1.7 0 0 Z " fill="#0F0F0F" transform="translate(114,286)"/>
<path d="M0 0 C-0.99 2.31 -1.98 4.62 -3 7 C-2.21625 7.268125 -1.4325 7.53625 -0.625 7.8125 C2 9 2 9 4 12 C-2.5 15 -2.5 15 -7 15 C-7 14.34 -7 13.68 -7 13 C-9.64 13.33 -12.28 13.66 -15 14 C-15.33 15.32 -15.66 16.64 -16 18 C-21.37583893 17.40268456 -21.37583893 17.40268456 -23.9375 15.75 C-25 14 -25 14 -24.6875 11.3125 C-24.460625 10.549375 -24.23375 9.78625 -24 9 C-25.32 9 -26.64 9 -28 9 C-29.21693876 11.43387753 -29.31959896 13.41838846 -29.5625 16.125 C-29.68818359 17.49011719 -29.68818359 17.49011719 -29.81640625 18.8828125 C-29.87699219 19.58148438 -29.93757813 20.28015625 -30 21 C-32.71931053 18.39892036 -33.87582296 16.95202395 -34.375 13.125 C-34 10 -34 10 -31.875 7.75 C-27.49587675 5.08444672 -24.13565587 4 -19 4 C-18.835 4.78375 -18.67 5.5675 -18.5 6.375 C-17.29603101 9.1093471 -17.29603101 9.1093471 -15.0859375 9.77734375 C-13.07483301 10.26413052 -11.037362 10.63853255 -9 11 C-10.2491742 7.54074837 -11.67527795 4.85306797 -14 2 C-12.906875 1.690625 -11.81375 1.38125 -10.6875 1.0625 C-3.37011719 -1.04589844 -3.37011719 -1.04589844 0 0 Z " fill="#EEEEEE" transform="translate(95,234)"/>
<path d="M0 0 C3.21341489 2.69258618 4.73603386 6.19657137 6.5625 9.875 C9.98171477 16.54376765 13.99927566 22.27776622 18.703125 28.09765625 C21.87778496 32.10917385 24.55562596 35.82846843 26.375 40.625 C28.30293566 44.62917406 30.28219487 45.70603513 34 48 C34.66666667 49.33333333 35.33333333 50.66666667 36 52 C36.804375 52.309375 37.60875 52.61875 38.4375 52.9375 C41.73948707 54.30661659 42.45884129 55.84062465 44 59 C44.33 59.99 44.66 60.98 45 62 C45.721875 62.0825 46.44375 62.165 47.1875 62.25 C50.58926868 63.15713831 52.45466084 64.60010879 55 67 C55 67.66 55 68.32 55 69 C49.06690888 68.87639393 46.40786028 67.12177285 42.1640625 63.06640625 C40.01037904 60.95672729 40.01037904 60.95672729 37.5859375 59.02734375 C31.02837177 53.59654241 26.76555165 47.47523926 22.40625 40.265625 C20.75852645 37.61095928 19.04078785 35.00917745 17.3125 32.40625 C16.65403076 31.41254395 15.99556152 30.41883789 15.31713867 29.39501953 C14.01626562 27.43523392 12.71194115 25.47773328 11.40356445 23.52294922 C0 6.21549694 0 6.21549694 0 0 Z " fill="#E5E5E5" transform="translate(79,309)"/>
<path d="M0 0 C4.40829018 1.05415635 8.05638331 2.48557611 12.0625 4.625 C15.8893918 6.61732077 18.60250138 7.57861824 23 7 C23.33 7.99 23.66 8.98 24 10 C26.40508999 11.18893128 28.67637824 12.15645193 31.1875 13.0625 C31.91074463 13.32562988 32.63398926 13.58875977 33.37915039 13.85986328 C43.5232186 17.39335261 53.47733578 18.16651411 64.15820312 18.03710938 C70.2609431 17.96544215 76.33985996 18.12043277 82.4375 18.375 C83.8153064 18.4215271 83.8153064 18.4215271 85.22094727 18.46899414 C86.07487061 18.50758545 86.92879395 18.54617676 87.80859375 18.5859375 C88.56970459 18.6173584 89.33081543 18.6487793 90.11499023 18.68115234 C92 19 92 19 94 21 C80.14684014 25.61771995 61.91252529 21.77411576 47.6875 19.75 C46.94564453 19.64757996 46.20378906 19.54515991 45.43945312 19.43963623 C34.11966625 17.85202108 23.09448582 15.60804768 13 10 C13 9.34 13 8.68 13 8 C11.71802734 7.38511719 11.71802734 7.38511719 10.41015625 6.7578125 C8.75306641 5.94957031 8.75306641 5.94957031 7.0625 5.125 C5.96035156 4.59132813 4.85820312 4.05765625 3.72265625 3.5078125 C1 2 1 2 0 0 Z " fill="#D7D7D7" transform="translate(144,385)"/>
<path d="M0 0 C0.13504138 1.93559313 0.23201129 3.873872 0.3125 5.8125 C0.37050781 6.89144531 0.42851562 7.97039062 0.48828125 9.08203125 C0 12 0 12 -2.1953125 13.86328125 C-5.08415023 15.03410545 -7.08688938 15.40314473 -10.1875 15.375 C-11.04730469 15.38273437 -11.90710938 15.39046875 -12.79296875 15.3984375 C-13.52128906 15.26695312 -14.24960937 15.13546875 -15 15 C-17.32749345 11.50875983 -17.50299316 10.10777749 -17 6 C-12.95396059 0.17370325 -6.57910256 -0.1111961 0 0 Z " fill="#F6F6F6" transform="translate(348,310)"/>
<path d="M0 0 C0.7940625 0.07863281 1.588125 0.15726562 2.40625 0.23828125 C4.5 0.6875 4.5 0.6875 6.5 2.6875 C5.18 3.0175 3.86 3.3475 2.5 3.6875 C3.16 5.0075 3.82 6.3275 4.5 7.6875 C3.51 8.1825 3.51 8.1825 2.5 8.6875 C3.28375 9.47125 4.0675 10.255 4.875 11.0625 C8.50146727 14.68896727 9.99908391 16.75591857 11.5 21.6875 C7.75912846 20.26760715 4.26931806 18.58983408 0.75 16.6875 C-0.21421875 16.171875 -1.1784375 15.65625 -2.171875 15.125 C-4.5 13.6875 -4.5 13.6875 -5.5 11.6875 C-4.51 11.6875 -3.52 11.6875 -2.5 11.6875 C-3.82 10.3675 -5.14 9.0475 -6.5 7.6875 C-6.17 7.0275 -5.84 6.3675 -5.5 5.6875 C-6.49 5.3575 -7.48 5.0275 -8.5 4.6875 C-8.5 4.0275 -8.5 3.3675 -8.5 2.6875 C-7.84 2.6875 -7.18 2.6875 -6.5 2.6875 C-6.5 2.0275 -6.5 1.3675 -6.5 0.6875 C-4.02756353 -0.54871824 -2.72682061 -0.29658601 0 0 Z " fill="#EAEAEA" transform="translate(120.5,327.3125)"/>
<path d="M0 0 C-0.99 2.31 -1.98 4.62 -3 7 C-2.21625 7.268125 -1.4325 7.53625 -0.625 7.8125 C2 9 2 9 4 12 C-2.5 15 -2.5 15 -7 15 C-7 14.34 -7 13.68 -7 13 C-7.99 12.67 -8.98 12.34 -10 12 C-10.103125 10.906875 -10.20625 9.81375 -10.3125 8.6875 C-10.97307727 5.14440371 -11.2027092 4.06756277 -14 2 C-12.906875 1.690625 -11.81375 1.38125 -10.6875 1.0625 C-3.37011719 -1.04589844 -3.37011719 -1.04589844 0 0 Z " fill="#F0F0F0" transform="translate(95,234)"/>
<path d="M0 0 C0.495 3.465 0.495 3.465 1 7 C0.01 6.67 -0.98 6.34 -2 6 C-2.66 7.65 -3.32 9.3 -4 11 C-8.24822374 10.52797514 -10.19989709 8.03344482 -13 5 C-13.33 6.32 -13.66 7.64 -14 9 C-14.33 8.67 -14.66 8.34 -15 8 C-22.29904779 7.53912033 -29.01640536 7.80906835 -36 10 C-36 9.34 -36 8.68 -36 8 C-35.11646851 7.79636841 -35.11646851 7.79636841 -34.21508789 7.58862305 C-31.49650503 6.95937324 -28.77951709 6.32347516 -26.0625 5.6875 C-25.13630859 5.47416016 -24.21011719 5.26082031 -23.25585938 5.04101562 C-18.03193732 3.8129357 -12.97379523 2.41202779 -7.92773438 0.58007812 C-5.25291472 -0.22480682 -2.7670322 -0.21284863 0 0 Z " fill="#DDDDDD" transform="translate(120,215)"/>
<path d="M0 0 C3 1 3 1 4.33203125 2.39453125 C6.54279134 4.52245255 8.88232878 5.46642547 11.6875 6.6875 C12.68136719 7.12449219 13.67523438 7.56148438 14.69921875 8.01171875 C15.45847656 8.33785156 16.21773437 8.66398437 17 9 C16.67 9.66 16.34 10.32 16 11 C23.58520709 14.1149283 30.87248429 16.77078205 39 18 C39.495 19.485 39.495 19.485 40 21 C25.81826842 19.22345479 12.48521046 13.78387158 0 7 C0 4.66666667 0 2.33333333 0 0 Z " fill="#202020" transform="translate(142,384)"/>
<path d="M0 0 C2 1 2 1 2.7109375 2.890625 C3.03964844 4.05851562 3.03964844 4.05851562 3.375 5.25 C4.61106892 9.23711461 6.22297342 11.83993527 9 15 C9 15.66 9 16.32 9 17 C1.75534764 15.39007725 -6.78900714 12.31648929 -11 6 C-11 5.01 -11 4.02 -11 3 C-6.80530429 3.59924224 -2.99000166 4.57499941 1 6 C0.67 4.02 0.34 2.04 0 0 Z " fill="#F3F3F3" transform="translate(111,307)"/>
<path d="M0 0 C0.99 0.33 1.98 0.66 3 1 C3.0501123 1.56283691 3.10022461 2.12567383 3.15185547 2.70556641 C4.15383736 13.85460296 5.25255341 24.93903488 7 36 C6.01 36 5.02 36 4 36 C3.67 34.02 3.34 32.04 3 30 C1.02 30.99 1.02 30.99 -1 32 C-1 30.68 -1 29.36 -1 28 C-0.01 27.67 0.98 27.34 2 27 C2.33 26.01 2.66 25.02 3 24 C2.01 24 1.02 24 0 24 C0 16.08 0 8.16 0 0 Z " fill="#1F1F1F" transform="translate(146,263)"/>
<path d="M0 0 C4.40829018 1.05415635 8.05638331 2.48557611 12.0625 4.625 C15.8893918 6.61732077 18.60250138 7.57861824 23 7 C23.33 7.99 23.66 8.98 24 10 C26.32269959 11.24498609 26.32269959 11.24498609 29.0625 12.1875 C30.44115234 12.70376953 30.44115234 12.70376953 31.84765625 13.23046875 C32.55792969 13.48441406 33.26820313 13.73835938 34 14 C34 14.66 34 15.32 34 16 C26.85624498 16.83066919 20.31079386 14.24685771 14 11 C13.67 10.01 13.34 9.02 13 8 C10.25305466 6.37929469 10.25305466 6.37929469 7 4.9375 C1.10207214 2.20414428 1.10207214 2.20414428 0 0 Z " fill="#E2E2E2" transform="translate(144,385)"/>
<path d="M0 0 C4.29781041 3.88963847 5.71831103 8.78672953 6.4375 14.4375 C7.07062054 18.44726341 8.45730899 21.4748156 10.2578125 25.08203125 C10.50273438 25.71496094 10.74765625 26.34789062 11 27 C10.67 27.66 10.34 28.32 10 29 C6.05713106 23.6706277 2.90460568 18.09666388 0.0625 12.125 C-0.255979 11.47072021 -0.57445801 10.81644043 -0.90258789 10.14233398 C-3.12102332 5.36306995 -3.12102332 5.36306995 -2 2 C-1.01 2.99 -0.02 3.98 1 5 C0.67 3.35 0.34 1.7 0 0 Z " fill="#D3D3D3" transform="translate(74,284)"/>
<path d="M0 0 C0.99 1.32 1.98 2.64 3 4 C2.67 2.68 2.34 1.36 2 0 C6.22435427 1.56457565 8.49058647 4.343426 11 8 C10.8125 10.875 10.8125 10.875 10 13 C8.35 13.33 6.7 13.66 5 14 C4.54625 13.195625 4.0925 12.39125 3.625 11.5625 C2.25274335 8.91143428 2.25274335 8.91143428 0 8 C-0.33 8.66 -0.66 9.32 -1 10 C-1.66 9.01 -2.32 8.02 -3 7 C-2.67 6.34 -2.34 5.68 -2 5 C-1.34 5 -0.68 5 0 5 C0 3.35 0 1.7 0 0 Z " fill="#242424" transform="translate(114,286)"/>
<path d="M0 0 C5.56818182 0.56818182 5.56818182 0.56818182 7 2 C7.1875 4.9375 7.1875 4.9375 7 8 C5 10 5 10 2.5625 10.3125 C0 10 0 10 -1.875 8.8125 C-3 7 -3 7 -2.8125 4.4375 C-2 2 -2 2 0 0 Z " fill="#F2F7FA" transform="translate(117,41)"/>
<path d="M0 0 C3.125 0.375 3.125 0.375 6 1 C7.32841008 6.43440487 7.32841008 6.43440487 5.875 8.9375 C4 10 4 10 1.4375 9.8125 C-1 9 -1 9 -3 7 C-2.67028521 3.70285207 -2.3773161 2.3773161 0 0 Z " fill="#FFFDF7" transform="translate(147,125)"/>
<path d="M0 0 C12.07782151 0.67227797 24.02209737 2.36825445 36 4 C36 4.66 36 5.32 36 6 C23.74710872 5.60995187 12.01621277 4.44632245 0 2 C0 1.34 0 0.68 0 0 Z " fill="#1E1E1E" transform="translate(182,403)"/>
<path d="M0 0 C1.03125 0.4125 2.0625 0.825 3.125 1.25 C2.9375 3.125 2.9375 3.125 2.125 5.25 C-1.08303556 6.89514644 -3.30806871 7.70491554 -6.8125 6.6875 C-9.05720877 6.02951372 -9.05720877 6.02951372 -11.875 7.25 C-9.8549231 1.59378469 -5.88918117 -1.13984152 0 0 Z " fill="#4F4F4F" transform="translate(215.875,386.75)"/>
<path d="M0 0 C0 1.32 0 2.64 0 4 C-1.32 4.33 -2.64 4.66 -4 5 C-4 5.66 -4 6.32 -4 7 C-6.64 7 -9.28 7 -12 7 C-12 5.35 -12 3.7 -12 2 C-13.32 1.67 -14.64 1.34 -16 1 C-10.62915894 0.31798844 -5.41499441 -0.11521265 0 0 Z " fill="#B7B7B7" transform="translate(141,223)"/>
<path d="M0 0 C6.45512034 -0.56131481 11.15439723 1.36536213 17 4 C17 4.66 17 5.32 17 6 C6.25260979 6.68844492 6.25260979 6.68844492 2.3125 4.125 C1.549375 3.42375 0.78625 2.7225 0 2 C0 1.34 0 0.68 0 0 Z " fill="#F2F2F2" transform="translate(123,354)"/>
<path d="M0 0 C1.64846769 0.44876616 3.29373455 0.90930488 4.9375 1.375 C5.85402344 1.63023437 6.77054687 1.88546875 7.71484375 2.1484375 C10 3 10 3 11 5 C10.34 5 9.68 5 9 5 C9 6.65 9 8.3 9 10 C5.49849196 9.70820766 4.21713533 9.21713533 1.6875 6.6875 C0 4 0 4 0 0 Z " fill="#EDEDED" transform="translate(100,206)"/>
<path d="M0 0 C0.66 0.33 1.32 0.66 2 1 C2 1.99 2 2.98 2 4 C2.66 4 3.32 4 4 4 C4.33 7.63 4.66 11.26 5 15 C4.01 15 3.02 15 2 15 C-1.3194301 11.18880247 -1.29865144 7.69878939 -1.203125 2.890625 C-1 1 -1 1 0 0 Z " fill="#1B1B1B" transform="translate(134,283)"/>
<path d="M0 0 C7.41834582 -0.09377123 14.66236293 -0.17402193 22 1 C21.67 1.66 21.34 2.32 21 3 C13.74 3 6.48 3 -1 3 C-0.67 2.01 -0.34 1.02 0 0 Z " fill="#EAEAEA" transform="translate(250,390)"/>
<path d="M0 0 C0 0.66 0 1.32 0 2 C-0.48082031 2.42925781 -0.96164063 2.85851562 -1.45703125 3.30078125 C-3.51712588 5.56949306 -3.49130384 7.16607913 -3.6875 10.1875 C-3.75324219 11.08855469 -3.81898437 11.98960937 -3.88671875 12.91796875 C-3.92410156 13.60503906 -3.96148437 14.29210937 -4 15 C-6.71931053 12.39892036 -7.87582296 10.95202395 -8.375 7.125 C-8 4 -8 4 -5.6875 1.625 C-3 0 -3 0 0 0 Z " fill="#E2E2E2" transform="translate(69,240)"/>
<path d="M0 0 C0.33 0 0.66 0 1 0 C0.98839844 0.59167969 0.97679688 1.18335938 0.96484375 1.79296875 C0.91677614 6.00231785 0.93993117 9.8922333 2 14 C1.01 14.33 0.02 14.66 -1 15 C-2.37562854 13.71034824 -3.70766393 12.37310707 -5 11 C-5 10.34 -5 9.68 -5 9 C-4.01 9 -3.02 9 -2 9 C-2.04125 7.88625 -2.0825 6.7725 -2.125 5.625 C-2 2 -2 2 0 0 Z " fill="#2A2A2A" transform="translate(104,288)"/>
<path d="M0 0 C3 1 3 1 4.33203125 2.39453125 C6.54279134 4.52245255 8.88232878 5.46642547 11.6875 6.6875 C12.68136719 7.12449219 13.67523438 7.56148438 14.69921875 8.01171875 C15.45847656 8.33785156 16.21773437 8.66398437 17 9 C16.01 9.66 15.02 10.32 14 11 C9.38 8.69 4.76 6.38 0 4 C0 2.66666667 0 1.33333333 0 0 Z " fill="#7C7C7C" transform="translate(142,384)"/>
<path d="M0 0 C1.65 0.33 3.3 0.66 5 1 C5 1.99 5 2.98 5 4 C3.68 4 2.36 4 1 4 C1.33 5.65 1.66 7.3 2 9 C-2.75 7.125 -2.75 7.125 -5 6 C-4.67 5.01 -4.34 4.02 -4 3 C-1.9375 2.3125 -1.9375 2.3125 0 2 C0 1.34 0 0.68 0 0 Z " fill="#7A7A7A" transform="translate(97,235)"/>
<path d="M0 0 C2.375 0.3125 2.375 0.3125 5 1 C6.90318884 3.85478326 7.4619099 5.41941308 8.125 8.6875 C8.29257813 9.49574219 8.46015625 10.30398438 8.6328125 11.13671875 C8.75398438 11.75160156 8.87515625 12.36648438 9 13 C6.32423308 11.99382318 5.2214892 11.45785454 3.953125 8.8359375 C3.72109375 8.02382813 3.4890625 7.21171875 3.25 6.375 C2.88648437 5.14910156 2.88648437 5.14910156 2.515625 3.8984375 C2.26039062 2.95871094 2.26039062 2.95871094 2 2 C1.34 2 0.68 2 0 2 C0 1.34 0 0.68 0 0 Z " fill="#222222" transform="translate(110,306)"/>
<path d="M0 0 C3.87972634 2.38432861 5.13290451 4.88634567 6.8125 9.0625 C7.25207031 10.12597656 7.69164063 11.18945312 8.14453125 12.28515625 C9 15 9 15 8 17 C7.03576974 15.60823368 6.07888398 14.2113777 5.125 12.8125 C4.59132813 12.03519531 4.05765625 11.25789063 3.5078125 10.45703125 C1.34924098 6.93956626 0 4.15636365 0 0 Z " fill="#DEDEDE" transform="translate(76,296)"/>
<path d="M0 0 C1.65 0 3.3 0 5 0 C5.33 1.32 5.66 2.64 6 4 C8.97 4.33 11.94 4.66 15 5 C15 5.33 15 5.66 15 6 C10.10674953 7.00039787 7.03435948 7.50810641 2.4375 5.25 C1.633125 4.5075 0.82875 3.765 0 3 C0 2.01 0 1.02 0 0 Z " fill="#D2D2D2" transform="translate(162,367)"/>
<path d="M0 0 C2.625 0.375 2.625 0.375 5 1 C4.34 1.66 3.68 2.32 3 3 C4.98 4.65 6.96 6.3 9 8 C8.01 8.495 8.01 8.495 7 9 C0.52856205 6.80433355 0.52856205 6.80433355 -1.4375 3.8125 C-1.623125 3.214375 -1.80875 2.61625 -2 2 C-1.34 1.34 -0.68 0.68 0 0 Z " fill="#2E2E2E" transform="translate(106,269)"/>
<path d="M0 0 C2.625 0.375 2.625 0.375 5 1 C5.33 2.32 5.66 3.64 6 5 C3.36 5 0.72 5 -2 5 C-2.33 5.66 -2.66 6.32 -3 7 C-2.25 2.25 -2.25 2.25 0 0 Z " fill="#ECECEC" transform="translate(87,182)"/>
<path d="M0 0 C6.14673271 1.46987086 11.42234327 4.05966587 17 7 C16.34 8.32 15.68 9.64 15 11 C13.66666667 9.66666667 12.33333333 8.33333333 11 7 C8.43564708 5.66875522 5.82899921 4.44894081 3.21484375 3.21875 C1 2 1 2 0 0 Z " fill="#DADADA" transform="translate(144,385)"/>
<path d="M0 0 C1.32 0 2.64 0 4 0 C4 1.65 4 3.3 4 5 C1.10765685 5.82638376 -0.88742431 6 -4 6 C-2.84826645 3.53199953 -1.95216435 1.95216435 0 0 Z " fill="#E8E8E8" transform="translate(208,388)"/>
<path d="M0 0 C2.31 0 4.62 0 7 0 C7 0.66 7 1.32 7 2 C8.1446875 2.1546875 8.1446875 2.1546875 9.3125 2.3125 C12.17059424 3.04364039 13.15742885 3.76951913 15 6 C12.31485266 7.03274898 11.2078412 7.07566569 8.45703125 6.07421875 C7.58433594 5.61660156 6.71164063 5.15898437 5.8125 4.6875 C4.93207031 4.23761719 4.05164063 3.78773438 3.14453125 3.32421875 C1 2 1 2 0 0 Z " fill="#C1C1C1" transform="translate(135,344)"/>
<path d="M0 0 C0.598125 0.185625 1.19625 0.37125 1.8125 0.5625 C4.16408762 1.22093687 4.16408762 1.22093687 7 0 C7.66 0.66 8.32 1.32 9 2 C8.625 4.625 8.625 4.625 8 7 C4.2047869 5.50902342 2.38957269 3.24299151 0 0 Z " fill="#191919" transform="translate(96,278)"/>
<path d="M0 0 C0.66 0 1.32 0 2 0 C1.96744792 1.98567708 1.93489583 3.97135417 1.90234375 5.95703125 C1.91736783 8.20305461 1.91736783 8.20305461 3 11 C2.01 11.66 1.02 12.32 0 13 C-1 12 -1 12 -1.1328125 9.78515625 C-1.13023437 8.88667969 -1.12765625 7.98820312 -1.125 7.0625 C-1.12757813 6.16660156 -1.13015625 5.27070313 -1.1328125 4.34765625 C-1 2 -1 2 0 0 Z " fill="#121212" transform="translate(139,250)"/>
<path d="M0 0 C2.875 -0.1875 2.875 -0.1875 6 0 C8 3 8 3 7.625 5.1875 C7.41875 5.785625 7.2125 6.38375 7 7 C5.35 7 3.7 7 2 7 C2.99 6.67 3.98 6.34 5 6 C3.35 4.02 1.7 2.04 0 0 Z " fill="#808080" transform="translate(164,231)"/>
<path d="M0 0 C2.96404505 2.80804268 5.44499019 5.18315774 7 9 C6.34 9 5.68 9 5 9 C4.67 9.66 4.34 10.32 4 11 C1.17438373 7.20307814 -0.56638908 4.81430721 0 0 Z " fill="#D9D9D9" transform="translate(96,336)"/>
<path d="M0 0 C0.99 0.33 1.98 0.66 3 1 C3.33 3.31 3.66 5.62 4 8 C2.33333333 8 0.66666667 8 -1 8 C-0.67 5.36 -0.34 2.72 0 0 Z " fill="#9F9F9F" transform="translate(141,251)"/>
<path d="M0 0 C2.97 0 5.94 0 9 0 C9 0.66 9 1.32 9 2 C7.68 2 6.36 2 5 2 C5 5.3 5 8.6 5 12 C4.67 12 4.34 12 4 12 C4 8.7 4 5.4 4 2 C2.68 2 1.36 2 0 2 C0 1.34 0 0.68 0 0 Z " fill="#939393" transform="translate(533,42)"/>
<path d="M0 0 C4.29 0.33 8.58 0.66 13 1 C13.33 1.99 13.66 2.98 14 4 C12.22773547 3.71715982 10.457212 3.42339502 8.6875 3.125 C7.20830078 2.88136719 7.20830078 2.88136719 5.69921875 2.6328125 C3 2 3 2 0 0 Z " fill="#2C2C2C" transform="translate(168,401)"/>
<path d="M0 0 C4.38889325 0.66498383 7.9811485 2.18757677 12 4 C12 4.66 12 5.32 12 6 C7.5428126 5.73781251 5.48477302 5.42288711 2.0625 2.4375 C1.381875 1.633125 0.70125 0.82875 0 0 Z " fill="#CCCCCC" transform="translate(140,355)"/>
<path d="M0 0 C5.78461538 3.44615385 5.78461538 3.44615385 6.875 6.25 C6.936875 7.11625 6.936875 7.11625 7 8 C4.03824877 7.38722388 2.61941217 6.74627478 0 5 C-0.1875 2.375 -0.1875 2.375 0 0 Z " fill="#353535" transform="translate(109,262)"/>
<path d="M0 0 C2.31 0 4.62 0 7 0 C7 1.32 7 2.64 7 4 C5.02 4.33 3.04 4.66 1 5 C0.67 4.34 0.34 3.68 0 3 C0.66 2.67 1.32 2.34 2 2 C1.34 1.34 0.68 0.68 0 0 Z " fill="#DDDDDD" transform="translate(88,258)"/>
<path d="M0 0 C0.66 0 1.32 0 2 0 C3.5625 2.8125 3.5625 2.8125 5 6 C4.67 6.99 4.34 7.98 4 9 C3.34 8.01 2.68 7.02 2 6 C1.67 7.65 1.34 9.3 1 11 C0.67 11 0.34 11 0 11 C0 7.37 0 3.74 0 0 Z " fill="#848484" transform="translate(543,43)"/>
<path d="M0 0 C6.35051546 -0.36637589 6.35051546 -0.36637589 9.4375 1.375 C11 3 11 3 11 5 C10.01 5.33 9.02 5.66 8 6 C7.34 4.68 6.68 3.36 6 2 C4.02 2.33 2.04 2.66 0 3 C0 2.01 0 1.02 0 0 Z " fill="#272727" transform="translate(85,181)"/>
<path d="M0 0 C4.67692308 1.47692308 4.67692308 1.47692308 6.3125 4.125 C6.539375 4.74375 6.76625 5.3625 7 6 C6.01 6 5.02 6 4 6 C3.67 5.34 3.34 4.68 3 4 C0.97536745 3.34786708 0.97536745 3.34786708 -1 3 C-0.67 2.01 -0.34 1.02 0 0 Z " fill="#1D1D1D" transform="translate(93,280)"/>
<path d="M0 0 C0.99 0 1.98 0 3 0 C3.33 1.65 3.66 3.3 4 5 C2.35 5 0.7 5 -1 5 C-0.67 3.35 -0.34 1.7 0 0 Z " fill="#111111" transform="translate(130,225)"/>
<path d="M0 0 C1.46015291 0.28241641 2.91809793 0.57626614 4.375 0.875 C5.18710938 1.03742188 5.99921875 1.19984375 6.8359375 1.3671875 C9 2 9 2 11 4 C9.54119891 3.85892253 8.08296449 3.71197585 6.625 3.5625 C5.40683594 3.44068359 5.40683594 3.44068359 4.1640625 3.31640625 C2 3 2 3 0 2 C0 1.34 0 0.68 0 0 Z " fill="#161616" transform="translate(160,397)"/>
<path d="M0 0 C2.475 0.99 2.475 0.99 5 2 C3.35 3.32 1.7 4.64 0 6 C-0.66 5.01 -1.32 4.02 -2 3 C-1.34 2.01 -0.68 1.02 0 0 Z " fill="#020202" transform="translate(219,389)"/>
<path d="M0 0 C2.375 -0.125 2.375 -0.125 5 0 C7 2 7 2 7 5 C2.25 3.125 2.25 3.125 0 2 C0 1.34 0 0.68 0 0 Z " fill="#131313" transform="translate(92,239)"/>
<path d="M0 0 C-0.33 0.99 -0.66 1.98 -1 3 C-3.97 2.67 -6.94 2.34 -10 2 C-7.20652751 -0.79347249 -3.65536205 -1.82768103 0 0 Z " fill="#F5F5F5" transform="translate(107,219)"/>
<path d="M0 0 C0.66 0 1.32 0 2 0 C1.67 1.98 1.34 3.96 1 6 C1.66 6 2.32 6 3 6 C2.67 6.99 2.34 7.98 2 9 C1.01 8.34 0.02 7.68 -1 7 C-1.25 3.9375 -1.25 3.9375 -1 1 C-0.67 0.67 -0.34 0.34 0 0 Z " fill="#151515" transform="translate(83,183)"/>
<path d="M0 0 C2.35981813 0.93578995 4.69631264 1.93347808 7 3 C7 3.66 7 4.32 7 5 C3.17902761 4.46930939 0.93828597 3.50298434 -2 1 C-1.34 0.67 -0.68 0.34 0 0 Z " fill="#171717" transform="translate(144,389)"/>
<path d="M0 0 C5.53846154 -0.36923077 5.53846154 -0.36923077 7.875 1.5 C8.24625 1.995 8.6175 2.49 9 3 C7.68 2.67 6.36 2.34 5 2 C4.67 2.66 4.34 3.32 4 4 C2.68 2.68 1.36 1.36 0 0 Z " fill="#A9A9A9" transform="translate(108,271)"/>
<path d="M0 0 C5.75 1.75 5.75 1.75 8 4 C6 5 6 5 4.0546875 4.44140625 C3.33539063 4.15136719 2.61609375 3.86132812 1.875 3.5625 C1.15054688 3.27503906 0.42609375 2.98757813 -0.3203125 2.69140625 C-1.15175781 2.34916016 -1.15175781 2.34916016 -2 2 C-1.34 1.34 -0.68 0.68 0 0 Z " fill="#252525" transform="translate(153,354)"/>
<path d="M0 0 C1.485 0.99 1.485 0.99 3 2 C3 2.66 3 3.32 3 4 C3.99 4 4.98 4 6 4 C6 4.66 6 5.32 6 6 C4.35 6 2.7 6 1 6 C0.67 4.02 0.34 2.04 0 0 Z " fill="#8F8F8F" transform="translate(151,316)"/>
<path d="M0 0 C6.875 3.75 6.875 3.75 8 6 C5.21788056 5.62403791 3.4120716 5.32681541 1.1875 3.5625 C0 2 0 2 0 0 Z " fill="#222222" transform="translate(100,273)"/>
<path d="M0 0 C1.65 1.65 3.3 3.3 5 5 C4.67 5.99 4.34 6.98 4 8 C0 3.375 0 3.375 0 0 Z " fill="#2D2D2D" transform="translate(170,348)"/>
<path d="M0 0 C0.33 0 0.66 0 1 0 C1.33 2.97 1.66 5.94 2 9 C1.01 9 0.02 9 -1 9 C-1.33 7.35 -1.66 5.7 -2 4 C-1.34 4 -0.68 4 0 4 C0 2.68 0 1.36 0 0 Z " fill="#323232" transform="translate(151,290)"/>
</svg>
