<?xml version="1.0" encoding="UTF-8"?>
<svg version="1.1" xmlns="http://www.w3.org/2000/svg" width="259" height="81">
<path d="M0 0 C85.47 0 170.94 0 259 0 C259 26.73 259 53.46 259 81 C173.53 81 88.06 81 0 81 C0 54.27 0 27.54 0 0 Z " fill="#323232" transform="translate(0,0)"/>
<path d="M0 0 C1.64100929 -0.00043808 1.64100929 -0.00043808 3.31517029 -0.00088501 C6.89159383 0.00049607 10.46780281 0.01599932 14.04418945 0.03173828 C16.53953437 0.03547276 19.03488075 0.03831768 21.53022766 0.04031372 C28.06826899 0.04791592 34.60622014 0.06753489 41.14422607 0.08972168 C47.82765959 0.11134935 54.51112132 0.11933117 61.19458008 0.12939453 C74.28642276 0.15078418 87.37817509 0.1859383 100.4699707 0.22705078 C100.4699707 8.80705078 100.4699707 17.38705078 100.4699707 26.22705078 C97.03977539 26.72076172 93.60958008 27.21447266 90.07543945 27.72314453 C86.75918096 28.20238071 83.44306103 28.68256486 80.12695312 29.1628418 C77.8194793 29.49651703 75.51186237 29.82920414 73.20410156 30.16088867 C69.8900007 30.63738415 66.57642811 31.11741266 63.26293945 31.59814453 C62.2284819 31.7460997 61.19402435 31.89405487 60.1282196 32.04649353 C59.1674501 32.18656326 58.2066806 32.326633 57.21679688 32.47094727 C55.94771736 32.65414772 55.94771736 32.65414772 54.65299988 32.84104919 C52.30149672 33.20197867 52.30149672 33.20197867 49.4699707 34.22705078 C48.546676 36.32048943 48.546676 36.32048943 47.9699707 38.85205078 C46.79078082 43.19446432 45.33691993 47.13754295 43.4699707 51.22705078 C46.4399707 51.22705078 49.4099707 51.22705078 52.4699707 51.22705078 C52.4699707 53.53705078 52.4699707 55.84705078 52.4699707 58.22705078 C51.1602832 58.15744141 49.8505957 58.08783203 48.5012207 58.01611328 C34.47448118 57.51743094 22.31242449 59.65659328 8.89160156 63.67626953 C6.34209917 64.25613417 4.07569114 64.32466725 1.4699707 64.22705078 C3.99416664 61.70285485 5.89354933 61.4374804 9.3449707 60.60205078 C10.39426758 60.34166016 11.44356445 60.08126953 12.5246582 59.81298828 C15.4699707 59.22705078 15.4699707 59.22705078 19.4699707 59.22705078 C19.4699707 45.69705078 19.4699707 32.16705078 19.4699707 18.22705078 C17.8199707 18.22705078 16.1699707 18.22705078 14.4699707 18.22705078 C14.4699707 31.09705078 14.4699707 43.96705078 14.4699707 57.22705078 C11.8299707 57.22705078 9.1899707 57.22705078 6.4699707 57.22705078 C6.4699707 52.27705078 6.4699707 47.32705078 6.4699707 42.22705078 C5.1499707 42.55705078 3.8299707 42.88705078 2.4699707 43.22705078 C2.1399707 47.84705078 1.8099707 52.46705078 1.4699707 57.22705078 C-0.8400293 57.22705078 -3.1500293 57.22705078 -5.5300293 57.22705078 C-5.5300293 53.26705078 -5.5300293 49.30705078 -5.5300293 45.22705078 C-6.8500293 45.55705078 -8.1700293 45.88705078 -9.5300293 46.22705078 C-10.5658972 48.20871112 -11.56115349 50.2117891 -12.5300293 52.22705078 C-15.1550293 55.03955078 -15.1550293 55.03955078 -17.5300293 57.22705078 C-17.8600293 57.55705078 -18.1900293 57.88705078 -18.5300293 58.22705078 C-23.41838948 58.78861382 -27.96491 59.07070489 -32.1550293 56.22705078 C-32.9387793 55.56705078 -33.7225293 54.90705078 -34.5300293 54.22705078 C-34.5300293 55.21705078 -34.5300293 56.20705078 -34.5300293 57.22705078 C-36.5100293 57.22705078 -38.4900293 57.22705078 -40.5300293 57.22705078 C-40.5300293 56.23705078 -40.5300293 55.24705078 -40.5300293 54.22705078 C-41.43769043 54.52474365 -42.34535156 54.82243652 -43.28051758 55.12915039 C-46.66728367 56.23866302 -50.05589177 57.34245494 -53.44506836 58.44458008 C-54.9081377 58.92122518 -56.37071158 59.39939406 -57.83276367 59.87915039 C-59.94148554 60.57080542 -62.05196308 61.25685447 -64.1628418 61.94189453 C-64.80996124 62.15547104 -65.45708069 62.36904755 -66.12380981 62.58909607 C-69.90476585 63.80919007 -73.59631589 64.67378961 -77.5300293 65.22705078 C-76.5300293 63.22705078 -76.5300293 63.22705078 -73.80737305 62.15673828 C-72.15415039 61.63466797 -72.15415039 61.63466797 -70.4675293 61.10205078 C-69.36280273 60.74884766 -68.25807617 60.39564453 -67.11987305 60.03173828 C-65.83790039 59.63341797 -65.83790039 59.63341797 -64.5300293 59.22705078 C-65.5819043 58.83517578 -66.6337793 58.44330078 -67.7175293 58.03955078 C-72.19515993 56.1179765 -75.16415545 53.30838236 -77.8425293 49.22705078 C-78.67430887 46.80732839 -78.6711784 44.76773468 -78.5300293 42.22705078 C-83.24224956 42.68014888 -85.87529231 43.27968224 -89.5300293 46.22705078 C-91.51017362 46.95056505 -93.50824245 47.62970467 -95.5300293 48.22705078 C-95.2000293 48.88705078 -94.8700293 49.54705078 -94.5300293 50.22705078 C-93.83135742 50.19224609 -93.13268555 50.15744141 -92.4128418 50.12158203 C-91.50276367 50.09451172 -90.59268555 50.06744141 -89.6550293 50.03955078 C-88.75010742 50.00474609 -87.84518555 49.96994141 -86.9128418 49.93408203 C-85.73334961 50.07910156 -85.73334961 50.07910156 -84.5300293 50.22705078 C-82.5300293 53.22705078 -82.5300293 53.22705078 -82.5300293 56.22705078 C-87.77071645 57.9739465 -92.80460199 57.86609793 -97.9050293 55.97705078 C-100.65568372 54.14328117 -101.23892907 53.14710925 -102.5300293 50.22705078 C-103.99111993 50.48259132 -105.44891026 50.7570545 -106.9050293 51.03955078 C-107.71713867 51.19037109 -108.52924805 51.34119141 -109.3659668 51.49658203 C-111.88823571 52.1025002 -111.88823571 52.1025002 -113.5300293 55.22705078 C-119.50048799 57.99384871 -125.64010517 58.15400758 -131.8425293 56.16455078 C-135.28907475 53.67983197 -137.23665975 51.22999341 -138.5300293 47.22705078 C-139.10962388 43.44614404 -139.22341377 39.9969647 -138.5300293 36.22705078 C-136.1550293 33.16455078 -136.1550293 33.16455078 -133.5300293 31.22705078 C-132.8700293 30.56705078 -132.2100293 29.90705078 -131.5300293 29.22705078 C-128.40520744 28.12980449 -125.6254705 28.20626474 -122.3425293 28.34423828 C-116.83537615 28.3861247 -112.63373119 27.29596466 -107.5300293 25.35205078 C-98.14064703 22.02695108 -88.66523827 19.09410079 -79.0925293 16.35205078 C-78.3608252 16.14243713 -77.62912109 15.93282349 -76.87524414 15.71685791 C-64.66798476 12.24090268 -52.3819738 9.14393777 -40.0300293 6.22705078 C-39.22824249 6.0374176 -38.42645569 5.84778442 -37.60037231 5.65240479 C-35.2967369 5.11009711 -32.99190835 4.57331386 -30.6862793 4.03955078 C-30.02297104 3.88477264 -29.35966278 3.72999451 -28.67625427 3.57052612 C-26.63120983 3.1031954 -24.58213738 2.66236841 -22.5300293 2.22705078 C-21.73497325 2.05648226 -20.9399172 1.88591373 -20.12076855 1.71017647 C-13.34449927 0.35865592 -6.89797837 -0.04921957 0 0 Z " fill="#333333" transform="translate(158.530029296875,-0.22705078125)"/>
<path d="M0 0 C0 6.93 0 13.86 0 21 C-1.43835205 21.20681396 -2.8767041 21.41362793 -4.35864258 21.62670898 C-9.68717196 22.39361671 -15.01517161 23.164151 -20.34301758 23.93579102 C-22.6504914 24.26946625 -24.95810833 24.60215336 -27.26586914 24.93383789 C-30.57997001 25.41033337 -33.89354259 25.89036188 -37.20703125 26.37109375 C-38.2414888 26.51904892 -39.27594635 26.66700409 -40.3417511 26.81944275 C-41.3025206 26.95951248 -42.2632901 27.09958221 -43.25317383 27.24389648 C-44.52225334 27.42709694 -44.52225334 27.42709694 -45.81697083 27.61399841 C-48.16847398 27.97492789 -48.16847398 27.97492789 -51 29 C-51.9232947 31.09343865 -51.9232947 31.09343865 -52.5 33.625 C-53.67918988 37.96741353 -55.13305077 41.91049217 -57 46 C-54.03 46 -51.06 46 -48 46 C-48 48.31 -48 50.62 -48 53 C-49.3096875 52.93039063 -50.619375 52.86078125 -51.96875 52.7890625 C-65.99548953 52.29038016 -78.15754621 54.4295425 -91.57836914 58.44921875 C-94.12787153 59.02908339 -96.39427956 59.09761646 -99 59 C-96.47580407 56.47580407 -94.57642137 56.21042962 -91.125 55.375 C-90.07570312 55.11460938 -89.02640625 54.85421875 -87.9453125 54.5859375 C-85 54 -85 54 -81 54 C-81 40.47 -81 26.94 -81 13 C-82.65 13 -84.3 13 -86 13 C-86 25.87 -86 38.74 -86 52 C-88.64 52 -91.28 52 -94 52 C-94 47.05 -94 42.1 -94 37 C-95.98 37.495 -95.98 37.495 -98 38 C-98.33 42.62 -98.66 47.24 -99 52 C-101.31 52 -103.62 52 -106 52 C-106 48.04 -106 44.08 -106 40 C-107.98 40.495 -107.98 40.495 -110 41 C-111.0358679 42.98166034 -112.03112419 44.98473831 -113 47 C-115.625 49.8125 -115.625 49.8125 -118 52 C-118.33 52.33 -118.66 52.66 -119 53 C-123.88836018 53.56156303 -128.4348807 53.84365411 -132.625 51 C-133.40875 50.34 -134.1925 49.68 -135 49 C-135 49.99 -135 50.98 -135 52 C-136.65 52 -138.3 52 -140 52 C-140 38.8 -140 25.6 -140 12 C-138.35 12 -136.7 12 -135 12 C-135 17.28 -135 22.56 -135 28 C-131.04588363 25.52271329 -131.04588363 25.52271329 -130.01538086 22.90527344 C-129 21 -129 21 -127.07641602 20.08691406 C-125.92677368 19.80412598 -125.92677368 19.80412598 -124.75390625 19.515625 C-123.49803711 19.19658203 -123.49803711 19.19658203 -122.21679688 18.87109375 C-121.34087891 18.66613281 -120.46496094 18.46117188 -119.5625 18.25 C-118.69044922 18.02957031 -117.81839844 17.80914063 -116.91992188 17.58203125 C-113.51449134 16.73918065 -110.52127274 16 -107 16 C-107 14.68 -107 13.36 -107 12 C-104.36 12 -101.72 12 -99 12 C-99 12.66 -99 13.32 -99 14 C-98.34725098 13.69892334 -97.69450195 13.39784668 -97.02197266 13.08764648 C-93.28866824 11.74398263 -89.55617158 11.16586218 -85.6484375 10.59765625 C-84.82169525 10.47246109 -83.994953 10.34726593 -83.14315796 10.21827698 C-81.35829488 9.94837475 -79.57305127 9.68097944 -77.78747559 9.41583252 C-74.98488866 8.99774571 -72.18419388 8.56867706 -69.38378906 8.13623047 C-64.47058701 7.37824343 -59.55559796 6.6327676 -54.63964844 5.89282227 C-52.63311801 5.58976272 -50.62692939 5.28443114 -48.62109375 4.97680664 C-37.9225134 3.33697372 -27.23673538 1.82225069 -16.4609375 0.78515625 C-15.18327011 0.66182167 -15.18327011 0.66182167 -13.87979126 0.53599548 C-9.19243873 0.11341353 -4.74681323 0 0 0 Z " fill="#353535" transform="translate(259,5)"/>
<path d="M0 0 C1.65 0 3.3 0 5 0 C5 5.28 5 10.56 5 16 C8.95411637 13.52271329 8.95411637 13.52271329 9.98461914 10.90527344 C11 9 11 9 12.92358398 8.08691406 C13.69001221 7.89838867 14.45644043 7.70986328 15.24609375 7.515625 C16.08333984 7.30292969 16.92058594 7.09023438 17.78320312 6.87109375 C18.65912109 6.66613281 19.53503906 6.46117187 20.4375 6.25 C21.30955078 6.02957031 22.18160156 5.80914063 23.08007812 5.58203125 C26.48550866 4.73918065 29.47872726 4 33 4 C33 2.68 33 1.36 33 0 C35.64 0 38.28 0 41 0 C41 0.66 41 1.32 41 2 C41.680625 1.67 42.36125 1.34 43.0625 1 C46 0 46 0 53 0 C53 13.2 53 26.4 53 40 C50.69 40 48.38 40 46 40 C46 35.05 46 30.1 46 25 C44.68 25.33 43.36 25.66 42 26 C41.67 30.62 41.34 35.24 41 40 C38.69 40 36.38 40 34 40 C34 36.04 34 32.08 34 28 C32.68 28.33 31.36 28.66 30 29 C28.9641321 30.98166034 27.96887581 32.98473831 27 35 C24.375 37.8125 24.375 37.8125 22 40 C21.67 40.33 21.34 40.66 21 41 C16.11163982 41.56156303 11.5651193 41.84365411 7.375 39 C6.59125 38.34 5.8075 37.68 5 37 C5 37.99 5 38.98 5 40 C3.35 40 1.7 40 0 40 C0 26.8 0 13.6 0 0 Z " fill="#383838" transform="translate(119,17)"/>
<path d="M0 0 C0.66 0 1.32 0 2 0 C2 13.2 2 26.4 2 40 C1.67 39.01 1.34 38.02 1 37 C0.09233887 37.29769287 -0.81532227 37.59538574 -1.75048828 37.90209961 C-5.13725437 39.01161223 -8.52586247 40.11540416 -11.91503906 41.2175293 C-13.37810841 41.6941744 -14.84068228 42.17234328 -16.30273438 42.65209961 C-18.41145624 43.34375463 -20.52193378 44.02980369 -22.6328125 44.71484375 C-23.27993195 44.92842026 -23.92705139 45.14199677 -24.59378052 45.36204529 C-28.37473656 46.58213929 -32.06628659 47.44673883 -36 48 C-35 46 -35 46 -32.27734375 44.9296875 C-31.17519531 44.58164062 -30.07304688 44.23359375 -28.9375 43.875 C-27.83277344 43.52179687 -26.72804688 43.16859375 -25.58984375 42.8046875 C-24.30787109 42.40636719 -24.30787109 42.40636719 -23 42 C-24.051875 41.608125 -25.10375 41.21625 -26.1875 40.8125 C-31.31343797 38.61270476 -34.86007498 35.17386315 -37 30 C-37.265625 27.74609375 -37.265625 27.74609375 -37.25 25.4375 C-37.25773437 24.29087891 -37.25773437 24.29087891 -37.265625 23.12109375 C-37 21 -37 21 -35 18 C-32.61435923 18.57584432 -30.33317216 19.22227595 -28 20 C-25.6593935 19.72230092 -23.32375692 19.39460023 -21 19 C-22.70892499 15.68539295 -22.70892499 15.68539295 -26.125 15.3125 C-27.07375 15.209375 -28.0225 15.10625 -29 15 C-29 14.01 -29 13.02 -29 12 C-25.32259103 10.16129552 -21.02285677 10.6183604 -17 11 C-15.5459375 11.7734375 -15.5459375 11.7734375 -14.0625 12.5625 C-9.26760496 14.81316502 -5.19168461 13.6964455 0 13 C0 8.71 0 4.42 0 0 Z " fill="#3B3C3A" transform="translate(117,17)"/>
<path d="M0 0 C1.65 0 3.3 0 5 0 C5 5.28 5 10.56 5 16 C6.65 14.68 8.3 13.36 10 12 C13.11328125 11.609375 13.11328125 11.609375 16.3125 11.75 C17.38113281 11.78609375 18.44976562 11.8221875 19.55078125 11.859375 C20.76314453 11.92898437 20.76314453 11.92898437 22 12 C22 12.66 22 13.32 22 14 C22.598125 14.2475 23.19625 14.495 23.8125 14.75 C26.41063783 16.23465019 27.44681996 17.44336094 29 20 C29.85848487 25.55308233 29.73654342 30.50060803 27.25 35.5625 C22.4812099 40.72868928 22.4812099 40.72868928 18.6328125 41.43359375 C12.74784658 41.44276036 9.53483927 40.81881202 5 37 C5 37.99 5 38.98 5 40 C3.35 40 1.7 40 0 40 C0 26.8 0 13.6 0 0 Z " fill="#F4F4F4" transform="translate(119,17)"/>
<path d="M0 0 C4.70695236 4.99222219 4.0625 6.53752604 4.0625 14.1875 C-2.5375 14.1875 -9.1375 14.1875 -15.9375 14.1875 C-15.6075 15.5075 -15.2775 16.8275 -14.9375 18.1875 C-10.34206709 20.48521645 -3.76502346 19.43331251 1.0625 18.1875 C1.0625 20.1675 1.0625 22.1475 1.0625 24.1875 C-3.54156715 26.56379272 -7.87600472 26.74193941 -12.9375 26.1875 C-17.06485641 24.86363096 -18.61698589 23.59235993 -21.3125 20.1875 C-23.70713981 15.43863625 -23.88941101 10.36301614 -22.9375 5.1875 C-20.5625 2.125 -20.5625 2.125 -17.9375 0.1875 C-17.2775 -0.4725 -16.6175 -1.1325 -15.9375 -1.8125 C-10.52280529 -3.67845188 -4.81648049 -2.97187094 0 0 Z " fill="#EDEDEE" transform="translate(42.9375,30.8125)"/>
<path d="M0 0 C5.61 0 11.22 0 17 0 C16.10026693 3.59893226 14.80818721 6.35977642 13.12109375 9.62890625 C11.07633027 13.9535454 9.56107812 18.48283778 8 23 C10.97 23 13.94 23 17 23 C17 24.98 17 26.96 17 29 C10.73 29 4.46 29 -2 29 C-0.87572029 23.37860146 -0.87572029 23.37860146 0.8125 20.3359375 C1.16570312 19.68882813 1.51890625 19.04171875 1.8828125 18.375 C2.43582031 17.385 2.43582031 17.385 3 16.375 C5.82283291 11.3375344 5.82283291 11.3375344 8 6 C5.36 6 2.72 6 0 6 C0 4.02 0 2.04 0 0 Z " fill="#EEEEEE" transform="translate(194,28)"/>
<path d="M0 0 C-0.33 1.65 -0.66 3.3 -1 5 C-4 6 -4 6 -7.5625 6.4375 C-11.05471588 6.66562518 -11.05471588 6.66562518 -13 9 C-13.53017438 14.35111396 -13.53017438 14.35111396 -11.796875 19.25390625 C-10.12460285 21.23282808 -10.12460285 21.23282808 -7.58984375 21.28515625 C-6.71457031 21.21167969 -5.83929688 21.13820313 -4.9375 21.0625 C-2.27734375 20.84765625 -2.27734375 20.84765625 0 21 C2 24 2 24 2 27 C-3.15135346 28.71711782 -8.19238625 28.62571245 -13.25 26.875 C-17.40418855 24.04259871 -19.52718926 21.47374582 -20.48828125 16.4453125 C-20.87412426 10.9829859 -20.30920202 7.63073403 -16.75 3.375 C-12.46539164 -1.11102158 -5.85272335 -2.92636168 0 0 Z " fill="#EEEEEE" transform="translate(74,29)"/>
<path d="M0 0 C3.72519995 1.42667232 5.53312291 2.9427362 7.9375 6.125 C8.49628277 10.03647941 8.16932354 12.83599688 5.9375 16.125 C2.26346466 18.5743569 -0.79428115 18.94085672 -5.0625 18.125 C-7.70166623 16.01366702 -8.74954913 14.48661081 -9.5078125 11.1875 C-9.77337518 8.1393023 -9.68309012 6.02825617 -7.921875 3.46484375 C-5.3728015 1.0566401 -3.48996244 0.14244745 0 0 Z " fill="#393939" transform="translate(134.0625,33.875)"/>
<path d="M0 0 C2.8155207 0.30166293 3.91312316 0.91312316 5.9375 2.9375 C7.76644213 5.65320195 8.9848869 8.15305563 10.3125 11.125 C12.0051567 14.67957907 13.13553252 16.58304589 16.8125 18.125 C17.864375 18.41375 18.91625 18.7025 20 19 C19.67 19.99 19.34 20.98 19 22 C14.57414439 23.4752852 10.33407064 24.07228592 6.02734375 22.09375 C1.95876138 19.39863811 -0.4543806 16.72777697 -2 12 C-2.50749999 7.22786304 -2.71337976 4.07006964 0 0 Z " fill="#79BC55" transform="translate(82,35)"/>
<path d="M0 0 C4.12548046 2.97418359 7.22004536 6.07976187 8.06640625 11.25390625 C8.16971078 15.43429621 7.7568216 18.25593586 5.6875 21.9375 C2.02424149 20.97581555 0.83644934 20.15645841 -1.33203125 16.96875 C-2.21955078 15.22078125 -2.21955078 15.22078125 -3.125 13.4375 C-3.72957031 12.2721875 -4.33414063 11.106875 -4.95703125 9.90625 C-6.3125 6.9375 -6.3125 6.9375 -6.3125 4.9375 C-10.7675 3.9475 -10.7675 3.9475 -15.3125 2.9375 C-15.3125 1.9475 -15.3125 0.9575 -15.3125 -0.0625 C-10.71338643 -2.36205678 -4.73590823 -1.5190649 0 0 Z " fill="#75B755" transform="translate(103.3125,29.0625)"/>
<path d="M0 0 C1.98 0 3.96 0 6 0 C6 13.2 6 26.4 6 40 C4.02 40 2.04 40 0 40 C0 26.8 0 13.6 0 0 Z " fill="#F1F1F1" transform="translate(179,17)"/>
<path d="M0 0 C1.98 0 3.96 0 6 0 C6 13.2 6 26.4 6 40 C4.02 40 2.04 40 0 40 C0 26.8 0 13.6 0 0 Z " fill="#EEEEEE" transform="translate(166,17)"/>
<path d="M0 0 C-0.65839472 4.84731185 -2.58279163 8.89164672 -4.6875 13.25 C-5.01427734 13.9821875 -5.34105469 14.714375 -5.67773438 15.46875 C-6.65905336 17.49518309 -7.57853639 19.25277251 -9 21 C-12.20703125 22.046875 -12.20703125 22.046875 -15 22 C-16 21 -16 21 -16.11352539 19.23413086 C-16.10828857 18.48526611 -16.10305176 17.73640137 -16.09765625 16.96484375 C-16.09443359 16.15595703 -16.09121094 15.34707031 -16.08789062 14.51367188 C-16.07951172 13.66353516 -16.07113281 12.81339844 -16.0625 11.9375 C-16.05798828 11.08349609 -16.05347656 10.22949219 -16.04882812 9.34960938 C-16.03700373 7.23304337 -16.01906769 5.11651315 -16 3 C-10.45302328 0.93719999 -5.9464852 -0.37956289 0 0 Z " fill="#343434" transform="translate(201,35)"/>
<path d="M0 0 C-0.33 0.66 -0.66 1.32 -1 2 C-3.94849769 2.64470662 -6.83398722 3.17280131 -9.8125 3.625 C-10.63298828 3.7590625 -11.45347656 3.893125 -12.29882812 4.03125 C-15.95397549 4.6122791 -19.27917852 5 -23 5 C-23 18.2 -23 31.4 -23 45 C-16.565 44.505 -16.565 44.505 -10 44 C-6.53237363 44.07739123 -3.13852238 44.1947846 0.3125 44.4375 C1.16005859 44.48970703 2.00761719 44.54191406 2.88085938 44.59570312 C4.92108399 44.72249675 6.96063749 44.86002264 9 45 C9 45.33 9 45.66 9 46 C7.6903125 45.93039063 6.380625 45.86078125 5.03125 45.7890625 C-8.99548953 45.29038016 -21.15754621 47.4295425 -34.57836914 51.44921875 C-37.12787153 52.02908339 -39.39427956 52.09761646 -42 52 C-39.47580407 49.47580407 -37.57642137 49.21042962 -34.125 48.375 C-32.55105469 47.98441406 -32.55105469 47.98441406 -30.9453125 47.5859375 C-28 47 -28 47 -24 47 C-24 33.47 -24 19.94 -24 6 C-25.65 6 -27.3 6 -29 6 C-29 18.87 -29 31.74 -29 45 C-29.33 45 -29.66 45 -30 45 C-30 31.8 -30 18.6 -30 5 C-16.4 1.6 -16.4 1.6 -11.0625 0.8125 C-10.02222656 0.65394531 -8.98195312 0.49539063 -7.91015625 0.33203125 C-5.23997409 0.02737959 -2.68399389 -0.06425768 0 0 Z " fill="#5A5A5A" transform="translate(202,12)"/>
<path d="M0 0 C2.31 0 4.62 0 7 0 C7 9.57 7 19.14 7 29 C4.69 29 2.38 29 0 29 C0 19.43 0 9.86 0 0 Z " fill="#DEDEDE" transform="translate(153,28)"/>
<path d="M0 0 C4.25110499 1.54585636 6.61085159 3.15081645 9 7 C8 9 8 9 5 11 C4.1028125 9.7934375 4.1028125 9.7934375 3.1875 8.5625 C1.19052724 5.77672016 1.19052724 5.77672016 -2 5 C-1.69964844 5.54269531 -1.39929688 6.08539063 -1.08984375 6.64453125 C-0.51943359 7.71767578 -0.51943359 7.71767578 0.0625 8.8125 C0.44535156 9.52019531 0.82820313 10.22789063 1.22265625 10.95703125 C2 13 2 13 1 16 C0.32845067 14.71086513 -0.33708859 13.41859796 -1 12.125 C-1.37125 11.40570313 -1.7425 10.68640625 -2.125 9.9453125 C-3 8 -3 8 -3 6 C-7.455 5.01 -7.455 5.01 -12 4 C-12 3.01 -12 2.02 -12 1 C-8.30746735 -0.84626633 -4.03862696 -0.34740877 0 0 Z " fill="#92B764" transform="translate(100,28)"/>
<path d="M0 0 C2.64 0 5.28 0 8 0 C8 1.98 8 3.96 8 6 C6.824375 5.9175 5.64875 5.835 4.4375 5.75 C-2.61828856 5.70477059 -9.29306035 8.02061333 -16 10 C-15.01 10.66 -14.02 11.32 -13 12 C-16.3 12 -19.6 12 -23 12 C-22.67 11.01 -22.34 10.02 -22 9 C-20.18994141 8.20043945 -20.18994141 8.20043945 -17.8515625 7.61328125 C-17.01109375 7.39736328 -16.170625 7.18144531 -15.3046875 6.95898438 C-14.42039063 6.74564453 -13.53609375 6.53230469 -12.625 6.3125 C-11.31015625 5.97508789 -11.31015625 5.97508789 -9.96875 5.63085938 C-3.48496866 4 -3.48496866 4 0 4 C0 2.68 0 1.36 0 0 Z " fill="#484848" transform="translate(152,17)"/>
<path d="M0 0 C3.23964903 2.63971402 4.66129185 5.31721 6.3125 9.0625 C8.00061549 12.64447005 9.10814981 14.57903127 12.8125 16.125 C14.3903125 16.558125 14.3903125 16.558125 16 17 C15.67 17.99 15.34 18.98 15 20 C11.25638848 21.24787051 7.8438151 22.06731177 4 21 C1.70262885 18.63806573 0.13668112 16.09326338 -1 13 C-0.67 12.34 -0.34 11.68 0 11 C1.98 12.65 3.96 14.3 6 16 C5.3191184 12.63472313 4.02690957 9.90891571 2.4375 6.875 C0 2.22096317 0 2.22096317 0 0 Z " fill="#8DB068" transform="translate(86,37)"/>
<path d="M0 0 C2.4375 1.8125 2.4375 1.8125 4 4 C4 4.99 4 5.98 4 7 C-0.95 7 -5.9 7 -11 7 C-9.30676242 0.22704966 -6.989962 -0.85841639 0 0 Z " fill="#474747" transform="translate(37,33)"/>
<path d="M0 0 C0.66 0 1.32 0 2 0 C2 2.64 2 5.28 2 8 C6.62 7.67 11.24 7.34 16 7 C16 7.66 16 8.32 16 9 C13.81347261 9.33965474 11.62571975 9.67142477 9.4375 10 C7.61025391 10.2784375 7.61025391 10.2784375 5.74609375 10.5625 C2.12372152 10.98555077 -1.35712046 11.07501425 -5 11 C-4.01 10.67 -3.02 10.34 -2 10 C-2.495 9.62875 -2.99 9.2575 -3.5 8.875 C-5.59755514 6.25305607 -5.21743835 4.26157528 -5 1 C-4.34 1 -3.68 1 -3 1 C-3 1.99 -3 2.98 -3 4 C-2.34 4 -1.68 4 -1 4 C-0.67 2.68 -0.34 1.36 0 0 Z " fill="#727272" transform="translate(228,19)"/>
<path d="M0 0 C1.98 0 3.96 0 6 0 C6 0.99 6 1.98 6 3 C7.98 2.67 9.96 2.34 12 2 C11 4 11 4 8.63916016 4.97729492 C5.30383404 6.05658733 1.96815286 7.13263955 -1.375 8.1875 C-3.11910156 8.75887695 -3.11910156 8.75887695 -4.8984375 9.34179688 C-6.0121875 9.69693359 -7.1259375 10.05207031 -8.2734375 10.41796875 C-9.81136963 10.90946411 -9.81136963 10.90946411 -11.38037109 11.41088867 C-14 12 -14 12 -17 11 C-15.54166667 10.41666667 -14.08333333 9.83333333 -12.625 9.25 C-11.72136719 8.88648438 -10.81773438 8.52296875 -9.88671875 8.1484375 C-7.97833414 7.38921548 -6.06425599 6.64413566 -4.14453125 5.9140625 C-3.25121094 5.57117187 -2.35789062 5.22828125 -1.4375 4.875 C-0.19806641 4.40707031 -0.19806641 4.40707031 1.06640625 3.9296875 C3.17595688 3.15834004 3.17595688 3.15834004 4 1 C2.68 0.67 1.36 0.34 0 0 Z " fill="#3B3B3B" transform="translate(98,53)"/>
<path d="M0 0 C-0.3125 1.875 -0.3125 1.875 -1 4 C-5.08430208 6.72286806 -7.14590877 6.38524534 -12 6 C-12.66 5.01 -13.32 4.02 -14 3 C-12.23050388 2.49528803 -10.45934777 1.99639315 -8.6875 1.5 C-7.70136719 1.2215625 -6.71523437 0.943125 -5.69921875 0.65625 C-3 0 -3 0 0 0 Z " fill="#3C3C3C" transform="translate(141,46)"/>
<path d="M0 0 C2.875 0.6875 2.875 0.6875 6 2 C7.375 4.625 7.375 4.625 8 7 C6.02 7.99 6.02 7.99 4 9 C3.38125 8.21625 2.7625 7.4325 2.125 6.625 C0.10141339 4.03162353 0.10141339 4.03162353 -2 2 C-1.34 2 -0.68 2 0 2 C0 1.34 0 0.68 0 0 Z " fill="#8FC65C" transform="translate(101,30)"/>
<path d="M0 0 C1.98 0 3.96 0 6 0 C6 1.98 6 3.96 6 6 C4.02 6 2.04 6 0 6 C0 4.02 0 2.04 0 0 Z " fill="#EDEDED" transform="translate(154,17)"/>
<path d="M0 0 C0.44730469 0.34933594 0.89460938 0.69867188 1.35546875 1.05859375 C4.85023956 3.68898628 7.51278557 5.59207142 12 6 C11.67 6.99 11.34 7.98 11 9 C8.3125 9.4375 8.3125 9.4375 5 9 C2.89292415 6.92559199 1.34439148 4.62929661 0 2 C0 1.34 0 0.68 0 0 Z " fill="#93C65F" transform="translate(85,48)"/>
<path d="M0 0 C0.66 0 1.32 0 2 0 C2 4.29 2 8.58 2 13 C2.66 13.33 3.32 13.66 4 14 C2.02 14.99 2.02 14.99 0 16 C0 10.72 0 5.44 0 0 Z " fill="#727272" transform="translate(124,17)"/>
<path d="M0 0 C0.33 0 0.66 0 1 0 C1 1.98 1 3.96 1 6 C3.64 6 6.28 6 9 6 C8.67 6.99 8.34 7.98 8 9 C8 8.34 8 7.68 8 7 C0.08 8.485 0.08 8.485 -8 10 C-7.67 9.01 -7.34 8.02 -7 7 C-5.02 6.67 -3.04 6.34 -1 6 C-0.67 4.02 -0.34 2.04 0 0 Z " fill="#585858" transform="translate(193,28)"/>
<path d="M0 0 C1.98 0 3.96 0 6 0 C6 0.99 6 1.98 6 3 C7.98 2.67 9.96 2.34 12 2 C11.67 2.66 11.34 3.32 11 4 C8.24921116 4.91692961 6.64051087 5.10886083 3.8125 5.0625 C1.9253125 5.0315625 1.9253125 5.0315625 0 5 C1.32 3.68 2.64 2.36 4 1 C2.68 0.67 1.36 0.34 0 0 Z " fill="#494D43" transform="translate(98,53)"/>
<path d="M0 0 C-0.33 0.33 -0.66 0.66 -1 1 C-0.01 1.66 0.98 2.32 2 3 C-1.3 3 -4.6 3 -8 3 C-7.67 2.01 -7.34 1.02 -7 0 C-3.86650268 -1.04449911 -3.01031744 -0.93423645 0 0 Z " fill="#545454" transform="translate(137,26)"/>
<path d="M0 0 C0.66 0.66 1.32 1.32 2 2 C3.31747324 2.69748583 4.64914193 3.36959957 6 4 C4.72125 4.061875 3.4425 4.12375 2.125 4.1875 C1.40570313 4.22230469 0.68640625 4.25710937 -0.0546875 4.29296875 C-0.69664062 4.19628906 -1.33859375 4.09960938 -2 4 C-2.66 3.01 -3.32 2.02 -4 1 C-2.125 0.375 -2.125 0.375 0 0 Z " fill="#494949" transform="translate(131,48)"/>
<path d="M0 0 C-1.32 1.32 -2.64 2.64 -4 4 C-5.98 3.01 -7.96 2.02 -10 1 C-8.66666667 0.66666667 -7.33333333 0.33333333 -6 0 C-5.29875 -0.20625 -4.5975 -0.4125 -3.875 -0.625 C-2 -1 -2 -1 0 0 Z " fill="#525252" transform="translate(47,28)"/>
<path d="M0 0 C1.32 1.32 2.64 2.64 4 4 C3 6 3 6 1 7 C0.34 5.02 -0.32 3.04 -1 1 C-0.67 0.67 -0.34 0.34 0 0 Z " fill="#86BB5E" transform="translate(105,31)"/>
<path d="M0 0 C4.67692308 1.47692308 4.67692308 1.47692308 6.3125 4.125 C6.539375 4.74375 6.76625 5.3625 7 6 C2.32307692 4.52307692 2.32307692 4.52307692 0.6875 1.875 C0.460625 1.25625 0.23375 0.6375 0 0 Z " fill="#81AC60" transform="translate(83,51)"/>
</svg>
