<?xml version="1.0" encoding="UTF-8"?>
<svg version="1.1" xmlns="http://www.w3.org/2000/svg" width="264" height="66">
<path d="M0 0 C87.12 0 174.24 0 264 0 C264 21.78 264 43.56 264 66 C176.88 66 89.76 66 0 66 C0 44.22 0 22.44 0 0 Z " fill="#FDFDFC" transform="translate(0,0)"/>
<path d="M0 0 C2.31419062 2.08775318 3.06826638 3.85681008 3.99609375 6.80078125 C4.65609375 6.80078125 5.31609375 6.80078125 5.99609375 6.80078125 C8.24599942 11.30059259 7.56015749 16.93230875 6.99609375 21.80078125 C4.97067167 27.42861456 2.18133814 31.58256327 -3.19140625 34.36328125 C-9.67207847 37.03480096 -14.99024261 37.85726222 -21.62890625 35.11328125 C-27.68372276 32.17854876 -31.74643086 28.21676393 -34.00390625 21.80078125 C-34.72657236 15.25718812 -34.52409321 9.52108506 -31.00390625 3.80078125 C-21.87032964 -5.85637618 -11.45011687 -7.08991236 0 0 Z " fill="#FAEBF3" transform="translate(55.00390625,13.19921875)"/>
<path d="M0 0 C2.31419062 2.08775318 3.06826638 3.85681008 3.99609375 6.80078125 C4.65609375 6.80078125 5.31609375 6.80078125 5.99609375 6.80078125 C8.24599942 11.30059259 7.56015749 16.93230875 6.99609375 21.80078125 C4.97067167 27.42861456 2.18133814 31.58256327 -3.19140625 34.36328125 C-9.67207847 37.03480096 -14.99024261 37.85726222 -21.62890625 35.11328125 C-27.68372276 32.17854876 -31.74643086 28.21676393 -34.00390625 21.80078125 C-34.72657236 15.25718812 -34.52409321 9.52108506 -31.00390625 3.80078125 C-21.87032964 -5.85637618 -11.45011687 -7.08991236 0 0 Z M-29.00390625 6.80078125 C-30.84647312 12.32848185 -30.80201063 18.06203069 -30.00390625 23.80078125 C-27.8084478 27.72042174 -25.04824077 30.77861399 -21.00390625 32.80078125 C-18.73646351 32.95021981 -16.46358875 33.02223027 -14.19140625 33.05078125 C-12.96808594 33.0765625 -11.74476562 33.10234375 -10.484375 33.12890625 C-5.5820159 32.66673098 -3.10372348 30.99486853 0.18359375 27.42578125 C3.57271181 22.51740337 4.51275253 18.79402308 3.99609375 12.80078125 C2.47453252 7.38021936 0.07619207 4.06681886 -4.484375 0.90234375 C-13.6687635 -3.11315634 -22.61854505 -0.4967744 -29.00390625 6.80078125 Z " fill="#B334C4" transform="translate(55.00390625,13.19921875)"/>
<path d="M0 0 C4.42117715 1.35091524 6.443343 3.1650145 9 7 C10.84069518 11.60173796 10.5479338 16.55806895 8.8125 21.125 C6.15609459 25.33860859 3.1310658 28.24595614 -1 31 C-3.48046875 31.1953125 -3.48046875 31.1953125 -6.1875 31.125 C-7.08855469 31.10695313 -7.98960938 31.08890625 -8.91796875 31.0703125 C-9.60503906 31.04710938 -10.29210938 31.02390625 -11 31 C-11 30.34 -11 29.68 -11 29 C-12.65 29 -14.3 29 -16 29 C-16.33 28.01 -16.66 27.02 -17 26 C-11.29959514 24.05668016 -11.29959514 24.05668016 -8.6875 23.5625 C-8.130625 23.376875 -7.57375 23.19125 -7 23 C-6.67 22.01 -6.34 21.02 -6 20 C-5.67 20 -5.34 20 -5 20 C-5 21.65 -5 23.3 -5 25 C-3.35 25 -1.7 25 0 25 C-0.03552979 24.31373535 -0.07105957 23.6274707 -0.10766602 22.92041016 C-0.26491311 19.82219604 -0.41380953 16.72363604 -0.5625 13.625 C-0.61857422 12.54476563 -0.67464844 11.46453125 -0.73242188 10.3515625 C-0.78076172 9.3203125 -0.82910156 8.2890625 -0.87890625 7.2265625 C-0.9260376 6.27346191 -0.97316895 5.32036133 -1.02172852 4.33837891 C-1 2 -1 2 0 0 Z " fill="#FDF4EF" transform="translate(49,15)"/>
<path d="M0 0 C1.65 0 3.3 0 5 0 C5.33 2.64 5.66 5.28 6 8 C6.66 8 7.32 8 8 8 C8.33 5.36 8.66 2.72 9 0 C10.32 0 11.64 0 13 0 C14.03026944 6.69675136 14.10152799 13.2314676 14 20 C12.68 20 11.36 20 10 20 C9.67 18.68 9.34 17.36 9 16 C8.67 16.66 8.34 17.32 8 18 C4.90306834 19.99088464 2.61858694 20.08387453 -1 20 C-1.02712351 17.60408962 -1.0468982 15.20849043 -1.0625 12.8125 C-1.07087891 12.13896484 -1.07925781 11.46542969 -1.08789062 10.77148438 C-1.10606538 7.04565869 -0.89299392 3.6211958 0 0 Z " fill="#EB8D64" transform="translate(34,20)"/>
<path d="M0 0 C0.99 0 1.98 0 3 0 C3 8.25 3 16.5 3 25 C1.68 24.67 0.36 24.34 -1 24 C-1.33 24.33 -1.66 24.66 -2 25 C-8.25223983 25.5789111 -8.25223983 25.5789111 -10.9375 23.5 C-12.53330773 19.74515828 -12.3886759 17.08109691 -12 13 C-10.875 11 -10.875 11 -9 10 C-5.90498792 9.74734595 -3.79870027 9.60064987 -1 11 C-0.67 7.37 -0.34 3.74 0 0 Z " fill="#2C2E3E" transform="translate(240,16)"/>
<path d="M0 0 C2.68234235 2.42457972 4.36856725 5.07510397 6.1875 8.1875 C6.71730469 9.08855469 7.24710938 9.98960938 7.79296875 10.91796875 C8.19128906 11.60503906 8.58960937 12.29210938 9 13 C12.04843622 9.38703855 14.53303339 5.62114222 16.94921875 1.57421875 C17.29597656 1.05472656 17.64273438 0.53523438 18 0 C18.33 0 18.66 0 19 0 C19.50360223 3.27028931 20.00225954 6.54131381 20.5 9.8125 C20.64308594 10.74126953 20.78617188 11.67003906 20.93359375 12.62695312 C21.06894531 13.51962891 21.20429687 14.41230469 21.34375 15.33203125 C21.46943359 16.15421143 21.59511719 16.9763916 21.72460938 17.82348633 C22 20 22 20 22 23 C20.68 23 19.36 23 18 23 C17.34 18.71 16.68 14.42 16 10 C13.03 14.95 13.03 14.95 10 20 C6.77085357 16.77085357 5.17318997 13.97169202 3 10 C2.34 14.29 1.68 18.58 1 23 C0.01 23 -0.98 23 -2 23 C-2.31918373 15.14453364 -1.35709504 7.73059495 0 0 Z " fill="#313146" transform="translate(90,18)"/>
<path d="M0 0 C2.875 1.5625 2.875 1.5625 5 4 C5.63210717 7.93311127 5.60020266 10.02467068 3.5 13.4375 C0.46813683 15.33241448 -1.56080456 15.64036692 -5.09375 15.44921875 C-7 15 -7 15 -9.5 12.875 C-11.26576304 9.49062085 -11.71928041 7.75624215 -11 4 C-7.63592992 0.24015697 -4.98202553 -0.83033759 0 0 Z " fill="#23283F" transform="translate(200,26)"/>
<path d="M0 0 C0.99 0.33 1.98 0.66 3 1 C3 1.66 3 2.32 3 3 C3.66 3 4.32 3 5 3 C7.24990567 7.49981134 6.56406374 13.1315275 6 18 C3.97457792 23.62783331 1.18524439 27.78178202 -4.1875 30.5625 C-9.650226 32.81439297 -14.52167102 34.16714693 -20.3515625 32.2109375 C-24.19032276 30.57289974 -27.1689256 29.12672457 -30 26 C-29.34 25.67 -28.68 25.34 -28 25 C-28 24.01 -28 23.02 -28 22 C-27.071875 23.2065625 -27.071875 23.2065625 -26.125 24.4375 C-24.25835959 27.03874519 -24.25835959 27.03874519 -22 28 C-19.73167291 28.12362239 -17.45916213 28.17560648 -15.1875 28.1875 C-13.35251953 28.20876953 -13.35251953 28.20876953 -11.48046875 28.23046875 C-8.14823678 28.0098159 -5.94701484 27.52506661 -3 26 C-1.78309467 24.23470405 -1.78309467 24.23470405 -1 22 C-0.46375 21.071875 0.0725 20.14375 0.625 19.1875 C3.41958874 12.7091352 1.66757811 6.56608881 0 0 Z " fill="#F59561" transform="translate(56,17)"/>
<path d="M0 0 C1.9375 1.1875 1.9375 1.1875 3 3 C3 4.65 3 6.3 3 8 C-0.63 8 -4.26 8 -8 8 C-7.67 8.99 -7.34 9.98 -7 11 C-3.7 11 -0.4 11 3 11 C0 15 0 15 -1.9375 15.53125 C-7.40206186 15.44845361 -7.40206186 15.44845361 -10 13.5 C-11.51865483 9.70336293 -11.45499176 7.09492581 -11 3 C-8.06077967 -0.76220202 -4.50768099 -0.49174702 0 0 Z " fill="#282939" transform="translate(161,26)"/>
<path d="M0 0 C1.8125 0.125 1.8125 0.125 4 1 C5.75 4.0625 5.75 4.0625 7 7 C7.99 4.69 8.98 2.38 10 0 C12.34058637 2.12780579 13.70700306 4.11562221 15 7 C15.99 4.69 16.98 2.38 18 0 C19.32 0 20.64 0 22 0 C20.36041242 5.23272633 18.61047965 10.15196636 16 15 C13.92885326 12.36399506 12.52475697 10.04951395 11 7 C9.68 9.64 8.36 12.28 7 15 C3.97047604 13.48523802 3.62906229 11.14631984 2.375 8.0625 C1.92898437 6.98097656 1.48296875 5.89945313 1.0234375 4.78515625 C0 2 0 2 0 0 Z " fill="#2F3148" transform="translate(166,26)"/>
<path d="M0 0 C8.3984375 -0.1953125 8.3984375 -0.1953125 11 0 C13 2 13 2 13.1953125 5.0390625 C13.17210937 6.22242188 13.14890625 7.40578125 13.125 8.625 C13.10695312 9.81351563 13.08890625 11.00203125 13.0703125 12.2265625 C13.04710937 13.14179687 13.02390625 14.05703125 13 15 C12.01 15 11.02 15 10 15 C9.67 11.37 9.34 7.74 9 4 C7.35 4 5.7 4 4 4 C3.67 7.63 3.34 11.26 3 15 C2.01 15 1.02 15 0 15 C0 10.05 0 5.1 0 0 Z " fill="#272F41" transform="translate(124,26)"/>
<path d="M0 0 C1.32 0 2.64 0 4 0 C4 1.65 4 3.3 4 5 C4.66 5 5.32 5 6 5 C6 5.99 6 6.98 6 8 C5.34 8 4.68 8 4 8 C4 11.96 4 15.92 4 20 C2.68 20 1.36 20 0 20 C0 16.04 0 12.08 0 8 C-0.66 8 -1.32 8 -2 8 C-2 7.01 -2 6.02 -2 5 C-1.34 5 -0.68 5 0 5 C0 3.35 0 1.7 0 0 Z " fill="#32404F" transform="translate(142,21)"/>
<path d="M0 0 C3.21205401 3.01877855 4.97549346 6.09060806 7 10 C7 10.99 7 11.98 7 13 C6.01 12.67 5.02 12.34 4 12 C3.67 11.34 3.34 10.68 3 10 C2.34 14.29 1.68 18.58 1 23 C0.01 23 -0.98 23 -2 23 C-2.31918373 15.14453364 -1.35709504 7.73059495 0 0 Z " fill="#262942" transform="translate(90,18)"/>
<path d="M0 0 C0.99 0 1.98 0 3 0 C3 8.25 3 16.5 3 25 C2.01 25 1.02 25 0 25 C-0.66 23.68 -1.32 22.36 -2 21 C-1.67 20.67 -1.34 20.34 -1 20 C-0.84344973 18.51361008 -0.74933057 17.02050873 -0.68359375 15.52734375 C-0.64169922 14.62822266 -0.59980469 13.72910156 -0.55664062 12.80273438 C-0.51732422 11.85720703 -0.47800781 10.91167969 -0.4375 9.9375 C-0.37272461 8.5134082 -0.37272461 8.5134082 -0.30664062 7.06054688 C-0.20020724 4.70718647 -0.09818992 2.35371646 0 0 Z " fill="#2A1F30" transform="translate(240,16)"/>
<path d="M0 0 C0.99 0 1.98 0 3 0 C3 8.25 3 16.5 3 25 C2.01 25 1.02 25 0 25 C0 16.75 0 8.5 0 0 Z " fill="#171E4F" transform="translate(221,16)"/>
<path d="M0 0 C2 2 2 2 2.25 4.5 C2 7 2 7 0 9 C-3.125 9.125 -3.125 9.125 -6 9 C-7.35439668 6.29120665 -7.06501451 3.99066732 -7 1 C-4.48718205 -0.25640898 -2.78302919 -0.20872719 0 0 Z " fill="#F3F1EB" transform="translate(200,29)"/>
<path d="M0 0 C2.5 0.25 2.5 0.25 4.5 2.25 C4.75 4.75 4.75 4.75 4.5 7.25 C2.5 9.25 2.5 9.25 0 9.5 C-2.5 9.25 -2.5 9.25 -4.5 7.25 C-4.75 4.75 -4.75 4.75 -4.5 2.25 C-2.5 0.25 -2.5 0.25 0 0 Z " fill="#F2F5F1" transform="translate(235.5,28.75)"/>
<path d="M0 0 C8.74512153 -0.89778814 13.92560485 0.84382479 21 6 C20.34 7.32 19.68 8.64 19 10 C18.071875 9.195625 17.14375 8.39125 16.1875 7.5625 C11.50670421 4.15303146 6.63484403 4.11208551 1 4 C1.66 3.34 2.32 2.68 3 2 C2.01 1.34 1.02 0.68 0 0 Z " fill="#CA5BB0" transform="translate(36,9)"/>
<path d="M0 0 C2.97 0 5.94 0 9 0 C8.67 0.99 8.34 1.98 8 3 C6.68 3.33 5.36 3.66 4 4 C3.67 7.63 3.34 11.26 3 15 C2.01 15 1.02 15 0 15 C0 10.05 0 5.1 0 0 Z " fill="#1A2348" transform="translate(209,26)"/>
<path d="M0 0 C0.99 0 1.98 0 3 0 C3.33 2.97 3.66 5.94 4 9 C3.34 9 2.68 9 2 9 C2 12.3 2 15.6 2 19 C1.01 19 0.02 19 -1 19 C-0.67 12.73 -0.34 6.46 0 0 Z " fill="#E9774C" transform="translate(35,20)"/>
<path d="M0 0 C0.86625 0.99 1.7325 1.98 2.625 3 C7.26676511 7.06870769 11.99011195 6.47684045 17.890625 6.2109375 C18.91671875 6.14132813 19.9428125 6.07171875 21 6 C21.99 6 22.98 6 24 6 C20.4800616 9.5199384 16.44340961 9.20579862 11.625 9.3125 C6.03669977 9.29364184 3.11452281 8.76184943 -1 5 C-0.34 4.34 0.32 3.68 1 3 C0.67 2.01 0.34 1.02 0 0 Z " fill="#EE946D" transform="translate(27,39)"/>
<path d="M0 0 C1 2 1 2 0.5625 4.125 C-0.16017639 7.81867933 -0.06376378 11.23793697 0 15 C0.33 12.03 0.66 9.06 1 6 C1.33 6 1.66 6 2 6 C2.03738281 6.79664063 2.07476563 7.59328125 2.11328125 8.4140625 C2.47956941 14.31776574 2.78602794 18.96943503 6 24 C3.25362183 23.62118922 2.19950942 23.22167713 0.3125 21.125 C-1.87297059 17.58661905 -2.15959811 14.69867543 -2.1875 10.625 C-2.20167969 9.68914063 -2.21585938 8.75328125 -2.23046875 7.7890625 C-1.98668108 4.83881846 -1.23112508 2.67635888 0 0 Z " fill="#D671A5" transform="translate(23,19)"/>
<path d="M0 0 C1.32 0.33 2.64 0.66 4 1 C4.33 3.31 4.66 5.62 5 8 C6.98 8 8.96 8 11 8 C11.33 8.99 11.66 9.98 12 11 C9.1419611 11.23816991 6.80188855 11.42242213 4 11 C1.5 8.875 1.5 8.875 0 6 C-0.25 2.6875 -0.25 2.6875 0 0 Z " fill="#3B3B45" transform="translate(189,30)"/>
<path d="M0 0 C0.33 0 0.66 0 1 0 C1.02714735 2.22909871 1.04646254 4.45829367 1.0625 6.6875 C1.07410156 7.92886719 1.08570313 9.17023437 1.09765625 10.44921875 C1.01478673 13.46235454 0.70839449 16.08275339 0 19 C0.99 19 1.98 19 3 19 C3 16.69 3 14.38 3 12 C3.66 12 4.32 12 5 12 C5 13.65 5 15.3 5 17 C5.99 17.33 6.98 17.66 8 18 C4.83390538 19.87620422 2.64167599 20.09662822 -1 20 C-1.02712351 17.60408962 -1.0468982 15.20849043 -1.0625 12.8125 C-1.07087891 12.13896484 -1.07925781 11.46542969 -1.08789062 10.77148438 C-1.10606538 7.04565869 -0.89299392 3.6211958 0 0 Z " fill="#E8A696" transform="translate(34,20)"/>
<path d="M0 0 C0.99 0 1.98 0 3 0 C3 0.66 3 1.32 3 2 C3.66 2.33 4.32 2.66 5 3 C4.67 3.33 4.34 3.66 4 4 C3.76636119 5.84891946 3.58696365 7.70488031 3.4375 9.5625 C3.35371094 10.57441406 3.26992187 11.58632813 3.18359375 12.62890625 C3.12300781 13.41136719 3.06242187 14.19382812 3 15 C2.01 15 1.02 15 0 15 C0 10.05 0 5.1 0 0 Z " fill="#463630" transform="translate(124,26)"/>
<path d="M0 0 C0.99 0 1.98 0 3 0 C3 4.95 3 9.9 3 15 C2.01 15 1.02 15 0 15 C0 10.05 0 5.1 0 0 Z " fill="#171E4F" transform="translate(116,26)"/>
<path d="M0 0 C0.33 0 0.66 0 1 0 C1 4.95 1 9.9 1 15 C2.32 15.33 3.64 15.66 5 16 C3.68 16.33 2.36 16.66 1 17 C1 17.66 1 18.32 1 19 C2.65 19 4.3 19 6 19 C6 19.66 6 20.32 6 21 C3.1875 20.8125 3.1875 20.8125 0 20 C-1.875 17.4375 -1.875 17.4375 -3 15 C-2.34 15 -1.68 15 -1 15 C-0.67 10.05 -0.34 5.1 0 0 Z " fill="#FDE6D7" transform="translate(32,25)"/>
<path d="M0 0 C0.99 0.33 1.98 0.66 3 1 C5.34551123 5.93791838 5.2134222 10.66444505 5 16 C4.34 16 3.68 16 3 16 C2.86722656 15.26394531 2.73445313 14.52789062 2.59765625 13.76953125 C2.42105469 12.79371094 2.24445312 11.81789063 2.0625 10.8125 C1.80146484 9.36810547 1.80146484 9.36810547 1.53515625 7.89453125 C1.0476265 5.25760028 0.53328895 2.6280095 0 0 Z " fill="#ED7A4B" transform="translate(56,17)"/>
<path d="M0 0 C0.66 0 1.32 0 2 0 C2 0.99 2 1.98 2 3 C-3.21574043 5.19610123 -7.23843227 6.66479628 -13 6 C-15.203125 4.4765625 -15.203125 4.4765625 -17 3 C-16.26394531 3.02320313 -15.52789062 3.04640625 -14.76953125 3.0703125 C-13.30580078 3.09738281 -13.30580078 3.09738281 -11.8125 3.125 C-10.36810547 3.15980469 -10.36810547 3.15980469 -8.89453125 3.1953125 C-5.62244439 2.97452391 -2.40318706 2.40318706 0 0 Z " fill="#F48445" transform="translate(51,44)"/>
<path d="M0 0 C0.66 0 1.32 0 2 0 C1.690625 0.9075 1.38125 1.815 1.0625 2.75 C-0.47689013 8.04506536 -0.65820302 13.52225363 -1 19 C-3.49376105 15.25935842 -3.40333364 12.32595097 -3 8 C-1.71394231 1.71394231 -1.71394231 1.71394231 0 0 Z " fill="#BA39A4" transform="translate(25,18)"/>
<path d="M0 0 C0.33 0 0.66 0 1 0 C1 1.65 1 3.3 1 5 C-0.65 5 -2.3 5 -4 5 C-4 5.99 -4 6.98 -4 8 C-5.98 8 -7.96 8 -10 8 C-10.33 6.68 -10.66 5.36 -11 4 C-7.37 4 -3.74 4 0 4 C0 2.68 0 1.36 0 0 Z " fill="#C9DCE8" transform="translate(164,30)"/>
<path d="M0 0 C1.32 0 2.64 0 4 0 C4 2.97 4 5.94 4 9 C2.68 9 1.36 9 0 9 C0 6.03 0 3.06 0 0 Z " fill="#DF575F" transform="translate(43,20)"/>
<path d="M0 0 C2.4294516 3.6441774 2.16179575 5.71241272 2 10 C2.66 10.33 3.32 10.66 4 11 C3.34 11 2.68 11 2 11 C2 12.65 2 14.3 2 16 C2.66 16.33 3.32 16.66 4 17 C3.01 17 2.02 17 1 17 C1 15.35 1 13.7 1 12 C0.34 12 -0.32 12 -1 12 C-1 11.01 -1 10.02 -1 9 C-0.34 9 0.32 9 1 9 C0.67 6.03 0.34 3.06 0 0 Z " fill="#EB917A" transform="translate(38,20)"/>
<path d="M0 0 C0.99 0 1.98 0 3 0 C3.33 2.64 3.66 5.28 4 8 C2.68 8.33 1.36 8.66 0 9 C0 6.03 0 3.06 0 0 Z " fill="#D45568" transform="translate(35,20)"/>
<path d="M0 0 C2.50037734 2.17424117 3.43628586 3.73045798 4 7 C2.02 7 0.04 7 -2 7 C-1.125 2.25 -1.125 2.25 0 0 Z " fill="#3C3848" transform="translate(176,26)"/>
<path d="M0 0 C1.65 0.33 3.3 0.66 5 1 C5.33 1.99 5.66 2.98 6 4 C3.36 4 0.72 4 -2 4 C-1.34 2.68 -0.68 1.36 0 0 Z " fill="#E1E6E5" transform="translate(155,28)"/>
<path d="M0 0 C1.32 0.33 2.64 0.66 4 1 C4.33 3.31 4.66 5.62 5 8 C4.01 8.495 4.01 8.495 3 9 C2.01 6.03 1.02 3.06 0 0 Z " fill="#2D293F" transform="translate(166,26)"/>
<path d="M0 0 C1.65 0 3.3 0 5 0 C5.33 0.66 5.66 1.32 6 2 C6.66 2 7.32 2 8 2 C7.67 4.31 7.34 6.62 7 9 C6.34 9 5.68 9 5 9 C4.67 6.36 4.34 3.72 4 1 C2.68 0.67 1.36 0.34 0 0 Z " fill="#FCDBE4" transform="translate(35,19)"/>
<path d="M0 0 C0.66 1.32 1.32 2.64 2 4 C-1 6 -1 6 -4 6 C-2.84826645 3.53199953 -1.95216435 1.95216435 0 0 Z " fill="#BB4CD0" transform="translate(28,13)"/>
<path d="M0 0 C0.66 0 1.32 0 2 0 C2 1.65 2 3.3 2 5 C2.99 5.33 3.98 5.66 5 6 C3.35 6.66 1.7 7.32 0 8 C0 5.36 0 2.72 0 0 Z " fill="#FAD3B4" transform="translate(37,32)"/>
<path d="M0 0 C0.99 0.33 1.98 0.66 3 1 C3.8125 2.8125 3.8125 2.8125 4 5 C3.34 6.32 2.68 7.64 2 9 C1.34 6.03 0.68 3.06 0 0 Z " fill="#DD6B73" transform="translate(56,17)"/>
<path d="M0 0 C1.32 0 2.64 0 4 0 C4 1.65 4 3.3 4 5 C3.67 4.34 3.34 3.68 3 3 C2.34 3 1.68 3 1 3 C0.67 3.99 0.34 4.98 0 6 C0 4.02 0 2.04 0 0 Z " fill="#C86683" transform="translate(43,20)"/>
</svg>
