<svg xmlns="http://www.w3.org/2000/svg" width="210" height="66" viewBox="0 0 210 66" version="1.1"><path d="M 21.791 20.227 C 21.542 27.280, 21.236 28.528, 19.679 28.826 C 18.500 29.051, 17.666 28.438, 17.312 27.087 C 16.565 24.229, 12 24.154, 12 27 C 12 28.100, 11.550 29, 11 29 C 10.450 29, 10 26.975, 10 24.500 C 10 19.661, 10.364 19.221, 12.554 21.411 C 14.339 23.197, 18.329 22.300, 17.557 20.287 C 17.250 19.489, 17 18.423, 17 17.918 C 17 16.100, 12.949 13, 10.573 13 C 6.027 13, 4 17.193, 4 26.596 L 4 34.922 12.669 35.211 C 18.742 35.413, 21.469 35.894, 21.775 36.816 C 22.015 37.540, 21.264 38.380, 20.105 38.683 C 17.548 39.351, 17.007 45, 19.500 45 C 20.325 45, 21 45.450, 21 46 C 21 46.550, 18.975 47, 16.500 47 C 12.044 47, 10.540 45.774, 13.570 44.611 C 14.512 44.250, 15.012 43.107, 14.819 41.754 C 14.563 39.954, 13.921 39.541, 11.628 39.705 C 5.278 40.158, 2.913 46.213, 7.635 49.927 C 9.848 51.669, 11.681 52, 19.094 52 L 27.919 52 28.210 43.761 C 28.453 36.847, 28.781 35.468, 30.250 35.188 C 31.461 34.956, 32 35.491, 32 36.927 C 32 38.564, 32.631 39, 35 39 C 37.362 39, 38 38.562, 38 36.941 C 38 35.809, 38.450 35.160, 39 35.500 C 39.550 35.840, 40 38.116, 40 40.559 C 40 43.002, 39.550 45, 39 45 C 38.450 45, 38 44.325, 38 43.500 C 38 42.500, 37 42, 35 42 C 32.739 42, 32 42.459, 32 43.865 C 32 47.024, 35.855 51, 38.918 51 C 43.788 51, 45 48.444, 45 38.171 L 45 29 36.500 29 C 28.667 29, 28 28.843, 28 27 C 28 25.667, 28.667 25, 30 25 C 31.467 25, 32 24.333, 32 22.500 C 32 20.990, 31.429 20, 30.559 20 C 29.766 20, 28.840 19.550, 28.500 19 C 28.119 18.384, 29.823 18, 32.941 18 C 35.723 18, 38 18.450, 38 19 C 38 19.550, 37.325 20, 36.500 20 C 35.567 20, 35 20.944, 35 22.500 C 35 25.814, 38.841 25.901, 42.596 22.671 C 44.750 20.819, 45.167 19.803, 44.640 17.700 C 43.720 14.036, 41.856 13.324, 31.291 12.604 L 22.081 11.976 21.791 20.227 M 53 28.500 C 53 32.833, 53.422 36, 54 36 C 54.550 36, 55 34.650, 55 33 C 55 30.635, 55.437 30, 57.066 30 C 60.400 30, 63 28.101, 63 25.665 C 63 22.403, 61.136 21, 56.800 21 L 53 21 53 28.500 M 110.093 28.500 L 109.895 36 114.447 36 C 116.951 36, 119 35.550, 119 35 C 119 34.450, 117.650 34, 116 34 C 113.467 34, 113 33.611, 113 31.500 C 113 29.500, 113.500 29, 115.500 29 C 116.875 29, 118 28.550, 118 28 C 118 27.450, 116.875 27, 115.500 27 C 113.667 27, 113 26.467, 113 25 C 113 23.444, 113.667 23, 116 23 C 117.650 23, 119 22.550, 119 22 C 119 21.450, 117.041 21, 114.646 21 L 110.292 21 110.093 28.500 M 122 28.500 C 122 32.833, 122.422 36, 123 36 C 123.578 36, 124 32.833, 124 28.500 C 124 24.167, 123.578 21, 123 21 C 122.422 21, 122 24.167, 122 28.500 M 185 22 C 185 22.550, 185.450 23, 186 23 C 186.550 23, 187 22.550, 187 22 C 187 21.450, 186.550 21, 186 21 C 185.450 21, 185 21.450, 185 22 M 148.363 23.792 C 145.923 27.704, 149.916 38.551, 152.702 35.578 C 153.141 35.109, 152.938 34.525, 152.250 34.280 C 150.647 33.707, 150.611 27.296, 152.207 26.764 C 153.026 26.491, 152.773 25.673, 151.422 24.223 C 149.580 22.246, 149.348 22.213, 148.363 23.792 M 55 25.500 C 55 27.470, 55.507 28, 57.393 28 C 59.770 28, 61.521 25.652, 60.444 23.910 C 60.135 23.409, 58.784 23, 57.441 23 C 55.504 23, 55 23.516, 55 25.500 M 66.001 26.499 C 64.926 27.794, 65.183 27.913, 67.878 27.374 C 71.898 26.570, 71.930 28.211, 67.923 29.723 C 65.525 30.628, 64.918 31.394, 65.173 33.192 C 65.453 35.171, 66.105 35.513, 69.750 35.592 C 73.937 35.683, 74 35.634, 74 32.277 C 74 30.402, 73.534 27.998, 72.965 26.934 C 71.734 24.634, 67.755 24.386, 66.001 26.499 M 77 30.378 C 77 33.470, 77.450 36, 78 36 C 78.550 36, 79 34.411, 79 32.469 C 79 30.252, 79.559 28.723, 80.500 28.362 C 82.167 27.722, 82.572 25, 81 25 C 80.450 25, 80 25.505, 80 26.122 C 80 26.898, 79.536 26.860, 78.500 26 C 77.197 24.919, 77 25.493, 77 30.378 M 85.250 25.662 C 82.759 26.667, 84.074 27.935, 87 27.350 C 91.016 26.547, 90.951 28.632, 86.932 29.515 C 81.021 30.813, 82.336 35.878, 88.539 35.702 C 91.908 35.606, 92 35.495, 92 31.502 C 92 25.923, 89.647 23.888, 85.250 25.662 M 96.250 25.662 C 95.563 25.940, 95 27.205, 95 28.475 C 95 30.103, 95.737 30.968, 97.500 31.411 C 101.317 32.369, 100.626 34.296, 96.770 33.449 C 93.862 32.811, 93.674 32.903, 94.892 34.370 C 97.802 37.877, 104.689 34.915, 102.340 31.166 C 101.766 30.250, 100.329 29.356, 99.148 29.180 C 97.967 29.005, 97 28.393, 97 27.822 C 97 27.213, 98.035 27.043, 99.500 27.411 C 102.223 28.094, 102.987 26.593, 100.418 25.607 C 98.647 24.927, 98.052 24.935, 96.250 25.662 M 127.333 27.615 C 125.797 29.959, 125.772 30.504, 127.093 32.865 C 128.815 35.944, 132.127 36.756, 133.959 34.549 C 135.083 33.195, 134.870 33.076, 132.266 33.597 C 130.076 34.035, 129.126 33.770, 128.675 32.596 C 128.187 31.324, 128.766 31, 131.531 31 C 134.205 31, 135 30.587, 135 29.200 C 135 24.665, 129.949 23.621, 127.333 27.615 M 138.333 27.615 C 136.797 29.959, 136.772 30.504, 138.093 32.865 C 139.970 36.221, 143.484 36.832, 144.968 34.061 C 146.077 31.988, 144.728 31.013, 143.500 33 C 142.159 35.170, 140 33.973, 140 31.059 C 140 27.756, 141.606 26.206, 143.287 27.887 C 145.101 29.701, 146.154 29.156, 145 27 C 143.509 24.215, 140.371 24.505, 138.333 27.615 M 155 30.500 C 155 33.525, 155.450 36, 156 36 C 156.550 36, 157 34.573, 157 32.829 C 157 31.085, 157.747 28.832, 158.661 27.823 C 159.574 26.813, 159.999 25.666, 159.606 25.273 C 159.213 24.880, 158.473 25.220, 157.961 26.029 C 157.331 27.025, 157.026 27.097, 157.015 26.250 C 157.007 25.563, 156.550 25, 156 25 C 155.450 25, 155 27.475, 155 30.500 M 162.333 27.615 C 160.797 29.959, 160.772 30.503, 162.094 32.858 C 164.896 37.850, 170 36.378, 170 30.578 C 170 24.788, 165.360 22.995, 162.333 27.615 M 173 30.500 C 173 36.982, 174.596 37.877, 175.229 31.750 C 175.707 27.127, 175.286 25, 173.893 25 C 173.402 25, 173 27.475, 173 30.500 M 176.534 25.945 C 176.175 26.525, 176.584 27, 177.441 27 C 178.622 27, 179 28.091, 179 31.500 C 179 33.982, 179.472 36, 180.052 36 C 180.693 36, 180.986 33.951, 180.802 30.759 C 180.576 26.829, 180.086 25.440, 178.843 25.204 C 177.932 25.031, 176.893 25.364, 176.534 25.945 M 185 30.500 C 185 33.525, 185.450 36, 186 36 C 186.550 36, 187 33.525, 187 30.500 C 187 27.475, 186.550 25, 186 25 C 185.450 25, 185 27.475, 185 30.500 M 190.557 27.223 C 188.646 29.951, 188.584 32.049, 190.344 34.456 C 192.019 36.746, 197 35.866, 197 33.281 C 197 31.974, 196.733 31.867, 195.800 32.800 C 193.984 34.616, 192.212 34.243, 191.465 31.888 C 190.516 28.898, 193.288 26.164, 195.450 27.958 C 196.734 29.024, 197 28.985, 197 27.729 C 197 26.331, 195.037 25, 192.975 25 C 192.501 25, 191.413 26, 190.557 27.223 M 200.250 25.644 C 197.817 26.662, 198.889 30.132, 202 31.306 C 203.650 31.929, 205 32.846, 205 33.344 C 205 33.842, 203.650 33.980, 202 33.650 C 198.337 32.917, 197.959 34.701, 201.585 35.611 C 205.019 36.473, 207.975 33.774, 206.381 31.231 C 205.784 30.279, 204.329 29.356, 203.148 29.180 C 201.967 29.005, 201 28.393, 201 27.822 C 201 27.203, 202.049 27.047, 203.598 27.435 C 205.481 27.908, 206.079 27.731, 205.770 26.794 C 205.314 25.410, 202.306 24.784, 200.250 25.644 M 128.500 28 C 128.149 28.567, 128.990 29, 130.441 29 C 131.848 29, 133 28.550, 133 28 C 133 27.450, 132.127 27, 131.059 27 C 129.991 27, 128.840 27.450, 128.500 28 M 164.067 28.419 C 162.425 30.398, 163.678 34.209, 165.835 33.793 C 166.932 33.582, 167.500 32.483, 167.500 30.570 C 167.500 27.252, 165.879 26.236, 164.067 28.419 M 68.750 30.689 C 66.337 31.320, 66.539 34, 69 34 C 70.333 34, 71 33.333, 71 32 C 71 30.900, 70.888 30.052, 70.750 30.116 C 70.612 30.180, 69.713 30.438, 68.750 30.689 M 85.667 31.667 C 84.302 33.031, 85.069 34.129, 87.172 33.820 C 89.920 33.415, 90.843 31, 88.250 31 C 87.196 31, 86.033 31.300, 85.667 31.667 M 129.803 48.561 C 129.574 50.519, 129.750 52.346, 130.194 52.620 C 130.637 52.894, 131 51.291, 131 49.059 C 131 44.049, 130.361 43.783, 129.803 48.561 M 132.400 46.162 C 131.996 46.816, 132.626 48.088, 133.841 49.072 C 136.629 51.330, 136.592 52.314, 133.750 51.455 C 132.015 50.931, 131.762 51.051, 132.644 51.981 C 134.231 53.656, 137.405 52.851, 137.825 50.668 C 138.050 49.503, 137.435 48.665, 136.098 48.315 C 134.957 48.017, 134.257 47.393, 134.543 46.930 C 134.830 46.467, 135.798 46.369, 136.696 46.714 C 137.787 47.132, 138.088 46.952, 137.605 46.170 C 136.673 44.662, 133.330 44.657, 132.400 46.162 M 139.389 47.585 C 138.527 51.022, 141.227 53.977, 143.769 52.376 C 145.974 50.987, 146.510 48.320, 144.960 46.452 C 143.012 44.104, 140.115 44.693, 139.389 47.585 M 149.754 46.250 C 148.989 48.331, 150.052 50, 152.142 50 C 153.229 50, 153.852 50.430, 153.527 50.956 C 153.202 51.482, 152.275 51.659, 151.468 51.349 C 150.661 51.040, 150 51.284, 150 51.893 C 150 53.668, 153.806 53.168, 154.893 51.250 C 155.822 49.611, 155.979 49.627, 157.381 51.500 C 158.663 53.212, 159.175 53.319, 160.939 52.242 C 162.595 51.230, 163.405 51.230, 165.061 52.242 C 166.820 53.316, 167.333 53.216, 168.561 51.559 C 169.352 50.491, 170 49.340, 170 49 C 170 48.660, 169.352 47.509, 168.561 46.441 C 167.333 44.784, 166.820 44.684, 165.061 45.758 C 163.405 46.770, 162.595 46.770, 160.939 45.758 C 159.199 44.696, 158.674 44.775, 157.571 46.261 C 156.413 47.820, 156.120 47.849, 155.009 46.511 C 153.490 44.681, 150.388 44.526, 149.754 46.250 M 171.382 46.191 C 170.977 46.846, 171.176 47.559, 171.823 47.774 C 173.527 48.342, 173.268 50.076, 171.250 51.608 C 169.680 52.800, 169.834 52.940, 172.750 52.968 C 174.537 52.986, 176 52.550, 176 52 C 176 51.450, 175.550 51, 175 51 C 174.450 51, 174 49.650, 174 48 C 174 44.940, 172.707 44.047, 171.382 46.191 M 180.667 45.667 C 179.362 46.971, 180.025 48.224, 181.411 47.074 C 183.653 45.213, 184.186 47.522, 181.976 49.521 C 179.169 52.062, 179.517 53.005, 183.250 52.968 C 186.035 52.941, 186.269 52.760, 184.883 51.705 C 183.542 50.684, 183.494 50.262, 184.599 49.230 C 185.332 48.545, 185.674 47.313, 185.359 46.493 C 184.775 44.971, 181.873 44.460, 180.667 45.667 M 187.153 46.750 C 186.009 48.934, 187.435 53, 189.345 53 C 191.644 53, 193.277 50.240, 192.593 47.513 C 191.850 44.556, 188.546 44.093, 187.153 46.750 M 194.382 46.191 C 193.977 46.846, 194.176 47.559, 194.823 47.774 C 196.253 48.251, 196.404 51, 195 51 C 194.450 51, 194 51.453, 194 52.006 C 194 52.594, 196.391 52.906, 199.750 52.756 C 204.860 52.529, 205.536 52.249, 205.820 50.250 C 206.107 48.223, 205.170 47.499, 202.750 47.882 C 200.825 48.185, 202.272 46.087, 204.250 45.706 C 206.179 45.334, 206.108 45.253, 203.750 45.136 C 201.912 45.045, 201 45.497, 201 46.500 C 201 47.325, 201.004 48.333, 201.009 48.739 C 201.013 49.146, 201.683 49.484, 202.497 49.489 C 203.312 49.495, 203.983 49.928, 203.989 50.450 C 203.998 51.265, 201.914 51.491, 198 51.100 C 197.450 51.045, 197 49.650, 197 48 C 197 44.940, 195.707 44.047, 194.382 46.191 M 141.386 47.437 C 140.598 49.490, 141.708 52.299, 142.993 51.504 C 143.547 51.162, 144 50.035, 144 49 C 144 46.536, 142.155 45.433, 141.386 47.437 M 151.150 46.950 C 151.370 47.610, 151.876 48.116, 152.275 48.075 C 153.471 47.951, 153.239 46.580, 151.950 46.150 C 151.290 45.930, 150.930 46.290, 151.150 46.950 M 158.386 47.437 C 157.598 49.490, 158.708 52.299, 159.993 51.504 C 160.547 51.162, 161 50.035, 161 49 C 161 46.536, 159.155 45.433, 158.386 47.437 M 165.386 47.437 C 164.598 49.490, 165.708 52.299, 166.993 51.504 C 167.547 51.162, 168 50.035, 168 49 C 168 46.536, 166.155 45.433, 165.386 47.437 M 188.386 47.437 C 187.598 49.490, 188.708 52.299, 189.993 51.504 C 190.547 51.162, 191 50.035, 191 49 C 191 46.536, 189.155 45.433, 188.386 47.437 M 177 48 C 177 48.550, 177.477 49, 178.059 49 C 178.641 49, 178.840 48.550, 178.500 48 C 178.160 47.450, 177.684 47, 177.441 47 C 177.198 47, 177 47.450, 177 48 M 177 52 C 177 52.550, 177.477 53, 178.059 53 C 178.641 53, 178.840 52.550, 178.500 52 C 178.160 51.450, 177.684 51, 177.441 51 C 177.198 51, 177 51.450, 177 52" stroke="none" fill="#b44e33" fill-rule="evenodd"/><path d="M 0 33.005 L 0 66.009 105.250 65.755 L 210.500 65.500 210.764 32.750 L 211.027 0 105.514 0 L 0 0 0 33.005 M 0.448 33.500 C 0.447 51.650, 0.582 59.216, 0.748 50.314 C 0.913 41.411, 0.914 26.561, 0.749 17.314 C 0.583 8.066, 0.448 15.350, 0.448 33.500 M 21.791 20.227 C 21.542 27.280, 21.236 28.528, 19.679 28.826 C 18.500 29.051, 17.666 28.438, 17.312 27.087 C 16.565 24.229, 12 24.154, 12 27 C 12 28.100, 11.550 29, 11 29 C 10.450 29, 10 26.975, 10 24.500 C 10 19.661, 10.364 19.221, 12.554 21.411 C 14.339 23.197, 18.329 22.300, 17.557 20.287 C 17.250 19.489, 17 18.423, 17 17.918 C 17 16.100, 12.949 13, 10.573 13 C 6.027 13, 4 17.193, 4 26.596 L 4 34.922 12.669 35.211 C 18.742 35.413, 21.469 35.894, 21.775 36.816 C 22.015 37.540, 21.264 38.380, 20.105 38.683 C 17.548 39.351, 17.007 45, 19.500 45 C 20.325 45, 21 45.450, 21 46 C 21 46.550, 18.975 47, 16.500 47 C 12.044 47, 10.540 45.774, 13.570 44.611 C 14.512 44.250, 15.012 43.107, 14.819 41.754 C 14.563 39.954, 13.921 39.541, 11.628 39.705 C 5.278 40.158, 2.913 46.213, 7.635 49.927 C 9.848 51.669, 11.681 52, 19.094 52 L 27.919 52 28.210 43.761 C 28.453 36.847, 28.781 35.468, 30.250 35.188 C 31.461 34.956, 32 35.491, 32 36.927 C 32 38.564, 32.631 39, 35 39 C 37.362 39, 38 38.562, 38 36.941 C 38 35.809, 38.450 35.160, 39 35.500 C 39.550 35.840, 40 38.116, 40 40.559 C 40 43.002, 39.550 45, 39 45 C 38.450 45, 38 44.325, 38 43.500 C 38 42.500, 37 42, 35 42 C 32.739 42, 32 42.459, 32 43.865 C 32 47.024, 35.855 51, 38.918 51 C 43.788 51, 45 48.444, 45 38.171 L 45 29 36.500 29 C 28.667 29, 28 28.843, 28 27 C 28 25.667, 28.667 25, 30 25 C 31.467 25, 32 24.333, 32 22.500 C 32 20.990, 31.429 20, 30.559 20 C 29.766 20, 28.840 19.550, 28.500 19 C 28.119 18.384, 29.823 18, 32.941 18 C 35.723 18, 38 18.450, 38 19 C 38 19.550, 37.325 20, 36.500 20 C 35.567 20, 35 20.944, 35 22.500 C 35 25.814, 38.841 25.901, 42.596 22.671 C 44.750 20.819, 45.167 19.803, 44.640 17.700 C 43.720 14.036, 41.856 13.324, 31.291 12.604 L 22.081 11.976 21.791 20.227 M 53 28.500 C 53 32.833, 53.422 36, 54 36 C 54.550 36, 55 34.650, 55 33 C 55 30.635, 55.437 30, 57.066 30 C 60.400 30, 63 28.101, 63 25.665 C 63 22.403, 61.136 21, 56.800 21 L 53 21 53 28.500 M 110.093 28.500 L 109.895 36 114.447 36 C 116.951 36, 119 35.550, 119 35 C 119 34.450, 117.650 34, 116 34 C 113.467 34, 113 33.611, 113 31.500 C 113 29.500, 113.500 29, 115.500 29 C 116.875 29, 118 28.550, 118 28 C 118 27.450, 116.875 27, 115.500 27 C 113.667 27, 113 26.467, 113 25 C 113 23.444, 113.667 23, 116 23 C 117.650 23, 119 22.550, 119 22 C 119 21.450, 117.041 21, 114.646 21 L 110.292 21 110.093 28.500 M 122 28.500 C 122 32.833, 122.422 36, 123 36 C 123.578 36, 124 32.833, 124 28.500 C 124 24.167, 123.578 21, 123 21 C 122.422 21, 122 24.167, 122 28.500 M 185 22 C 185 22.550, 185.450 23, 186 23 C 186.550 23, 187 22.550, 187 22 C 187 21.450, 186.550 21, 186 21 C 185.450 21, 185 21.450, 185 22 M 148.363 23.792 C 145.923 27.704, 149.916 38.551, 152.702 35.578 C 153.141 35.109, 152.938 34.525, 152.250 34.280 C 150.647 33.707, 150.611 27.296, 152.207 26.764 C 153.026 26.491, 152.773 25.673, 151.422 24.223 C 149.580 22.246, 149.348 22.213, 148.363 23.792 M 55 25.500 C 55 27.470, 55.507 28, 57.393 28 C 59.770 28, 61.521 25.652, 60.444 23.910 C 60.135 23.409, 58.784 23, 57.441 23 C 55.504 23, 55 23.516, 55 25.500 M 66.001 26.499 C 64.926 27.794, 65.183 27.913, 67.878 27.374 C 71.898 26.570, 71.930 28.211, 67.923 29.723 C 65.525 30.628, 64.918 31.394, 65.173 33.192 C 65.453 35.171, 66.105 35.513, 69.750 35.592 C 73.937 35.683, 74 35.634, 74 32.277 C 74 30.402, 73.534 27.998, 72.965 26.934 C 71.734 24.634, 67.755 24.386, 66.001 26.499 M 77 30.378 C 77 33.470, 77.450 36, 78 36 C 78.550 36, 79 34.411, 79 32.469 C 79 30.252, 79.559 28.723, 80.500 28.362 C 82.167 27.722, 82.572 25, 81 25 C 80.450 25, 80 25.505, 80 26.122 C 80 26.898, 79.536 26.860, 78.500 26 C 77.197 24.919, 77 25.493, 77 30.378 M 85.250 25.662 C 82.759 26.667, 84.074 27.935, 87 27.350 C 91.016 26.547, 90.951 28.632, 86.932 29.515 C 81.021 30.813, 82.336 35.878, 88.539 35.702 C 91.908 35.606, 92 35.495, 92 31.502 C 92 25.923, 89.647 23.888, 85.250 25.662 M 96.250 25.662 C 95.563 25.940, 95 27.205, 95 28.475 C 95 30.103, 95.737 30.968, 97.500 31.411 C 101.317 32.369, 100.626 34.296, 96.770 33.449 C 93.862 32.811, 93.674 32.903, 94.892 34.370 C 97.802 37.877, 104.689 34.915, 102.340 31.166 C 101.766 30.250, 100.329 29.356, 99.148 29.180 C 97.967 29.005, 97 28.393, 97 27.822 C 97 27.213, 98.035 27.043, 99.500 27.411 C 102.223 28.094, 102.987 26.593, 100.418 25.607 C 98.647 24.927, 98.052 24.935, 96.250 25.662 M 127.333 27.615 C 125.797 29.959, 125.772 30.504, 127.093 32.865 C 128.815 35.944, 132.127 36.756, 133.959 34.549 C 135.083 33.195, 134.870 33.076, 132.266 33.597 C 130.076 34.035, 129.126 33.770, 128.675 32.596 C 128.187 31.324, 128.766 31, 131.531 31 C 134.205 31, 135 30.587, 135 29.200 C 135 24.665, 129.949 23.621, 127.333 27.615 M 138.333 27.615 C 136.797 29.959, 136.772 30.504, 138.093 32.865 C 139.970 36.221, 143.484 36.832, 144.968 34.061 C 146.077 31.988, 144.728 31.013, 143.500 33 C 142.159 35.170, 140 33.973, 140 31.059 C 140 27.756, 141.606 26.206, 143.287 27.887 C 145.101 29.701, 146.154 29.156, 145 27 C 143.509 24.215, 140.371 24.505, 138.333 27.615 M 155 30.500 C 155 33.525, 155.450 36, 156 36 C 156.550 36, 157 34.573, 157 32.829 C 157 31.085, 157.747 28.832, 158.661 27.823 C 159.574 26.813, 159.999 25.666, 159.606 25.273 C 159.213 24.880, 158.473 25.220, 157.961 26.029 C 157.331 27.025, 157.026 27.097, 157.015 26.250 C 157.007 25.563, 156.550 25, 156 25 C 155.450 25, 155 27.475, 155 30.500 M 162.333 27.615 C 160.797 29.959, 160.772 30.503, 162.094 32.858 C 164.896 37.850, 170 36.378, 170 30.578 C 170 24.788, 165.360 22.995, 162.333 27.615 M 173 30.500 C 173 36.982, 174.596 37.877, 175.229 31.750 C 175.707 27.127, 175.286 25, 173.893 25 C 173.402 25, 173 27.475, 173 30.500 M 176.534 25.945 C 176.175 26.525, 176.584 27, 177.441 27 C 178.622 27, 179 28.091, 179 31.500 C 179 33.982, 179.472 36, 180.052 36 C 180.693 36, 180.986 33.951, 180.802 30.759 C 180.576 26.829, 180.086 25.440, 178.843 25.204 C 177.932 25.031, 176.893 25.364, 176.534 25.945 M 185 30.500 C 185 33.525, 185.450 36, 186 36 C 186.550 36, 187 33.525, 187 30.500 C 187 27.475, 186.550 25, 186 25 C 185.450 25, 185 27.475, 185 30.500 M 190.557 27.223 C 188.646 29.951, 188.584 32.049, 190.344 34.456 C 192.019 36.746, 197 35.866, 197 33.281 C 197 31.974, 196.733 31.867, 195.800 32.800 C 193.984 34.616, 192.212 34.243, 191.465 31.888 C 190.516 28.898, 193.288 26.164, 195.450 27.958 C 196.734 29.024, 197 28.985, 197 27.729 C 197 26.331, 195.037 25, 192.975 25 C 192.501 25, 191.413 26, 190.557 27.223 M 200.250 25.644 C 197.817 26.662, 198.889 30.132, 202 31.306 C 203.650 31.929, 205 32.846, 205 33.344 C 205 33.842, 203.650 33.980, 202 33.650 C 198.337 32.917, 197.959 34.701, 201.585 35.611 C 205.019 36.473, 207.975 33.774, 206.381 31.231 C 205.784 30.279, 204.329 29.356, 203.148 29.180 C 201.967 29.005, 201 28.393, 201 27.822 C 201 27.203, 202.049 27.047, 203.598 27.435 C 205.481 27.908, 206.079 27.731, 205.770 26.794 C 205.314 25.410, 202.306 24.784, 200.250 25.644 M 128.500 28 C 128.149 28.567, 128.990 29, 130.441 29 C 131.848 29, 133 28.550, 133 28 C 133 27.450, 132.127 27, 131.059 27 C 129.991 27, 128.840 27.450, 128.500 28 M 164.067 28.419 C 162.425 30.398, 163.678 34.209, 165.835 33.793 C 166.932 33.582, 167.500 32.483, 167.500 30.570 C 167.500 27.252, 165.879 26.236, 164.067 28.419 M 68.750 30.689 C 66.337 31.320, 66.539 34, 69 34 C 70.333 34, 71 33.333, 71 32 C 71 30.900, 70.888 30.052, 70.750 30.116 C 70.612 30.180, 69.713 30.438, 68.750 30.689 M 85.667 31.667 C 84.302 33.031, 85.069 34.129, 87.172 33.820 C 89.920 33.415, 90.843 31, 88.250 31 C 87.196 31, 86.033 31.300, 85.667 31.667 M 129.803 48.561 C 129.574 50.519, 129.750 52.346, 130.194 52.620 C 130.637 52.894, 131 51.291, 131 49.059 C 131 44.049, 130.361 43.783, 129.803 48.561 M 132.400 46.162 C 131.996 46.816, 132.626 48.088, 133.841 49.072 C 136.629 51.330, 136.592 52.314, 133.750 51.455 C 132.015 50.931, 131.762 51.051, 132.644 51.981 C 134.231 53.656, 137.405 52.851, 137.825 50.668 C 138.050 49.503, 137.435 48.665, 136.098 48.315 C 134.957 48.017, 134.257 47.393, 134.543 46.930 C 134.830 46.467, 135.798 46.369, 136.696 46.714 C 137.787 47.132, 138.088 46.952, 137.605 46.170 C 136.673 44.662, 133.330 44.657, 132.400 46.162 M 139.389 47.585 C 138.527 51.022, 141.227 53.977, 143.769 52.376 C 145.974 50.987, 146.510 48.320, 144.960 46.452 C 143.012 44.104, 140.115 44.693, 139.389 47.585 M 149.754 46.250 C 148.989 48.331, 150.052 50, 152.142 50 C 153.229 50, 153.852 50.430, 153.527 50.956 C 153.202 51.482, 152.275 51.659, 151.468 51.349 C 150.661 51.040, 150 51.284, 150 51.893 C 150 53.668, 153.806 53.168, 154.893 51.250 C 155.822 49.611, 155.979 49.627, 157.381 51.500 C 158.663 53.212, 159.175 53.319, 160.939 52.242 C 162.595 51.230, 163.405 51.230, 165.061 52.242 C 166.820 53.316, 167.333 53.216, 168.561 51.559 C 169.352 50.491, 170 49.340, 170 49 C 170 48.660, 169.352 47.509, 168.561 46.441 C 167.333 44.784, 166.820 44.684, 165.061 45.758 C 163.405 46.770, 162.595 46.770, 160.939 45.758 C 159.199 44.696, 158.674 44.775, 157.571 46.261 C 156.413 47.820, 156.120 47.849, 155.009 46.511 C 153.490 44.681, 150.388 44.526, 149.754 46.250 M 171.382 46.191 C 170.977 46.846, 171.176 47.559, 171.823 47.774 C 173.527 48.342, 173.268 50.076, 171.250 51.608 C 169.680 52.800, 169.834 52.940, 172.750 52.968 C 174.537 52.986, 176 52.550, 176 52 C 176 51.450, 175.550 51, 175 51 C 174.450 51, 174 49.650, 174 48 C 174 44.940, 172.707 44.047, 171.382 46.191 M 180.667 45.667 C 179.362 46.971, 180.025 48.224, 181.411 47.074 C 183.653 45.213, 184.186 47.522, 181.976 49.521 C 179.169 52.062, 179.517 53.005, 183.250 52.968 C 186.035 52.941, 186.269 52.760, 184.883 51.705 C 183.542 50.684, 183.494 50.262, 184.599 49.230 C 185.332 48.545, 185.674 47.313, 185.359 46.493 C 184.775 44.971, 181.873 44.460, 180.667 45.667 M 187.153 46.750 C 186.009 48.934, 187.435 53, 189.345 53 C 191.644 53, 193.277 50.240, 192.593 47.513 C 191.850 44.556, 188.546 44.093, 187.153 46.750 M 194.382 46.191 C 193.977 46.846, 194.176 47.559, 194.823 47.774 C 196.253 48.251, 196.404 51, 195 51 C 194.450 51, 194 51.453, 194 52.006 C 194 52.594, 196.391 52.906, 199.750 52.756 C 204.860 52.529, 205.536 52.249, 205.820 50.250 C 206.107 48.223, 205.170 47.499, 202.750 47.882 C 200.825 48.185, 202.272 46.087, 204.250 45.706 C 206.179 45.334, 206.108 45.253, 203.750 45.136 C 201.912 45.045, 201 45.497, 201 46.500 C 201 47.325, 201.004 48.333, 201.009 48.739 C 201.013 49.146, 201.683 49.484, 202.497 49.489 C 203.312 49.495, 203.983 49.928, 203.989 50.450 C 203.998 51.265, 201.914 51.491, 198 51.100 C 197.450 51.045, 197 49.650, 197 48 C 197 44.940, 195.707 44.047, 194.382 46.191 M 141.386 47.437 C 140.598 49.490, 141.708 52.299, 142.993 51.504 C 143.547 51.162, 144 50.035, 144 49 C 144 46.536, 142.155 45.433, 141.386 47.437 M 151.150 46.950 C 151.370 47.610, 151.876 48.116, 152.275 48.075 C 153.471 47.951, 153.239 46.580, 151.950 46.150 C 151.290 45.930, 150.930 46.290, 151.150 46.950 M 158.386 47.437 C 157.598 49.490, 158.708 52.299, 159.993 51.504 C 160.547 51.162, 161 50.035, 161 49 C 161 46.536, 159.155 45.433, 158.386 47.437 M 165.386 47.437 C 164.598 49.490, 165.708 52.299, 166.993 51.504 C 167.547 51.162, 168 50.035, 168 49 C 168 46.536, 166.155 45.433, 165.386 47.437 M 188.386 47.437 C 187.598 49.490, 188.708 52.299, 189.993 51.504 C 190.547 51.162, 191 50.035, 191 49 C 191 46.536, 189.155 45.433, 188.386 47.437 M 177 48 C 177 48.550, 177.477 49, 178.059 49 C 178.641 49, 178.840 48.550, 178.500 48 C 178.160 47.450, 177.684 47, 177.441 47 C 177.198 47, 177 47.450, 177 48 M 177 52 C 177 52.550, 177.477 53, 178.059 53 C 178.641 53, 178.840 52.550, 178.500 52 C 178.160 51.450, 177.684 51, 177.441 51 C 177.198 51, 177 51.450, 177 52" stroke="none" fill="#f7f7f7" fill-rule="evenodd"/></svg>