<?xml version="1.0" encoding="UTF-8"?>
<svg version="1.1" xmlns="http://www.w3.org/2000/svg" width="1370" height="260">
<path d="M0 0 C406.56 0 813.12 0 1232 0 C1232 25.08 1232 50.16 1232 76 C1094.06 76 956.12 76 814 76 C804.73743438 55.93110781 796.50126649 35.40303957 788 15 C527.96 14.67 267.92 14.34 0 14 C0 9.38 0 4.76 0 0 Z " fill="#0E5A94" transform="translate(138,184)"/>
<path d="M0 0 C251.13 0 502.26 0 761 0 C761 4.62 761 9.24 761 14 C509.87 14 258.74 14 0 14 C0 9.38 0 4.76 0 0 Z " fill="#D83336" transform="translate(138,184)"/>
<path d="M0 0 C102.63 0 205.26 0 311 0 C311 4.62 311 9.24 311 14 C208.37 14 105.74 14 0 14 C0 9.38 0 4.76 0 0 Z " fill="#FAD328" transform="translate(138,184)"/>
<path d="M0 0 C1.87792969 0.13574219 1.87792969 0.13574219 4 1 C5.52050781 3.07519531 5.52050781 3.07519531 6.953125 5.828125 C7.75266602 7.35348877 7.75266602 7.35348877 8.56835938 8.90966797 C9.12330078 10.01197754 9.67824219 11.11428711 10.25 12.25 C10.82556641 13.37937988 11.40113281 14.50875977 11.99414062 15.67236328 C15.47344467 22.62218524 18.70446594 29.62225078 21.5 36.875 C21.78907227 37.61911133 22.07814453 38.36322266 22.37597656 39.12988281 C23.32965082 41.73231952 24.1694173 44.35553047 25 47 C25.20679382 47.61228455 25.41358765 48.22456909 25.62664795 48.85540771 C30.15203523 62.45839751 30.77821835 75.5129234 30.65185547 89.77832031 C30.6250843 93.36370998 30.65172229 96.94595558 30.68359375 100.53125 C30.70595952 115.00551838 29.25672683 128.15114386 25 142 C24.67032227 143.07958984 24.34064453 144.15917969 24.00097656 145.27148438 C23.1799293 147.74094885 22.28391489 150.14879949 21.3125 152.5625 C20.8170166 153.82912476 20.8170166 153.82912476 20.31152344 155.12133789 C15.61719348 166.82356994 10.24805389 178.64326245 3 189 C1.68 188.67 0.36 188.34 -1 188 C-1.02332615 163.63550078 -1.04097777 139.27100322 -1.05181217 114.90649509 C-1.05697574 103.59447927 -1.06401958 92.28247037 -1.07543945 80.97045898 C-1.08538445 71.11472298 -1.09185299 61.25899199 -1.09408849 51.40325111 C-1.09539592 46.18128364 -1.09848374 40.95933052 -1.10573006 35.73736763 C-1.11248737 30.82829892 -1.11461755 25.91925054 -1.11310768 21.01017761 C-1.11338414 19.20291979 -1.11539097 17.39566133 -1.11920547 15.58840752 C-1.12413823 13.13207875 -1.12299985 10.67582804 -1.12025452 8.21949768 C-1.12316736 7.49480319 -1.1260802 6.7701087 -1.12908131 6.02345377 C-1.11412121 1.11412121 -1.11412121 1.11412121 0 0 Z " fill="#245C8F" transform="translate(86,0)"/>
<path d="M0 0 C23.1 0 46.2 0 70 0 C60.78985364 18.42029272 60.78985364 18.42029272 57.703125 24.2265625 C57.34745453 24.8989798 56.99178406 25.57139709 56.62533569 26.26419067 C55.50230276 28.38557039 54.37638211 30.50539697 53.25 32.625 C52.66372833 33.73035095 52.66372833 33.73035095 52.06561279 34.85803223 C45.94404682 46.39924534 39.74839598 57.89755762 33.45605469 69.34667969 C30.71019116 74.350376 27.98157052 79.36349152 25.25 84.375 C24.23444034 86.2370148 23.21882181 88.0989975 22.203125 89.9609375 C21.77676758 90.74259277 21.35041016 91.52424805 20.91113281 92.32958984 C20.46012207 93.15644287 20.46012207 93.15644287 20 94 C23.45825936 94.05898369 26.9163862 94.09392131 30.375 94.125 C31.82326172 94.15013672 31.82326172 94.15013672 33.30078125 94.17578125 C43.86193672 94.24666149 52.88180655 93.23002257 61 86 C66.72769023 79.672752 68.86737254 72.11652921 71 64 C72.32 64 73.64 64 75 64 C74.3345342 76.38116641 73.17700308 88.64146767 72 101 C45.27 101 18.54 101 -9 101 C-7.51839948 97.29599869 -5.98931338 93.90374176 -4.1640625 90.37890625 C-3.31944458 88.74659058 -3.31944458 88.74659058 -2.45776367 87.08129883 C-1.85295166 85.92009521 -1.24813965 84.7588916 -0.625 83.5625 C-0.312211 82.96053802 0.000578 82.35857605 0.32284546 81.7383728 C4.85804036 73.01345446 9.49235755 64.34756547 14.23217773 55.73193359 C19.63476692 45.89363763 24.87828283 35.97140632 30.1262207 26.05004883 C33.68381419 19.3288158 37.26010724 12.62228073 41 6 C24.42396429 5.36420968 24.42396429 5.36420968 10 12 C5.70163491 17.3914838 3.16475713 23.50572861 1 30 C0.01 30 -0.98 30 -2 30 C-1.85957505 26.49976144 -1.71166774 22.99987601 -1.5625 19.5 C-1.52318359 18.51773438 -1.48386719 17.53546875 -1.44335938 16.5234375 C-1.40146484 15.55664062 -1.35957031 14.58984375 -1.31640625 13.59375 C-1.27974854 12.71396484 -1.24309082 11.83417969 -1.20532227 10.92773438 C-0.9489484 7.27204425 -0.45454623 3.63636983 0 0 Z " fill="#44A451" transform="translate(149,47)"/>
<path d="M0 0 C4.44732447 2.22366224 7.10584781 4.99271235 10 9 C10.7425 8.236875 11.485 7.47375 12.25 6.6875 C17.72177441 1.3400841 21.7629625 -0.48124594 29.421875 -0.4140625 C33.77347846 0.28483139 36.27512492 2.66162965 39 6 C42.76408386 12.5015994 42.17305314 21.41156492 42.31640625 28.75 C42.33718735 29.64871826 42.35796844 30.54743652 42.37937927 31.47338867 C42.44423053 34.31552236 42.50345696 37.15774033 42.5625 40 C42.60574665 41.93881044 42.64936279 43.87761268 42.69335938 45.81640625 C42.79984487 50.54418671 42.90128947 55.27205107 43 60 C44.98 60.495 44.98 60.495 47 61 C47 61.99 47 62.98 47 64 C37.76 64 28.52 64 19 64 C19 63.01 19 62.02 19 61 C20.98 60.505 20.98 60.505 23 60 C23.95862759 55.16144079 24.16076698 50.44670214 24.16796875 45.53125 C24.17129715 44.73271606 24.17462555 43.93418213 24.17805481 43.1114502 C24.18309575 41.4305885 24.18546402 39.7497169 24.18530273 38.06884766 C24.18749318 35.50796991 24.20568961 32.94752067 24.22460938 30.38671875 C24.22754317 28.7473973 24.22952806 27.10807381 24.23046875 25.46875 C24.24124702 24.32944031 24.24124702 24.32944031 24.25224304 23.16711426 C24.233298 18.727712 23.64559181 15.12518929 22 11 C16.91215573 11.27739903 16.91215573 11.27739903 12.79223633 14.02539062 C10.48645342 17.85234321 10.47542727 21.07363117 10.57421875 25.40625 C10.57750687 26.20857056 10.58079498 27.01089111 10.58418274 27.83752441 C10.59988336 30.39223812 10.64390755 32.94562678 10.6875 35.5 C10.69899708 37.2174372 10.70878055 38.93488678 10.71679688 40.65234375 C10.73022407 42.2994925 10.7451479 43.94662987 10.76171875 45.59375 C10.76910568 46.36158813 10.77649261 47.12942627 10.78410339 47.92053223 C10.88170046 53.53078607 10.88170046 53.53078607 12 59 C13.96758273 60.36020151 13.96758273 60.36020151 16 61 C16 61.99 16 62.98 16 64 C6.76 64 -2.48 64 -12 64 C-12 63.01 -12 62.02 -12 61 C-10.02 60.505 -10.02 60.505 -8 60 C-7.92403314 53.36148394 -7.87143544 46.72307965 -7.83520508 40.08422852 C-7.82010398 37.82507132 -7.79962158 35.56594351 -7.77368164 33.30688477 C-7.73735692 30.06258907 -7.72028692 26.81868044 -7.70703125 23.57421875 C-7.69154739 22.56163498 -7.67606354 21.54905121 -7.66011047 20.50578308 C-7.65977058 19.09465996 -7.65977058 19.09465996 -7.65942383 17.6550293 C-7.65276199 16.82674118 -7.64610016 15.99845306 -7.63923645 15.14506531 C-8.07939974 12.52789679 -8.9790154 11.65244463 -11 10 C-15.47066511 11.36603656 -17.52202247 13.03282508 -20 17 C-20.55469845 19.96670237 -20.51404115 22.86835378 -20.4609375 25.87890625 C-20.46002106 26.72799057 -20.45910461 27.57707489 -20.4581604 28.45188904 C-20.452135 30.24133924 -20.43642088 32.03077986 -20.41162109 33.82006836 C-20.37507536 36.55685628 -20.37060223 39.29229018 -20.37109375 42.02929688 C-20.36126315 43.77084502 -20.34960639 45.51238401 -20.3359375 47.25390625 C-20.33371185 48.07065323 -20.33148621 48.88740021 -20.32919312 49.72889709 C-20.3292215 55.21386125 -20.3292215 55.21386125 -18 60 C-16.515 60.495 -16.515 60.495 -15 61 C-15 61.99 -15 62.98 -15 64 C-24.24 64 -33.48 64 -43 64 C-43 63.01 -43 62.02 -43 61 C-41.02 60.505 -41.02 60.505 -39 60 C-39 42.18 -39 24.36 -39 6 C-40.32 5.67 -41.64 5.34 -43 5 C-43 4.01 -43 3.02 -43 2 C-35.74 2 -28.48 2 -21 2 C-20.67 3.65 -20.34 5.3 -20 7 C-19.52949219 6.57847656 -19.05898438 6.15695313 -18.57421875 5.72265625 C-17.95160156 5.17480469 -17.32898438 4.62695312 -16.6875 4.0625 C-16.07261719 3.51722656 -15.45773437 2.97195312 -14.82421875 2.41015625 C-10.53930677 -0.90216329 -5.15775997 -0.57934277 0 0 Z " fill="#44A451" transform="translate(338,84)"/>
<path d="M0 0 C7.11190463 2.60038804 10.24472894 12.24025691 13.26220703 18.70361328 C14.60545685 21.68431028 15.90498008 24.68019532 17.1875 27.6875 C17.5911377 28.6170752 17.99477539 29.54665039 18.41064453 30.50439453 C25.32021345 47.17263537 27.82874875 62.69336746 27.65185547 80.69702148 C27.6250508 83.93136982 27.65175341 87.16224045 27.68359375 90.39648438 C27.7161819 108.54799591 24.48773817 124.71559421 17.1875 141.375 C16.75808105 142.37668213 16.32866211 143.37836426 15.88623047 144.41040039 C6.47966467 165.95710854 6.47966467 165.95710854 1.8359375 167.91015625 C1.23007812 167.93980469 0.62421875 167.96945313 0 168 C-1.85147341 166.14852659 -1.12621457 163.1040069 -1.12698364 160.62916565 C-1.12854363 159.95593622 -1.13010362 159.28270678 -1.13171089 158.58907646 C-1.1357229 156.31660536 -1.13253047 154.0442002 -1.12939453 151.77172852 C-1.1307485 150.14923056 -1.1325284 148.5267329 -1.13470459 146.90423584 C-1.13927986 142.48487261 -1.13748889 138.06553261 -1.1343255 133.64616895 C-1.13180195 129.03062707 -1.13413947 124.41508724 -1.13571167 119.79954529 C-1.13753356 112.04596599 -1.13512673 104.29239621 -1.13037109 96.53881836 C-1.12493035 87.56440931 -1.12668969 78.59002297 -1.1321975 69.61561447 C-1.13673035 61.92305575 -1.13737827 54.23050388 -1.13475883 46.53794426 C-1.13319676 41.93803309 -1.13300034 37.33813261 -1.13629532 32.73822212 C-1.13917646 28.41352394 -1.13719383 24.08885515 -1.13140106 19.76416016 C-1.13007469 18.17340583 -1.13046551 16.58264904 -1.13266373 14.99189568 C-1.13538009 12.82716932 -1.13198808 10.66253822 -1.12698364 8.49781799 C-1.12660662 7.28419366 -1.12622959 6.07056932 -1.12584114 4.8201685 C-1 2 -1 2 0 0 Z " fill="#D23438" transform="translate(51,10)"/>
<path d="M0 0 C6.20722892 -0.09959145 12.41398288 -0.17180805 18.62182617 -0.21972656 C20.72933057 -0.23972278 22.83678034 -0.26692893 24.9440918 -0.30175781 C49.67059758 -0.69991135 49.67059758 -0.69991135 59.4375 6.1875 C65.43329211 12.76824744 66.63336255 19.19139385 66.31640625 27.984375 C65.59206374 34.88798509 62.31328857 40.52038641 57 45 C49.88885844 48.88413837 42.80937897 50.04186072 34.78125 50.015625 C33.88470703 50.01336914 32.98816406 50.01111328 32.06445312 50.00878906 C31.38318359 50.00588867 30.70191406 50.00298828 30 50 C30.04419246 54.48477238 30.11406369 58.96819505 30.20751953 63.45214844 C30.23570535 64.97677431 30.25693189 66.50154566 30.27099609 68.02636719 C30.29246049 70.22145936 30.33912169 72.41480711 30.390625 74.609375 C30.41157227 75.92905273 30.43251953 77.24873047 30.45410156 78.60839844 C31.07982807 82.49596221 31.85927707 83.70076981 35 86 C38.14481791 86.80315654 38.14481791 86.80315654 41 87 C41 87.99 41 88.98 41 90 C27.47 90 13.94 90 0 90 C0 89.01 0 88.02 0 87 C2.01822917 86.54427083 4.03645833 86.08854167 6.0546875 85.6328125 C8.20719964 85.09525572 8.20719964 85.09525572 10 83 C10.32230256 79.78913399 10.32230256 79.78913399 10.29052734 75.95166016 C10.29724457 75.22627548 10.30396179 74.50089081 10.31088257 73.75352478 C10.32992504 71.34863488 10.33378999 68.94402317 10.3359375 66.5390625 C10.34236159 64.86998376 10.34908966 63.20090617 10.35610962 61.53182983 C10.36809836 58.02965687 10.37178886 54.52758267 10.37060547 51.02539062 C10.3704023 46.53708537 10.39769469 42.04941347 10.43214989 37.56125832 C10.4543867 34.1125701 10.45844399 30.66403501 10.45738602 27.21528244 C10.45974722 25.56066074 10.4685999 23.90603516 10.48405075 22.25148392 C10.50364464 19.93624812 10.49789973 17.62238677 10.48583984 15.30712891 C10.48868988 13.98967682 10.49153992 12.67222473 10.49447632 11.31484985 C10.26313259 7.94657774 10.26313259 7.94657774 8.17276001 5.59017944 C5.47608561 3.6165624 3.29339088 3.29939917 0 3 C0 2.01 0 1.02 0 0 Z M30 6 C30 18.54 30 31.08 30 44 C38.59146154 43.1186692 38.59146154 43.1186692 44 38 C47.48217697 31.33377764 47.12839604 21.46229341 45.3125 14.28125 C43.81677044 10.94078732 42.11577633 9.08054005 39.125 7 C35.59442605 5.69522427 35.59442605 5.69522427 30 6 Z " fill="#44A451" transform="translate(980,58)"/>
<path d="M0 0 C8.25 0 16.5 0 25 0 C25.02505615 2.37743408 25.0501123 4.75486816 25.07592773 7.2043457 C25.15933158 15.05145741 25.24802651 22.89850285 25.33933926 30.74552631 C25.39454946 35.504074 25.44796648 40.26262786 25.49731445 45.02124023 C25.54498598 49.61187827 25.5973299 54.20244124 25.65294075 58.79298973 C25.67335164 60.54608483 25.69206682 62.2992005 25.70907402 64.05233192 C25.73314599 66.50412063 25.76319678 68.95576751 25.79467773 71.4074707 C25.80331093 72.49935448 25.80331093 72.49935448 25.81211853 73.61329651 C25.85692917 76.67508 26.02400905 79.07202714 27 82 C29.50447516 83.21869929 29.50447516 83.21869929 32 84 C32 84.99 32 85.98 32 87 C29.50145233 87.65192688 27.0013863 88.29663064 24.5 88.9375 C23.80390625 89.11990234 23.1078125 89.30230469 22.390625 89.49023438 C17.60162506 90.70965566 12.91462529 91.47422365 8 92 C7.67 90.02 7.34 88.04 7 86 C6.05125 86.804375 5.1025 87.60875 4.125 88.4375 C-0.02120783 91.95276316 -2.91887436 92.41404943 -8.33203125 92.3359375 C-13.52530292 91.68202628 -17.07360409 89.17221206 -20.5 85.30859375 C-27.28800161 75.63165098 -27.9227301 63.41724715 -27 52 C-25.4795141 43.55975172 -22.6455707 33.93906865 -15.28125 28.80078125 C-10.28098662 25.97325136 -5.69485403 25.07621643 0 26 C2.96912882 27.38980498 4.69657028 28.69657028 7 31 C7.02892857 27.04168191 7.04677427 23.08339083 7.0625 19.125 C7.07506836 17.43310547 7.07506836 17.43310547 7.08789062 15.70703125 C7.09111328 14.63066406 7.09433594 13.55429688 7.09765625 12.4453125 C7.10289307 11.45031738 7.10812988 10.45532227 7.11352539 9.43017578 C7.1639415 6.99039227 7.1639415 6.99039227 6 5 C2.97065509 4.34227572 2.97065509 4.34227572 0 4 C0 2.68 0 1.36 0 0 Z M-3 33 C-9.46993468 40.33259264 -9.3388054 47.4063226 -9.3125 56.75 C-9.32861328 57.87921875 -9.34472656 59.0084375 -9.36132812 60.171875 C-9.36554151 67.45260812 -9.35406418 75.81534526 -4.5793457 81.77246094 C-2.94682929 83.30044683 -2.94682929 83.30044683 -0.0625 83 C3.70016147 81.77137585 4.85245316 80.26108965 7 77 C9.28321306 72.43357388 8.35339441 65.77636135 8.4050293 60.70727539 C8.42655806 59.11948834 8.4606009 57.53181833 8.50756836 55.94458008 C9.19134663 45.58993816 9.19134663 45.58993816 5.15234375 36.4765625 C2.65726667 34.1590696 0.47897001 33.10232265 -3 33 Z " fill="#44A451" transform="translate(1265,58)"/>
<path d="M0 0 C2.23176958 1.23375306 2.23176958 1.23375306 4.36328125 1.09375 C5.02328125 -0.55625 5.68328125 -2.20625 6.36328125 -3.90625 C7.35328125 -3.90625 8.34328125 -3.90625 9.36328125 -3.90625 C9.36328125 6.32375 9.36328125 16.55375 9.36328125 27.09375 C8.37328125 27.09375 7.38328125 27.09375 6.36328125 27.09375 C6.14414062 26.3203125 5.925 25.546875 5.69921875 24.75 C3.21159423 16.57926579 0.38351842 9.48224145 -6.94921875 4.59375 C-11.40427162 2.7815251 -14.9014257 2.1140342 -19.63671875 3.09375 C-22.49439763 4.44204943 -23.49092749 5.57244527 -25.63671875 8.09375 C-26.85086588 12.02187307 -26.90019421 14.2330635 -25.69921875 18.15625 C-21.7427206 23.79126252 -16.08010539 26.86158124 -10.22119141 30.26416016 C0.12161134 36.29252189 10.96818002 42.86114909 14.36328125 55.09375 C15.44986614 63.60043713 14.94576068 71.68733367 10.36328125 79.09375 C6.07352701 84.53736439 1.96786263 87.78387547 -4.63671875 90.09375 C-7.36892213 90.40008795 -9.79367693 90.57021482 -12.51171875 90.53125 C-13.21208252 90.52875244 -13.91244629 90.52625488 -14.6340332 90.52368164 C-19.73942557 90.39065173 -23.42851229 89.31808661 -27.875 86.9296875 C-29.74480431 85.88122448 -29.74480431 85.88122448 -32.51171875 86.15625 C-34.78719927 87.16013847 -35.93667765 88.31643431 -37.63671875 90.09375 C-38.62671875 90.09375 -39.61671875 90.09375 -40.63671875 90.09375 C-40.63671875 78.87375 -40.63671875 67.65375 -40.63671875 56.09375 C-39.64671875 56.09375 -38.65671875 56.09375 -37.63671875 56.09375 C-37.28480469 57.1559375 -36.93289063 58.218125 -36.5703125 59.3125 C-33.3219708 68.74752203 -30.10511242 75.51212287 -22.32421875 82.03125 C-16.9344872 84.1620741 -11.73295899 84.77979226 -6.19921875 82.96875 C-3.25466469 80.81419825 -1.99388981 79.48667765 -0.63671875 76.09375 C-0.12131727 71.45513667 -0.1217431 69.16661594 -2.13671875 64.96875 C-6.93396438 59.45191753 -12.76644316 55.99604879 -19.01171875 52.28125 C-28.61572726 46.42514725 -36.93357183 40.31407307 -40.20703125 29.1484375 C-41.90881554 21.01081445 -40.44988395 13.41727022 -36.63671875 6.09375 C-27.32373915 -6.5617594 -13.29615045 -6.33988631 0 0 Z " fill="#44A451" transform="translate(495.63671875,59.90625)"/>
<path d="M0 0 C0.99 0 1.98 0 3 0 C9.79983321 12.32719362 16.05600344 24.43869605 20 38 C20.26490234 38.81702393 20.52980469 39.63404785 20.80273438 40.47583008 C23.38694724 49.26813864 23.52482177 57.8621334 23.50097656 66.95141602 C23.50001046 69.53452407 23.54162505 72.11458856 23.5859375 74.69726562 C23.73333162 95.37553944 17.2869915 114.06292692 7.875 132.3125 C7.38809692 133.27397949 7.38809692 133.27397949 6.89135742 134.25488281 C5.07586299 137.64528064 3.73431335 139.76352736 0 141 C-1.72664071 139.27335929 -1.12611602 136.96321505 -1.12698364 134.60949707 C-1.12980347 133.44000015 -1.13262329 132.27050323 -1.13552856 131.06556702 C-1.13350433 129.77098068 -1.1314801 128.47639435 -1.12939453 127.14257812 C-1.13074855 125.77461195 -1.13252849 124.40664614 -1.13470459 123.03868103 C-1.13927881 119.31357626 -1.13748941 115.58849906 -1.1343255 111.86339378 C-1.13180184 107.97342222 -1.13413946 104.08345309 -1.13571167 100.19348145 C-1.13753335 93.65974502 -1.1351271 87.12601987 -1.13037109 80.59228516 C-1.12492848 73.02772317 -1.12669113 65.46318814 -1.1321975 57.8986268 C-1.13672868 51.41541516 -1.13737915 44.93221165 -1.13475883 38.44899893 C-1.13319608 34.57179415 -1.13300222 30.69460205 -1.13629532 26.81739807 C-1.13917411 23.17312413 -1.1371982 19.52888509 -1.13140106 15.88461494 C-1.12943788 13.90122145 -1.13242731 11.91782502 -1.13552856 9.93443298 C-1.13270874 8.76493607 -1.12988892 7.59543915 -1.12698364 6.39050293 C-1.12660662 5.36768974 -1.12622959 4.34487656 -1.12584114 3.29106903 C-1 1 -1 1 0 0 Z " fill="#FAD328" transform="translate(23,24)"/>
<path d="M0 0 C13.86 0 27.72 0 42 0 C42 0.99 42 1.98 42 3 C41.36191406 3.12117188 40.72382812 3.24234375 40.06640625 3.3671875 C39.24011719 3.53476562 38.41382813 3.70234375 37.5625 3.875 C36.73878906 4.03742187 35.91507813 4.19984375 35.06640625 4.3671875 C34.38449219 4.57601562 33.70257812 4.78484375 33 5 C31.53395816 7.93208369 31.861213 10.88253038 31.87060547 14.09594727 C31.86885315 14.82615082 31.86710083 15.55635437 31.86529541 16.3086853 C31.86088564 18.72794962 31.86381151 21.14714115 31.8671875 23.56640625 C31.86651428 25.24267084 31.86554411 26.91893533 31.86428833 28.59519958 C31.8628126 32.10994394 31.86496218 35.62466289 31.86962891 39.1394043 C31.87533051 43.65466866 31.87204367 48.16987365 31.86605644 52.68513584 C31.8624512 56.14654492 31.86358917 59.6079398 31.86618423 63.06934929 C31.86685338 64.73480168 31.86602552 66.40025534 31.86370468 68.06570625 C31.86117828 70.38832157 31.86501834 72.71083926 31.87060547 75.03344727 C31.86858124 75.72801529 31.86655701 76.42258331 31.86447144 77.13819885 C31.60877917 80.34742358 31.60877917 80.34742358 33 83 C36.21971396 83.30734597 39.45492716 83.27847292 42.6875 83.3125 C43.58662109 83.34150391 44.48574219 83.37050781 45.41210938 83.40039062 C51.15333458 83.45514919 54.45657661 82.85870024 59 79 C64.55050292 73.44949708 66.68520955 65.33016975 69 58 C70.98 58.495 70.98 58.495 73 59 C72.01 69.23 71.02 79.46 70 90 C46.9 90 23.8 90 0 90 C0 89.01 0 88.02 0 87 C2.01822917 86.57682292 4.03645833 86.15364583 6.0546875 85.73046875 C8.37046549 85.07691162 8.37046549 85.07691162 10 82 C10.31981737 78.7304348 10.31981737 78.7304348 10.29052734 74.92993164 C10.29724457 74.21415451 10.30396179 73.49837738 10.31088257 72.76091003 C10.32988613 70.39392157 10.33378778 68.02721625 10.3359375 65.66015625 C10.34236337 64.01492699 10.34909157 62.36969889 10.35610962 60.72447205 C10.36808796 57.2753535 10.37178983 53.82633515 10.37060547 50.37719727 C10.37040215 45.95729832 10.39771489 41.53804142 10.43214989 37.11829472 C10.45438512 33.72022042 10.45844407 30.32230152 10.45738602 26.92416191 C10.45974667 25.29465965 10.46859631 23.66515341 10.48405075 22.03572273 C10.50364525 19.75651158 10.49790004 17.47869646 10.48583984 15.19946289 C10.4901149 13.25445641 10.4901149 13.25445641 10.49447632 11.27015686 C10.25841295 7.94129157 10.25841295 7.94129157 8.17276001 5.59690857 C5.47631456 3.61510808 3.29765749 3.29978704 0 3 C0 2.01 0 1.02 0 0 Z " fill="#44A451" transform="translate(1119,58)"/>
<path d="M0 0 C4.69712132 4.24977643 6.40052243 9.19593747 6.73483276 15.41973877 C6.80344901 17.92835408 6.84144531 20.43593612 6.87109375 22.9453125 C6.90400833 24.82943215 6.93722035 26.71354662 6.97070312 28.59765625 C7.01824517 31.55807211 7.06274362 34.51846349 7.10180664 37.47900391 C7.14143254 40.34298342 7.19297028 43.20655606 7.24609375 46.0703125 C7.2545079 46.9578421 7.26292206 47.8453717 7.27159119 48.75979614 C7.29655418 49.99655594 7.29655418 49.99655594 7.32202148 51.25830078 C7.33232895 51.98268341 7.34263641 52.70706604 7.35325623 53.45339966 C7.52972326 55.70087573 7.52972326 55.70087573 9.625 58.375 C10.615 58.705 11.605 59.035 12.625 59.375 C12.625 60.365 12.625 61.355 12.625 62.375 C3.385 62.375 -5.855 62.375 -15.375 62.375 C-15.375 61.385 -15.375 60.395 -15.375 59.375 C-14.72450684 58.85301025 -14.07401367 58.33102051 -13.40380859 57.79321289 C-10.27014739 54.05808482 -10.83945099 50.4108104 -10.9140625 45.68359375 C-10.91497894 44.74193863 -10.91589539 43.80028351 -10.9168396 42.83009338 C-10.92287471 40.84216258 -10.93861801 38.85424083 -10.96337891 36.86645508 C-10.99990844 33.8201354 -11.00439806 30.77503155 -11.00390625 27.72851562 C-11.01373674 25.79686447 -11.02539344 23.86522156 -11.0390625 21.93359375 C-11.04128815 21.02105331 -11.04351379 20.10851288 -11.04580688 19.1683197 C-11.05856659 18.32056473 -11.07132629 17.47280975 -11.08447266 16.59936523 C-11.09209625 15.85420151 -11.09971985 15.10903778 -11.10757446 14.34129333 C-11.27252578 12.05474277 -11.27252578 12.05474277 -13.375 9.375 C-16.61905532 9.64533794 -18.09846128 10.11869659 -20.51367188 12.35717773 C-23.05364547 16.47530648 -22.95220697 19.7242553 -22.90625 24.47265625 C-22.91199036 25.7795768 -22.91199036 25.7795768 -22.91784668 27.11289978 C-22.92056153 28.94938314 -22.91323024 30.78590544 -22.89648438 32.62231445 C-22.87504176 35.43202828 -22.89631275 38.23919282 -22.921875 41.04882812 C-22.91923215 42.83594314 -22.91410806 44.62305656 -22.90625 46.41015625 C-22.91434692 47.24877701 -22.92244385 48.08739777 -22.93078613 48.95143127 C-22.91024924 53.77947871 -22.91024924 53.77947871 -20.34179688 57.74780273 C-19.69275391 58.28477783 -19.04371094 58.82175293 -18.375 59.375 C-18.375 60.365 -18.375 61.355 -18.375 62.375 C-27.615 62.375 -36.855 62.375 -46.375 62.375 C-46.375 61.385 -46.375 60.395 -46.375 59.375 C-45.735625 59.08625 -45.09625 58.7975 -44.4375 58.5 C-42.22293921 57.54676549 -42.22293921 57.54676549 -41.375 55.375 C-41.27510006 53.84893516 -41.23668255 52.31862206 -41.22973633 50.78930664 C-41.22335648 49.83814468 -41.21697662 48.88698273 -41.21040344 47.90699768 C-41.20929062 46.87679001 -41.2081778 45.84658234 -41.20703125 44.78515625 C-41.20370285 43.72969101 -41.20037445 42.67422577 -41.19694519 41.58677673 C-41.19187601 39.35155677 -41.18953686 37.11632922 -41.18969727 34.88110352 C-41.18751124 31.4551145 -41.16935653 28.0294476 -41.15039062 24.60351562 C-41.14745666 22.43489694 -41.14547189 20.26627672 -41.14453125 18.09765625 C-41.13734573 17.06947281 -41.13016022 16.04128937 -41.12275696 14.98194885 C-41.12583359 14.02763474 -41.12891022 13.07332062 -41.13208008 12.09008789 C-41.13065506 11.25006729 -41.12923004 10.41004669 -41.12776184 9.54457092 C-41.2411643 7.08075168 -41.2411643 7.08075168 -43.375 4.375 C-44.365 4.045 -45.355 3.715 -46.375 3.375 C-46.375 2.385 -46.375 1.395 -46.375 0.375 C-38.785 0.375 -31.195 0.375 -23.375 0.375 C-23.045 2.025 -22.715 3.675 -22.375 5.375 C-21.90449219 4.95347656 -21.43398438 4.53195313 -20.94921875 4.09765625 C-20.32660156 3.54980469 -19.70398438 3.00195312 -19.0625 2.4375 C-18.44761719 1.89222656 -17.83273437 1.34695312 -17.19921875 0.78515625 C-12.20458248 -3.07579385 -5.40961248 -2.60462823 0 0 Z " fill="#44A451" transform="translate(849.375,85.625)"/>
<path d="M0 0 C7.59 0 15.18 0 23 0 C23.06058594 3.65835938 23.12117188 7.31671875 23.18359375 11.0859375 C23.24534798 14.61720929 23.30875025 18.14844789 23.37231445 21.6796875 C23.41570779 24.13961859 23.45737956 26.59958065 23.49731445 29.05957031 C23.55491057 32.58928784 23.61863557 36.11884876 23.68359375 39.6484375 C23.70030624 40.75367767 23.71701874 41.85891785 23.73423767 42.99765015 C23.75418289 44.01855743 23.77412811 45.03946472 23.79467773 46.09130859 C23.81799416 47.44366104 23.81799416 47.44366104 23.84178162 48.82333374 C23.86435092 51.04636301 23.86435092 51.04636301 25 53 C27.28528995 53.58768383 27.28528995 53.58768383 30 53 C34.71343637 47.7005406 35.72455223 44.07950597 35.5234375 37.109375 C35.51873444 36.28294495 35.51403137 35.45651489 35.50918579 34.6050415 C35.48797663 31.98581845 35.43142449 29.36867496 35.375 26.75 C35.35847747 24.97658163 35.34413339 23.20314155 35.33203125 21.4296875 C35.51042274 13.08947729 35.51042274 13.08947729 34 5 C31.99983534 3.79117904 31.99983534 3.79117904 30 3 C30 2.01 30 1.02 30 0 C37.59 0 45.18 0 53 0 C53.33 19.14 53.66 38.28 54 58 C55.32 58.33 56.64 58.66 58 59 C58 59.99 58 60.98 58 62 C50.74 62 43.48 62 36 62 C35.67 60.35 35.34 58.7 35 57 C34.52949219 57.42152344 34.05898438 57.84304687 33.57421875 58.27734375 C32.95160156 58.82519531 32.32898438 59.37304688 31.6875 59.9375 C31.07261719 60.48277344 30.45773437 61.02804688 29.82421875 61.58984375 C25.75416244 64.73607572 20.90780804 64.57986088 16 64 C11.06854428 61.76688798 9.08511911 59.01046586 6.83383179 54.31481934 C5.36680404 50.24217035 5.41654965 46.2425309 5.42578125 41.953125 C5.40453438 40.55268951 5.40453438 40.55268951 5.38285828 39.1239624 C5.34121725 36.16585536 5.3257651 33.20835784 5.3125 30.25 C5.28338755 27.2776428 5.24882185 24.30543673 5.21000671 21.33319092 C5.18761961 19.49020247 5.17173949 17.64712057 5.16316223 15.80401611 C5.15612778 14.96924744 5.14909332 14.13447876 5.1418457 13.27441406 C5.13836624 12.54353577 5.13488678 11.81265747 5.13130188 11.05963135 C4.99348108 8.89774265 4.7021946 7.05092319 4 5 C2.0162233 3.71563266 2.0162233 3.71563266 0 3 C0 2.01 0 1.02 0 0 Z " fill="#44A451" transform="translate(229,86)"/>
<path d="M0 0 C7.59 0 15.18 0 23 0 C23.04898438 3.57457031 23.09796875 7.14914063 23.1484375 10.83203125 C23.20241959 14.28723402 23.25973803 17.7423664 23.31738281 21.19750977 C23.35570782 23.60207901 23.39055441 26.00670628 23.421875 28.41137695 C23.46744882 31.86430628 23.5254563 35.3168349 23.5859375 38.76953125 C23.59748871 39.84773636 23.60903992 40.92594147 23.62094116 42.03681946 C23.64081085 43.03763046 23.66068054 44.03844147 23.68115234 45.06958008 C23.69447601 45.95116287 23.70779968 46.83274567 23.7215271 47.74104309 C23.863101 50.2807783 23.863101 50.2807783 26 53 C29.23276304 52.73060308 30.72258158 52.25532259 33.13647461 50.03369141 C35.70573261 45.85111576 35.59415518 42.46886401 35.56640625 37.6484375 C35.57260483 36.75258942 35.57880341 35.85674133 35.58518982 34.93374634 C35.59227543 33.0460112 35.58913597 31.1582134 35.57641602 29.27050781 C35.56251007 26.37709491 35.59668504 23.48689187 35.63476562 20.59375 C35.63571647 18.75781171 35.63385984 16.92186936 35.62890625 15.0859375 C35.64216446 14.22028168 35.65542267 13.35462585 35.66908264 12.46273804 C35.63374785 10.19463912 35.57416213 8.19507594 35 6 C32.57792653 4.06959043 32.57792653 4.06959043 30 3 C30 2.01 30 1.02 30 0 C37.59 0 45.18 0 53 0 C53.029729 2.47560425 53.029729 2.47560425 53.06005859 5.0012207 C53.13601013 11.11221836 53.22474368 17.22297463 53.31738281 23.33374023 C53.35571579 25.98082725 53.39056094 28.62796713 53.421875 31.27514648 C53.46743145 35.07555056 53.52544197 38.87558932 53.5859375 42.67578125 C53.59748871 43.86335526 53.60903992 45.05092926 53.62094116 46.27449036 C53.64081085 47.37540512 53.66068054 48.47631989 53.68115234 49.6105957 C53.69447601 50.58100296 53.70779968 51.55141022 53.7215271 52.55122375 C53.84005053 55.25530402 53.84005053 55.25530402 56 58 C56.99 58.33 57.98 58.66 59 59 C59 59.99 59 60.98 59 62 C51.41 62 43.82 62 36 62 C35.67 60.35 35.34 58.7 35 57 C34.52949219 57.42152344 34.05898438 57.84304687 33.57421875 58.27734375 C32.95160156 58.82519531 32.32898438 59.37304688 31.6875 59.9375 C31.07261719 60.48277344 30.45773437 61.02804688 29.82421875 61.58984375 C26.37062795 64.259536 22.64765383 64.52398894 18.421875 64.46875 C13.87269322 63.5882632 10.62330426 60.72421132 8 57 C6.14858931 50.953732 5.69453469 45.43392842 5.65625 39.13671875 C5.6416272 38.22291946 5.62700439 37.30912018 5.61193848 36.36763 C5.55005788 32.48895684 5.50990525 28.61013622 5.46826172 24.73120117 C5.43459174 21.88703601 5.38949964 19.04321105 5.34375 16.19921875 C5.3384729 15.32110031 5.3331958 14.44298187 5.32775879 13.53825378 C5.31434448 12.72343033 5.30093018 11.90860687 5.28710938 11.0690918 C5.27981812 10.35375778 5.27252686 9.63842377 5.26501465 8.90141296 C5.09453116 6.67105528 5.09453116 6.67105528 3 4 C2.01 3.67 1.02 3.34 0 3 C0 2.01 0 1.02 0 0 Z " fill="#44A451" transform="translate(608,86)"/>
<path d="M0 0 C0.99 0.33 1.98 0.66 3 1 C2.58468968 10.3444822 -2.69332049 17.8153724 -8.875 24.49609375 C-10.25600253 26.08471331 -10.25600253 26.08471331 -10.375 28.9375 C-10.25125 29.618125 -10.1275 30.29875 -10 31 C-8.68 28.69 -7.36 26.38 -6 24 C-4.68 24.33 -3.36 24.66 -2 25 C-2 26.32 -2 27.64 -2 29 C2.04152921 27.66221158 4.26632694 26.00272465 7.125 22.875 C9.1328125 20.6796875 9.1328125 20.6796875 11 19 C11.99 19 12.98 19 14 19 C13.67 22.3 13.34 25.6 13 29 C13.721875 28.175 14.44375 27.35 15.1875 26.5 C18 24 18 24 20.8125 23.6875 C21.534375 23.790625 22.25625 23.89375 23 24 C23.99 26.475 23.99 26.475 25 29 C28.62233566 26.51408337 31.60820982 24.45055871 34.5 21.125 C37 19 37 19 40.75 19.125 C44 20 44 20 45 21 C45.14115161 23.67058851 45.04247107 26.32432238 45 29 C47.68385117 26.31614883 47.65350416 24.21948571 48.3125 20.5 C49.87597763 12.73845036 52.63066903 6.55399646 57 0 C58.32 0 59.64 0 61 0 C61.70548578 7.93671503 58.86150202 15.1497574 54.75 21.875 C53.00001114 24.9999801 52.57604786 26.50239486 53 30 C55.25036538 30.46845149 55.25036538 30.46845149 58 30 C60.66008264 27.73494326 63.0015842 25.38541977 65.36328125 22.82226562 C66.8671875 21.30859375 66.8671875 21.30859375 70 19 C76.15739769 19.15739769 76.15739769 19.15739769 78 21 C78.14115161 23.67058851 78.04247107 26.32432238 78 29 C78.44730469 28.33613281 78.89460938 27.67226562 79.35546875 26.98828125 C85.92067989 17.39943343 85.92067989 17.39943343 90 14 C90.99 14 91.98 14 93 14 C92.76235567 17.92113141 91.50187146 19.70117556 88.875 22.4375 C86.16131851 25.34225132 86.16131851 25.34225132 86.125 29.4375 C86.558125 30.7059375 86.558125 30.7059375 87 32 C90.18546722 32.33914005 90.18546722 32.33914005 92.4375 29.75 C94.00532993 28.0674508 95.56889974 26.38090322 97.125 24.6875 C99 23 99 23 102 23 C101.67 25.31 101.34 27.62 101 30 C102.29243468 28.8758824 103.58392075 27.75067408 104.875 26.625 C105.59429688 25.99851563 106.31359375 25.37203125 107.0546875 24.7265625 C108.4076598 23.52573166 109.7208345 22.2791655 111 21 C111.99 21 112.98 21 114 21 C113.855625 21.62648437 113.71125 22.25296875 113.5625 22.8984375 C113.376875 23.71570313 113.19125 24.53296875 113 25.375 C112.814375 26.18710938 112.62875 26.99921875 112.4375 27.8359375 C111.93394761 29.95874951 111.93394761 29.95874951 112 32 C113.32 31.34 114.64 30.68 116 30 C114.92048499 32.74785638 114.02917374 33.97779313 111.64453125 35.79296875 C108.79850644 38.16815932 107.26491355 40.39106972 105.375 43.5625 C101.39960026 50.19116427 101.39960026 50.19116427 99 52 C97.68 52 96.36 52 95 52 C96.78998268 46.81748471 99.86387916 43.08624403 103.22265625 38.81640625 C105.13767917 35.78183147 105.66092649 33.54201407 106 30 C105.61328125 30.44472656 105.2265625 30.88945312 104.828125 31.34765625 C104.30734375 31.91355469 103.7865625 32.47945312 103.25 33.0625 C102.73953125 33.63097656 102.2290625 34.19945312 101.703125 34.78515625 C100 36 100 36 97.796875 35.68359375 C97.20390625 35.45800781 96.6109375 35.23242188 96 35 C95.67 33.68 95.34 32.36 95 31 C93.02 33.97 93.02 33.97 91 37 C91.66 37.99 92.32 38.98 93 40 C93.49557946 43.79944252 93.32625657 45.48731111 91.25 48.75 C88.28662379 51.71337621 86.50606451 52.89492573 82.3125 53.1875 C80 53 80 53 79 52 C78.39464892 47.76254244 79.06352664 45.51128501 81.5 42.125 C82.31993283 41.07275286 83.14899722 40.02728193 84 39 C82.79618552 36.50638429 81.54571278 34.31856917 80 32 C79.40832031 32.27714844 78.81664062 32.55429688 78.20703125 32.83984375 C69.34638184 36.901577 69.34638184 36.901577 66 37 C63.46155991 35.18682851 63.00510975 34.01532925 62 31 C61.505 31.66 61.01 32.32 60.5 33 C56.89659788 35.8827217 54.53014958 35.30200997 50 35 C49.67 33.35 49.34 31.7 49 30 C48.278125 30.639375 47.55625 31.27875 46.8125 31.9375 C43.9572075 34.03138117 42.40717295 34.46202532 39 35 C38.01 35.66 37.02 36.32 36 37 C33.4375 36.9375 33.4375 36.9375 31 36 C29.6875 33.4375 29.6875 33.4375 29 31 C28.13375 31.7734375 28.13375 31.7734375 27.25 32.5625 C25 34 25 34 22.875 33.875 C21 33 21 33 19 30 C16.55519921 30.18828772 16.55519921 30.18828772 14 31 C12.81669817 32.86644906 12.81669817 32.86644906 12 35 C10.375 36.75 10.375 36.75 9 38 C8.01 37.67 7.02 37.34 6 37 C6.33 34.03 6.66 31.06 7 28 C5.948125 29.010625 4.89625 30.02125 3.8125 31.0625 C0.40784271 34.01735501 0.40784271 34.01735501 -2.9375 33.875 C-3.9584375 33.441875 -3.9584375 33.441875 -5 33 C-5 32.34 -5 31.68 -5 31 C-7.33524782 33.25740623 -9.18705073 35.2805761 -11 38 C-12.32 38 -13.64 38 -15 38 C-15.33 36.02 -15.66 34.04 -16 32 C-16.825 32.804375 -17.65 33.60875 -18.5 34.4375 C-22.28444428 37.5762571 -25.09867853 38.07905357 -30 38 C-31.33333333 36.66666667 -32.66666667 35.33333333 -34 34 C-35.92780616 34.0530033 -35.92780616 34.0530033 -38 34.5 C-41.71527778 35.1875 -41.71527778 35.1875 -44.5625 33.3125 C-46 31 -46 31 -45.67578125 29.109375 C-45.45277344 28.41328125 -45.22976563 27.7171875 -45 27 C-44.78601562 26.32839844 -44.57203125 25.65679687 -44.3515625 24.96484375 C-44.11179687 24.29582031 -43.87203125 23.62679687 -43.625 22.9375 C-43.39039063 22.26589844 -43.15578125 21.59429687 -42.9140625 20.90234375 C-41.88210414 18.75463554 -40.87051448 17.47402139 -39 16 C-36.3125 16.3125 -36.3125 16.3125 -34 17 C-34.44252471 21.86777176 -35.47869144 23.70587263 -39 27 C-39 27.99 -39 28.98 -39 30 C-34.28457494 29.52162354 -31.99428541 27.60166908 -28.5 24.5 C-25.00571459 21.39833092 -22.71542506 19.47837646 -18 19 C-18.36901041 21.68109123 -18.7071809 22.75324942 -20.8125 24.52734375 C-21.534375 24.99269531 -22.25625 25.45804688 -23 25.9375 C-26.34008956 28.22501973 -26.34008956 28.22501973 -28 31.875 C-28 32.57625 -28 33.2775 -28 34 C-26.948125 33.7525 -25.89625 33.505 -24.8125 33.25 C-24.22082031 33.11078125 -23.62914062 32.9715625 -23.01953125 32.828125 C-20.13406478 31.64491631 -18.24305242 30.16938896 -16 28 C-14.79873509 25.13610539 -14.79873509 25.13610539 -14.125 21.9375 C-11.70848245 13.249777 -7.71559946 5.09889853 0 0 Z " fill="#EDF3F6" transform="translate(1243,201)"/>
<path d="M0 0 C7.61647676 4.34004695 11.08780929 10.85428246 13.625 19 C16.25115581 29.76172941 15.53556375 41.61732965 10.3359375 51.43359375 C6.64256648 57.44766581 2.46943785 61.71852072 -4.375 64 C-13.00562859 64.65612966 -18.51525243 63.84473029 -25.9375 59.5 C-33.61173771 51.62898697 -36.3437105 41.8099776 -36.6875 31.125 C-36.46942314 21.01649606 -33.61610093 12.03668449 -27.375 4 C-19.70219573 -3.08634789 -9.48992436 -4.29134668 0 0 Z M-13.75 4.4375 C-18.8996987 9.46458683 -18.54647227 16.79181414 -18.640625 23.6328125 C-18.65107619 25.74421703 -18.64825557 27.85491599 -18.63574219 29.96630859 C-18.62498725 32.12756172 -18.63570423 34.28799026 -18.6484375 36.44921875 C-18.64711629 37.84375181 -18.6445547 39.23828436 -18.640625 40.6328125 C-18.63836914 41.87949707 -18.63611328 43.12618164 -18.63378906 44.41064453 C-18.25110123 49.71845249 -17.72531067 53.74614009 -13.75 57.4375 C-11.51286143 59.30366733 -11.51286143 59.30366733 -9.0625 58.5625 C-5.71109017 56.61400592 -5.09167011 54.70745598 -3.97485352 51.08276367 C-2.77077736 44.89478256 -2.93462727 38.60844398 -2.98388672 32.32470703 C-3.00001012 29.87346128 -2.98395926 27.42385278 -2.96484375 24.97265625 C-2.96682562 23.39582974 -2.97066813 21.81900424 -2.9765625 20.2421875 C-2.97048981 19.51909393 -2.96441711 18.79600037 -2.9581604 18.05099487 C-3.02828465 12.92565181 -3.99572797 9.45238513 -6.375 5 C-10.07736634 2.83643254 -10.07736634 2.83643254 -13.75 4.4375 Z " fill="#44A451" transform="translate(781.375,86)"/>
<path d="M0 0 C6.16145455 4.46435216 8.98395819 10.5313729 11.2265625 17.61328125 C11.41089844 18.19335938 11.59523438 18.7734375 11.78515625 19.37109375 C13.96803396 30.4593398 12.53922524 42.14525636 6.9140625 51.92578125 C3.40690555 57.13912267 -0.74048562 60.61695461 -6.7734375 62.61328125 C-15.31762086 63.50960566 -21.01235348 62.40025726 -28.3359375 58.11328125 C-35.81195115 50.44557494 -38.71231141 40.74736685 -39.0859375 30.30078125 C-38.84388727 20.10619529 -36.13427276 10.69006276 -29.7734375 2.61328125 C-21.34919919 -5.30039716 -9.8453527 -5.54777811 0 0 Z M-16.1484375 2.98828125 C-22.08434257 8.92418632 -21.03102649 18.86514055 -21.046875 26.765625 C-21.03914062 28.07660156 -21.03140625 29.38757813 -21.0234375 30.73828125 C-21.03117188 32.05699219 -21.03890625 33.37570313 -21.046875 34.734375 C-21.0336241 41.32669614 -20.99680558 47.3666757 -18.7734375 53.61328125 C-16.32023338 56.11353699 -16.32023338 56.11353699 -13.7734375 57.61328125 C-11.30388356 57.19705527 -11.30388356 57.19705527 -8.7734375 55.61328125 C-6.139751 49.91583076 -5.32433959 45.20842202 -5.375 38.984375 C-5.37212982 38.19104263 -5.36925964 37.39771027 -5.36630249 36.58033752 C-5.36427505 34.91561156 -5.36971179 33.25086106 -5.38232422 31.58618164 C-5.39841925 29.05365299 -5.38242023 26.52271467 -5.36328125 23.99023438 C-5.3652635 22.36327777 -5.3691068 20.73632214 -5.375 19.109375 C-5.36892731 18.3612706 -5.36285461 17.6131662 -5.3565979 16.84239197 C-5.42407824 11.7443924 -6.34885393 8.12704166 -8.7734375 3.61328125 C-12.4595993 1.46853261 -12.4595993 1.46853261 -16.1484375 2.98828125 Z " fill="#44A451" transform="translate(556.7734375,87.38671875)"/>
<path d="M0 0 C0.99 0 1.98 0 3 0 C9.45408454 11.33050397 14.32990119 22.48234157 18 35 C18.27287842 35.86927124 18.27287842 35.86927124 18.55126953 36.75610352 C19.20653355 40.03278014 19.22293278 43.30335115 19.2734375 46.6328125 C19.29236557 47.75037682 19.29236557 47.75037682 19.31167603 48.89051819 C19.7339849 79.81248854 19.7339849 79.81248854 14 93 C13.67870117 93.75313477 13.35740234 94.50626953 13.02636719 95.28222656 C10.85681433 100.27895879 8.54140328 105.1817516 6 110 C5.48695313 110.98355469 4.97390625 111.96710938 4.4453125 112.98046875 C3.96835937 113.64691406 3.49140625 114.31335938 3 115 C2.01 115 1.02 115 0 115 C0 77.05 0 39.1 0 0 Z " fill="#41A452" transform="translate(0,37)"/>
<path d="M0 0 C7.59 0 15.18 0 23 0 C23.02505615 2.46831299 23.0501123 4.93662598 23.07592773 7.47973633 C23.1593262 15.62620076 23.24802183 23.77260127 23.33933926 31.9189806 C23.39455286 36.85913161 23.44797043 41.79928855 23.49731445 46.73950195 C23.54498096 51.50520214 23.59732471 56.2708299 23.65294075 61.03644371 C23.67335392 62.85652557 23.69206872 64.67662727 23.70907402 66.49674416 C23.73314094 69.04192926 23.76319246 71.58697746 23.79467773 74.13208008 C23.80331093 75.26604218 23.80331093 75.26604218 23.81211853 76.4229126 C23.8561238 79.54314394 24.0058402 82.01752061 25 85 C27.50447516 86.21869929 27.50447516 86.21869929 30 87 C30 87.99 30 88.98 30 90 C20.1 90 10.2 90 0 90 C0 89.01 0 88.02 0 87 C0.81231079 86.59495239 1.62462158 86.18990479 2.46154785 85.77258301 C5.35748389 84.18987998 5.35748389 84.18987998 5.62145996 80.73620605 C5.64509393 79.37056424 5.64094359 78.0042762 5.61523438 76.63867188 C5.62078339 75.89202774 5.6263324 75.14538361 5.63204956 74.37611389 C5.64386734 71.90634112 5.61955179 69.4383946 5.59375 66.96875 C5.59203939 65.25386641 5.59210408 63.53898021 5.59387207 61.82409668 C5.59221763 58.22931924 5.57349758 54.63516453 5.54199219 51.04052734 C5.50231378 46.4299982 5.49794602 41.82028509 5.50545502 37.20961761 C5.50852286 33.66827909 5.49641088 30.12712446 5.47932434 26.58583069 C5.47228712 24.88575901 5.46917068 23.18566648 5.47001648 21.48558044 C5.46822102 19.11044571 5.44686225 16.73629326 5.41992188 14.36132812 C5.42285248 13.65682022 5.42578308 12.95231232 5.42880249 12.22645569 C5.37836643 9.34831083 5.33910099 7.45921464 3.59875488 5.10241699 C1.98268659 3.93318855 1.98268659 3.93318855 0 3 C0 2.01 0 1.02 0 0 Z " fill="#44A451" transform="translate(575,58)"/>
<path d="M0 0 C4.65562977 0.03367544 8.18456498 1.42731356 12.4375 3.25 C13.5503641 6.98604375 14.051709 9.02158201 12.2734375 12.578125 C10.73322632 14.86947366 9.13039204 17.06939383 7.4375 19.25 C6.91671875 19.99894531 6.3959375 20.74789062 5.859375 21.51953125 C5.39015625 22.09058594 4.9209375 22.66164062 4.4375 23.25 C3.7775 23.25 3.1175 23.25 2.4375 23.25 C2.19 23.971875 1.9425 24.69375 1.6875 25.4375 C0.32766326 28.49713266 -1.39167754 30.7173738 -3.5625 33.25 C6.56976126 32.60668182 13.37950809 29.85923302 20.61328125 22.640625 C22.4375 21.25 22.4375 21.25 26.4375 21.25 C28.10975729 21.55404678 29.77830104 21.88128912 31.4375 22.25 C31.4375 24.89 31.4375 27.53 31.4375 30.25 C32.05496094 29.50492188 32.67242188 28.75984375 33.30859375 27.9921875 C40.14363308 20.35608572 40.14363308 20.35608572 44.10546875 20.03125 C46.36527112 20.57733897 48.35033799 21.23162627 50.4375 22.25 C50.4375 24.89 50.4375 27.53 50.4375 30.25 C50.89640625 29.68410156 51.3553125 29.11820313 51.828125 28.53515625 C52.44171875 27.80167969 53.0553125 27.06820312 53.6875 26.3125 C54.29078125 25.58160156 54.8940625 24.85070312 55.515625 24.09765625 C57.54491134 22.14673666 58.691907 21.63268221 61.4375 21.25 C61.9325 23.725 61.9325 23.725 62.4375 26.25 C62.83582031 25.816875 63.23414063 25.38375 63.64453125 24.9375 C64.17433594 24.380625 64.70414063 23.82375 65.25 23.25 C65.77207031 22.693125 66.29414062 22.13625 66.83203125 21.5625 C68.4375 20.25 68.4375 20.25 71.4375 20.25 C71.4375 22.89 71.4375 25.53 71.4375 28.25 C72.30375 27.2290625 72.30375 27.2290625 73.1875 26.1875 C75.4375 24.25 75.4375 24.25 77.5625 24.25 C79.94253355 25.51935122 80.47997992 26.77640646 81.4375 29.25 C83.71042941 28.23110061 85.26774561 27.44097369 86.9375 25.5625 C87.4325 25.129375 87.9275 24.69625 88.4375 24.25 C90.625 24.5625 90.625 24.5625 92.4375 25.25 C92.9325 28.715 92.9325 28.715 93.4375 32.25 C97.29788436 30.16093035 99.90302611 27.89201183 102.75 24.5625 C103.44738281 23.75425781 104.14476562 22.94601563 104.86328125 22.11328125 C105.38277344 21.49839844 105.90226562 20.88351563 106.4375 20.25 C108.4175 20.745 108.4175 20.745 110.4375 21.25 C110.1075 24.22 109.7775 27.19 109.4375 30.25 C110.5203125 28.9815625 110.5203125 28.9815625 111.625 27.6875 C114.4375 25.25 114.4375 25.25 117.25 25.4375 C117.971875 25.705625 118.69375 25.97375 119.4375 26.25 C119.7675 27.57 120.0975 28.89 120.4375 30.25 C121.4275 30.25 122.4175 30.25 123.4375 30.25 C123.705625 29.693125 123.97375 29.13625 124.25 28.5625 C126.80880232 23.57956916 129.79738586 19.48040291 133.4375 15.25 C135.4175 15.745 135.4175 15.745 137.4375 16.25 C136.85843478 19.65757612 135.76307768 21.17461152 133.3125 23.5625 C130.60067915 26.54550293 130.42551647 26.87251872 130.5625 31.1875 C130.995625 32.7034375 130.995625 32.7034375 131.4375 34.25 C132.0975 34.25 132.7575 34.25 133.4375 34.25 C134.0975 33.26 134.7575 32.27 135.4375 31.25 C136.0975 31.25 136.7575 31.25 137.4375 31.25 C136.9196469 33.3214124 136.39915693 35.38420076 135.8125 37.4375 C135.626875 38.3346875 135.626875 38.3346875 135.4375 39.25 C135.7675 39.58 136.0975 39.91 136.4375 40.25 C137.35507199 47.01709341 137.35507199 47.01709341 135.05078125 50.11328125 C132.26659512 52.64381051 130.32432951 54.11504768 126.5625 54.6875 C124.4375 54.25 124.4375 54.25 123.4375 53.25 C122.88576617 47.51196813 123.89519492 45.59218042 127.4375 41.25 C127.35416667 38.66666667 127.35416667 38.66666667 126.4375 36.25 C126.251875 35.486875 126.06625 34.72375 125.875 33.9375 C125.6584375 33.1021875 125.6584375 33.1021875 125.4375 32.25 C124.86 32.765625 124.2825 33.28125 123.6875 33.8125 C121.4375 35.25 121.4375 35.25 119.3125 35.125 C117.4375 34.25 117.4375 34.25 115.4375 31.25 C111.81429679 31.81662429 110.26284347 33.14087001 107.8125 35.8125 C106.72431232 36.99334995 105.60556798 38.14810336 104.4375 39.25 C103.7775 39.25 103.1175 39.25 102.4375 39.25 C102.57857747 37.79119891 102.72552415 36.33296449 102.875 34.875 C102.99681641 33.65683594 102.99681641 33.65683594 103.12109375 32.4140625 C103.4375 30.25 103.4375 30.25 104.4375 28.25 C103.695 29.013125 102.9525 29.77625 102.1875 30.5625 C96.42609316 36.19296578 96.42609316 36.19296578 92.1875 36.4375 C90.82625 36.3446875 90.82625 36.3446875 89.4375 36.25 C88.4475 34.27 88.4475 34.27 87.4375 32.25 C86.880625 32.600625 86.32375 32.95125 85.75 33.3125 C82.85218152 34.48729128 81.3857975 34.18104132 78.4375 33.25 C77.7775 32.59 77.1175 31.93 76.4375 31.25 C75.1175 31.25 73.7975 31.25 72.4375 31.25 C70.74661778 33.22956942 69.07919528 35.22945196 67.4375 37.25 C66.4475 37.25 65.4575 37.25 64.4375 37.25 C64.7675 34.28 65.0975 31.31 65.4375 28.25 C64.695 28.9925 63.9525 29.735 63.1875 30.5 C62.28 31.4075 61.3725 32.315 60.4375 33.25 C59.715625 34.013125 58.99375 34.77625 58.25 35.5625 C56.4375 37.25 56.4375 37.25 54.4375 37.25 C54.7675 34.61 55.0975 31.97 55.4375 29.25 C54.550625 30.219375 53.66375 31.18875 52.75 32.1875 C50.04840832 34.90820671 48.31145772 35.83119376 44.4375 36.25 C43.4475 36.91 42.4575 37.57 41.4375 38.25 C36.89695946 37.70945946 36.89695946 37.70945946 35.4375 36.25 C35.39686168 34.58382885 35.394779 32.91611905 35.4375 31.25 C34.7775 31.25 34.1175 31.25 33.4375 31.25 C33.1075 32.24 32.7775 33.23 32.4375 34.25 C29.91546594 35.62886909 27.17788074 36.40043017 24.4375 37.25 C23.0453125 37.683125 23.0453125 37.683125 21.625 38.125 C19.4375 38.25 19.4375 38.25 17.6875 37 C16.4375 35.25 16.4375 35.25 15.4375 32.25 C14.880625 32.51554687 14.32375 32.78109375 13.75 33.0546875 C6.32529027 36.4911241 -0.30868299 38.59390904 -8.5625 38.25 C-9.44921875 36.2421875 -9.44921875 36.2421875 -9.5625 33.25 C-7.83440896 30.34806671 -5.60837997 27.89845995 -3.375 25.375 C0.79446489 20.56442874 4.68886901 16.03135821 7.4375 10.25 C7.1075 9.26 6.7775 8.27 6.4375 7.25 C2.4775 6.92 -1.4825 6.59 -5.5625 6.25 C-4.3738879 0.3069395 -4.3738879 0.3069395 0 0 Z " fill="#EEF3F7" transform="translate(972.5625,199.75)"/>
<path d="M0 0 C2.9375 1 2.9375 1 5 2 C5.99 2 6.98 2 8 2 C8.33 1.34 8.66 0.68 9 0 C10.32 0 11.64 0 13 0 C13 7.26 13 14.52 13 22 C12.01 22 11.02 22 10 22 C9.62488281 21.16855469 9.24976563 20.33710937 8.86328125 19.48046875 C8.35152344 18.39378906 7.83976563 17.30710937 7.3125 16.1875 C6.81363281 15.10855469 6.31476562 14.02960938 5.80078125 12.91796875 C3.83035243 9.72510469 2.38197575 8.54115351 -1 7 C-3.70953551 6.74803871 -3.70953551 6.74803871 -6 7 C-7.30514736 9.21776622 -7.30514736 9.21776622 -8 12 C-6.04577832 16.17986305 -3.42746905 18.52351824 0.1875 21.3125 C13.96064961 32.29083278 13.96064961 32.29083278 16 39 C16.83739771 46.60473967 16.82292037 53.7611764 12 60 C8.84590499 63.28585877 5.74798503 65.76272418 1.0546875 66.16796875 C-4.54736851 66.21816638 -9.58926045 65.4326308 -15 64 C-15.495 64.99 -15.495 64.99 -16 66 C-17.32 66 -18.64 66 -20 66 C-20.33 58.41 -20.66 50.82 -21 43 C-19.68 43 -18.36 43 -17 43 C-16.75765625 43.59167969 -16.5153125 44.18335938 -16.265625 44.79296875 C-13.00104314 52.53202922 -13.00104314 52.53202922 -7.0625 58.3125 C-4.52759659 59.1574678 -2.65261773 59.34902865 0 59 C2.32144595 56.13329805 2.32144595 56.13329805 1.9453125 52.62890625 C0.79892214 48.22809369 -0.67090747 46.8315966 -4.125 43.9375 C-5.11886719 43.08285156 -6.11273437 42.22820312 -7.13671875 41.34765625 C-8.79510395 39.98791613 -10.46067571 38.63666196 -12.14453125 37.30859375 C-17.44225604 33.0727223 -20.48186861 28.96343806 -21.37890625 22.1015625 C-21.63321115 15.58807575 -20.97175694 10.2999329 -17 5 C-11.43987332 -0.16297478 -7.37114037 -0.49993539 0 0 Z " fill="#44A451" transform="translate(890,84)"/>
<path d="M0 0 C-0.08325478 2.74740774 -0.52170371 4.50365479 -2.44921875 6.50390625 C-3.04347656 7.03886719 -3.63773438 7.57382812 -4.25 8.125 C-14.27210281 17.7158238 -15.97810086 33.16665287 -16.35998535 46.42970276 C-16.41212901 49.92049289 -16.41618025 53.40908935 -16.39111328 56.90014648 C-16.3749939 59.56350723 -16.39107841 62.22535595 -16.41015625 64.88867188 C-16.42917869 80.84249967 -15.6024564 98.15064648 -4.25 110.375 C-3.45078125 111.16648437 -2.6515625 111.95796875 -1.828125 112.7734375 C0 115 0 115 0 119 C-5.48018763 118.65748827 -8.96334843 115.38707545 -13 112 C-13.59039063 111.51789063 -14.18078125 111.03578125 -14.7890625 110.5390625 C-28.24797569 98.43218625 -33.1366201 79.26375545 -34.1875 61.90234375 C-34.59874554 42.39388356 -28.96108476 23.64515095 -15.4453125 9.3046875 C-5.57288136 0 -5.57288136 0 0 0 Z " fill="#44A451" transform="translate(977,56)"/>
<path d="M0 0 C0.99 0 1.98 0 3 0 C3 7.59 3 15.18 3 23 C6.96 23 10.92 23 15 23 C15 25.31 15 27.62 15 30 C11.04 30 7.08 30 3 30 C3.33 45.51 3.66 61.02 4 77 C9.0222107 76.59122761 9.0222107 76.59122761 10.8125 73.4375 C11.204375 72.633125 11.59625 71.82875 12 71 C12.99 71.33 13.98 71.66 15 72 C14.3592749 77.44616337 11.96705846 81.26436018 7.875 84.875 C3.55651358 86.56484251 -0.4267052 86.65960983 -5 86 C-9.52115745 83.78052271 -11.94927399 81.57293838 -14 77 C-14.4099797 73.40701916 -14.34877207 69.84258567 -14.29296875 66.23046875 C-14.28872391 65.19432938 -14.28447906 64.15819 -14.28010559 63.09065247 C-14.26334605 59.78933458 -14.2256981 56.48863263 -14.1875 53.1875 C-14.17244967 50.94597237 -14.15876188 48.70443515 -14.14648438 46.46289062 C-14.11345148 40.97505114 -14.06327893 35.48756958 -14 30 C-16.31 30 -18.62 30 -21 30 C-20.875 27.8125 -20.875 27.8125 -20 25 C-18.64300654 23.8804804 -17.27853274 22.76886469 -15.87890625 21.703125 C-10.2681026 16.61724061 -5.95449656 9.74047604 -2.125 3.25 C-1.42375 2.1775 -0.7225 1.105 0 0 Z " fill="#44A451" transform="translate(693,63)"/>
<path d="M0 0 C0.99 0 1.98 0 3 0 C3 7.59 3 15.18 3 23 C6.96 23 10.92 23 15 23 C15 25.31 15 27.62 15 30 C11.04 30 7.08 30 3 30 C3.33 45.51 3.66 61.02 4 77 C9.0222107 76.59122761 9.0222107 76.59122761 10.8125 73.4375 C11.204375 72.633125 11.59625 71.82875 12 71 C12.99 71.33 13.98 71.66 15 72 C14.61104749 77.44533513 12.7851047 80.12686961 9 84 C4.55095003 86.74218174 0.07644329 86.64157261 -5 86 C-10.05176723 83.61189185 -12.01074712 81.151389 -14 76 C-14.39681821 72.44500794 -14.34970169 68.92479647 -14.29296875 65.3515625 C-14.28872391 64.33903412 -14.28447906 63.32650574 -14.28010559 62.28329468 C-14.26337302 59.06358752 -14.22573026 55.84451656 -14.1875 52.625 C-14.17244618 50.43620698 -14.158759 48.24740411 -14.14648438 46.05859375 C-14.11348732 40.70551374 -14.06334196 35.35280234 -14 30 C-16.31 30 -18.62 30 -21 30 C-20.9375 27.875 -20.9375 27.875 -20 25 C-18.40388274 23.67556227 -16.80255394 22.35691119 -15.17578125 21.0703125 C-12.27134922 18.30666981 -10.05297446 15.20783366 -7.75 11.9375 C-7.325979 11.33558838 -6.90195801 10.73367676 -6.46508789 10.11352539 C-4.6338077 7.47431679 -2.93827514 4.88748697 -1.390625 2.06640625 C-0.93171875 1.38449219 -0.4728125 0.70257813 0 0 Z " fill="#44A451" transform="translate(1218,63)"/>
<path d="M0 0 C5.48018763 0.34251173 8.96334843 3.61292455 13 7 C13.59039063 7.48210938 14.18078125 7.96421875 14.7890625 8.4609375 C26.47192495 18.97017906 33.20277125 36.68596961 34.12548828 52.09570312 C34.97387697 72.13302392 31.44118423 89.80901959 19 106 C18.2575 107.051875 17.515 108.10375 16.75 109.1875 C12.7426901 113.28588513 8.07499572 116.34466168 3 119 C2.01 119 1.02 119 0 119 C0.125 116.8125 0.125 116.8125 1 114 C1.886875 113.319375 2.77375 112.63875 3.6875 111.9375 C12.5399474 105.06408531 14.52877111 92.41937475 16 82 C18.93292727 58.62284439 19.85533173 27.64247188 5 8 C3.35447871 6.64065632 1.6954573 5.29652617 0 4 C0 2.68 0 1.36 0 0 Z " fill="#44A451" transform="translate(1050,56)"/>
<path d="M0 0 C7.59 0 15.18 0 23 0 C23.02505615 1.62010986 23.0501123 3.24021973 23.07592773 4.90942383 C23.16995409 10.90853059 23.27018649 16.90752027 23.37231445 22.90649414 C23.41568138 25.50509913 23.45735515 28.10373295 23.49731445 30.70239258 C23.55497423 34.43319392 23.61868129 38.16384994 23.68359375 41.89453125 C23.70030624 43.06023148 23.71701874 44.2259317 23.73423767 45.42695618 C23.75418289 46.50785019 23.77412811 47.5887442 23.79467773 48.70239258 C23.81799416 50.13135612 23.81799416 50.13135612 23.84178162 51.58918762 C23.90718078 54.14391198 23.90718078 54.14391198 25 57 C27.50447516 58.21869929 27.50447516 58.21869929 30 59 C30 59.99 30 60.98 30 62 C20.1 62 10.2 62 0 62 C0 61.01 0 60.02 0 59 C0.81329269 58.54860153 1.62658539 58.09720306 2.46452332 57.63212585 C5.21256067 56.2691789 5.21256067 56.2691789 5.60127258 53.66511536 C5.59016953 52.74800278 5.57906647 51.8308902 5.56762695 50.88598633 C5.5672493 49.84513382 5.56687164 48.80428131 5.56648254 47.73188782 C5.54067612 46.60993515 5.51486969 45.48798248 5.48828125 44.33203125 C5.48120651 43.18208176 5.47413177 42.03213226 5.46684265 40.84733582 C5.43881662 37.1684001 5.37605848 33.490977 5.3125 29.8125 C5.28742795 27.32098549 5.26461289 24.82944717 5.24414062 22.33789062 C5.18896289 16.22474286 5.10525343 10.11247947 5 4 C3.35 3.67 1.7 3.34 0 3 C0 2.01 0 1.02 0 0 Z " fill="#44A451" transform="translate(711,86)"/>
<path d="M0 0 C7.59 0 15.18 0 23 0 C23.02505615 1.62010986 23.0501123 3.24021973 23.07592773 4.90942383 C23.16995409 10.90853059 23.27018649 16.90752027 23.37231445 22.90649414 C23.41568138 25.50509913 23.45735515 28.10373295 23.49731445 30.70239258 C23.55497423 34.43319392 23.61868129 38.16384994 23.68359375 41.89453125 C23.70030624 43.06023148 23.71701874 44.2259317 23.73423767 45.42695618 C23.75418289 46.50785019 23.77412811 47.5887442 23.79467773 48.70239258 C23.81799416 50.13135612 23.81799416 50.13135612 23.84178162 51.58918762 C23.90718078 54.14391198 23.90718078 54.14391198 25 57 C27.50447516 58.21869929 27.50447516 58.21869929 30 59 C30 59.99 30 60.98 30 62 C20.1 62 10.2 62 0 62 C0 61.01 0 60.02 0 59 C0.81329269 58.54860153 1.62658539 58.09720306 2.46452332 57.63212585 C5.21256067 56.2691789 5.21256067 56.2691789 5.60127258 53.66511536 C5.59016953 52.74800278 5.57906647 51.8308902 5.56762695 50.88598633 C5.5672493 49.84513382 5.56687164 48.80428131 5.56648254 47.73188782 C5.54067612 46.60993515 5.51486969 45.48798248 5.48828125 44.33203125 C5.48120651 43.18208176 5.47413177 42.03213226 5.46684265 40.84733582 C5.43881662 37.1684001 5.37605848 33.490977 5.3125 29.8125 C5.28742795 27.32098549 5.26461289 24.82944717 5.24414062 22.33789062 C5.18896289 16.22474286 5.10525343 10.11247947 5 4 C3.35 3.67 1.7 3.34 0 3 C0 2.01 0 1.02 0 0 Z " fill="#44A451" transform="translate(390,86)"/>
<path d="M0 0 C0.99 0.33 1.98 0.66 3 1 C2.58468968 10.3444822 -2.69332049 17.8153724 -8.875 24.49609375 C-10.25600253 26.08471331 -10.25600253 26.08471331 -10.375 28.9375 C-10.25125 29.618125 -10.1275 30.29875 -10 31 C-8.68 28.69 -7.36 26.38 -6 24 C-4.68 24.33 -3.36 24.66 -2 25 C-2 26.32 -2 27.64 -2 29 C2.04152921 27.66221158 4.26632694 26.00272465 7.125 22.875 C9.1328125 20.6796875 9.1328125 20.6796875 11 19 C11.99 19 12.98 19 14 19 C13.67 22.3 13.34 25.6 13 29 C13.721875 28.175 14.44375 27.35 15.1875 26.5 C18 24 18 24 20.8125 23.6875 C21.534375 23.790625 22.25625 23.89375 23 24 C23.99 26.475 23.99 26.475 25 29 C28.62233566 26.51408337 31.60820982 24.45055871 34.5 21.125 C37 19 37 19 40.75 19.125 C44 20 44 20 45 21 C45.04092937 23.33297433 45.04241723 25.66705225 45 28 C43.68 28.66 42.36 29.32 41 30 C41 28.68 41 27.36 41 26 C39.07690578 26.03955898 39.07690578 26.03955898 37 27 C35.21620585 29.98352894 35.21620585 29.98352894 34 33 C35.32 33 36.64 33 38 33 C38 33.99 38 34.98 38 36 C36.02 36.33 34.04 36.66 32 37 C31.01 35.02 30.02 33.04 29 31 C28.13375 31.7734375 28.13375 31.7734375 27.25 32.5625 C25 34 25 34 22.875 33.875 C21 33 21 33 19 30 C16.55519921 30.18828772 16.55519921 30.18828772 14 31 C12.81669817 32.86644906 12.81669817 32.86644906 12 35 C10.375 36.75 10.375 36.75 9 38 C8.01 37.67 7.02 37.34 6 37 C6.33 34.03 6.66 31.06 7 28 C5.948125 29.010625 4.89625 30.02125 3.8125 31.0625 C0.40784271 34.01735501 0.40784271 34.01735501 -2.9375 33.875 C-3.9584375 33.441875 -3.9584375 33.441875 -5 33 C-5 32.34 -5 31.68 -5 31 C-7.33524782 33.25740623 -9.18705073 35.2805761 -11 38 C-12.32 38 -13.64 38 -15 38 C-15.33 36.02 -15.66 34.04 -16 32 C-16.825 32.804375 -17.65 33.60875 -18.5 34.4375 C-22.28444428 37.5762571 -25.09867853 38.07905357 -30 38 C-31.33333333 36.66666667 -32.66666667 35.33333333 -34 34 C-35.92780616 34.0530033 -35.92780616 34.0530033 -38 34.5 C-41.71527778 35.1875 -41.71527778 35.1875 -44.5625 33.3125 C-46 31 -46 31 -45.67578125 29.109375 C-45.45277344 28.41328125 -45.22976563 27.7171875 -45 27 C-44.78601562 26.32839844 -44.57203125 25.65679687 -44.3515625 24.96484375 C-44.11179687 24.29582031 -43.87203125 23.62679687 -43.625 22.9375 C-43.39039063 22.26589844 -43.15578125 21.59429687 -42.9140625 20.90234375 C-41.88210414 18.75463554 -40.87051448 17.47402139 -39 16 C-36.3125 16.3125 -36.3125 16.3125 -34 17 C-34.44252471 21.86777176 -35.47869144 23.70587263 -39 27 C-39 27.99 -39 28.98 -39 30 C-34.28457494 29.52162354 -31.99428541 27.60166908 -28.5 24.5 C-25.00571459 21.39833092 -22.71542506 19.47837646 -18 19 C-18.36901041 21.68109123 -18.7071809 22.75324942 -20.8125 24.52734375 C-21.534375 24.99269531 -22.25625 25.45804688 -23 25.9375 C-26.34008956 28.22501973 -26.34008956 28.22501973 -28 31.875 C-28 32.57625 -28 33.2775 -28 34 C-26.948125 33.7525 -25.89625 33.505 -24.8125 33.25 C-24.22082031 33.11078125 -23.62914062 32.9715625 -23.01953125 32.828125 C-20.13406478 31.64491631 -18.24305242 30.16938896 -16 28 C-14.79873509 25.13610539 -14.79873509 25.13610539 -14.125 21.9375 C-11.70848245 13.249777 -7.71559946 5.09889853 0 0 Z " fill="#E9F0F5" transform="translate(1243,201)"/>
<path d="M0 0 C1.485 0.495 1.485 0.495 3 1 C1.37629364 11.0669794 -3.37641337 18.40391426 -9.8984375 26.11328125 C-11.42017041 28.355528 -11.42017041 28.355528 -11 33 C-9.35 30.03 -7.7 27.06 -6 24 C-5.01 24 -4.02 24 -3 24 C-2.67 25.65 -2.34 27.3 -2 29 C0.46955394 28.58377402 0.46955394 28.58377402 3 27 C3.97675235 25.02516883 4.61755164 23.0883758 5.2265625 20.97265625 C6.12465811 18.68205887 7.0805748 17.52606152 9 16 C11.6875 15.8125 11.6875 15.8125 14 16 C13.59766249 21.23038761 12.94516613 23.54797963 9 27 C8.505 28.485 8.505 28.485 8 30 C10.31 29.67 12.62 29.34 15 29 C15 30.32 15 31.64 15 33 C11.86501708 34.85776765 9.62528568 35.20140476 6 35 C5.505 33.02 5.505 33.02 5 31 C4.278125 31.515625 3.55625 32.03125 2.8125 32.5625 C0 34 0 34 -2.6875 33.75 C-5 33 -5 33 -7 32 C-7.763125 32.99 -8.52625 33.98 -9.3125 35 C-10.61328125 36.6875 -10.61328125 36.6875 -12 38 C-12.99 38 -13.98 38 -15 38 C-15.66 36.35 -16.32 34.7 -17 33 C-18.11375 34.2684375 -18.11375 34.2684375 -19.25 35.5625 C-20.1575 36.366875 -21.065 37.17125 -22 38 C-24.3125 37.8125 -24.3125 37.8125 -26 37 C-26.125 30.375 -26.125 30.375 -25 27 C-26.98 28.32 -28.96 29.64 -31 31 C-30.36838761 27.54192219 -28.99727014 25.24607583 -27 22.375 C-24.84472887 19.27909695 -24.84472887 19.27909695 -23 16 C-24.98 16 -26.96 16 -29 16 C-29.5625 14.0625 -29.5625 14.0625 -30 12 C-28.1043461 10.1043461 -24.70510972 10.63369851 -22.12890625 10.4765625 C-19.61527629 10.17126245 -19.61527629 10.17126245 -18 7 C-17.34 7 -16.68 7 -16 7 C-16 9.97 -16 12.94 -16 16 C-16.66 16 -17.32 16 -18 16 C-19.26305335 21.07476794 -20.27036084 25.72796354 -20 31 C-15.63767265 28.51117745 -15.00357304 25.6418629 -13.6875 20.9375 C-11.2420279 12.84389599 -7.58175518 4.50401298 0 0 Z " fill="#EBF1F5" transform="translate(1154,201)"/>
<path d="M0 0 C3.81578073 2.23869394 6.39036917 4.83374971 8.4375 8.75 C9.98998851 17.71993363 9.61138184 26.81880579 4.265625 34.48828125 C0.34417309 39.1317059 -3.45309682 42.49845543 -9 45 C-9.99 45 -10.98 45 -12 45 C-12 43.68 -12 42.36 -12 41 C-10.390625 39.61328125 -10.390625 39.61328125 -8.25 38.3125 C-2.62174776 34.38766569 -0.84024101 29.43098413 0.75 22.9375 C0.8325 22.298125 0.915 21.65875 1 21 C0.34 21.33 -0.32 21.66 -1 22 C-5.27134769 22.4835488 -7.29946115 22.48733137 -10.875 20 C-13.49893878 16.29561585 -14.3099624 13.51659491 -14 9 C-11.4095928 1.77412729 -7.78126181 -1.18697214 0 0 Z " fill="#44A451" transform="translate(1345,127)"/>
<path d="M0 0 C-0.33 3.3 -0.66 6.6 -1 10 C-0.278125 9.175 0.44375 8.35 1.1875 7.5 C4 5 4 5 6.8125 4.6875 C7.534375 4.790625 8.25625 4.89375 9 5 C9.66 6.65 10.32 8.3 11 10 C14.62233566 7.51408337 17.60820982 5.45055871 20.5 2.125 C23 0 23 0 26.75 0.125 C30 1 30 1 31 2 C31.04092937 4.33297433 31.04241723 6.66705225 31 9 C29.02 9.99 29.02 9.99 27 11 C27 9.68 27 8.36 27 7 C25.07690578 7.03955898 25.07690578 7.03955898 23 8 C21.21620585 10.98352894 21.21620585 10.98352894 20 14 C21.32 14 22.64 14 24 14 C24 14.99 24 15.98 24 17 C21.03 17.495 21.03 17.495 18 18 C17.01 16.02 16.02 14.04 15 12 C14.13375 12.7734375 14.13375 12.7734375 13.25 13.5625 C11 15 11 15 8.875 14.875 C7 14 7 14 5 11 C2.55519921 11.18828772 2.55519921 11.18828772 0 12 C-1.18330183 13.86644906 -1.18330183 13.86644906 -2 16 C-3.625 17.75 -3.625 17.75 -5 19 C-5.99 18.67 -6.98 18.34 -8 18 C-7.67 15.03 -7.34 12.06 -7 9 C-8.051875 10.010625 -9.10375 11.02125 -10.1875 12.0625 C-13.59215729 15.01735501 -13.59215729 15.01735501 -16.9375 14.875 C-17.618125 14.58625 -18.29875 14.2975 -19 14 C-19 13.34 -19 12.68 -19 12 C-19.598125 12.495 -20.19625 12.99 -20.8125 13.5 C-23 15 -23 15 -26 15 C-26 13.35 -26 11.7 -26 10 C-25.34 10.66 -24.68 11.32 -24 12 C-22.68 9.69 -21.36 7.38 -20 5 C-18.68 5.33 -17.36 5.66 -16 6 C-16 7.32 -16 8.64 -16 10 C-11.95847079 8.66221158 -9.73367306 7.00272465 -6.875 3.875 C-3.33096085 0 -3.33096085 0 0 0 Z " fill="#E7EEF4" transform="translate(1257,220)"/>
<path d="M0 0 C2.99184025 1.5639165 4.52883486 2.89062026 5.859375 6.0234375 C6.95755421 9.94741933 7.36349657 13.02290173 5.875 16.875 C3.06976744 21.5503876 3.06976744 21.5503876 0 23 C-4.24649943 23.54046356 -6.25823192 23.48376179 -9.875 21.125 C-13.03371908 17.96628092 -13.20006861 16.06048933 -13.3125 11.6875 C-13.28221092 7.83573929 -13.15946695 6.27494302 -11.1875 2.875 C-7.65711371 -0.15104539 -4.52493754 -0.45249375 0 0 Z " fill="#44A451" transform="translate(1317,127)"/>
<path d="M0 0 C1.32 0 2.64 0 4 0 C4.70548578 7.93671503 1.86150202 15.1497574 -2.25 21.875 C-3.99998886 24.9999801 -4.42395214 26.50239486 -4 30 C-0.28263359 30.34900558 -0.28263359 30.34900558 2.8125 28.5 C3.204375 28.005 3.59625 27.51 4 27 C6 28 6 28 7 29 C7.04063832 30.66617115 7.042721 32.33388095 7 34 C6.34 33.01 5.68 32.02 5 31 C4.505 31.66 4.01 32.32 3.5 33 C-0.10340212 35.8827217 -2.46985042 35.30200997 -7 35 C-7.33 33.35 -7.66 31.7 -8 30 C-8.70125 30.639375 -9.4025 31.27875 -10.125 31.9375 C-13.22841233 34.16386102 -15.24620139 34.65080943 -19 35 C-19 34.34 -19 33.68 -19 33 C-20.32 33 -21.64 33 -23 33 C-22.63287028 30.28324005 -22.27255401 28.38936287 -20.6875 26.125 C-19 25 -19 25 -16.8125 25.3125 C-16.214375 25.539375 -15.61625 25.76625 -15 26 C-15 26.99 -15 27.98 -15 29 C-12.24358584 28.50243908 -12.24358584 28.50243908 -10 27 C-9.55928846 24.85897568 -9.14794827 22.7118834 -8.75 20.5625 C-7.14128269 12.79627852 -4.3776259 6.56643886 0 0 Z " fill="#EBF1F6" transform="translate(1300,201)"/>
<path d="M0 0 C2.96858157 2.20740681 3.82865791 3.48597373 5 7 C5.37066773 12.00401435 5.09881835 14.98301324 2 19 C-1.75047482 21.50031654 -3.55856266 21.53603554 -8 21 C-11.59207127 18.50116781 -13.23329467 16.31200506 -14 12.0625 C-14.27490922 8.02286171 -13.26364854 5.39547281 -11 2 C-7.32807887 -0.44794742 -4.26893972 -0.71435887 0 0 Z " fill="#44A451" transform="translate(730,56)"/>
<path d="M0 0 C2.96858157 2.20740681 3.82865791 3.48597373 5 7 C5.37066773 12.00401435 5.09881835 14.98301324 2 19 C-1.75047482 21.50031654 -3.55856266 21.53603554 -8 21 C-11.59207127 18.50116781 -13.23329467 16.31200506 -14 12.0625 C-14.27490922 8.02286171 -13.26364854 5.39547281 -11 2 C-7.32807887 -0.44794742 -4.26893972 -0.71435887 0 0 Z " fill="#44A451" transform="translate(409,56)"/>
<path d="M0 0 C4.65562977 0.03367544 8.18456498 1.42731356 12.4375 3.25 C13.5503641 6.98604375 14.051709 9.02158201 12.2734375 12.578125 C10.73322632 14.86947366 9.13039204 17.06939383 7.4375 19.25 C6.91671875 19.99894531 6.3959375 20.74789062 5.859375 21.51953125 C5.39015625 22.09058594 4.9209375 22.66164062 4.4375 23.25 C3.7775 23.25 3.1175 23.25 2.4375 23.25 C2.19 23.971875 1.9425 24.69375 1.6875 25.4375 C0.32766326 28.49713266 -1.39167754 30.7173738 -3.5625 33.25 C1.4677076 32.72462276 6.45635239 32.14405214 11.4375 31.25 C11.4375 32.24 11.4375 33.23 11.4375 34.25 C-2.1957574 38.84225513 -2.1957574 38.84225513 -8.5625 38.25 C-9.44921875 36.2421875 -9.44921875 36.2421875 -9.5625 33.25 C-7.83440896 30.34806671 -5.60837997 27.89845995 -3.375 25.375 C0.79446489 20.56442874 4.68886901 16.03135821 7.4375 10.25 C7.1075 9.26 6.7775 8.27 6.4375 7.25 C2.4775 6.92 -1.4825 6.59 -5.5625 6.25 C-4.3738879 0.3069395 -4.3738879 0.3069395 0 0 Z " fill="#F2F5F8" transform="translate(972.5625,199.75)"/>
<path d="M0 0 C1.32 0.33 2.64 0.66 4 1 C3.42093478 4.40757612 2.32557768 5.92461152 -0.125 8.3125 C-2.83682085 11.29550293 -3.01198353 11.62251872 -2.875 15.9375 C-2.58625 16.948125 -2.2975 17.95875 -2 19 C-1.34 19 -0.68 19 0 19 C0.66 18.01 1.32 17.02 2 16 C2.66 16 3.32 16 4 16 C3.4821469 18.0714124 2.96165693 20.13420076 2.375 22.1875 C2.25125 22.785625 2.1275 23.38375 2 24 C2.33 24.33 2.66 24.66 3 25 C3.91757199 31.76709341 3.91757199 31.76709341 1.61328125 34.86328125 C-1.17090488 37.39381051 -3.11317049 38.86504768 -6.875 39.4375 C-9 39 -9 39 -10 38 C-10.55173383 32.26196813 -9.54230508 30.34218042 -6 26 C-6.08333333 23.41666667 -6.08333333 23.41666667 -7 21 C-7.185625 20.236875 -7.37125 19.47375 -7.5625 18.6875 C-7.706875 18.130625 -7.85125 17.57375 -8 17 C-9.65 16.67 -11.3 16.34 -13 16 C-12.01 15.67 -11.02 15.34 -10 15 C-8.93283296 13.20067421 -8.93283296 13.20067421 -8 11 C-5.73550137 6.90233582 -3.04183155 3.53510154 0 0 Z " fill="#EDF3F7" transform="translate(1106,215)"/>
<path d="M0 0 C0.99 0.33 1.98 0.66 3 1 C2.62773018 9.37607087 -1.6661635 16.69450868 -7.3125 22.75 C-10.38080324 26.05864031 -10.81785903 28.53754622 -11 33 C-10.34 33 -9.68 33 -9 33 C-9.99 35.475 -9.99 35.475 -11 38 C-12.32 38 -13.64 38 -15 38 C-15.33 36.02 -15.66 34.04 -16 32 C-16.66 32.66 -17.32 33.32 -18 34 C-18.99 34 -19.98 34 -21 34 C-20 31 -20 31 -17.625 29 C-14.93065783 25.9207518 -14.499582 24.71222852 -13.625 20.875 C-11.64497379 12.56113993 -7.24838342 4.77472876 0 0 Z " fill="#F0F4F7" transform="translate(1243,201)"/>
<path d="M0 0 C6.72 0.72 6.72 0.72 8 2 C8.14115161 4.67058851 8.04247107 7.32432238 8 10 C8.66386719 9.26652344 9.32773437 8.53304687 10.01171875 7.77734375 C10.89472656 6.84019531 11.77773438 5.90304688 12.6875 4.9375 C13.55761719 3.99777344 14.42773438 3.05804688 15.32421875 2.08984375 C18 0 18 0 20.83203125 0.19140625 C21.90517578 0.59166016 21.90517578 0.59166016 23 1 C22.41734375 1.09539062 21.8346875 1.19078125 21.234375 1.2890625 C18.517704 2.15345782 17.24403033 3.35540518 15.25 5.375 C14.32960938 6.28378906 14.32960938 6.28378906 13.390625 7.2109375 C11.69314905 9.01710863 11.69314905 9.01710863 12 12 C11.34 11.67 10.68 11.34 10 11 C9.67 11.99 9.34 12.98 9 14 C6.47796594 15.37886909 3.74038074 16.15043017 1 17 C0.071875 17.28875 -0.85625 17.5775 -1.8125 17.875 C-4 18 -4 18 -5.75 16.75 C-7 15 -7 15 -8 12 C-9.98 12.99 -9.98 12.99 -12 14 C-12.33 13.34 -12.66 12.68 -13 12 C-9.7498074 8.61438271 -6.25061222 5.55850818 -2.70703125 2.48828125 C-1.7832102 1.68284459 -0.86665262 0.86665262 0 0 Z " fill="#ECF2F6" transform="translate(996,220)"/>
<path d="M0 0 C0.99 0 1.98 0 3 0 C2.7834375 0.93972656 2.7834375 0.93972656 2.5625 1.8984375 C2.376875 2.71570313 2.19125 3.53296875 2 4.375 C1.814375 5.18710938 1.62875 5.99921875 1.4375 6.8359375 C0.93394761 8.95874951 0.93394761 8.95874951 1 11 C2.32 10.34 3.64 9.68 5 9 C3.92048499 11.74785638 3.02917374 12.97779313 0.64453125 14.79296875 C-2.20149356 17.16815932 -3.73508645 19.39106972 -5.625 22.5625 C-9.60039974 29.19116427 -9.60039974 29.19116427 -12 31 C-13.32 31 -14.64 31 -16 31 C-14.21001732 25.81748471 -11.13612084 22.08624403 -7.77734375 17.81640625 C-5.86232083 14.78183147 -5.33907351 12.54201407 -5 9 C-5.58007812 9.66708984 -5.58007812 9.66708984 -6.171875 10.34765625 C-6.69265625 10.91355469 -7.2134375 11.47945312 -7.75 12.0625 C-8.26046875 12.63097656 -8.7709375 13.19945312 -9.296875 13.78515625 C-11 15 -11 15 -13.203125 14.68359375 C-14.09257813 14.34521484 -14.09257813 14.34521484 -15 14 C-15 12.35 -15 10.7 -15 9 C-15.66 8.67 -16.32 8.34 -17 8 C-13.38671875 3.3125 -13.38671875 3.3125 -12 2 C-11.01 2 -10.02 2 -9 2 C-9.33 4.31 -9.66 6.62 -10 9 C-8.70756532 7.8758824 -7.41607925 6.75067408 -6.125 5.625 C-5.40570312 4.99851563 -4.68640625 4.37203125 -3.9453125 3.7265625 C-2.5923402 2.52573166 -1.2791655 1.2791655 0 0 Z " fill="#F0F4F8" transform="translate(1354,222)"/>
<path d="M0 0 C0 1.32 0 2.64 0 4 C-1.98 4 -3.96 4 -6 4 C-5.79375 4.9075 -5.5875 5.815 -5.375 6.75 C-4.72564766 11.2413537 -5.62478921 15.28941538 -6.453125 19.7109375 C-7.35046084 25.10777161 -7.66557967 30.54366825 -8 36 C-9.485 36.495 -9.485 36.495 -11 37 C-14.27472982 27.17581055 -11.3370043 15.07528243 -10 5 C-12.64 5.33 -15.28 5.66 -18 6 C-17.67 4.35 -17.34 2.7 -17 1 C-11.87717638 -1.10167123 -5.19603792 -2.59801896 0 0 Z " fill="#E8EFF4" transform="translate(1199,201)"/>
<path d="M0 0 C1.32 0.33 2.64 0.66 4 1 C3.67 3.97 3.34 6.94 3 10 C3.721875 9.154375 4.44375 8.30875 5.1875 7.4375 C8 5 8 5 10.8125 5.1875 C11.8953125 5.5896875 11.8953125 5.5896875 13 6 C13.33 7.65 13.66 9.3 14 11 C14.99 11 15.98 11 17 11 C16.34 12.32 15.68 13.64 15 15 C13.125 14.6875 13.125 14.6875 11 14 C10.34 13.01 9.68 12.02 9 11 C5.37679679 11.56662429 3.82534347 12.89087001 1.375 15.5625 C0.28681232 16.74334995 -0.83193202 17.89810336 -2 19 C-2.66 19 -3.32 19 -4 19 C-3.85892253 17.54119891 -3.71197585 16.08296449 -3.5625 14.625 C-3.48128906 13.81289062 -3.40007812 13.00078125 -3.31640625 12.1640625 C-3 10 -3 10 -2 8 C-2.598125 8.515625 -3.19625 9.03125 -3.8125 9.5625 C-4.534375 10.036875 -5.25625 10.51125 -6 11 C-6.99 10.67 -7.98 10.34 -9 10 C-6.03 6.7 -3.06 3.4 0 0 Z " fill="#EDF2F6" transform="translate(1079,220)"/>
<path d="M0 0 C3.0625 0.5625 3.0625 0.5625 4.0625 1.5625 C4.10342937 3.89547433 4.10491723 6.22955225 4.0625 8.5625 C2.0825 9.5525 2.0825 9.5525 0.0625 10.5625 C0.0625 9.2425 0.0625 7.9225 0.0625 6.5625 C-1.86059422 6.60205898 -1.86059422 6.60205898 -3.9375 7.5625 C-5.72129415 10.54602894 -5.72129415 10.54602894 -6.9375 13.5625 C-5.6175 13.5625 -4.2975 13.5625 -2.9375 13.5625 C-2.9375 14.5525 -2.9375 15.5425 -2.9375 16.5625 C-4.9175 16.8925 -6.8975 17.2225 -8.9375 17.5625 C-10.9375 14.5625 -10.9375 14.5625 -10.5625 11.875 C-10.35625 11.111875 -10.15 10.34875 -9.9375 9.5625 C-10.5975 9.2325 -11.2575 8.9025 -11.9375 8.5625 C-5.21994275 0.74570611 -5.21994275 0.74570611 0 0 Z " fill="#F1F5F8" transform="translate(1283.9375,220.4375)"/>
<path d="M0 0 C2.625 0.5625 2.625 0.5625 4.625 1.5625 C4.625 3.5425 4.625 5.5225 4.625 7.5625 C2.645 8.5525 2.645 8.5525 0.625 9.5625 C0.625 8.2425 0.625 6.9225 0.625 5.5625 C-2.54217283 7.14608642 -4.10768318 8.01513699 -5.6875 11.25 C-5.914375 12.013125 -6.14125 12.77625 -6.375 13.5625 C-5.385 13.8925 -4.395 14.2225 -3.375 14.5625 C-3.705 15.5525 -4.035 16.5425 -4.375 17.5625 C-6.025 17.2325 -7.675 16.9025 -9.375 16.5625 C-10.5 11.8125 -10.5 11.8125 -9.375 9.5625 C-10.035 9.2325 -10.695 8.9025 -11.375 8.5625 C-4.5049041 0.75081735 -4.5049041 0.75081735 0 0 Z " fill="#F1F5F8" transform="translate(1018.375,220.4375)"/>
<path d="M0 0 C0.66 0.33 1.32 0.66 2 1 C0.83512675 2.40470009 -0.33174157 3.80778661 -1.5078125 5.203125 C-2.5232254 6.42587352 -3.51745347 7.66645839 -4.4921875 8.921875 C-8.38149825 13.79862734 -8.38149825 13.79862734 -11.6875 14.875 C-12.450625 14.91625 -13.21375 14.9575 -14 15 C-14.99 15.33 -15.98 15.66 -17 16 C-17 15.34 -17 14.68 -17 14 C-17.66 13.67 -18.32 13.34 -19 13 C-18.62952882 10.25851328 -18.31412056 8.41406801 -16.625 6.1875 C-15 5 -15 5 -12 5 C-11.67 5.99 -11.34 6.98 -11 8 C-10.01 8.33 -9.02 8.66 -8 9 C-7.50628906 8.43410156 -7.01257813 7.86820313 -6.50390625 7.28515625 C-5.86324219 6.55167969 -5.22257812 5.81820312 -4.5625 5.0625 C-3.92441406 4.33160156 -3.28632812 3.60070312 -2.62890625 2.84765625 C-1.77458541 1.87860647 -0.91348825 0.91348825 0 0 Z " fill="#EDF2F7" transform="translate(1031,221)"/>
<path d="M0 0 C1.65 0.33 3.3 0.66 5 1 C5.33 2.65 5.66 4.3 6 6 C6.99 6 7.98 6 9 6 C8.34 7.32 7.68 8.64 7 10 C5.125 9.6875 5.125 9.6875 3 9 C2.34 8.01 1.68 7.02 1 6 C-1.58380177 5.74969023 -1.58380177 5.74969023 -4 6 C-2.68 4.02 -1.36 2.04 0 0 Z " fill="#F5F8FA" transform="translate(1087,225)"/>
<path d="M0 0 C1.32 0.66 2.64 1.32 4 2 C2.68 4.97 1.36 7.94 0 11 C-0.99 10.67 -1.98 10.34 -3 10 C-3.33 10.66 -3.66 11.32 -4 12 C-3.71640113 10.5608866 -3.42278601 9.12374482 -3.125 7.6875 C-2.96257812 6.88699219 -2.80015625 6.08648437 -2.6328125 5.26171875 C-2 3 -2 3 0 0 Z " fill="#DCE7EF" transform="translate(1299,210)"/>
<path d="M0 0 C0.598125 0.226875 1.19625 0.45375 1.8125 0.6875 C0.73848892 3.60267292 0.03439824 5.46560176 -2.1875 7.6875 C-3.5075 7.6875 -4.8275 7.6875 -6.1875 7.6875 C-5.82037028 4.97074005 -5.46005401 3.07686287 -3.875 0.8125 C-2.1875 -0.3125 -2.1875 -0.3125 0 0 Z " fill="#266A9F" transform="translate(1283.1875,226.3125)"/>
<path d="M0 0 C0.66 0.33 1.32 0.66 2 1 C2.36363636 6.45454545 2.36363636 6.45454545 0.75 8.875 C-1 10 -1 10 -5 10 C-3.66511872 6.40608886 -2.03977277 3.24509304 0 0 Z " fill="#1F659C" transform="translate(1103,241)"/>
<path d="M0 0 C0.99 0.33 1.98 0.66 3 1 C2.62952882 3.74148672 2.31412056 5.58593199 0.625 7.8125 C-1 9 -1 9 -4 9 C-4 7.35 -4 5.7 -4 4 C-3.01 3.67 -2.02 3.34 -1 3 C-0.67 2.01 -0.34 1.02 0 0 Z " fill="#22679D" transform="translate(1315,225)"/>
<path d="M0 0 C0.99 0.33 1.98 0.66 3 1 C2.62952882 3.74148672 2.31412056 5.58593199 0.625 7.8125 C-1 9 -1 9 -4 9 C-3.46930939 5.17902761 -2.50298434 2.93828597 0 0 Z " fill="#1E659B" transform="translate(1329,242)"/>
<path d="M0 0 C-0.75 5.75 -0.75 5.75 -3 8 C-4.32 8 -5.64 8 -7 8 C-6.62952882 5.25851328 -6.31412056 3.41406801 -4.625 1.1875 C-3 0 -3 0 0 0 Z " fill="#1F659C" transform="translate(1019,226)"/>
<path d="M0 0 C1.32 0 2.64 0 4 0 C3.62952882 2.74148672 3.31412056 4.58593199 1.625 6.8125 C0 8 0 8 -3 8 C-3 6.35 -3 4.7 -3 3 C-2.01 2.67 -1.02 2.34 0 2 C0 1.34 0 0.68 0 0 Z " fill="#1D649B" transform="translate(997,226)"/>
<path d="M0 0 C0.33 0.66 0.66 1.32 1 2 C-0.109375 4.53125 -0.109375 4.53125 -1.75 7.5 C-2.28109375 8.4796875 -2.8121875 9.459375 -3.359375 10.46875 C-5 13 -5 13 -8 15 C-6.70970987 8.80660737 -4.0035833 4.84710557 0 0 Z " fill="#3876A7" transform="translate(1153,206)"/>
<path d="M0 0 C0.33 0.66 0.66 1.32 1 2 C-0.109375 4.53125 -0.109375 4.53125 -1.75 7.5 C-2.28109375 8.4796875 -2.8121875 9.459375 -3.359375 10.46875 C-5 13 -5 13 -8 15 C-6.70970987 8.80660737 -4.0035833 4.84710557 0 0 Z " fill="#3474A5" transform="translate(1242,206)"/>
<path d="M0 0 C0.99 0.33 1.98 0.66 3 1 C1.02 4.63 -0.96 8.26 -3 12 C-3.99 12 -4.98 12 -6 12 C-4.02 8.04 -2.04 4.08 0 0 Z " fill="#E5EDF3" transform="translate(1242,208)"/>
<path d="M0 0 C-0.75 2.9375 -0.75 2.9375 -2 6 C-4.125 6.875 -4.125 6.875 -6 7 C-6.6875 5.1875 -6.6875 5.1875 -7 3 C-4.8243318 -0.20624788 -4.07796486 0 0 0 Z " fill="#E1EAF1" transform="translate(1068,210)"/>
<path d="M0 0 C0.99 0.33 1.98 0.66 3 1 C2.54109375 1.38671875 2.0821875 1.7734375 1.609375 2.171875 C-1.725081 5.00195951 -4.96501303 7.84361355 -8 11 C-8.99 10.67 -9.98 10.34 -11 10 C-10 8 -10 8 -8.3125 7.25 C-4.91092027 5.41130826 -2.66865945 2.78996215 0 0 Z " fill="#CEDDE9" transform="translate(1354,222)"/>
<path d="M0 0 C2 1 2 1 3 2 C3.04063832 3.66617115 3.042721 5.33388095 3 7 C2.34 6.01 1.68 5.02 1 4 C-0.98 4.99 -0.98 4.99 -3 6 C-3.33 5.34 -3.66 4.68 -4 4 C-2.68 2.68 -1.36 1.36 0 0 Z " fill="#D3E1EB" transform="translate(987,228)"/>
<path d="M0 0 C0.99 0.33 1.98 0.66 3 1 C1.68 3.31 0.36 5.62 -1 8 C-1.33 8 -1.66 8 -2 8 C-2.125 5.125 -2.125 5.125 -2 2 C-1.34 1.34 -0.68 0.68 0 0 Z " fill="#1B629A" transform="translate(1234,225)"/>
<path d="M0 0 C1 3 1 3 0.22265625 5.04296875 C-0.16019531 5.75066406 -0.54304688 6.45835937 -0.9375 7.1875 C-1.31777344 7.90292969 -1.69804688 8.61835938 -2.08984375 9.35546875 C-2.54037109 10.16951172 -2.54037109 10.16951172 -3 11 C-4.3968009 6.80959731 -2.86445675 4.87233324 -1 1 C-0.67 0.67 -0.34 0.34 0 0 Z " fill="#3E7AA9" transform="translate(1299,211)"/>
<path d="M0 0 C0.33 0.99 0.66 1.98 1 3 C-0.375 5.6875 -0.375 5.6875 -2 8 C-2.33 8 -2.66 8 -3 8 C-3.1875 5.125 -3.1875 5.125 -3 2 C-2.01 1.34 -1.02 0.68 0 0 Z " fill="#3C79A8" transform="translate(1145,227)"/>
</svg>
